G04 Layer_Color=32896*
%FSLAX44Y44*%
%MOMM*%
G71*
G01*
G75*
%ADD38C,0.2000*%
%ADD41C,0.2540*%
%ADD91C,0.1000*%
%ADD93C,0.1800*%
D38*
X611600Y428825D02*
G03*
X611600Y435175I0J3175D01*
G01*
Y446732D01*
Y417268D02*
Y428825D01*
Y417268D02*
X662400D01*
Y446732D01*
X611600D02*
X662400D01*
X507003Y689582D02*
X515000D01*
Y683584D01*
X511001D01*
X515000D01*
Y677586D01*
X503004D02*
X499005D01*
X501004D01*
Y689582D01*
X503004Y687583D01*
X485010D02*
X487009Y689582D01*
X491008D01*
X493007Y687583D01*
Y679585D01*
X491008Y677586D01*
X487009D01*
X485010Y679585D01*
X473014Y677586D02*
X481011D01*
X473014Y685583D01*
Y687583D01*
X475013Y689582D01*
X479012D01*
X481011Y687583D01*
X469015D02*
X467015Y689582D01*
X463017D01*
X461017Y687583D01*
Y679585D01*
X463017Y677586D01*
X467015D01*
X469015Y679585D01*
Y687583D01*
X457019D02*
X455019Y689582D01*
X451021D01*
X449021Y687583D01*
Y679585D01*
X451021Y677586D01*
X455019D01*
X457019Y679585D01*
Y687583D01*
X445023Y677586D02*
X439025D01*
X437025Y679585D01*
X439025Y681585D01*
X443023D01*
X445023Y683584D01*
X443023Y685583D01*
X437025D01*
X413033Y689582D02*
X421030D01*
Y677586D01*
X413033D01*
X421030Y683584D02*
X417032D01*
X409034Y677586D02*
Y685583D01*
X407035D01*
X405036Y683584D01*
Y677586D01*
Y683584D01*
X403036Y685583D01*
X401037Y683584D01*
Y677586D01*
X397038Y689582D02*
Y677586D01*
X391040D01*
X389041Y679585D01*
Y681585D01*
Y683584D01*
X391040Y685583D01*
X397038D01*
X379044Y677586D02*
X383043D01*
X385042Y679585D01*
Y683584D01*
X383043Y685583D01*
X379044D01*
X377045Y683584D01*
Y681585D01*
X385042D01*
X365048Y689582D02*
Y677586D01*
X371047D01*
X373046Y679585D01*
Y683584D01*
X371047Y685583D01*
X365048D01*
X353052Y689582D02*
Y677586D01*
X359050D01*
X361050Y679585D01*
Y683584D01*
X359050Y685583D01*
X353052D01*
X343056Y677586D02*
X347054D01*
X349054Y679585D01*
Y683584D01*
X347054Y685583D01*
X343056D01*
X341056Y683584D01*
Y681585D01*
X349054D01*
X329060Y689582D02*
Y677586D01*
X335058D01*
X337058Y679585D01*
Y683584D01*
X335058Y685583D01*
X329060D01*
X313065Y689582D02*
Y677586D01*
X305068D01*
X301069D02*
X297071D01*
X299070D01*
Y685583D01*
X301069D01*
X291073Y677586D02*
Y685583D01*
X285074D01*
X283075Y683584D01*
Y677586D01*
X279076Y685583D02*
Y679585D01*
X277077Y677586D01*
X271079D01*
Y685583D01*
X267080D02*
X259083Y677586D01*
X263082Y681585D01*
X259083Y685583D01*
X267080Y677586D01*
X235091Y689582D02*
X243088D01*
Y677586D01*
X235091D01*
X243088Y683584D02*
X239089D01*
X231092Y689582D02*
Y681585D01*
X227093Y677586D01*
X223095Y681585D01*
Y689582D01*
X219096D02*
Y677586D01*
X213098D01*
X211098Y679585D01*
Y681585D01*
X213098Y683584D01*
X219096D01*
X213098D01*
X211098Y685583D01*
Y687583D01*
X213098Y689582D01*
X219096D01*
X507003Y658391D02*
X515000D01*
X507003Y666388D01*
Y668388D01*
X509002Y670387D01*
X513001D01*
X515000Y668388D01*
X503004D02*
X501004Y670387D01*
X497006D01*
X495006Y668388D01*
Y660390D01*
X497006Y658391D01*
X501004D01*
X503004Y660390D01*
Y668388D01*
X483010Y658391D02*
X491008D01*
X483010Y666388D01*
Y668388D01*
X485010Y670387D01*
X489008D01*
X491008Y668388D01*
X479012D02*
X477012Y670387D01*
X473014D01*
X471014Y668388D01*
Y666388D01*
X473014Y664389D01*
X475013D01*
X473014D01*
X471014Y662389D01*
Y660390D01*
X473014Y658391D01*
X477012D01*
X479012Y660390D01*
X467016Y658391D02*
X459018Y666388D01*
X455019Y668388D02*
X453020Y670387D01*
X449021D01*
X447022Y668388D01*
Y660390D01*
X449021Y658391D01*
X453020D01*
X455019Y660390D01*
Y668388D01*
X435026Y670387D02*
X443023D01*
Y664389D01*
X439025Y666388D01*
X437025D01*
X435026Y664389D01*
Y660390D01*
X437025Y658391D01*
X441024D01*
X443023Y660390D01*
X431027Y658391D02*
X423030Y666388D01*
X419031Y668388D02*
X417032Y670387D01*
X413033D01*
X411034Y668388D01*
Y660390D01*
X413033Y658391D01*
X417032D01*
X419031Y660390D01*
Y668388D01*
X407035D02*
X405036Y670387D01*
X401037D01*
X399038Y668388D01*
Y666388D01*
X401037Y664389D01*
X399038Y662389D01*
Y660390D01*
X401037Y658391D01*
X405036D01*
X407035Y660390D01*
Y662389D01*
X405036Y664389D01*
X407035Y666388D01*
Y668388D01*
X405036Y664389D02*
X401037D01*
X515000Y651191D02*
Y649192D01*
X511001Y645193D01*
X507003Y649192D01*
Y651191D01*
X511001Y645193D02*
Y639195D01*
X503004Y647193D02*
Y641195D01*
X501004Y639195D01*
X495006D01*
Y647193D01*
X491008Y645193D02*
X483010D01*
X479012Y639195D02*
Y647193D01*
X475013Y651191D01*
X471014Y647193D01*
Y639195D01*
Y645193D01*
X479012D01*
X467016Y639195D02*
Y647193D01*
X461017D01*
X459018Y645193D01*
Y639195D01*
X435026Y649192D02*
X437025Y651191D01*
X441024D01*
X443023Y649192D01*
Y641195D01*
X441024Y639195D01*
X437025D01*
X435026Y641195D01*
X431027Y651191D02*
Y639195D01*
Y645193D01*
X429028Y647193D01*
X425029D01*
X423030Y645193D01*
Y639195D01*
X413033D02*
X417032D01*
X419031Y641195D01*
Y645193D01*
X417032Y647193D01*
X413033D01*
X411034Y645193D01*
Y643194D01*
X419031D01*
X407035Y639195D02*
Y647193D01*
X401037D01*
X399038Y645193D01*
Y639195D01*
X515000Y631996D02*
Y623999D01*
X511001Y620000D01*
X507003Y623999D01*
Y631996D01*
X497006Y620000D02*
X501004D01*
X503004Y621999D01*
Y625998D01*
X501004Y627997D01*
X497006D01*
X495006Y625998D01*
Y623999D01*
X503004D01*
X491008Y627997D02*
Y620000D01*
Y623999D01*
X489008Y625998D01*
X487009Y627997D01*
X485010D01*
X467016Y631996D02*
Y620000D01*
X461017D01*
X459018Y621999D01*
Y623999D01*
X461017Y625998D01*
X467016D01*
X461017D01*
X459018Y627997D01*
Y629997D01*
X461017Y631996D01*
X467016D01*
D41*
X789222Y565432D02*
G03*
X789222Y565432I-916J0D01*
G01*
D91*
X741100Y605000D02*
X744650D01*
X741100Y597000D02*
X744650D01*
X741100Y585000D02*
X744650D01*
X741100Y577000D02*
X744650D01*
X530000Y493100D02*
Y496650D01*
X538000Y493100D02*
Y496650D01*
X516000Y493100D02*
Y496650D01*
X524000Y493100D02*
Y496650D01*
X498000Y493100D02*
Y496650D01*
X506000Y493100D02*
Y496650D01*
X485000Y493100D02*
Y496650D01*
X493000Y493100D02*
Y496650D01*
X471000Y493100D02*
Y496650D01*
X479000Y493100D02*
Y496650D01*
X731100Y506000D02*
X734650D01*
X731100Y498000D02*
X734650D01*
X723000Y513000D02*
Y515600D01*
Y522506D02*
Y528094D01*
Y535206D02*
Y540794D01*
Y547906D02*
Y553494D01*
Y560300D02*
Y563000D01*
X783000Y513000D02*
Y515700D01*
Y522506D02*
Y528094D01*
Y535206D02*
Y540794D01*
Y547906D02*
Y553494D01*
Y560400D02*
Y563000D01*
X723000Y513000D02*
X783000D01*
X723000Y563000D02*
X783000D01*
X730676Y649576D02*
Y722474D01*
X683500Y635000D02*
X716706D01*
X583356Y648814D02*
Y722474D01*
D93*
X658502Y546002D02*
X657003Y547501D01*
Y550500D01*
X658502Y552000D01*
X660002D01*
X661501Y550500D01*
Y547501D01*
X663001Y546002D01*
X664501D01*
X666000Y547501D01*
Y550500D01*
X664501Y552000D01*
X658502Y537005D02*
X657003Y538504D01*
Y541503D01*
X658502Y543003D01*
X664501D01*
X666000Y541503D01*
Y538504D01*
X664501Y537005D01*
X657003Y534006D02*
X666000D01*
Y528008D01*
X657003Y525009D02*
X666000D01*
X663001D01*
X657003Y519011D01*
X661501Y523509D01*
X666000Y519011D01*
X672502Y546002D02*
X671003Y547501D01*
Y550500D01*
X672502Y552000D01*
X678501D01*
X680000Y550500D01*
Y547501D01*
X678501Y546002D01*
X672502Y537005D02*
X671003Y538504D01*
Y541503D01*
X672502Y543003D01*
X674002D01*
X675501Y541503D01*
Y538504D01*
X677001Y537005D01*
X678501D01*
X680000Y538504D01*
Y541503D01*
X678501Y543003D01*
X680000Y534006D02*
X674002Y528008D01*
X672502Y519011D02*
X671003Y520510D01*
Y523509D01*
X672502Y525009D01*
X674002D01*
X675501Y523509D01*
Y520510D01*
X677001Y519011D01*
X678501D01*
X680000Y520510D01*
Y523509D01*
X678501Y525009D01*
X672502Y510014D02*
X671003Y511513D01*
Y514512D01*
X672502Y516012D01*
X674002D01*
X675501Y514512D01*
Y511513D01*
X677001Y510014D01*
X678501D01*
X680000Y511513D01*
Y514512D01*
X678501Y516012D01*
X708000Y552000D02*
X699003D01*
X702002Y549001D01*
X699003Y546002D01*
X708000D01*
X699003Y538504D02*
Y541503D01*
X700502Y543003D01*
X706500D01*
X708000Y541503D01*
Y538504D01*
X706500Y537005D01*
X700502D01*
X699003Y538504D01*
X700502Y528008D02*
X699003Y529507D01*
Y532506D01*
X700502Y534006D01*
X702002D01*
X703502Y532506D01*
Y529507D01*
X705001Y528008D01*
X706500D01*
X708000Y529507D01*
Y532506D01*
X706500Y534006D01*
X699003Y525009D02*
Y522010D01*
Y523509D01*
X708000D01*
Y525009D01*
Y522010D01*
X694000Y552000D02*
X685003D01*
X688002Y549001D01*
X685003Y546002D01*
X694000D01*
X685003Y543003D02*
Y540004D01*
Y541503D01*
X694000D01*
Y543003D01*
Y540004D01*
X686502Y529507D02*
X685003Y531007D01*
Y534006D01*
X686502Y535505D01*
X688002D01*
X689501Y534006D01*
Y531007D01*
X691001Y529507D01*
X692501D01*
X694000Y531007D01*
Y534006D01*
X692501Y535505D01*
X685003Y522010D02*
Y525009D01*
X686502Y526508D01*
X692501D01*
X694000Y525009D01*
Y522010D01*
X692501Y520510D01*
X686502D01*
X685003Y522010D01*
M02*
