G04 Layer_Physical_Order=1*
G04 Layer_Color=255*
%FSLAX44Y44*%
%MOMM*%
G71*
G01*
G75*
%ADD10R,1.6000X0.9000*%
%ADD11R,1.0000X1.0000*%
%ADD12R,0.3000X1.5500*%
%ADD13R,0.6000X0.5000*%
%ADD14R,1.2000X0.2000*%
%ADD15R,0.2000X1.2000*%
%ADD16R,2.9000X2.9000*%
%ADD17R,2.9000X2.9000*%
%ADD18R,0.4000X0.8000*%
%ADD19O,0.3000X0.2000*%
%ADD20C,0.8000*%
%ADD21R,1.0000X1.0000*%
%ADD22R,1.5000X1.2000*%
%ADD23R,1.1000X0.6000*%
%ADD24R,1.2200X0.6200*%
%ADD25R,0.6200X1.2200*%
%ADD26R,1.2500X2.0000*%
%ADD27O,0.2000X0.3000*%
%ADD28R,2.0000X0.2500*%
%ADD29R,2.0000X1.8000*%
%ADD30R,1.2000X1.6300*%
%ADD31R,0.2500X1.0000*%
%ADD32R,1.0000X0.2500*%
%ADD33R,0.9000X1.6000*%
%ADD34R,2.0000X1.5000*%
%ADD35R,2.0000X0.9000*%
%ADD36R,2.0000X0.8000*%
%ADD37R,2.0000X0.7000*%
%ADD38C,0.2000*%
%ADD39C,0.8000*%
%ADD40C,0.2610*%
%ADD41C,0.2540*%
%ADD42C,0.3000*%
%ADD43C,0.6000*%
%ADD44C,0.5000*%
%ADD45C,0.4000*%
%ADD46C,0.2500*%
%ADD47R,1.2270X1.0671*%
%ADD48R,1.0000X1.0000*%
%ADD49R,1.0671X1.2270*%
%ADD50R,6.7056X6.7056*%
%ADD51R,1.4000X0.8000*%
%ADD52R,1.6000X0.8000*%
%ADD53R,1.7000X0.9000*%
%ADD54R,1.8000X1.0000*%
%ADD55R,4.5000X1.8000*%
%ADD56R,1.0000X1.8000*%
%ADD57R,1.0000X1.4000*%
%ADD58R,1.8000X1.0000*%
%ADD59C,4.0000*%
%ADD60C,1.5000*%
%ADD61O,2.0000X1.5000*%
%ADD62O,1.5000X2.0000*%
%ADD63C,2.0000*%
%ADD64C,1.8000*%
%ADD65C,1.4000*%
%ADD66O,2.2000X1.0000*%
%ADD67O,2.5000X1.0000*%
%ADD68C,0.7000*%
%ADD69C,1.1000*%
%ADD70O,2.1000X1.2000*%
%ADD71C,0.4500*%
G36*
X313778Y389064D02*
Y380936D01*
X310730D01*
X307428Y385000D01*
X310731Y389065D01*
X313778Y389064D01*
D02*
G37*
G36*
X332000Y603000D02*
X327207Y597920D01*
X321873D01*
Y608080D01*
X327207D01*
X332000Y603000D01*
D02*
G37*
G36*
X696128Y377253D02*
X692064Y373951D01*
X687999Y377254D01*
X688000Y380301D01*
X696128D01*
Y377253D01*
D02*
G37*
G36*
X305650Y385000D02*
X309079Y380936D01*
X303237D01*
Y389064D01*
X309079D01*
X305650Y385000D01*
D02*
G37*
G36*
Y398000D02*
X309079Y393936D01*
X303237D01*
Y402064D01*
X309079D01*
X305650Y398000D01*
D02*
G37*
G36*
X313778Y402064D02*
Y393936D01*
X310730D01*
X307428Y398000D01*
X310731Y402065D01*
X313778Y402064D01*
D02*
G37*
G36*
X340923Y597920D02*
X330255D01*
X335017Y603000D01*
X330255Y608080D01*
X340923D01*
Y597920D01*
D02*
G37*
G36*
X378860Y611739D02*
Y602000D01*
X386269D01*
X386860Y601883D01*
X391031D01*
X391630Y600762D01*
X391348Y600341D01*
X390882Y598000D01*
X391348Y595659D01*
X391792Y594994D01*
X391194Y593874D01*
X316806D01*
X316208Y594994D01*
X316652Y595659D01*
X317018Y597500D01*
X318157Y598121D01*
X318342Y598143D01*
X319532Y597348D01*
X319965Y597262D01*
X319989Y597140D01*
X320431Y596478D01*
X321093Y596036D01*
X321873Y595881D01*
X327207D01*
X327237Y595887D01*
X327266Y595882D01*
X327626Y595964D01*
X327987Y596036D01*
X328012Y596053D01*
X328042Y596059D01*
X328766Y596453D01*
X328860Y596432D01*
X329170Y596239D01*
X329475Y596036D01*
X329507Y596030D01*
X329536Y596012D01*
X329897Y595952D01*
X330255Y595881D01*
X340923D01*
X341703Y596036D01*
X342266Y596412D01*
X350564D01*
X350659Y596348D01*
X353000Y595882D01*
X355341Y596348D01*
X357326Y597674D01*
X358652Y599659D01*
X359080Y601813D01*
X360350Y601688D01*
Y601460D01*
X366620D01*
Y609000D01*
X367890D01*
Y610270D01*
X375430D01*
Y611648D01*
X375999Y612116D01*
X377590Y612432D01*
X378860Y611739D01*
D02*
G37*
G36*
X735128Y369459D02*
X727000D01*
Y375301D01*
X731064Y371872D01*
X735128Y375301D01*
Y369459D01*
D02*
G37*
G36*
X696128Y369760D02*
X688000D01*
Y375602D01*
X692064Y372173D01*
X696128Y375602D01*
Y369760D01*
D02*
G37*
G36*
X709128Y369459D02*
X701000D01*
Y375301D01*
X705064Y371872D01*
X709128Y375301D01*
Y369459D01*
D02*
G37*
G36*
X722128D02*
X714000D01*
Y375301D01*
X718064Y371872D01*
X722128Y375301D01*
Y369459D01*
D02*
G37*
G36*
Y376952D02*
X718064Y373650D01*
X713999Y376953D01*
X714000Y380000D01*
X722128D01*
Y376952D01*
D02*
G37*
G36*
X735128D02*
X731064Y373650D01*
X726999Y376953D01*
X727000Y380000D01*
X735128D01*
Y376952D01*
D02*
G37*
G36*
X565270Y589828D02*
X566010Y589221D01*
Y585320D01*
X583050D01*
Y584050D01*
X584320D01*
Y567010D01*
X599468D01*
X600094Y567005D01*
X600854Y566057D01*
X600997Y565342D01*
X601936Y563936D01*
X603342Y562997D01*
X605000Y562667D01*
X606658Y562997D01*
X606880Y563145D01*
X608000Y562546D01*
Y552000D01*
Y542059D01*
X606068D01*
X606064Y542064D01*
X604658Y543003D01*
X603000Y543333D01*
X601342Y543003D01*
X601210Y542915D01*
X600090Y543514D01*
Y544680D01*
X584320D01*
Y528910D01*
X600090D01*
X600090Y528910D01*
X601277Y528708D01*
X602342Y527997D01*
X604000Y527667D01*
X605658Y527997D01*
X606730Y528713D01*
X608000Y528225D01*
Y521000D01*
X573059D01*
Y522932D01*
X573064Y522936D01*
X574003Y524342D01*
X574333Y526000D01*
X574003Y527658D01*
X573915Y527790D01*
X574514Y528910D01*
X581780D01*
Y544680D01*
X566010D01*
Y528910D01*
X566010D01*
X566376Y528226D01*
X565997Y527658D01*
X565667Y526000D01*
X565997Y524342D01*
X566936Y522936D01*
X566941Y522932D01*
Y521000D01*
X520000D01*
Y527150D01*
X520164Y527288D01*
X521270Y527713D01*
X522342Y526997D01*
X524000Y526667D01*
X525658Y526997D01*
X527064Y527936D01*
X527109Y528004D01*
X527910Y528910D01*
Y528910D01*
X527910Y528910D01*
X543680D01*
Y545950D01*
Y562990D01*
X541779D01*
X541172Y563730D01*
X530828D01*
X530221Y562990D01*
X527910D01*
Y552910D01*
X526640Y552347D01*
X525658Y553003D01*
X524000Y553333D01*
X522342Y553003D01*
X521270Y552287D01*
X520164Y552712D01*
X520000Y552850D01*
Y560000D01*
Y572000D01*
Y584092D01*
X520413Y584174D01*
X521406Y584837D01*
X526737Y590168D01*
X527910Y589682D01*
Y585320D01*
X544950D01*
Y584050D01*
D01*
Y585320D01*
X561990D01*
Y589221D01*
X562730Y589828D01*
Y595000D01*
X565270D01*
Y589828D01*
D02*
G37*
G36*
X709128Y376952D02*
X705064Y373650D01*
X700999Y376953D01*
X701000Y380000D01*
X709128D01*
Y376952D01*
D02*
G37*
G36*
X205400Y418000D02*
X207265D01*
X207420Y417224D01*
X208142Y416143D01*
X212853Y411432D01*
X213934Y410709D01*
X215210Y410456D01*
X224040D01*
X224547Y409802D01*
X223978Y408540D01*
X221270D01*
Y399900D01*
X218730D01*
Y408540D01*
X214360D01*
Y408000D01*
X205400D01*
X204334Y408493D01*
Y410000D01*
X204080Y411276D01*
X203358Y412357D01*
X198027Y417688D01*
X196946Y418410D01*
X195670Y418664D01*
X191420D01*
Y421996D01*
X193330D01*
X193948Y422119D01*
X194605Y422250D01*
X194605Y422250D01*
X194606Y422250D01*
X195149Y422613D01*
X195687Y422972D01*
X197357Y424642D01*
X197357Y424642D01*
X197358Y424642D01*
X200192Y427477D01*
X200915Y428559D01*
X201169Y429835D01*
Y431996D01*
X205400D01*
Y418000D01*
D02*
G37*
G36*
X321872Y435936D02*
X325301Y431872D01*
X319459D01*
Y440000D01*
X325301D01*
X321872Y435936D01*
D02*
G37*
G36*
X330000Y440000D02*
Y431872D01*
X326952D01*
X323650Y435936D01*
X326953Y440001D01*
X330000Y440000D01*
D02*
G37*
G36*
X416923Y502920D02*
X406255D01*
X411017Y508000D01*
X406255Y513080D01*
X416923D01*
Y502920D01*
D02*
G37*
G36*
X408000Y508000D02*
X403207Y502920D01*
X397873D01*
Y513080D01*
X403207D01*
X408000Y508000D01*
D02*
G37*
G36*
X586000Y643699D02*
X581936Y647128D01*
X577872Y643699D01*
Y649541D01*
X586000D01*
Y643699D01*
D02*
G37*
G36*
X586001Y642047D02*
X586000Y639000D01*
X577872D01*
Y642048D01*
X581936Y645350D01*
X586001Y642047D01*
D02*
G37*
G36*
X516000Y498000D02*
X507000D01*
Y520000D01*
Y523000D01*
X516000D01*
Y498000D01*
D02*
G37*
G36*
X518941Y496521D02*
Y431180D01*
X517671Y430654D01*
X505059Y443267D01*
Y473806D01*
X506329Y473931D01*
X506488Y473131D01*
X507547Y471547D01*
X509131Y470488D01*
X509730Y470369D01*
Y475000D01*
Y479631D01*
X509131Y479512D01*
X507547Y478453D01*
X506488Y476869D01*
X506329Y476069D01*
X505059Y476194D01*
Y495364D01*
X506153Y496073D01*
X506329Y496094D01*
X507000Y495961D01*
X516000D01*
X516780Y496116D01*
X517442Y496558D01*
X517671Y496901D01*
X518941Y496521D01*
D02*
G37*
G36*
X414000Y608000D02*
X409207Y602920D01*
X403873D01*
Y613080D01*
X409207D01*
X414000Y608000D01*
D02*
G37*
G36*
X422923Y602920D02*
X412255D01*
X417017Y608000D01*
X412255Y613080D01*
X422923D01*
Y602920D01*
D02*
G37*
G36*
X305650Y411000D02*
X309079Y406936D01*
X303237D01*
Y415064D01*
X309079D01*
X305650Y411000D01*
D02*
G37*
G36*
X313778Y415064D02*
Y406936D01*
X310730D01*
X307428Y411000D01*
X310731Y415065D01*
X313778Y415064D01*
D02*
G37*
G36*
X313000Y515000D02*
Y506872D01*
X309952D01*
X306650Y510936D01*
X309953Y515001D01*
X313000Y515000D01*
D02*
G37*
G36*
X304872Y510936D02*
X308301Y506872D01*
X302459D01*
Y515000D01*
X308301D01*
X304872Y510936D01*
D02*
G37*
G36*
X305650Y424000D02*
X309079Y419936D01*
X303237D01*
Y428064D01*
X309079D01*
X305650Y424000D01*
D02*
G37*
G36*
X313778Y428064D02*
Y419936D01*
X310730D01*
X307428Y424000D01*
X310731Y428065D01*
X313778Y428064D01*
D02*
G37*
G36*
X272350Y563064D02*
X269047Y558999D01*
X266000Y559000D01*
Y567128D01*
X269048D01*
X272350Y563064D01*
D02*
G37*
G36*
Y550064D02*
X269047Y545999D01*
X266000Y546000D01*
Y554128D01*
X269048D01*
X272350Y550064D01*
D02*
G37*
G36*
X450342Y581997D02*
X450440Y581977D01*
X450532Y581707D01*
X450574Y580656D01*
X449837Y580163D01*
X449837Y580163D01*
X435837Y566163D01*
X435174Y565171D01*
X434941Y564000D01*
X434941Y564000D01*
Y513369D01*
X433671Y513244D01*
X433652Y513341D01*
X432613Y514896D01*
X432200Y516050D01*
X432200Y516050D01*
X432200Y516050D01*
Y530050D01*
X418200D01*
Y528148D01*
X413150D01*
Y530050D01*
X399150D01*
Y528148D01*
X396602D01*
X395150Y529600D01*
Y542640D01*
X382048D01*
X381562Y543814D01*
X382424Y544675D01*
X383419Y546164D01*
X383768Y547920D01*
Y551700D01*
X386680D01*
Y560660D01*
X387220D01*
Y564930D01*
X379180D01*
Y567470D01*
X387793D01*
X388393Y567719D01*
X397680Y558432D01*
Y551700D01*
X412680D01*
Y561689D01*
X413586Y562579D01*
X418200Y557965D01*
Y550340D01*
X421866D01*
Y548020D01*
X418200D01*
Y544354D01*
X413150D01*
Y548020D01*
X399150D01*
Y534020D01*
X413150D01*
Y537686D01*
X418200D01*
Y534020D01*
X432200D01*
Y548020D01*
X428534D01*
Y550340D01*
X432200D01*
Y564340D01*
X421255D01*
X418998Y566597D01*
X419485Y567770D01*
X423930D01*
Y575310D01*
X425200D01*
Y576580D01*
X432740D01*
Y582666D01*
X449340D01*
X450342Y581997D01*
D02*
G37*
G36*
X856666Y548944D02*
Y332000D01*
X856680Y331930D01*
X856357Y327826D01*
X855379Y323754D01*
X853777Y319885D01*
X851589Y316315D01*
X848869Y313131D01*
X845685Y310411D01*
X842115Y308223D01*
X838246Y306621D01*
X834175Y305643D01*
X830070Y305320D01*
X830000Y305334D01*
X788099D01*
X788016Y306604D01*
X789374Y306783D01*
X792424Y308046D01*
X795044Y310056D01*
X797054Y312676D01*
X798317Y315726D01*
X798581Y317730D01*
X786100D01*
Y319000D01*
X784830D01*
Y331481D01*
X782826Y331217D01*
X779776Y329954D01*
X777156Y327944D01*
X775146Y325324D01*
X773883Y322274D01*
X773768Y321403D01*
X772487D01*
X772391Y322133D01*
X771182Y325052D01*
X769258Y327559D01*
X766752Y329482D01*
X763833Y330691D01*
X760700Y331104D01*
X757567Y330691D01*
X754648Y329482D01*
X752141Y327559D01*
X750218Y325052D01*
X749009Y322133D01*
X748716Y319904D01*
X748640Y319335D01*
X747360D01*
X747284Y319904D01*
X746991Y322133D01*
X745782Y325052D01*
X743858Y327559D01*
X741352Y329482D01*
X738433Y330691D01*
X735300Y331104D01*
X735078Y331074D01*
X734123Y331912D01*
Y367420D01*
X735128D01*
X735908Y367575D01*
X736570Y368017D01*
X737012Y368679D01*
X737167Y369459D01*
Y373996D01*
X738437Y374675D01*
X739120Y374219D01*
X740778Y373889D01*
X742436Y374219D01*
X743842Y375158D01*
X744781Y376564D01*
X745111Y378222D01*
X744781Y379880D01*
X743842Y381286D01*
X742436Y382225D01*
X740778Y382555D01*
X739120Y382225D01*
X737824Y381360D01*
X736625D01*
X736570Y381442D01*
X735908Y381884D01*
X735128Y382039D01*
X732246D01*
X732163Y382163D01*
X731171Y382826D01*
X730000Y383059D01*
X729267D01*
X712059Y400267D01*
Y408140D01*
X716000D01*
Y422140D01*
X703270D01*
X702000Y422140D01*
Y422140D01*
X702000D01*
Y422140D01*
X688000D01*
Y414059D01*
X686068D01*
X686064Y414064D01*
X684658Y415003D01*
X683000Y415333D01*
X681342Y415003D01*
X679936Y414064D01*
X678997Y412658D01*
X678667Y411000D01*
X678997Y409342D01*
X679936Y407936D01*
X681342Y406997D01*
X683000Y406667D01*
X684658Y406997D01*
X686064Y407936D01*
X686068Y407941D01*
X691941D01*
Y405000D01*
X691941Y405000D01*
X692174Y403829D01*
X692837Y402837D01*
X712698Y382977D01*
X712698Y382976D01*
X712764Y382516D01*
X712559Y381442D01*
X712558Y381442D01*
X712338Y381113D01*
X712263Y381001D01*
X711617Y380887D01*
X711511Y380887D01*
X710865Y381001D01*
X710570Y381442D01*
X709908Y381884D01*
X709128Y382039D01*
X704573D01*
X696449Y390163D01*
X695456Y390826D01*
X694286Y391059D01*
X694286Y391059D01*
X681068D01*
X681064Y391064D01*
X679658Y392003D01*
X678000Y392333D01*
X676342Y392003D01*
X674936Y391064D01*
X673997Y389658D01*
X673667Y388000D01*
X673997Y386342D01*
X674936Y384936D01*
X675394Y384630D01*
X675009Y383360D01*
X663966D01*
X661332Y385994D01*
X661333Y386000D01*
X661003Y387658D01*
X660064Y389064D01*
X658658Y390003D01*
X657000Y390333D01*
X655342Y390003D01*
X653936Y389064D01*
X652997Y387658D01*
X652667Y386000D01*
X652997Y384342D01*
X653936Y382936D01*
X655342Y381997D01*
X657000Y381667D01*
X657006Y381668D01*
X660536Y378138D01*
X660536Y378138D01*
X661528Y377475D01*
X662699Y377242D01*
X662699Y377242D01*
X684714D01*
X685355Y377141D01*
X685443Y377053D01*
X685506Y376981D01*
X686032Y376001D01*
X686022Y375909D01*
X685961Y375602D01*
Y369760D01*
X686116Y368980D01*
X686558Y368318D01*
X687220Y367876D01*
X688000Y367721D01*
X689005D01*
Y336836D01*
X689005Y336836D01*
X689238Y335665D01*
X689901Y334673D01*
X699463Y325111D01*
X699418Y325052D01*
X698209Y322133D01*
X697796Y319000D01*
X698209Y315867D01*
X699418Y312948D01*
X701341Y310441D01*
X703848Y308518D01*
X706767Y307309D01*
X709900Y306896D01*
X713033Y307309D01*
X715952Y308518D01*
X718458Y310441D01*
X720382Y312948D01*
X721591Y315867D01*
X721960Y318666D01*
X723241D01*
X723609Y315867D01*
X724818Y312948D01*
X726741Y310441D01*
X729248Y308518D01*
X732167Y307309D01*
X735300Y306896D01*
X738433Y307309D01*
X741352Y308518D01*
X743858Y310441D01*
X745782Y312948D01*
X746991Y315867D01*
X747284Y318096D01*
X747360Y318666D01*
X748640D01*
X748716Y318096D01*
X749009Y315867D01*
X750218Y312948D01*
X752141Y310441D01*
X754648Y308518D01*
X757567Y307309D01*
X760700Y306896D01*
X763833Y307309D01*
X766752Y308518D01*
X769258Y310441D01*
X771182Y312948D01*
X772391Y315867D01*
X772487Y316597D01*
X773768D01*
X773883Y315726D01*
X775146Y312676D01*
X777156Y310056D01*
X779776Y308046D01*
X782826Y306783D01*
X784184Y306604D01*
X784101Y305334D01*
X335420D01*
Y307200D01*
X336869Y307488D01*
X338453Y308547D01*
X339512Y310131D01*
X339631Y310730D01*
X335000D01*
Y313270D01*
X339631D01*
X339512Y313869D01*
X338453Y315453D01*
X336869Y316512D01*
X335420Y316800D01*
Y319700D01*
X334880D01*
Y321542D01*
X352418D01*
Y318500D01*
X352745Y316020D01*
X353702Y313709D01*
X355225Y311724D01*
X357209Y310202D01*
X359520Y309244D01*
X362000Y308918D01*
X364480Y309244D01*
X366791Y310202D01*
X368775Y311724D01*
X370298Y313709D01*
X371255Y316020D01*
X371582Y318500D01*
Y323500D01*
X371255Y325980D01*
X370298Y328291D01*
X368775Y330275D01*
X366791Y331798D01*
X364480Y332756D01*
X362170Y333060D01*
Y334341D01*
X364480Y334645D01*
X366791Y335602D01*
X368775Y337124D01*
X370298Y339109D01*
X370671Y340009D01*
X371941Y339757D01*
Y333400D01*
X371941Y333400D01*
X372174Y332229D01*
X372837Y331237D01*
X378139Y325936D01*
X377818Y323500D01*
Y318500D01*
X378145Y316020D01*
X379102Y313709D01*
X380625Y311724D01*
X382609Y310202D01*
X384920Y309244D01*
X387400Y308918D01*
X389880Y309244D01*
X392191Y310202D01*
X394175Y311724D01*
X395698Y313709D01*
X396656Y316020D01*
X396982Y318500D01*
Y323500D01*
X396656Y325980D01*
X395698Y328291D01*
X394175Y330275D01*
X392191Y331798D01*
X389880Y332756D01*
X387570Y333060D01*
Y334341D01*
X389880Y334645D01*
X392191Y335602D01*
X394175Y337124D01*
X395671Y339074D01*
X395786Y339086D01*
X396941Y338791D01*
Y333800D01*
X396941Y333800D01*
X397174Y332630D01*
X397837Y331637D01*
X403539Y325936D01*
X403218Y323500D01*
Y318500D01*
X403545Y316020D01*
X404502Y313709D01*
X406025Y311724D01*
X408009Y310202D01*
X410320Y309244D01*
X412800Y308918D01*
X415280Y309244D01*
X417591Y310202D01*
X419576Y311724D01*
X421098Y313709D01*
X422056Y316020D01*
X422382Y318500D01*
Y323500D01*
X422056Y325980D01*
X421098Y328291D01*
X419576Y330275D01*
X417591Y331798D01*
X415280Y332756D01*
X412971Y333060D01*
Y334341D01*
X415280Y334645D01*
X417591Y335602D01*
X419576Y337124D01*
X420671Y338553D01*
X421941Y338121D01*
Y334200D01*
X421941Y334200D01*
X422174Y333030D01*
X422837Y332037D01*
X428939Y325936D01*
X428618Y323500D01*
Y318500D01*
X428945Y316020D01*
X429902Y313709D01*
X431425Y311724D01*
X433409Y310202D01*
X435720Y309244D01*
X438200Y308918D01*
X440680Y309244D01*
X442991Y310202D01*
X444976Y311724D01*
X446498Y313709D01*
X447455Y316020D01*
X447782Y318500D01*
Y323500D01*
X447455Y325980D01*
X446498Y328291D01*
X444976Y330275D01*
X442991Y331798D01*
X440680Y332756D01*
X438371Y333060D01*
Y334341D01*
X440680Y334645D01*
X442991Y335602D01*
X444976Y337124D01*
X446498Y339109D01*
X446671Y339527D01*
X447941Y339274D01*
Y333600D01*
X447941Y333600D01*
X448174Y332430D01*
X448837Y331437D01*
X454339Y325936D01*
X454018Y323500D01*
Y318500D01*
X454345Y316020D01*
X455302Y313709D01*
X456825Y311724D01*
X458809Y310202D01*
X461120Y309244D01*
X463600Y308918D01*
X466080Y309244D01*
X468391Y310202D01*
X470376Y311724D01*
X471898Y313709D01*
X472855Y316020D01*
X473182Y318500D01*
Y323500D01*
X472855Y325980D01*
X471898Y328291D01*
X470376Y330275D01*
X468391Y331798D01*
X466080Y332756D01*
X463770Y333060D01*
Y334341D01*
X466080Y334645D01*
X468391Y335602D01*
X470376Y337124D01*
X471671Y338813D01*
X472941Y338468D01*
Y334000D01*
X472941Y334000D01*
X473174Y332830D01*
X473837Y331837D01*
X479739Y325936D01*
X479418Y323500D01*
Y318500D01*
X479745Y316020D01*
X480702Y313709D01*
X482225Y311724D01*
X484209Y310202D01*
X486520Y309244D01*
X489000Y308918D01*
X491480Y309244D01*
X493791Y310202D01*
X495775Y311724D01*
X497298Y313709D01*
X498256Y316020D01*
X498582Y318500D01*
Y323500D01*
X498256Y325980D01*
X497298Y328291D01*
X495775Y330275D01*
X493791Y331798D01*
X491480Y332756D01*
X489170Y333060D01*
Y334341D01*
X491480Y334645D01*
X493791Y335602D01*
X495775Y337124D01*
X497298Y339109D01*
X497671Y340009D01*
X498941Y339757D01*
Y333400D01*
X498941Y333400D01*
X499174Y332229D01*
X499837Y331237D01*
X505139Y325936D01*
X504818Y323500D01*
Y318500D01*
X505145Y316020D01*
X506102Y313709D01*
X507625Y311724D01*
X509609Y310202D01*
X511920Y309244D01*
X514400Y308918D01*
X516880Y309244D01*
X519191Y310202D01*
X521175Y311724D01*
X522698Y313709D01*
X523656Y316020D01*
X523982Y318500D01*
Y323500D01*
X523656Y325980D01*
X522698Y328291D01*
X521175Y330275D01*
X519191Y331798D01*
X516880Y332756D01*
X514571Y333060D01*
Y334341D01*
X516880Y334645D01*
X519191Y335602D01*
X521175Y337124D01*
X522671Y339074D01*
X522786Y339086D01*
X523941Y338791D01*
Y333800D01*
X523941Y333800D01*
X524174Y332630D01*
X524837Y331637D01*
X530539Y325936D01*
X530218Y323500D01*
Y318500D01*
X530545Y316020D01*
X531502Y313709D01*
X533025Y311724D01*
X535009Y310202D01*
X537320Y309244D01*
X539800Y308918D01*
X542280Y309244D01*
X544591Y310202D01*
X546576Y311724D01*
X548098Y313709D01*
X549055Y316020D01*
X549382Y318500D01*
Y323500D01*
X549055Y325980D01*
X548098Y328291D01*
X546576Y330275D01*
X544591Y331798D01*
X542280Y332756D01*
X539971Y333060D01*
Y334341D01*
X542280Y334645D01*
X544591Y335602D01*
X546576Y337124D01*
X548098Y339109D01*
X548671Y340492D01*
X549941Y340240D01*
Y333200D01*
X549941Y333200D01*
X550174Y332029D01*
X550837Y331037D01*
X555939Y325936D01*
X555618Y323500D01*
Y318500D01*
X555945Y316020D01*
X556902Y313709D01*
X558425Y311724D01*
X560409Y310202D01*
X562720Y309244D01*
X565200Y308918D01*
X567680Y309244D01*
X569991Y310202D01*
X571976Y311724D01*
X573498Y313709D01*
X574455Y316020D01*
X574782Y318500D01*
Y323500D01*
X574455Y325980D01*
X573498Y328291D01*
X571976Y330275D01*
X569991Y331798D01*
X567680Y332756D01*
X565370Y333060D01*
Y334341D01*
X567680Y334645D01*
X569991Y335602D01*
X571976Y337124D01*
X573498Y339109D01*
X574455Y341420D01*
X574671Y343059D01*
X575941Y342976D01*
Y332600D01*
X575941Y332600D01*
X576174Y331429D01*
X576837Y330437D01*
X581339Y325936D01*
X581018Y323500D01*
Y318500D01*
X581345Y316020D01*
X582302Y313709D01*
X583825Y311724D01*
X585809Y310202D01*
X588120Y309244D01*
X590600Y308918D01*
X593080Y309244D01*
X595391Y310202D01*
X597375Y311724D01*
X598898Y313709D01*
X599855Y316020D01*
X600182Y318500D01*
Y323500D01*
X599855Y325980D01*
X598898Y328291D01*
X597375Y330275D01*
X595391Y331798D01*
X593080Y332756D01*
X590770Y333060D01*
Y334341D01*
X593080Y334645D01*
X595391Y335602D01*
X597375Y337124D01*
X598898Y339109D01*
X599671Y340975D01*
X600941Y340723D01*
Y333000D01*
X600941Y333000D01*
X601174Y331829D01*
X601837Y330837D01*
X606739Y325936D01*
X606418Y323500D01*
Y318500D01*
X606745Y316020D01*
X607702Y313709D01*
X609225Y311724D01*
X611209Y310202D01*
X613520Y309244D01*
X616000Y308918D01*
X618480Y309244D01*
X620791Y310202D01*
X622775Y311724D01*
X624298Y313709D01*
X625256Y316020D01*
X625582Y318500D01*
Y323500D01*
X625256Y325980D01*
X624298Y328291D01*
X622775Y330275D01*
X620791Y331798D01*
X618480Y332756D01*
X616171Y333060D01*
Y334341D01*
X618480Y334645D01*
X620791Y335602D01*
X622775Y337124D01*
X624298Y339109D01*
X624671Y340009D01*
X625941Y339757D01*
Y333400D01*
X625941Y333400D01*
X626174Y332229D01*
X626837Y331237D01*
X632139Y325936D01*
X631818Y323500D01*
Y318500D01*
X632145Y316020D01*
X633102Y313709D01*
X634625Y311724D01*
X636609Y310202D01*
X638920Y309244D01*
X641400Y308918D01*
X643880Y309244D01*
X646191Y310202D01*
X648176Y311724D01*
X649698Y313709D01*
X650656Y316020D01*
X650982Y318500D01*
Y323500D01*
X650656Y325980D01*
X649698Y328291D01*
X648176Y330275D01*
X646191Y331798D01*
X643880Y332756D01*
X641571Y333060D01*
Y334341D01*
X643880Y334645D01*
X646191Y335602D01*
X648176Y337124D01*
X649698Y339109D01*
X650656Y341420D01*
X650982Y343900D01*
Y348900D01*
X650656Y351380D01*
X649698Y353691D01*
X648176Y355676D01*
X646191Y357198D01*
X643880Y358156D01*
X641400Y358482D01*
X638920Y358156D01*
X637683Y357643D01*
X619163Y376163D01*
X618171Y376826D01*
X617000Y377059D01*
X617000Y377059D01*
X597894D01*
X549059Y425894D01*
Y430246D01*
X549460Y431350D01*
X555730D01*
Y438890D01*
Y446430D01*
X549460D01*
X549059Y447534D01*
Y449066D01*
X550000Y449860D01*
X562730D01*
X564000Y449860D01*
Y449860D01*
X564000D01*
Y449860D01*
X578000D01*
Y450060D01*
X591730D01*
Y449810D01*
X598864D01*
X601121Y447553D01*
X600635Y446380D01*
X600000D01*
Y438840D01*
Y431300D01*
X606270D01*
Y431840D01*
X619730D01*
Y431590D01*
X633730D01*
Y435531D01*
X636102D01*
X636674Y434674D01*
X638659Y433348D01*
X641000Y432882D01*
X643341Y433348D01*
X645326Y434674D01*
X646652Y436659D01*
X647118Y439000D01*
X646652Y441341D01*
X645326Y443326D01*
X643341Y444652D01*
X641000Y445118D01*
X638659Y444652D01*
X636674Y443326D01*
X635554Y441648D01*
X633730D01*
Y445590D01*
X619760D01*
Y445840D01*
X611486D01*
X608689Y448637D01*
X609175Y449810D01*
X619730D01*
Y449560D01*
X633730D01*
Y460030D01*
X634903Y460516D01*
X648582Y446837D01*
X648582Y446837D01*
X649575Y446174D01*
X650745Y445941D01*
X650745Y445941D01*
X750733D01*
X801837Y394837D01*
X801837Y394837D01*
X802830Y394174D01*
X804000Y393941D01*
X804000Y393941D01*
X805061D01*
X805492Y392671D01*
X804324Y391775D01*
X802802Y389791D01*
X801844Y387480D01*
X801518Y385000D01*
X801844Y382520D01*
X802802Y380209D01*
X804324Y378224D01*
X806309Y376702D01*
X808620Y375744D01*
X811100Y375418D01*
X816100D01*
X818580Y375744D01*
X820891Y376702D01*
X822875Y378224D01*
X824398Y380209D01*
X825355Y382520D01*
X825543Y383948D01*
X825659Y384829D01*
X826940D01*
X827056Y383948D01*
X827244Y382520D01*
X828202Y380209D01*
X829724Y378224D01*
X831709Y376702D01*
X834020Y375744D01*
X836500Y375418D01*
X841500D01*
X843980Y375744D01*
X846291Y376702D01*
X848275Y378224D01*
X849798Y380209D01*
X850755Y382520D01*
X851082Y385000D01*
X850755Y387480D01*
X849798Y389791D01*
X848275Y391775D01*
X846291Y393298D01*
X843980Y394255D01*
X841500Y394582D01*
X836500D01*
X834020Y394255D01*
X831709Y393298D01*
X829724Y391775D01*
X828202Y389791D01*
X827244Y387480D01*
X827056Y386051D01*
X826940Y385170D01*
X825659D01*
X825543Y386051D01*
X825355Y387480D01*
X824398Y389791D01*
X822875Y391775D01*
X821708Y392671D01*
X822139Y393941D01*
X825600D01*
X825600Y393941D01*
X826770Y394174D01*
X827763Y394837D01*
X834064Y401139D01*
X836500Y400818D01*
X841500D01*
X843980Y401144D01*
X846291Y402102D01*
X848275Y403624D01*
X849798Y405609D01*
X850755Y407920D01*
X851082Y410400D01*
X850755Y412880D01*
X849798Y415191D01*
X848275Y417175D01*
X846291Y418698D01*
X843980Y419655D01*
X841500Y419982D01*
X836500D01*
X834020Y419655D01*
X831709Y418698D01*
X829724Y417175D01*
X828202Y415191D01*
X827244Y412880D01*
X826940Y410570D01*
X825659D01*
X825355Y412880D01*
X824398Y415191D01*
X822875Y417175D01*
X820926Y418671D01*
X820913Y418785D01*
X821208Y419941D01*
X826200D01*
X826200Y419941D01*
X827371Y420174D01*
X828363Y420837D01*
X834064Y426539D01*
X836500Y426218D01*
X841500D01*
X843980Y426544D01*
X846291Y427502D01*
X848275Y429024D01*
X849798Y431009D01*
X850755Y433320D01*
X851082Y435800D01*
X850755Y438280D01*
X849798Y440591D01*
X848275Y442575D01*
X846291Y444098D01*
X843980Y445055D01*
X841500Y445382D01*
X836500D01*
X834020Y445055D01*
X831709Y444098D01*
X829724Y442575D01*
X828202Y440591D01*
X827244Y438280D01*
X826940Y435970D01*
X825659D01*
X825355Y438280D01*
X824398Y440591D01*
X822875Y442575D01*
X820891Y444098D01*
X818580Y445055D01*
X816100Y445382D01*
X811100D01*
X808620Y445055D01*
X806309Y444098D01*
X804324Y442575D01*
X802802Y440591D01*
X802084Y438859D01*
X783438D01*
X775828Y446468D01*
X776314Y447641D01*
X828500D01*
X828500Y447641D01*
X829670Y447874D01*
X830663Y448537D01*
X834064Y451939D01*
X836500Y451618D01*
X841500D01*
X843980Y451944D01*
X846291Y452902D01*
X848275Y454424D01*
X849798Y456409D01*
X850755Y458720D01*
X851082Y461200D01*
X850755Y463680D01*
X849798Y465991D01*
X848275Y467975D01*
X846291Y469498D01*
X843980Y470455D01*
X841500Y470782D01*
X836500D01*
X834020Y470455D01*
X831709Y469498D01*
X829724Y467975D01*
X828202Y465991D01*
X827244Y463680D01*
X826940Y461370D01*
X825659D01*
X825355Y463680D01*
X824398Y465991D01*
X822875Y467975D01*
X821968Y468671D01*
X822400Y469941D01*
X825400D01*
X825400Y469941D01*
X826571Y470174D01*
X827563Y470837D01*
X834064Y477339D01*
X836500Y477018D01*
X841500D01*
X843980Y477344D01*
X846291Y478302D01*
X848275Y479824D01*
X849798Y481809D01*
X850755Y484120D01*
X851082Y486600D01*
X850755Y489080D01*
X849798Y491391D01*
X848275Y493375D01*
X846291Y494898D01*
X843980Y495855D01*
X841500Y496182D01*
X836500D01*
X834020Y495855D01*
X831709Y494898D01*
X829724Y493375D01*
X828202Y491391D01*
X827244Y489080D01*
X826940Y486770D01*
X825659D01*
X825355Y489080D01*
X824398Y491391D01*
X822875Y493375D01*
X820891Y494898D01*
X819024Y495671D01*
X819277Y496941D01*
X823000D01*
X823000Y496941D01*
X824171Y497174D01*
X825163Y497837D01*
X831323Y503997D01*
X831709Y503702D01*
X834020Y502744D01*
X836500Y502418D01*
X841500D01*
X843980Y502744D01*
X846291Y503702D01*
X848275Y505224D01*
X849798Y507209D01*
X850755Y509520D01*
X851082Y512000D01*
X850755Y514480D01*
X849798Y516791D01*
X848275Y518775D01*
X846291Y520298D01*
X843980Y521255D01*
X841500Y521582D01*
X836500D01*
X834020Y521255D01*
X831709Y520298D01*
X829724Y518775D01*
X828202Y516791D01*
X827244Y514480D01*
X826940Y512170D01*
X825659D01*
X825355Y514480D01*
X824398Y516791D01*
X822875Y518775D01*
X820891Y520298D01*
X819990Y520671D01*
X820242Y521941D01*
X826600D01*
X826600Y521941D01*
X827770Y522174D01*
X828763Y522837D01*
X834064Y528139D01*
X836500Y527818D01*
X841500D01*
X843980Y528144D01*
X846291Y529102D01*
X848275Y530624D01*
X849798Y532609D01*
X850755Y534920D01*
X851082Y537400D01*
X850755Y539880D01*
X849798Y542191D01*
X849068Y543142D01*
X855396Y549470D01*
X856666Y548944D01*
D02*
G37*
G36*
X276541Y559000D02*
X270699D01*
X274128Y563064D01*
X270699Y567128D01*
X276541D01*
Y559000D01*
D02*
G37*
G36*
Y546000D02*
X270699D01*
X274128Y550064D01*
X270699Y554128D01*
X276541D01*
Y546000D01*
D02*
G37*
G36*
X834175Y748357D02*
X838246Y747379D01*
X842115Y745777D01*
X845685Y743589D01*
X848869Y740870D01*
X851589Y737685D01*
X853777Y734115D01*
X855379Y730246D01*
X856357Y726175D01*
X856680Y722070D01*
X856666Y722000D01*
Y575456D01*
X855396Y574930D01*
X851163Y579163D01*
X850171Y579826D01*
X849000Y580059D01*
X849000Y580059D01*
X839267D01*
X831917Y587409D01*
X833298Y589209D01*
X834256Y591520D01*
X834360Y592310D01*
X835640D01*
X835745Y591520D01*
X836702Y589209D01*
X838225Y587225D01*
X840209Y585702D01*
X842520Y584745D01*
X845000Y584418D01*
X847480Y584745D01*
X849791Y585702D01*
X851776Y587225D01*
X853298Y589209D01*
X854256Y591520D01*
X854582Y594000D01*
X854256Y596480D01*
X853298Y598791D01*
X851776Y600775D01*
X849791Y602298D01*
X847480Y603256D01*
X845000Y603582D01*
X842520Y603256D01*
X840209Y602298D01*
X838225Y600775D01*
X836702Y598791D01*
X835745Y596480D01*
X835640Y595690D01*
X834360D01*
X834256Y596480D01*
X833298Y598791D01*
X831776Y600775D01*
X829791Y602298D01*
X827480Y603256D01*
X825000Y603582D01*
X822520Y603256D01*
X820209Y602298D01*
X818225Y600775D01*
X816702Y598791D01*
X815745Y596480D01*
X815640Y595690D01*
X814360D01*
X814256Y596480D01*
X813298Y598791D01*
X811776Y600775D01*
X809791Y602298D01*
X807480Y603256D01*
X805000Y603582D01*
X802520Y603256D01*
X801320Y602758D01*
X800601Y603835D01*
X802993Y606227D01*
X803723Y607321D01*
X803980Y608610D01*
Y640778D01*
X805036Y641484D01*
X805843Y641150D01*
X808192Y640840D01*
X810542Y641150D01*
X812731Y642057D01*
X814611Y643499D01*
X816053Y645379D01*
X816960Y647569D01*
X817270Y649918D01*
X816960Y652268D01*
X816053Y654457D01*
X814611Y656337D01*
X812731Y657779D01*
X810542Y658686D01*
X808192Y658996D01*
X805843Y658686D01*
X803653Y657779D01*
X801773Y656337D01*
X800331Y654457D01*
X799424Y652268D01*
X799114Y649918D01*
X799190Y649345D01*
X798305Y648461D01*
X797221Y649545D01*
X797270Y649918D01*
X796960Y652268D01*
X796053Y654457D01*
X794611Y656337D01*
X792731Y657779D01*
X790542Y658686D01*
X788192Y658996D01*
X785843Y658686D01*
X783653Y657779D01*
X781773Y656337D01*
X780331Y654457D01*
X779424Y652268D01*
X779114Y649918D01*
X779424Y647569D01*
X780331Y645379D01*
X781773Y643499D01*
X783653Y642057D01*
X785843Y641150D01*
X788192Y640840D01*
X790542Y641150D01*
X791574Y641578D01*
X792630Y640872D01*
Y611915D01*
X777085Y596370D01*
X774273D01*
X771840Y598803D01*
X770747Y599533D01*
X769457Y599790D01*
X769200D01*
Y604600D01*
X756165D01*
X723383Y637383D01*
X722290Y638113D01*
X721904Y638190D01*
X722029Y639460D01*
X722430D01*
Y645730D01*
X707350D01*
Y639640D01*
X707350Y639460D01*
X706916Y638370D01*
X700978D01*
X700623Y639165D01*
X700516Y639640D01*
X701512Y641131D01*
X701631Y641730D01*
X697000D01*
Y644270D01*
X702551D01*
X702616Y644350D01*
X704540D01*
Y650620D01*
X697000D01*
Y651890D01*
X695730D01*
Y659430D01*
X689460D01*
Y659140D01*
X676270D01*
X676000Y659140D01*
Y659140D01*
X675000D01*
Y659140D01*
X661000D01*
X661000Y659140D01*
X660000D01*
Y659140D01*
X659730Y659140D01*
X649736D01*
X649250Y660313D01*
X652047Y663110D01*
X660000D01*
Y663110D01*
X661000D01*
Y663110D01*
X675000D01*
Y663110D01*
X676000D01*
Y663110D01*
X690000D01*
X690000Y662860D01*
X704000D01*
Y666541D01*
X708526D01*
X709342Y665997D01*
X711000Y665667D01*
X711432Y665753D01*
X712196Y664610D01*
X711348Y663341D01*
X710882Y661000D01*
X711348Y658659D01*
X712674Y656674D01*
X713968Y655810D01*
X713582Y654540D01*
X707350D01*
Y648270D01*
X722430D01*
Y654540D01*
X720418D01*
X720032Y655810D01*
X721326Y656674D01*
X722652Y658659D01*
X722853Y659668D01*
X724147D01*
X724348Y658659D01*
X725674Y656674D01*
X727659Y655348D01*
X728052Y655270D01*
X727927Y654000D01*
X725860D01*
Y640000D01*
X739860D01*
Y649674D01*
X744163Y653977D01*
X744826Y654969D01*
X745059Y656140D01*
X745059Y656140D01*
Y672932D01*
X745064Y672936D01*
X746003Y674342D01*
X746333Y676000D01*
X746003Y677658D01*
X745454Y678480D01*
X746000Y679750D01*
X746000D01*
Y689750D01*
Y699210D01*
X746540D01*
Y701730D01*
X739000D01*
Y703000D01*
X737730D01*
Y706790D01*
X733250D01*
Y714000D01*
X729579D01*
X729029Y715231D01*
X729584Y715941D01*
X742890D01*
Y713000D01*
X756890D01*
Y727000D01*
X742890D01*
Y722059D01*
X733442D01*
X732763Y723329D01*
X733652Y724659D01*
X734118Y727000D01*
X733652Y729341D01*
X732326Y731326D01*
X730341Y732652D01*
X728000Y733118D01*
X725659Y732652D01*
X723674Y731326D01*
X722348Y729341D01*
X722148Y728332D01*
X720853D01*
X720652Y729341D01*
X719326Y731326D01*
X717341Y732652D01*
X715000Y733118D01*
X712659Y732652D01*
X710674Y731326D01*
X709348Y729341D01*
X709147Y728332D01*
X707853D01*
X707652Y729341D01*
X706326Y731326D01*
X704341Y732652D01*
X702000Y733118D01*
X699659Y732652D01*
X697674Y731326D01*
X696348Y729341D01*
X695882Y727000D01*
X696348Y724659D01*
X697674Y722674D01*
X698941Y721828D01*
Y719000D01*
X698941Y719000D01*
X699174Y717830D01*
X699837Y716837D01*
X707941Y708733D01*
Y706250D01*
X704000D01*
Y701790D01*
X703460D01*
Y699270D01*
X711000D01*
Y696730D01*
X703460D01*
Y696245D01*
X702190Y696136D01*
X694820Y703505D01*
X695118Y705000D01*
X694652Y707341D01*
X693326Y709326D01*
X691341Y710652D01*
X689000Y711118D01*
X686659Y710652D01*
X684674Y709326D01*
X683348Y707341D01*
X682883Y705000D01*
X683348Y702659D01*
X684674Y700674D01*
X686659Y699348D01*
X687668Y699147D01*
Y697853D01*
X686659Y697652D01*
X684674Y696326D01*
X683348Y694341D01*
X682883Y692000D01*
X683348Y689659D01*
X684674Y687674D01*
X686659Y686348D01*
X689000Y685882D01*
X690495Y686180D01*
X695837Y680837D01*
X695837Y680837D01*
X696830Y680174D01*
X698000Y679941D01*
X704000D01*
Y679750D01*
X714765D01*
X715251Y678577D01*
X711006Y674332D01*
X711000Y674333D01*
X709342Y674003D01*
X708856Y673679D01*
X704000D01*
Y676860D01*
X690000D01*
X690000Y677110D01*
X676000D01*
Y677110D01*
X675000D01*
Y677110D01*
X661000D01*
Y677110D01*
X660000D01*
Y677110D01*
X646586D01*
X645540Y677650D01*
X645540Y677650D01*
X645540Y677650D01*
X639270D01*
Y670110D01*
X636730D01*
Y677650D01*
X630460D01*
Y676845D01*
X629190Y676720D01*
X629003Y677658D01*
X628064Y679064D01*
X626658Y680003D01*
X625000Y680333D01*
X624994Y680332D01*
X600059Y705267D01*
Y716000D01*
X602500D01*
Y731812D01*
X603556Y732517D01*
X604401Y732167D01*
X605230Y732058D01*
Y738730D01*
X598558D01*
X598667Y737901D01*
X599017Y737056D01*
X598312Y736000D01*
X589500D01*
Y716000D01*
X593941D01*
Y704000D01*
X593941Y704000D01*
X594174Y702830D01*
X594837Y701837D01*
X618501Y678173D01*
X618015Y677000D01*
X606000D01*
Y677000D01*
X605000D01*
Y677000D01*
X591000D01*
Y672860D01*
X590830Y672826D01*
X589837Y672163D01*
X589837Y672163D01*
X579773Y662099D01*
X579110Y661107D01*
X578877Y659936D01*
X578877Y659936D01*
Y651580D01*
X577872D01*
X577092Y651425D01*
X576430Y650983D01*
X575988Y650321D01*
X575957Y650165D01*
X574600Y649726D01*
X564399Y659927D01*
Y665390D01*
X568340D01*
Y679390D01*
X560636D01*
X558379Y681647D01*
X558865Y682820D01*
X560070D01*
Y690360D01*
Y697900D01*
X553800D01*
Y697610D01*
X540940D01*
Y697900D01*
X534670D01*
Y690360D01*
Y682820D01*
X540940D01*
Y683610D01*
X547764D01*
X550561Y680813D01*
X550075Y679640D01*
X540370D01*
Y679390D01*
X512460D01*
Y679640D01*
X498460D01*
Y679390D01*
X484520D01*
Y679640D01*
X470520D01*
Y676059D01*
X466172D01*
X465326Y677326D01*
X463341Y678652D01*
X461000Y679118D01*
X458659Y678652D01*
X456674Y677326D01*
X455348Y675341D01*
X454883Y673000D01*
X455348Y670659D01*
X456674Y668674D01*
X458659Y667348D01*
X461000Y666882D01*
X463341Y667348D01*
X465326Y668674D01*
X466172Y669941D01*
X470520D01*
Y665640D01*
X484490D01*
Y665390D01*
X491284D01*
X493442Y663232D01*
X492956Y662059D01*
X469824D01*
X469158Y662503D01*
X467500Y662833D01*
X465842Y662503D01*
X464436Y661564D01*
X463497Y660158D01*
X463167Y658500D01*
X463497Y656842D01*
X464436Y655436D01*
X465842Y654497D01*
X467500Y654167D01*
X469158Y654497D01*
X470564Y655436D01*
X470902Y655941D01*
X493070D01*
X493669Y654821D01*
X493348Y654341D01*
X492882Y652000D01*
X493348Y649659D01*
X494674Y647674D01*
X496659Y646348D01*
X499000Y645882D01*
X500494Y646180D01*
X502599Y644075D01*
X502526Y643388D01*
X501461Y642727D01*
X501223Y642675D01*
X499000Y643118D01*
X496659Y642652D01*
X494674Y641326D01*
X493348Y639341D01*
X493026Y637719D01*
X492672Y636940D01*
X491657Y636650D01*
X486270D01*
Y629110D01*
Y621570D01*
X491673D01*
X492540Y621570D01*
X493169Y620560D01*
X493348Y619659D01*
X494674Y617674D01*
X496659Y616348D01*
X499000Y615882D01*
X500494Y616180D01*
X503837Y612837D01*
X503837Y612837D01*
X504830Y612174D01*
X506000Y611941D01*
X506000Y611941D01*
X519000D01*
Y610000D01*
X504000D01*
Y598059D01*
X495267D01*
X491118Y602208D01*
Y604140D01*
X492000D01*
Y618140D01*
X478000D01*
Y618140D01*
X478000D01*
Y618140D01*
X450000D01*
Y618140D01*
X450000D01*
Y618140D01*
X436000D01*
Y614920D01*
X435018Y614114D01*
X435000Y614118D01*
X432228D01*
X431120Y614510D01*
Y628510D01*
X417120D01*
Y626608D01*
X413340D01*
Y628510D01*
X399340D01*
Y621259D01*
X399163Y620994D01*
X398775Y619043D01*
Y614118D01*
X393208D01*
Y618370D01*
X395340D01*
Y642370D01*
X382238D01*
X381752Y643543D01*
X382614Y644406D01*
X383609Y645894D01*
X383958Y647650D01*
Y650160D01*
X386870D01*
Y654770D01*
X388140Y655155D01*
X388547Y654547D01*
X390131Y653488D01*
X390730Y653369D01*
Y658000D01*
X393270D01*
Y653369D01*
X393869Y653488D01*
X395453Y654547D01*
X396512Y656131D01*
X396600Y656573D01*
X397870Y656448D01*
Y650160D01*
X412870D01*
Y660160D01*
X406138D01*
X398408Y667890D01*
X398934Y669160D01*
X406045D01*
X417120Y658085D01*
Y648800D01*
X420786D01*
Y646480D01*
X417120D01*
Y642814D01*
X413340D01*
Y646480D01*
X399340D01*
Y632480D01*
X413340D01*
Y636146D01*
X417120D01*
Y632480D01*
X431120D01*
Y646480D01*
X427454D01*
Y648800D01*
X431120D01*
Y662800D01*
X421835D01*
X419579Y665057D01*
X420065Y666230D01*
X422850D01*
Y672500D01*
X416580D01*
Y669714D01*
X415407Y669228D01*
X412870Y671765D01*
Y679160D01*
X397870D01*
Y670223D01*
X396600Y669697D01*
X389254Y677044D01*
X389254Y677044D01*
X387930Y677928D01*
X386870Y678139D01*
Y679160D01*
X375007D01*
X374884Y679780D01*
X374442Y680442D01*
X373780Y680884D01*
X373000Y681039D01*
X368000D01*
Y681110D01*
X354000D01*
Y679199D01*
X353961Y679000D01*
Y670000D01*
X354000Y669802D01*
Y667110D01*
X368000D01*
Y667961D01*
X371330D01*
Y665930D01*
X379370D01*
Y663390D01*
X371330D01*
Y659120D01*
X371870D01*
Y650160D01*
X373596D01*
X374122Y648890D01*
X367602Y642370D01*
X353840D01*
Y619245D01*
X353063Y618202D01*
X352675Y618117D01*
X349000D01*
X346659Y617652D01*
X345880Y617132D01*
X344760Y617730D01*
Y627550D01*
X330760D01*
Y626668D01*
X326980D01*
Y627550D01*
X312980D01*
Y627550D01*
X311710Y627081D01*
X308980Y629812D01*
Y641410D01*
X295878D01*
X295392Y642583D01*
X296254Y643446D01*
X297249Y644934D01*
X297598Y646690D01*
Y650470D01*
X300510D01*
Y659430D01*
X301050D01*
Y663700D01*
X293010D01*
X284970D01*
Y659430D01*
X285510D01*
Y650470D01*
X288422D01*
Y648591D01*
X281241Y641410D01*
X267480D01*
Y617410D01*
X273440D01*
X274350Y616540D01*
X274350Y616140D01*
Y610270D01*
X289430D01*
Y616540D01*
X284890D01*
X283980Y617410D01*
X283980Y617810D01*
Y631171D01*
X291307Y638498D01*
X292480Y638012D01*
Y617410D01*
X294762D01*
Y616000D01*
X292860D01*
Y602000D01*
X305110D01*
X305708Y600880D01*
X305348Y600341D01*
X304883Y598000D01*
X305348Y595659D01*
X305792Y594994D01*
X305194Y593874D01*
X287540D01*
X286264Y593620D01*
X285182Y592897D01*
X265081Y572796D01*
X264505Y572381D01*
X263272Y572593D01*
X262658Y573003D01*
X261000Y573333D01*
X259342Y573003D01*
X257936Y572064D01*
X256997Y570658D01*
X256667Y569000D01*
X256997Y567342D01*
X257936Y565936D01*
X258666Y565448D01*
Y553000D01*
X258920Y551724D01*
X259643Y550643D01*
X262579Y547706D01*
X263660Y546984D01*
X263961Y546924D01*
Y546000D01*
X264040Y545604D01*
X264116Y545220D01*
X264116Y545220D01*
X264116Y545220D01*
X264338Y544888D01*
X264558Y544558D01*
X264558Y544558D01*
X264558Y544558D01*
X264887Y544338D01*
X265219Y544116D01*
X265219Y544116D01*
X265220Y544116D01*
X265603Y544040D01*
X265999Y543961D01*
X269046Y543960D01*
X269151Y543981D01*
X269257Y543971D01*
X269538Y544058D01*
X269827Y544115D01*
X269874Y544146D01*
X269919Y544116D01*
X270004Y544099D01*
X270081Y544057D01*
X270392Y544022D01*
X270699Y543961D01*
X273566D01*
X274904Y542623D01*
X275985Y541900D01*
X277261Y541646D01*
X280300D01*
Y539980D01*
X284466D01*
Y533380D01*
X284601Y532703D01*
X284720Y532104D01*
X284720Y532104D01*
X284720Y532104D01*
X285130Y531491D01*
Y522050D01*
X299130D01*
Y536050D01*
X291134D01*
Y539980D01*
X295300D01*
Y548940D01*
X295840D01*
Y549003D01*
X296960Y549602D01*
X297131Y549488D01*
X297730Y549369D01*
Y554000D01*
Y558631D01*
X297131Y558512D01*
X296960Y558398D01*
X295840Y558997D01*
Y560020D01*
X295300D01*
Y568980D01*
X280300D01*
Y567314D01*
X278543D01*
X278425Y567908D01*
X277983Y568570D01*
X277321Y569012D01*
X276541Y569167D01*
X272542D01*
X272056Y570340D01*
X288921Y587206D01*
X309962D01*
X310087Y585936D01*
X308659Y585652D01*
X306674Y584326D01*
X305348Y582341D01*
X304883Y580000D01*
X305348Y577659D01*
X306674Y575674D01*
X308659Y574348D01*
X309637Y574154D01*
X310525Y572682D01*
X310466Y572387D01*
Y568980D01*
X306300D01*
Y558980D01*
X321300D01*
Y560646D01*
X325000D01*
Y556860D01*
X339000D01*
Y568865D01*
X340000Y569961D01*
X343606D01*
X344000Y569883D01*
X351000D01*
X351394Y569961D01*
X353620D01*
Y567710D01*
X366455D01*
X366817Y567270D01*
X372000D01*
Y564730D01*
X366827D01*
X366457Y564280D01*
X361890D01*
Y558010D01*
X368160D01*
Y561277D01*
X369430Y561956D01*
X370131Y561488D01*
X371140Y561287D01*
Y560660D01*
X371680D01*
Y551700D01*
X374592D01*
Y549820D01*
X367412Y542640D01*
X353650D01*
Y518640D01*
X370150D01*
Y532401D01*
X377477Y539728D01*
X378650Y539242D01*
Y518640D01*
X380762D01*
Y516000D01*
X378860D01*
Y502000D01*
X381388D01*
X381596Y501790D01*
X381674Y500326D01*
X380348Y498341D01*
X379883Y496000D01*
X380348Y493659D01*
X381674Y491674D01*
X383659Y490348D01*
X384540Y490173D01*
X385116Y488780D01*
X385113Y488764D01*
X384961Y488000D01*
Y470000D01*
X385116Y469220D01*
X385558Y468558D01*
X386220Y468116D01*
X387000Y467961D01*
X388000D01*
Y467860D01*
X401730D01*
X402000Y467860D01*
X402000Y467860D01*
X403000D01*
Y467860D01*
X403270Y467860D01*
X416730D01*
X417000Y467860D01*
X417000Y467860D01*
X418000D01*
Y467860D01*
X418270Y467860D01*
X432000D01*
Y467961D01*
X432780Y468116D01*
X433442Y468558D01*
X433671Y468901D01*
X434941Y468521D01*
Y451267D01*
X433810Y450136D01*
X432540Y450662D01*
Y455620D01*
X426270D01*
Y449350D01*
X431228D01*
X431754Y448080D01*
X409733Y426059D01*
X402493D01*
X401895Y427179D01*
X402003Y427342D01*
X402333Y429000D01*
X402003Y430658D01*
X401064Y432064D01*
X399658Y433003D01*
X398000Y433333D01*
X396342Y433003D01*
X394936Y432064D01*
X394932Y432059D01*
X389267D01*
X363359Y457967D01*
X363845Y459140D01*
X364000D01*
Y473140D01*
X350000D01*
X350000Y472890D01*
X336000D01*
Y458890D01*
X341936D01*
X342667Y458000D01*
X342997Y456342D01*
X343936Y454936D01*
X345342Y453997D01*
X347000Y453667D01*
X348658Y453997D01*
X350064Y454936D01*
X351003Y456342D01*
X351333Y458000D01*
X351302Y458158D01*
X352108Y459140D01*
X354112D01*
X354174Y458829D01*
X354837Y457837D01*
X385345Y427329D01*
X384819Y426059D01*
X337000D01*
X335736Y427102D01*
X335696Y427371D01*
X341163Y432837D01*
X341163Y432837D01*
X341826Y433829D01*
X342059Y435000D01*
Y436932D01*
X342064Y436936D01*
X343003Y438342D01*
X343333Y440000D01*
X343003Y441658D01*
X342064Y443064D01*
X340658Y444003D01*
X339000Y444333D01*
X337342Y444003D01*
X335936Y443064D01*
X334997Y441658D01*
X334667Y440000D01*
X334997Y438342D01*
X335936Y436936D01*
X335498Y435824D01*
X333213Y433538D01*
X332039Y434024D01*
Y440000D01*
X331960Y440396D01*
X331884Y440780D01*
X331884Y440780D01*
X331884Y440780D01*
X331662Y441112D01*
X331630Y441161D01*
Y441429D01*
X331397Y442599D01*
X330734Y443592D01*
X323163Y451163D01*
X323000Y451272D01*
Y453500D01*
X321059D01*
Y458000D01*
X322860D01*
Y470730D01*
X322860Y472000D01*
X322860Y473270D01*
Y486000D01*
X321334D01*
Y490500D01*
X323000D01*
Y499500D01*
X321059D01*
Y504158D01*
X320826Y505329D01*
X320163Y506321D01*
X315039Y511445D01*
Y515000D01*
X314960Y515396D01*
X314884Y515780D01*
X314884Y515780D01*
X314884Y515780D01*
X314662Y516112D01*
X314442Y516441D01*
X314442Y516442D01*
X314442Y516442D01*
X314113Y516661D01*
X313781Y516884D01*
X313781Y516884D01*
X313780Y516884D01*
X313397Y516960D01*
X313001Y517039D01*
X309953Y517040D01*
X309849Y517019D01*
X309743Y517029D01*
X309462Y516942D01*
X309173Y516885D01*
X309126Y516854D01*
X309081Y516884D01*
X308996Y516901D01*
X308920Y516943D01*
X308608Y516978D01*
X308301Y517039D01*
X302459D01*
X301679Y516884D01*
X301017Y516442D01*
X300575Y515780D01*
X300420Y515000D01*
Y512746D01*
X293837Y506163D01*
X293174Y505171D01*
X292941Y504000D01*
X292941Y504000D01*
Y499500D01*
X291000D01*
Y499059D01*
X285068D01*
X285064Y499064D01*
X283658Y500003D01*
X282000Y500333D01*
X280342Y500003D01*
X278936Y499064D01*
X277997Y497658D01*
X277667Y496000D01*
X277997Y494342D01*
X278445Y493670D01*
X277767Y492400D01*
X277619Y492400D01*
X277619Y492400D01*
X277571Y492400D01*
X272270D01*
Y486130D01*
X278540D01*
X278540Y491451D01*
Y491517D01*
Y491517D01*
X278540Y491673D01*
X278929Y491881D01*
X279810Y492352D01*
X280342Y491997D01*
X282000Y491667D01*
X283658Y491997D01*
X285064Y492936D01*
X285068Y492941D01*
X291000D01*
Y490500D01*
X301000D01*
Y499500D01*
X299059D01*
Y502733D01*
X301460Y505134D01*
X301679Y504988D01*
X302459Y504833D01*
X308301D01*
X308608Y504894D01*
X308920Y504929D01*
X308996Y504971D01*
X309081Y504988D01*
X309126Y505018D01*
X309172Y504988D01*
X309461Y504931D01*
X309742Y504844D01*
X309848Y504854D01*
X309952Y504833D01*
X312999D01*
X314941Y502891D01*
Y499500D01*
X313000D01*
Y490500D01*
X314666D01*
Y486000D01*
X308860D01*
Y473270D01*
X308860Y472000D01*
X308860Y470730D01*
Y458000D01*
X314941D01*
Y453500D01*
X313000D01*
Y444500D01*
X321174D01*
X322462Y443213D01*
X321976Y442039D01*
X319459D01*
X318679Y441884D01*
X318017Y441442D01*
X317575Y440780D01*
X317420Y440000D01*
Y438995D01*
X309936D01*
X309936Y438995D01*
X308766Y438762D01*
X307773Y438099D01*
X307773Y438099D01*
X305006Y435332D01*
X305000Y435333D01*
X304040Y435142D01*
X299059Y440123D01*
Y444500D01*
X301000D01*
Y453500D01*
X292334D01*
Y456619D01*
X293715Y458000D01*
X304890D01*
Y472000D01*
X304890D01*
X304890Y473270D01*
Y486000D01*
X290890D01*
Y477340D01*
X281642Y468092D01*
X280920Y467010D01*
X280666Y465735D01*
Y444189D01*
X279396Y443511D01*
X278658Y444003D01*
X277000Y444333D01*
X275342Y444003D01*
X274653Y443543D01*
X273500Y444300D01*
Y452750D01*
X272901D01*
X272658Y453997D01*
X274064Y454936D01*
X275003Y456342D01*
X275333Y458000D01*
X275210Y458620D01*
X276252Y459890D01*
X278000D01*
Y473890D01*
X264000D01*
X264000Y473890D01*
X263000Y474140D01*
X263000Y474140D01*
X262833Y474140D01*
X249000D01*
Y464855D01*
X247642Y463498D01*
X246920Y462416D01*
X246666Y461140D01*
Y452750D01*
X246500D01*
Y433250D01*
X246666D01*
Y425000D01*
X246920Y423724D01*
X247642Y422643D01*
X253162Y417122D01*
X254244Y416400D01*
X255520Y416146D01*
X265139D01*
X267888Y413397D01*
X267402Y412224D01*
X265770D01*
X264768Y412893D01*
X263110Y413223D01*
X261452Y412893D01*
X260046Y411954D01*
X259107Y410548D01*
X258777Y408890D01*
X259046Y407537D01*
X257849Y407042D01*
X257358Y407778D01*
X248238Y416898D01*
X247156Y417620D01*
X245881Y417874D01*
X235818D01*
X234600Y418000D01*
Y434200D01*
X231515D01*
X225428Y440287D01*
X225914Y441460D01*
X232650D01*
Y447730D01*
X225110D01*
Y449000D01*
X223840D01*
Y456540D01*
X223456D01*
X223432Y456580D01*
X224151Y457850D01*
X235500D01*
Y478150D01*
X230501D01*
X213908Y494744D01*
Y497375D01*
X215558Y498642D01*
X217482Y501148D01*
X218691Y504067D01*
X218787Y504797D01*
X220068D01*
X220183Y503926D01*
X221446Y500876D01*
X223456Y498256D01*
X226076Y496246D01*
X229126Y494983D01*
X231130Y494719D01*
Y507200D01*
X232400D01*
Y508470D01*
X244881D01*
X244617Y510474D01*
X243354Y513524D01*
X241344Y516144D01*
X238724Y518154D01*
X235674Y519417D01*
X234803Y519532D01*
Y520813D01*
X235533Y520909D01*
X238452Y522118D01*
X240958Y524041D01*
X242882Y526548D01*
X244091Y529467D01*
X244504Y532600D01*
X244091Y535733D01*
X242882Y538652D01*
X240958Y541158D01*
X238452Y543082D01*
X235533Y544291D01*
X232735Y544660D01*
Y545941D01*
X235533Y546309D01*
X238452Y547518D01*
X240958Y549441D01*
X242882Y551948D01*
X244091Y554867D01*
X244504Y558000D01*
X244091Y561133D01*
X242882Y564052D01*
X240958Y566558D01*
X238452Y568482D01*
X235533Y569691D01*
X232400Y570104D01*
X229267Y569691D01*
X229048Y569600D01*
X228328Y570677D01*
X233826Y576174D01*
X235152Y578159D01*
X235617Y580500D01*
Y580850D01*
X237500D01*
Y601150D01*
X234331D01*
X233330Y601800D01*
X233330Y602420D01*
Y608070D01*
X225790D01*
Y609340D01*
D01*
Y608070D01*
X218250D01*
Y601800D01*
X220499D01*
X221500Y601150D01*
X221500Y600530D01*
Y581151D01*
X210051Y569702D01*
X207000Y570104D01*
X203867Y569691D01*
X200948Y568482D01*
X198442Y566558D01*
X196518Y564052D01*
X195309Y561133D01*
X194897Y558000D01*
X195309Y554867D01*
X196518Y551948D01*
X198442Y549441D01*
X200948Y547518D01*
X203867Y546309D01*
X206665Y545941D01*
Y544660D01*
X203867Y544291D01*
X200948Y543082D01*
X198442Y541158D01*
X196518Y538652D01*
X195502Y536199D01*
X182110D01*
Y544000D01*
X168110D01*
Y530000D01*
X172051D01*
Y528000D01*
X168110D01*
Y514329D01*
X168110Y514000D01*
X167316Y513059D01*
X164934D01*
X164140Y514000D01*
Y528000D01*
X150140D01*
Y528000D01*
X149110D01*
Y528000D01*
X135110D01*
Y516015D01*
X133937Y515529D01*
X131140Y518326D01*
Y528000D01*
X117140D01*
Y514000D01*
X126814D01*
X132977Y507837D01*
X133969Y507174D01*
X135140Y506941D01*
X135140Y506941D01*
X176733D01*
X191941Y491733D01*
Y489068D01*
X191936Y489064D01*
X190997Y487658D01*
X190667Y486000D01*
X190997Y484342D01*
X191936Y482936D01*
X193342Y481997D01*
X195000Y481667D01*
X196658Y481997D01*
X198064Y482936D01*
X199003Y484342D01*
X199333Y486000D01*
X199003Y487658D01*
X198064Y489064D01*
X198059Y489068D01*
Y493000D01*
X197826Y494171D01*
X197163Y495163D01*
X197163Y495163D01*
X180163Y512163D01*
X180062Y513758D01*
X180255Y514000D01*
X182110D01*
Y528000D01*
X178169D01*
Y530000D01*
X182110D01*
Y530081D01*
X195228D01*
X195309Y529467D01*
X196518Y526548D01*
X198442Y524041D01*
X200948Y522118D01*
X203867Y520909D01*
X206665Y520541D01*
Y519259D01*
X203867Y518891D01*
X200948Y517682D01*
X198442Y515759D01*
X196518Y513252D01*
X195309Y510333D01*
X194897Y507200D01*
X195309Y504067D01*
X196518Y501148D01*
X198442Y498642D01*
X200948Y496718D01*
X201672Y496418D01*
Y492210D01*
X202138Y489869D01*
X203464Y487884D01*
X212025Y479323D01*
X211539Y478150D01*
X198500D01*
Y467092D01*
X198217Y466903D01*
X193230Y461916D01*
X191960Y462442D01*
Y464060D01*
X179420D01*
Y466600D01*
X191960D01*
Y469120D01*
X181387D01*
X180956Y470390D01*
X181298Y470653D01*
X182506Y472228D01*
X183266Y474062D01*
X183358Y474760D01*
X153482D01*
X153574Y474062D01*
X154334Y472228D01*
X155542Y470653D01*
X157118Y469444D01*
X158952Y468684D01*
X160429Y468490D01*
X160696Y467174D01*
X159066Y466085D01*
X157731Y464087D01*
X157515Y463000D01*
X163420D01*
Y460460D01*
X157515D01*
X157731Y459373D01*
X159066Y457375D01*
X161064Y456040D01*
X161352Y455983D01*
X161721Y454768D01*
X156477Y449523D01*
X155703Y448366D01*
X155703Y448366D01*
X155432Y447000D01*
Y417896D01*
X155703Y416530D01*
X156477Y415373D01*
X157563Y414647D01*
X161412Y410798D01*
X160902Y409512D01*
X159066Y408285D01*
X157731Y406287D01*
X157515Y405200D01*
X163420D01*
Y402660D01*
X157515D01*
X157731Y401573D01*
X159066Y399576D01*
X160696Y398487D01*
X160429Y397170D01*
X158952Y396976D01*
X157118Y396216D01*
X155542Y395008D01*
X154334Y393433D01*
X153574Y391598D01*
X153482Y390900D01*
X183358D01*
X183266Y391598D01*
X182506Y393433D01*
X181298Y395008D01*
X180956Y395270D01*
X181387Y396540D01*
X191960D01*
Y399060D01*
X179420D01*
Y401560D01*
Y404100D01*
X191960D01*
Y406620D01*
X191420D01*
Y411996D01*
X194289D01*
X197666Y408619D01*
Y386140D01*
X197920Y384864D01*
X198643Y383782D01*
X200140Y382285D01*
Y373000D01*
X214140D01*
Y387000D01*
X204855D01*
X204334Y387521D01*
Y391307D01*
X205400Y391800D01*
X214317D01*
X214360Y391769D01*
Y391270D01*
X225640D01*
Y391769D01*
X225683Y391800D01*
X234600D01*
Y406666D01*
X236627D01*
X236642Y406642D01*
X236762Y406523D01*
X236997Y405342D01*
X237936Y403936D01*
X239342Y402997D01*
X241000Y402667D01*
X242658Y402997D01*
X244064Y403936D01*
X245234Y404051D01*
X245677Y403608D01*
X246500Y402750D01*
X246500D01*
X246500Y402750D01*
Y383250D01*
X255960D01*
Y382710D01*
X258730D01*
Y393000D01*
X261270D01*
Y382710D01*
X261941D01*
Y379172D01*
X260674Y378326D01*
X259348Y376341D01*
X258883Y374000D01*
X259348Y371659D01*
X260674Y369674D01*
X262659Y368348D01*
X265000Y367882D01*
X267341Y368348D01*
X269326Y369674D01*
X270652Y371659D01*
X270853Y372668D01*
X272147D01*
X272348Y371659D01*
X273674Y369674D01*
X275659Y368348D01*
X278000Y367882D01*
X280341Y368348D01*
X282326Y369674D01*
X283652Y371659D01*
X284118Y374000D01*
X283652Y376341D01*
X282326Y378326D01*
X280341Y379652D01*
X278000Y380118D01*
X275659Y379652D01*
X275068Y379257D01*
X273059Y381267D01*
Y383250D01*
X273500D01*
Y399126D01*
X274673Y399612D01*
X276421Y397864D01*
X276642Y397533D01*
X282000Y392175D01*
Y382890D01*
X296000D01*
Y394225D01*
X297270Y394713D01*
X298342Y393997D01*
X300000Y393667D01*
X300533Y393773D01*
X301473Y392675D01*
Y390024D01*
X301353Y389844D01*
X301198Y389064D01*
Y380936D01*
X301353Y380156D01*
X301473Y379976D01*
Y376000D01*
X300890D01*
Y362000D01*
X314890D01*
Y376000D01*
X307591D01*
Y378897D01*
X309079D01*
X309386Y378958D01*
X309697Y378993D01*
X309774Y379035D01*
X309859Y379052D01*
X309904Y379082D01*
X309950Y379052D01*
X310239Y378995D01*
X310520Y378908D01*
X310626Y378918D01*
X310730Y378897D01*
X313778D01*
X314558Y379052D01*
X315220Y379494D01*
X315555Y379995D01*
X315694Y380172D01*
X317023Y380857D01*
X317054Y380855D01*
X318000Y380667D01*
X319658Y380997D01*
X321064Y381936D01*
X322003Y383342D01*
X322333Y385000D01*
X322003Y386658D01*
X321064Y388064D01*
X319658Y389003D01*
X318000Y389333D01*
X317054Y389145D01*
X317018Y389143D01*
X316664Y389230D01*
X315699Y389821D01*
X315555Y390005D01*
X315440Y390176D01*
X315220Y390505D01*
X315220Y390506D01*
X315220Y390506D01*
X314891Y390726D01*
X314778Y390801D01*
X314665Y391447D01*
X314665Y391553D01*
X314778Y392199D01*
X315220Y392494D01*
X315662Y393156D01*
X315817Y393936D01*
Y394941D01*
X319000D01*
X319000Y394941D01*
X320171Y395174D01*
X321163Y395837D01*
X340267Y414941D01*
X408270D01*
X408756Y413768D01*
X405047Y410059D01*
X396000D01*
X396000Y410059D01*
X394829Y409826D01*
X393837Y409163D01*
X393837Y409163D01*
X372837Y388163D01*
X372174Y387170D01*
X371941Y386000D01*
X371941Y386000D01*
Y378754D01*
X371936Y378750D01*
X370997Y377345D01*
X370667Y375686D01*
X370997Y374028D01*
X371936Y372622D01*
X371941Y372619D01*
Y353043D01*
X370671Y352790D01*
X370298Y353691D01*
X368775Y355676D01*
X366791Y357198D01*
X364480Y358156D01*
X362000Y358482D01*
X359520Y358156D01*
X359079Y357973D01*
X357118Y359934D01*
Y398000D01*
X356652Y400341D01*
X355326Y402326D01*
X353341Y403652D01*
X351000Y404118D01*
X348659Y403652D01*
X346674Y402326D01*
X345348Y400341D01*
X344883Y398000D01*
Y357400D01*
X345348Y355059D01*
X346674Y353074D01*
X352418Y347330D01*
Y343900D01*
X352745Y341420D01*
X353702Y339109D01*
X355225Y337124D01*
X357209Y335602D01*
X359520Y334645D01*
X361829Y334341D01*
Y333060D01*
X359520Y332756D01*
X357209Y331798D01*
X355802Y330718D01*
X334880D01*
Y333000D01*
X334970D01*
Y347000D01*
X320970D01*
Y342498D01*
X319700Y342112D01*
X319064Y343064D01*
X317658Y344003D01*
X317000Y344134D01*
Y347000D01*
X303000D01*
Y342272D01*
X302837Y342163D01*
X284733Y324059D01*
X235000D01*
X235000Y324059D01*
X233829Y323826D01*
X232837Y323163D01*
X232837Y323163D01*
X227173Y317499D01*
X226000Y317985D01*
Y319500D01*
X206000D01*
Y306500D01*
X206000D01*
X205749Y305334D01*
X140000D01*
X139930Y305320D01*
X135826Y305643D01*
X131754Y306621D01*
X127885Y308223D01*
X124315Y310411D01*
X121131Y313131D01*
X118411Y316315D01*
X116223Y319885D01*
X114621Y323754D01*
X113643Y327826D01*
X113320Y331930D01*
X113334Y332000D01*
Y366580D01*
X113794Y367660D01*
X125064D01*
Y379200D01*
X126334D01*
Y380470D01*
X138874D01*
Y385395D01*
X139206Y385827D01*
X139966Y387662D01*
X140058Y388360D01*
X126620D01*
Y389630D01*
X125350D01*
Y397235D01*
X120620D01*
X118652Y396976D01*
X116818Y396216D01*
X115243Y395008D01*
X114604Y394175D01*
X113334Y394607D01*
Y471054D01*
X114604Y471485D01*
X115243Y470653D01*
X116818Y469444D01*
X118652Y468684D01*
X120620Y468425D01*
X125350D01*
Y476030D01*
X126620D01*
Y477300D01*
X140058D01*
X139966Y477999D01*
X139206Y479833D01*
X138874Y480266D01*
Y485190D01*
X126334D01*
Y486460D01*
X125064D01*
Y498000D01*
X113794D01*
X113334Y499079D01*
Y722000D01*
X113320Y722070D01*
X113643Y726175D01*
X114621Y730246D01*
X116223Y734115D01*
X118411Y737685D01*
X121131Y740870D01*
X124315Y743589D01*
X127885Y745777D01*
X131754Y747379D01*
X135826Y748357D01*
X139930Y748680D01*
X140000Y748666D01*
X603094D01*
X603346Y747396D01*
X602445Y747023D01*
X600766Y745734D01*
X599477Y744055D01*
X598667Y742099D01*
X598558Y741270D01*
X606500D01*
X614442D01*
X614333Y742099D01*
X613523Y744055D01*
X612234Y745734D01*
X610555Y747023D01*
X609654Y747396D01*
X609906Y748666D01*
X683094D01*
X683346Y747396D01*
X682445Y747023D01*
X680766Y745734D01*
X679477Y744055D01*
X678667Y742099D01*
X678558Y741270D01*
X686500D01*
X694442D01*
X694333Y742099D01*
X693523Y744055D01*
X692234Y745734D01*
X690555Y747023D01*
X689654Y747396D01*
X689906Y748666D01*
X830000D01*
X830070Y748680D01*
X834175Y748357D01*
D02*
G37*
G36*
X651670Y626328D02*
X651671Y625720D01*
X650837Y625163D01*
X650837Y625163D01*
X645006Y619332D01*
X645000Y619333D01*
X643342Y619003D01*
X641936Y618064D01*
X640997Y616658D01*
X640667Y615000D01*
X640997Y613342D01*
X641936Y611936D01*
X643342Y610997D01*
X645000Y610667D01*
X646658Y610997D01*
X648064Y611936D01*
X649003Y613342D01*
X649333Y615000D01*
X649332Y615006D01*
X654267Y619941D01*
X712733D01*
X722668Y610006D01*
X722667Y610000D01*
X722997Y608342D01*
X723936Y606936D01*
X725342Y605997D01*
X726533Y605760D01*
X726800Y604600D01*
X726800Y604431D01*
Y595640D01*
X726260D01*
Y591270D01*
X734900D01*
X743540D01*
Y595640D01*
X743000D01*
Y600013D01*
X744174Y600499D01*
X748310Y596362D01*
Y595025D01*
X748365Y594750D01*
X748310Y594475D01*
Y585525D01*
X748567Y584235D01*
X749297Y583142D01*
X751242Y581197D01*
X751242Y581197D01*
X752335Y580467D01*
X753000Y580335D01*
Y575400D01*
X758649D01*
X759035Y574130D01*
X758936Y574064D01*
X757997Y572658D01*
X757667Y571000D01*
X757997Y569342D01*
X758936Y567936D01*
X760342Y566997D01*
X762000Y566667D01*
X763658Y566997D01*
X765064Y567936D01*
X766003Y569342D01*
X766333Y571000D01*
X766003Y572658D01*
X765064Y574064D01*
X764966Y574130D01*
X765351Y575400D01*
X769200D01*
Y580210D01*
X769457D01*
X770747Y580467D01*
X771840Y581197D01*
X775633Y584990D01*
X780360D01*
X781650Y585247D01*
X782743Y585977D01*
X795165Y598399D01*
X796242Y597680D01*
X795745Y596480D01*
X795418Y594000D01*
X795745Y591520D01*
X796702Y589209D01*
X798225Y587225D01*
X800209Y585702D01*
X802520Y584745D01*
X805000Y584418D01*
X807480Y584745D01*
X809791Y585702D01*
X811776Y587225D01*
X813298Y589209D01*
X814256Y591520D01*
X814360Y592310D01*
X815640D01*
X815745Y591520D01*
X816702Y589209D01*
X818225Y587225D01*
X820209Y585702D01*
X822520Y584745D01*
X825000Y584418D01*
X826110Y584564D01*
X835837Y574837D01*
X836830Y574174D01*
X836592Y572926D01*
X836500D01*
X833879Y572581D01*
X831436Y571570D01*
X829339Y569961D01*
X827730Y567863D01*
X826987Y566070D01*
X825612D01*
X824870Y567863D01*
X823260Y569961D01*
X821163Y571570D01*
X818721Y572581D01*
X816100Y572926D01*
X814870D01*
Y562800D01*
Y552673D01*
X816100D01*
X818721Y553018D01*
X821163Y554030D01*
X823260Y555639D01*
X824870Y557737D01*
X825612Y559530D01*
X826987D01*
X827730Y557737D01*
X829339Y555639D01*
X831436Y554030D01*
X833879Y553018D01*
X836500Y552673D01*
X837730D01*
Y562800D01*
X840270D01*
Y552673D01*
X841500D01*
X844121Y553018D01*
X846563Y554030D01*
X848660Y555639D01*
X849671Y556957D01*
X850941Y556525D01*
Y553667D01*
X843935Y546661D01*
X841500Y546982D01*
X836500D01*
X834020Y546655D01*
X831709Y545698D01*
X829724Y544175D01*
X828202Y542191D01*
X827244Y539880D01*
X826940Y537570D01*
X825659D01*
X825355Y539880D01*
X824398Y542191D01*
X822875Y544175D01*
X820891Y545698D01*
X818580Y546655D01*
X816100Y546982D01*
X811100D01*
X808620Y546655D01*
X806309Y545698D01*
X804324Y544175D01*
X802802Y542191D01*
X801844Y539880D01*
X801518Y537400D01*
X801844Y534920D01*
X802802Y532609D01*
X804324Y530624D01*
X806013Y529329D01*
X805667Y528059D01*
X804000D01*
X804000Y528059D01*
X802830Y527826D01*
X801837Y527163D01*
X767733Y493059D01*
X667581D01*
X649559Y511080D01*
X650085Y512350D01*
X654730D01*
Y519890D01*
Y527430D01*
X649469D01*
X649453Y527453D01*
X647869Y528512D01*
X647270Y528631D01*
Y524000D01*
Y519297D01*
X648460Y518471D01*
Y513976D01*
X647190Y513450D01*
X629580Y531059D01*
X629824Y532611D01*
X630163Y532837D01*
X630826Y533829D01*
X631059Y535000D01*
X630826Y536171D01*
X630272Y537000D01*
X630826Y537830D01*
X631059Y539000D01*
X631831Y539941D01*
X639678D01*
X639997Y538342D01*
X640936Y536936D01*
X642342Y535997D01*
X644000Y535667D01*
X645658Y535997D01*
X647064Y536936D01*
X647730Y537932D01*
X649000Y537547D01*
Y530860D01*
X657814D01*
X660071Y528603D01*
X659585Y527430D01*
X657270D01*
Y519890D01*
Y512350D01*
X663540D01*
Y515813D01*
X664810Y516339D01*
X668072Y513076D01*
Y499902D01*
X687072D01*
Y515902D01*
X673898D01*
X671767Y518033D01*
X672253Y519206D01*
X687072D01*
Y533083D01*
X688246Y533569D01*
X690678Y531136D01*
Y519206D01*
X709678D01*
Y535206D01*
X707688D01*
X707650Y536460D01*
X707650D01*
Y542730D01*
X700110D01*
X692570D01*
Y539555D01*
X691397Y539069D01*
X689140Y541326D01*
Y551000D01*
X675140D01*
Y545119D01*
X671207D01*
X663163Y553163D01*
X663020Y554434D01*
X663153Y554697D01*
X664658Y554997D01*
X666064Y555936D01*
X667003Y557342D01*
X667333Y559000D01*
X667003Y560658D01*
X666064Y562064D01*
X664658Y563003D01*
X663756Y563183D01*
X663032Y564298D01*
X663039Y564522D01*
X663333Y566000D01*
X663003Y567658D01*
X662064Y569064D01*
X660658Y570003D01*
X659213Y570291D01*
X658843Y570518D01*
X658059Y571441D01*
Y573932D01*
X658064Y573936D01*
X659003Y575342D01*
X659333Y577000D01*
X659003Y578658D01*
X658064Y580064D01*
X656658Y581003D01*
X655000Y581333D01*
X653342Y581003D01*
X651936Y580064D01*
X650997Y578658D01*
X650667Y577000D01*
X650997Y575342D01*
X651936Y573936D01*
X651941Y573932D01*
Y572267D01*
X645733Y566059D01*
X630831D01*
X630059Y567000D01*
X630831Y567941D01*
X640000D01*
X640000Y567941D01*
X641171Y568174D01*
X642163Y568837D01*
X645162Y571836D01*
X645162Y571836D01*
X645825Y572828D01*
X646042Y573922D01*
X646063Y573935D01*
X647002Y575341D01*
X647332Y577000D01*
X647002Y578658D01*
X646063Y580064D01*
X644657Y581003D01*
X642999Y581333D01*
X641341Y581003D01*
X640388Y580366D01*
X639499Y580163D01*
X638610Y580366D01*
X638282Y580585D01*
X638026Y582126D01*
X640092Y584191D01*
X667941D01*
Y579000D01*
X667941Y579000D01*
X668174Y577830D01*
X668837Y576837D01*
X670405Y575269D01*
X669997Y574658D01*
X669667Y573000D01*
X669997Y571342D01*
X670936Y569936D01*
X672342Y568997D01*
X674000Y568667D01*
X675658Y568997D01*
X677064Y569936D01*
X678003Y571342D01*
X678333Y573000D01*
X678003Y574658D01*
X677064Y576064D01*
X677043Y576078D01*
X676826Y577170D01*
X676163Y578163D01*
X676163Y578163D01*
X674059Y580267D01*
Y584191D01*
X686483D01*
X726087Y544587D01*
X726087Y544587D01*
X727079Y543924D01*
X728250Y543691D01*
X728250Y543691D01*
X730828D01*
X731506Y542421D01*
X730997Y541658D01*
X730667Y540000D01*
X730997Y538342D01*
X731936Y536936D01*
X733342Y535997D01*
X735000Y535667D01*
X736658Y535997D01*
X738064Y536936D01*
X739003Y538342D01*
X739333Y540000D01*
X739003Y541658D01*
X738494Y542421D01*
X739172Y543691D01*
X760750D01*
X760750Y543691D01*
X761920Y543924D01*
X762913Y544587D01*
X765994Y547668D01*
X766000Y547667D01*
X767658Y547997D01*
X769064Y548936D01*
X770003Y550342D01*
X770333Y552000D01*
X770003Y553658D01*
X769064Y555064D01*
X767658Y556003D01*
X766000Y556333D01*
X764342Y556003D01*
X762936Y555064D01*
X761997Y553658D01*
X761667Y552000D01*
X761668Y551994D01*
X760116Y550442D01*
X759181Y550510D01*
X758276Y551712D01*
X758333Y552000D01*
X758003Y553658D01*
X757064Y555064D01*
X755658Y556003D01*
X754000Y556333D01*
X753994Y556332D01*
X750913Y559413D01*
X749921Y560076D01*
X748750Y560309D01*
X748750Y560309D01*
X738915D01*
X738530Y561579D01*
X739064Y561936D01*
X740003Y563342D01*
X740333Y565000D01*
X740003Y566658D01*
X739064Y568064D01*
X737658Y569003D01*
X736000Y569333D01*
X735994Y569332D01*
X731099Y574227D01*
X731585Y575400D01*
X743000D01*
Y584360D01*
X743540D01*
Y588730D01*
X734900D01*
X726260D01*
Y584360D01*
X726800D01*
Y580185D01*
X725627Y579699D01*
X703913Y601413D01*
X702921Y602076D01*
X701750Y602309D01*
X701750Y602309D01*
X633854D01*
X632684Y602076D01*
X631692Y601413D01*
X631654Y601375D01*
X630335Y601423D01*
X630050Y601568D01*
X629876Y602082D01*
X630059Y603000D01*
X629826Y604170D01*
X629272Y605000D01*
X629826Y605829D01*
X630059Y607000D01*
X629826Y608170D01*
X629163Y609163D01*
X628170Y609826D01*
X627000Y610059D01*
X616000D01*
X615704Y610000D01*
X612452D01*
X612067Y611270D01*
X613063Y611935D01*
X614002Y613341D01*
X614332Y614999D01*
X614002Y616658D01*
X613063Y618063D01*
X611657Y619003D01*
X609999Y619333D01*
X609059Y620104D01*
Y625000D01*
X608916Y625720D01*
X609689Y626990D01*
X651460D01*
X651670Y626328D01*
D02*
G37*
G36*
X336923Y573920D02*
X326255D01*
X331017Y579000D01*
X326255Y584080D01*
X336923D01*
Y573920D01*
D02*
G37*
G36*
X415840Y581396D02*
X415488Y580869D01*
X415369Y580270D01*
X420000D01*
Y577730D01*
X415369D01*
X415488Y577131D01*
X416547Y575547D01*
X417660Y574803D01*
Y569594D01*
X416487Y569108D01*
X412680Y572915D01*
Y580700D01*
X397680D01*
Y571764D01*
X396410Y571238D01*
X389064Y578584D01*
X387741Y579468D01*
X386680Y579679D01*
Y580700D01*
X379673D01*
X379180Y580798D01*
X368518D01*
X368317Y580999D01*
X368123Y581502D01*
X368956Y582666D01*
X415161D01*
X415840Y581396D01*
D02*
G37*
G36*
X328000Y579000D02*
X323207Y573920D01*
X317873D01*
Y584080D01*
X323207D01*
X328000Y579000D01*
D02*
G37*
%LPC*%
G36*
X375430Y607730D02*
X369160D01*
Y601460D01*
X375430D01*
Y607730D01*
D02*
G37*
G36*
X561990Y544680D02*
X546220D01*
Y528910D01*
X561990D01*
Y544680D01*
D02*
G37*
G36*
Y582780D02*
X546220D01*
Y567010D01*
X561990D01*
Y582780D01*
D02*
G37*
G36*
X581780Y582780D02*
X566010D01*
Y567010D01*
X581780D01*
Y582780D01*
D02*
G37*
G36*
X561990Y562990D02*
X546220D01*
Y547220D01*
X561990D01*
Y547221D01*
X562730Y547828D01*
Y553000D01*
Y558172D01*
X561990Y558779D01*
Y562990D01*
D02*
G37*
G36*
X600090D02*
X584320D01*
Y547220D01*
X600090D01*
Y562990D01*
D02*
G37*
G36*
X581780D02*
X566010D01*
Y558779D01*
X565270Y558172D01*
Y553000D01*
Y547828D01*
X566010Y547221D01*
Y547220D01*
X581780D01*
Y562990D01*
D02*
G37*
G36*
X543680Y582780D02*
X527910D01*
Y567010D01*
X530221D01*
X530828Y566270D01*
X541172D01*
X541779Y567010D01*
X543680D01*
Y582780D01*
D02*
G37*
G36*
X512270Y479631D02*
Y476270D01*
X515631D01*
X515512Y476869D01*
X514453Y478453D01*
X512869Y479512D01*
X512270Y479631D01*
D02*
G37*
G36*
X515631Y473730D02*
X512270D01*
Y470369D01*
X512869Y470488D01*
X514453Y471547D01*
X515512Y473131D01*
X515631Y473730D01*
D02*
G37*
G36*
X432740Y574040D02*
X426470D01*
Y567770D01*
X432740D01*
Y574040D01*
D02*
G37*
G36*
X787370Y331481D02*
Y320270D01*
X798581D01*
X798317Y322274D01*
X797054Y325324D01*
X795044Y327944D01*
X792424Y329954D01*
X789374Y331217D01*
X787370Y331481D01*
D02*
G37*
G36*
X676927Y345130D02*
X656673D01*
Y343900D01*
X657018Y341279D01*
X658030Y338837D01*
X659639Y336739D01*
X661737Y335130D01*
X663530Y334387D01*
Y333013D01*
X661737Y332270D01*
X659639Y330661D01*
X658030Y328563D01*
X657018Y326121D01*
X656673Y323500D01*
Y322270D01*
X676927D01*
Y323500D01*
X676582Y326121D01*
X675570Y328563D01*
X673961Y330661D01*
X671863Y332270D01*
X670070Y333013D01*
Y334387D01*
X671863Y335130D01*
X673961Y336739D01*
X675570Y338837D01*
X676582Y341279D01*
X676927Y343900D01*
Y345130D01*
D02*
G37*
G36*
X852524Y330730D02*
X831270D01*
Y309476D01*
X834419Y309786D01*
X838668Y311075D01*
X842583Y313168D01*
X846015Y315985D01*
X848832Y319417D01*
X850925Y323332D01*
X852214Y327581D01*
X852524Y330730D01*
D02*
G37*
G36*
X676927Y319730D02*
X668070D01*
Y308541D01*
X669421Y308718D01*
X671863Y309730D01*
X673961Y311339D01*
X675570Y313437D01*
X676582Y315879D01*
X676927Y318500D01*
Y319730D01*
D02*
G37*
G36*
X665530D02*
X656673D01*
Y318500D01*
X657018Y315879D01*
X658030Y313437D01*
X659639Y311339D01*
X661737Y309730D01*
X664179Y308718D01*
X665530Y308541D01*
Y319730D01*
D02*
G37*
G36*
X828730Y330730D02*
X807476D01*
X807786Y327581D01*
X809075Y323332D01*
X811168Y319417D01*
X813985Y315985D01*
X817417Y313168D01*
X821333Y311075D01*
X825582Y309786D01*
X828730Y309476D01*
Y330730D01*
D02*
G37*
G36*
X668070Y358859D02*
Y347670D01*
X676927D01*
Y348900D01*
X676582Y351521D01*
X675570Y353963D01*
X673961Y356061D01*
X671863Y357670D01*
X669421Y358682D01*
X668070Y358859D01*
D02*
G37*
G36*
X665530D02*
X664179Y358682D01*
X661737Y357670D01*
X659639Y356061D01*
X658030Y353963D01*
X657018Y351521D01*
X656673Y348900D01*
Y347670D01*
X665530D01*
Y358859D01*
D02*
G37*
G36*
X831270Y354524D02*
Y333270D01*
X852524D01*
X852214Y336419D01*
X850925Y340667D01*
X848832Y344583D01*
X846015Y348015D01*
X842583Y350832D01*
X838668Y352925D01*
X834419Y354214D01*
X831270Y354524D01*
D02*
G37*
G36*
X828730D02*
X825582Y354214D01*
X821333Y352925D01*
X817417Y350832D01*
X813985Y348015D01*
X811168Y344583D01*
X809075Y340667D01*
X807786Y336419D01*
X807476Y333270D01*
X828730D01*
Y354524D01*
D02*
G37*
G36*
X592300Y446630D02*
X586030D01*
Y439090D01*
X583490D01*
Y446630D01*
X577220D01*
Y446430D01*
X572270D01*
Y438890D01*
X569730D01*
Y446430D01*
X558270D01*
Y438890D01*
Y431350D01*
X571099D01*
X571484Y430080D01*
X570547Y429453D01*
X569488Y427869D01*
X569369Y427270D01*
X574000D01*
Y426000D01*
X575270D01*
Y421369D01*
X575869Y421488D01*
X577153Y422346D01*
X578000Y422468D01*
X578847Y422346D01*
X580131Y421488D01*
X580730Y421369D01*
Y426000D01*
X582000D01*
Y427270D01*
X586631D01*
X586512Y427869D01*
X585453Y429453D01*
X584216Y430280D01*
X584601Y431550D01*
X591190D01*
Y431300D01*
X597460D01*
Y438840D01*
Y446380D01*
X592300D01*
Y446630D01*
D02*
G37*
G36*
X742730Y427631D02*
X742131Y427512D01*
X740847Y426654D01*
X740000Y426532D01*
X739153Y426654D01*
X737869Y427512D01*
X737270Y427631D01*
Y423000D01*
Y418369D01*
X737869Y418488D01*
X739153Y419346D01*
X740000Y419468D01*
X740847Y419346D01*
X742131Y418488D01*
X742730Y418369D01*
Y423000D01*
Y427631D01*
D02*
G37*
G36*
X702000Y440110D02*
X702000Y440110D01*
X688000D01*
Y426110D01*
X702000D01*
Y426110D01*
X702000D01*
Y426110D01*
X716000D01*
Y440110D01*
X703270D01*
X702000Y440110D01*
Y440110D01*
D02*
G37*
G36*
X629380Y393981D02*
X628781Y393862D01*
X627197Y392803D01*
X626138Y391219D01*
X626019Y390620D01*
X629380D01*
Y393981D01*
D02*
G37*
G36*
X635281Y388080D02*
X631920D01*
Y384719D01*
X632519Y384838D01*
X634103Y385897D01*
X635162Y387481D01*
X635281Y388080D01*
D02*
G37*
G36*
X631920Y393981D02*
Y390620D01*
X635281D01*
X635162Y391219D01*
X634103Y392803D01*
X632519Y393862D01*
X631920Y393981D01*
D02*
G37*
G36*
X629380Y388080D02*
X626019D01*
X626138Y387481D01*
X627197Y385897D01*
X628781Y384838D01*
X629380Y384719D01*
Y388080D01*
D02*
G37*
G36*
X745270Y427631D02*
Y424270D01*
X748631D01*
X748512Y424869D01*
X747453Y426453D01*
X745869Y427512D01*
X745270Y427631D01*
D02*
G37*
G36*
X734730D02*
X734131Y427512D01*
X732547Y426453D01*
X731488Y424869D01*
X731369Y424270D01*
X734730D01*
Y427631D01*
D02*
G37*
G36*
X586631Y424730D02*
X583270D01*
Y421369D01*
X583869Y421488D01*
X585453Y422547D01*
X586512Y424131D01*
X586631Y424730D01*
D02*
G37*
G36*
X734730Y421730D02*
X731369D01*
X731488Y421131D01*
X732547Y419547D01*
X734131Y418488D01*
X734730Y418369D01*
Y421730D01*
D02*
G37*
G36*
X605000Y417333D02*
X603342Y417003D01*
X601936Y416064D01*
X600997Y414658D01*
X600667Y413000D01*
X600997Y411342D01*
X601936Y409936D01*
X603342Y408997D01*
X605000Y408667D01*
X606658Y408997D01*
X608064Y409936D01*
X609003Y411342D01*
X609333Y413000D01*
X609003Y414658D01*
X608064Y416064D01*
X606658Y417003D01*
X605000Y417333D01*
D02*
G37*
G36*
X572730Y424730D02*
X569369D01*
X569488Y424131D01*
X570547Y422547D01*
X572131Y421488D01*
X572730Y421369D01*
Y424730D01*
D02*
G37*
G36*
X748631Y421730D02*
X745270D01*
Y418369D01*
X745869Y418488D01*
X747453Y419547D01*
X748512Y421131D01*
X748631Y421730D01*
D02*
G37*
G36*
X339540Y544620D02*
X333270D01*
Y538350D01*
X339540D01*
Y544620D01*
D02*
G37*
G36*
X330730D02*
X324460D01*
Y538350D01*
X330730D01*
Y544620D01*
D02*
G37*
G36*
X335230Y536590D02*
X328960D01*
Y530320D01*
X335230D01*
Y536590D01*
D02*
G37*
G36*
X281700D02*
X275430D01*
Y530320D01*
X281700D01*
Y536590D01*
D02*
G37*
G36*
X264730Y512730D02*
X261369D01*
X261488Y512131D01*
X262547Y510547D01*
X264131Y509488D01*
X264730Y509369D01*
Y512730D01*
D02*
G37*
G36*
X122870Y544540D02*
X116600D01*
Y538270D01*
X122870D01*
Y544540D01*
D02*
G37*
G36*
X366620Y507730D02*
X360350D01*
Y501460D01*
X366620D01*
Y507730D01*
D02*
G37*
G36*
X375430D02*
X369160D01*
Y501460D01*
X375430D01*
Y507730D01*
D02*
G37*
G36*
X131680Y544540D02*
X125410D01*
Y538270D01*
X131680D01*
Y544540D01*
D02*
G37*
G36*
X263540Y492650D02*
X257270D01*
Y485110D01*
Y477570D01*
X263460D01*
Y477320D01*
X269730D01*
Y484860D01*
Y492400D01*
X263540D01*
Y492650D01*
D02*
G37*
G36*
X278540Y483590D02*
X272270D01*
Y477320D01*
X278540D01*
Y483590D01*
D02*
G37*
G36*
X254730Y492650D02*
X248460D01*
Y491594D01*
X248270Y491438D01*
Y486000D01*
Y480561D01*
X248460Y480406D01*
Y477570D01*
X254730D01*
Y485110D01*
Y492650D01*
D02*
G37*
G36*
X364000Y491110D02*
X350000D01*
X350000Y490860D01*
X336000D01*
Y476860D01*
X350000D01*
X350000Y477110D01*
X364000D01*
Y491110D01*
D02*
G37*
G36*
X168134Y486460D02*
D01*
Y485190D01*
X155594D01*
Y481447D01*
X155542Y481408D01*
X154334Y479833D01*
X153574Y477999D01*
X153482Y477300D01*
X183358D01*
X183266Y477999D01*
X182506Y479833D01*
X181298Y481408D01*
X180674Y481886D01*
Y485190D01*
X168134D01*
Y486460D01*
D02*
G37*
G36*
X127604Y498000D02*
Y487730D01*
X138874D01*
Y498000D01*
X127604D01*
D02*
G37*
G36*
X180674D02*
X169404D01*
Y487730D01*
X180674D01*
Y498000D01*
D02*
G37*
G36*
X244881Y505930D02*
X233670D01*
Y494719D01*
X235674Y494983D01*
X238724Y496246D01*
X241344Y498256D01*
X243354Y500876D01*
X244617Y503926D01*
X244881Y505930D01*
D02*
G37*
G36*
X245730Y484730D02*
X242369D01*
X242488Y484131D01*
X243547Y482547D01*
X245131Y481488D01*
X245730Y481369D01*
Y484730D01*
D02*
G37*
G36*
Y490631D02*
X245131Y490512D01*
X243547Y489453D01*
X242488Y487869D01*
X242369Y487270D01*
X245730D01*
Y490631D01*
D02*
G37*
G36*
X166864Y498000D02*
X155594D01*
Y487730D01*
X166864D01*
Y498000D01*
D02*
G37*
G36*
X270631Y512730D02*
X267270D01*
Y509369D01*
X267869Y509488D01*
X269453Y510547D01*
X270512Y512131D01*
X270631Y512730D01*
D02*
G37*
G36*
X264730Y518631D02*
X264131Y518512D01*
X262547Y517453D01*
X261488Y515869D01*
X261369Y515270D01*
X264730D01*
Y518631D01*
D02*
G37*
G36*
X267270D02*
Y515270D01*
X270631D01*
X270512Y515869D01*
X269453Y517453D01*
X267869Y518512D01*
X267270Y518631D01*
D02*
G37*
G36*
X326420Y527780D02*
X320150D01*
Y521510D01*
X326420D01*
Y527780D01*
D02*
G37*
G36*
X321300Y549980D02*
X306300D01*
Y539980D01*
X306386D01*
Y536050D01*
X302720D01*
Y522050D01*
X316720D01*
Y536050D01*
X313054D01*
Y539519D01*
X313515Y539980D01*
X321300D01*
Y549980D01*
D02*
G37*
G36*
X335230Y527780D02*
X328960D01*
Y521510D01*
X335230D01*
Y527780D01*
D02*
G37*
G36*
X281700D02*
X275430D01*
Y521510D01*
X281700D01*
Y527780D01*
D02*
G37*
G36*
X326730Y518631D02*
X326131Y518512D01*
X324547Y517453D01*
X323488Y515869D01*
X323369Y515270D01*
X326730D01*
Y518631D01*
D02*
G37*
G36*
X329270D02*
Y515270D01*
X332631D01*
X332512Y515869D01*
X331453Y517453D01*
X329869Y518512D01*
X329270Y518631D01*
D02*
G37*
G36*
X272890Y527780D02*
X266620D01*
Y521510D01*
X272890D01*
Y527780D01*
D02*
G37*
G36*
X326730Y512730D02*
X323369D01*
X323488Y512131D01*
X324547Y510547D01*
X326131Y509488D01*
X326730Y509369D01*
Y512730D01*
D02*
G37*
G36*
X131680Y535730D02*
X125410D01*
Y529460D01*
X131680D01*
Y535730D01*
D02*
G37*
G36*
X122870D02*
X116600D01*
Y529460D01*
X122870D01*
Y535730D01*
D02*
G37*
G36*
X326420Y536590D02*
X320150D01*
Y530320D01*
X326420D01*
Y536590D01*
D02*
G37*
G36*
X272890D02*
X266620D01*
Y530320D01*
X272890D01*
Y536590D01*
D02*
G37*
G36*
X149110Y544000D02*
Y544000D01*
X148907Y544000D01*
X135110D01*
Y530000D01*
X149110D01*
Y530000D01*
X150140D01*
Y530000D01*
X164140D01*
Y544000D01*
X150343D01*
X150140Y544000D01*
Y544000D01*
X149110D01*
D02*
G37*
G36*
X366620Y516540D02*
X360350D01*
Y510270D01*
X366620D01*
Y516540D01*
D02*
G37*
G36*
X375430D02*
X369160D01*
Y510270D01*
X375430D01*
Y516540D01*
D02*
G37*
G36*
X332631Y512730D02*
X329270D01*
Y509369D01*
X329869Y509488D01*
X331453Y510547D01*
X332512Y512131D01*
X332631Y512730D01*
D02*
G37*
G36*
X214730Y366040D02*
X205460D01*
Y360270D01*
X214730D01*
Y366040D01*
D02*
G37*
G36*
X262540D02*
X253270D01*
Y360270D01*
X262540D01*
Y366040D01*
D02*
G37*
G36*
X283730Y365631D02*
X283131Y365512D01*
X281547Y364453D01*
X280488Y362869D01*
X280369Y362270D01*
X283730D01*
Y365631D01*
D02*
G37*
G36*
X226540Y366040D02*
X217270D01*
Y360270D01*
X226540D01*
Y366040D01*
D02*
G37*
G36*
X250730D02*
X241460D01*
Y360270D01*
X250730D01*
Y366040D01*
D02*
G37*
G36*
X262540Y357730D02*
X253270D01*
Y351960D01*
X262540D01*
Y357730D01*
D02*
G37*
G36*
X250730D02*
X241460D01*
Y351960D01*
X250730D01*
Y357730D01*
D02*
G37*
G36*
X297631Y359730D02*
X294270D01*
Y356369D01*
X294869Y356488D01*
X296453Y357547D01*
X297512Y359131D01*
X297631Y359730D01*
D02*
G37*
G36*
X283730D02*
X280369D01*
X280488Y359131D01*
X281547Y357547D01*
X283131Y356488D01*
X283730Y356369D01*
Y359730D01*
D02*
G37*
G36*
X223840Y378730D02*
X217570D01*
Y372460D01*
X223840D01*
Y378730D01*
D02*
G37*
G36*
X181246Y377930D02*
X169976D01*
Y367660D01*
X181246D01*
Y377930D01*
D02*
G37*
G36*
X238730Y379730D02*
X235369D01*
X235488Y379131D01*
X236547Y377547D01*
X238131Y376488D01*
X238730Y376369D01*
Y379730D01*
D02*
G37*
G36*
X232650Y378730D02*
X226380D01*
Y372460D01*
X232650D01*
Y378730D01*
D02*
G37*
G36*
X167436Y377930D02*
X156166D01*
Y367660D01*
X167436D01*
Y377930D01*
D02*
G37*
G36*
X291730Y365631D02*
X291131Y365512D01*
X289847Y364654D01*
X289000Y364532D01*
X288153Y364654D01*
X286869Y365512D01*
X286270Y365631D01*
Y361000D01*
Y356369D01*
X286869Y356488D01*
X288153Y357346D01*
X289000Y357468D01*
X289847Y357346D01*
X291131Y356488D01*
X291730Y356369D01*
Y361000D01*
Y365631D01*
D02*
G37*
G36*
X294270D02*
Y362270D01*
X297631D01*
X297512Y362869D01*
X296453Y364453D01*
X294869Y365512D01*
X294270Y365631D01*
D02*
G37*
G36*
X138874Y377930D02*
X127604D01*
Y367660D01*
X138874D01*
Y377930D01*
D02*
G37*
G36*
X332860Y376000D02*
X318860D01*
Y362000D01*
X332860D01*
Y364459D01*
X334130Y365138D01*
X334342Y364997D01*
X336000Y364667D01*
X337658Y364997D01*
X339064Y365936D01*
X340003Y367342D01*
X340333Y369000D01*
X340003Y370658D01*
X339064Y372064D01*
X337658Y373003D01*
X336000Y373333D01*
X334342Y373003D01*
X334130Y372862D01*
X332860Y373541D01*
Y376000D01*
D02*
G37*
G36*
X162524Y330730D02*
X141270D01*
Y309476D01*
X144419Y309786D01*
X148667Y311075D01*
X152583Y313168D01*
X156015Y315985D01*
X158832Y319417D01*
X160925Y323332D01*
X162214Y327581D01*
X162524Y330730D01*
D02*
G37*
G36*
X237000Y345333D02*
X235342Y345003D01*
X233936Y344064D01*
X232997Y342658D01*
X232667Y341000D01*
X232997Y339342D01*
X233936Y337936D01*
X234386Y337635D01*
Y336365D01*
X233936Y336064D01*
X232997Y334658D01*
X232667Y333000D01*
X232997Y331342D01*
X233936Y329936D01*
X235342Y328997D01*
X237000Y328667D01*
X238658Y328997D01*
X240064Y329936D01*
X241003Y331342D01*
X241333Y333000D01*
X241003Y334658D01*
X240064Y336064D01*
X239614Y336365D01*
Y337635D01*
X240064Y337936D01*
X241003Y339342D01*
X241333Y341000D01*
X241003Y342658D01*
X240064Y344064D01*
X238658Y345003D01*
X237000Y345333D01*
D02*
G37*
G36*
X138730Y330730D02*
X117476D01*
X117786Y327581D01*
X119075Y323332D01*
X121168Y319417D01*
X123985Y315985D01*
X127417Y313168D01*
X131333Y311075D01*
X135581Y309786D01*
X138730Y309476D01*
Y330730D01*
D02*
G37*
G36*
X226540Y357730D02*
X217270D01*
Y351960D01*
X226540D01*
Y357730D01*
D02*
G37*
G36*
X214730D02*
X205460D01*
Y351960D01*
X214730D01*
Y357730D01*
D02*
G37*
G36*
X141270Y354524D02*
Y333270D01*
X162524D01*
X162214Y336419D01*
X160925Y340667D01*
X158832Y344583D01*
X156015Y348015D01*
X152583Y350832D01*
X148667Y352925D01*
X144419Y354214D01*
X141270Y354524D01*
D02*
G37*
G36*
X138730D02*
X135581Y354214D01*
X131333Y352925D01*
X127417Y350832D01*
X123985Y348015D01*
X121168Y344583D01*
X119075Y340667D01*
X117786Y336419D01*
X117476Y333270D01*
X138730D01*
Y354524D01*
D02*
G37*
G36*
X217000Y345333D02*
X215342Y345003D01*
X213936Y344064D01*
X212997Y342658D01*
X212667Y341000D01*
X212997Y339342D01*
X213633Y338389D01*
X213836Y337500D01*
X213633Y336611D01*
X212997Y335658D01*
X212667Y334000D01*
X212997Y332342D01*
X213936Y330936D01*
X215342Y329997D01*
X217000Y329667D01*
X218658Y329997D01*
X220064Y330936D01*
X221003Y332342D01*
X221333Y334000D01*
X221003Y335658D01*
X220367Y336611D01*
X220164Y337500D01*
X220367Y338389D01*
X221003Y339342D01*
X221333Y341000D01*
X221003Y342658D01*
X220064Y344064D01*
X218658Y345003D01*
X217000Y345333D01*
D02*
G37*
G36*
X244631Y379730D02*
X241270D01*
Y376369D01*
X241869Y376488D01*
X243453Y377547D01*
X244512Y379131D01*
X244631Y379730D01*
D02*
G37*
G36*
X148270Y439631D02*
Y436270D01*
X151631D01*
X151512Y436869D01*
X150453Y438453D01*
X148869Y439512D01*
X148270Y439631D01*
D02*
G37*
G36*
X145730D02*
X145131Y439512D01*
X143547Y438453D01*
X142488Y436869D01*
X142369Y436270D01*
X145730D01*
Y439631D01*
D02*
G37*
G36*
X400730Y442730D02*
X397369D01*
X397488Y442131D01*
X398547Y440547D01*
X400131Y439488D01*
X400730Y439369D01*
Y442730D01*
D02*
G37*
G36*
X244631Y437730D02*
X241270D01*
Y434369D01*
X241869Y434488D01*
X243453Y435547D01*
X244512Y437131D01*
X244631Y437730D01*
D02*
G37*
G36*
X238730D02*
X235369D01*
X235488Y437131D01*
X236547Y435547D01*
X238131Y434488D01*
X238730Y434369D01*
Y437730D01*
D02*
G37*
G36*
X151631Y433730D02*
X142369D01*
X142488Y433131D01*
X143346Y431847D01*
X143468Y431000D01*
X143346Y430153D01*
X142488Y428869D01*
X142369Y428270D01*
X151631D01*
X151512Y428869D01*
X150654Y430153D01*
X150532Y431000D01*
X150654Y431847D01*
X151512Y433131D01*
X151631Y433730D01*
D02*
G37*
G36*
X432540Y464430D02*
X426270D01*
Y458160D01*
X432540D01*
Y464430D01*
D02*
G37*
G36*
X423730D02*
X411270D01*
Y456890D01*
X408730D01*
Y464430D01*
X396270D01*
Y456890D01*
Y449350D01*
X399099D01*
X399484Y448080D01*
X398547Y447453D01*
X397488Y445869D01*
X397369Y445270D01*
X402000D01*
Y444000D01*
X403270D01*
Y439369D01*
X403869Y439488D01*
X405153Y440346D01*
X406000Y440468D01*
X406847Y440346D01*
X408131Y439488D01*
X408730Y439369D01*
Y444000D01*
X410000D01*
Y445270D01*
X414631D01*
X414512Y445869D01*
X413453Y447453D01*
X412516Y448080D01*
X412901Y449350D01*
X423730D01*
Y456890D01*
Y464430D01*
D02*
G37*
G36*
X140058Y474760D02*
X127890D01*
Y468425D01*
X132620D01*
X134589Y468684D01*
X136423Y469444D01*
X137998Y470653D01*
X139206Y472228D01*
X139966Y474062D01*
X140058Y474760D01*
D02*
G37*
G36*
X393730Y464430D02*
X387460D01*
Y458160D01*
X393730D01*
Y464430D01*
D02*
G37*
G36*
X232650Y456540D02*
X226380D01*
Y450270D01*
X232650D01*
Y456540D01*
D02*
G37*
G36*
X238730Y443631D02*
X238131Y443512D01*
X236547Y442453D01*
X235488Y440869D01*
X235369Y440270D01*
X238730D01*
Y443631D01*
D02*
G37*
G36*
X414631Y442730D02*
X411270D01*
Y439369D01*
X411869Y439488D01*
X413453Y440547D01*
X414512Y442131D01*
X414631Y442730D01*
D02*
G37*
G36*
X393730Y455620D02*
X387460D01*
Y449350D01*
X393730D01*
Y455620D01*
D02*
G37*
G36*
X241270Y443631D02*
Y440270D01*
X244631D01*
X244512Y440869D01*
X243453Y442453D01*
X241869Y443512D01*
X241270Y443631D01*
D02*
G37*
G36*
X132620Y397235D02*
X127890D01*
Y390900D01*
X140058D01*
X139966Y391598D01*
X139206Y393433D01*
X137998Y395008D01*
X136423Y396216D01*
X134589Y396976D01*
X132620Y397235D01*
D02*
G37*
G36*
X224703Y388730D02*
X215369D01*
X215488Y388131D01*
X216547Y386547D01*
X217570Y385863D01*
Y381270D01*
X225110D01*
X232650D01*
Y387540D01*
X225528D01*
X224703Y388730D01*
D02*
G37*
G36*
X183358Y388360D02*
X153482D01*
X153574Y387662D01*
X154334Y385827D01*
X155542Y384252D01*
X156166Y383774D01*
Y380470D01*
X168706D01*
X181246D01*
Y384213D01*
X181298Y384252D01*
X182506Y385827D01*
X183266Y387662D01*
X183358Y388360D01*
D02*
G37*
G36*
X241270Y385631D02*
Y382270D01*
X244631D01*
X244512Y382869D01*
X243453Y384453D01*
X241869Y385512D01*
X241270Y385631D01*
D02*
G37*
G36*
X238730D02*
X238131Y385512D01*
X236547Y384453D01*
X235488Y382869D01*
X235369Y382270D01*
X238730D01*
Y385631D01*
D02*
G37*
G36*
X151631Y425730D02*
X148270D01*
Y422369D01*
X148869Y422488D01*
X150453Y423547D01*
X151512Y425131D01*
X151631Y425730D01*
D02*
G37*
G36*
X145730D02*
X142369D01*
X142488Y425131D01*
X143547Y423547D01*
X145131Y422488D01*
X145730Y422369D01*
Y425730D01*
D02*
G37*
G36*
X504190Y698150D02*
X497920D01*
Y697900D01*
X492760D01*
Y690360D01*
Y682820D01*
X499030D01*
Y683070D01*
X504190D01*
Y690610D01*
Y698150D01*
D02*
G37*
G36*
X485060D02*
X478790D01*
Y690610D01*
Y683070D01*
X483950D01*
Y682820D01*
X490220D01*
Y690360D01*
Y697900D01*
X485060D01*
Y698150D01*
D02*
G37*
G36*
X532130Y697900D02*
X520700D01*
Y690360D01*
Y682820D01*
X532130D01*
Y690360D01*
Y697900D01*
D02*
G37*
G36*
X513000Y698150D02*
X506730D01*
Y690610D01*
Y683070D01*
X511890D01*
Y682820D01*
X518160D01*
Y690360D01*
Y697900D01*
X513000D01*
Y698150D01*
D02*
G37*
G36*
X764462Y689390D02*
Y679188D01*
X774664D01*
X774435Y680930D01*
X773272Y683738D01*
X771422Y686148D01*
X769012Y687998D01*
X766205Y689161D01*
X764462Y689390D01*
D02*
G37*
G36*
X831922D02*
X830180Y689161D01*
X827372Y687998D01*
X824962Y686148D01*
X823112Y683738D01*
X821949Y680930D01*
X821720Y679188D01*
X831922D01*
Y689390D01*
D02*
G37*
G36*
X281260Y679810D02*
X267260D01*
Y679039D01*
X265394D01*
X265000Y679118D01*
X257000D01*
X256606Y679039D01*
X253000D01*
X252220Y678884D01*
X251558Y678442D01*
X251116Y677780D01*
X250961Y677000D01*
Y673394D01*
X250882Y673000D01*
X250961Y672606D01*
Y669000D01*
X251116Y668220D01*
X251558Y667558D01*
X252220Y667116D01*
X253000Y666961D01*
X256606D01*
X257000Y666882D01*
X264235D01*
X265190Y666693D01*
X267260D01*
Y665810D01*
X281260D01*
Y669882D01*
X284970D01*
Y666240D01*
X293010D01*
X301623D01*
X302223Y666489D01*
X307666Y661046D01*
X307040Y659876D01*
X307000Y659884D01*
X305131Y659512D01*
X303547Y658453D01*
X302488Y656869D01*
X302369Y656270D01*
X307000D01*
Y655000D01*
X308270D01*
Y650369D01*
X308869Y650488D01*
X310240Y651404D01*
X311510Y651016D01*
Y650470D01*
X326510D01*
Y660459D01*
X327416Y661349D01*
X330760Y658005D01*
Y649110D01*
X334426D01*
Y645520D01*
X330760D01*
Y641854D01*
X326980D01*
Y645520D01*
X312980D01*
Y631520D01*
X326980D01*
Y635186D01*
X330760D01*
Y631520D01*
X344760D01*
Y645520D01*
X341094D01*
Y649110D01*
X344760D01*
Y663110D01*
X335085D01*
X332828Y665367D01*
X333315Y666540D01*
X336490D01*
Y672810D01*
X330220D01*
Y669634D01*
X329047Y669148D01*
X326510Y671685D01*
Y679470D01*
X311510D01*
Y670534D01*
X310240Y670008D01*
X302894Y677354D01*
X301570Y678238D01*
X300510Y678449D01*
Y679470D01*
X285510D01*
Y679058D01*
X281260D01*
Y679810D01*
D02*
G37*
G36*
X761922Y689390D02*
X760180Y689161D01*
X757372Y687998D01*
X754962Y686148D01*
X753112Y683738D01*
X751949Y680930D01*
X751720Y679188D01*
X761922D01*
Y689390D01*
D02*
G37*
G36*
X834462Y689390D02*
Y679188D01*
X844664D01*
X844435Y680930D01*
X843272Y683738D01*
X841422Y686148D01*
X839012Y687998D01*
X836205Y689161D01*
X834462Y689390D01*
D02*
G37*
G36*
X567730Y698631D02*
X567131Y698512D01*
X566215Y697900D01*
X562610D01*
Y690360D01*
Y682820D01*
X568880D01*
Y689018D01*
X569000Y689116D01*
X570869Y689488D01*
X572453Y690547D01*
X573512Y692131D01*
X573631Y692730D01*
X569000D01*
Y694000D01*
X567730D01*
Y698631D01*
D02*
G37*
G36*
X359631Y698730D02*
X356270D01*
Y695369D01*
X356869Y695488D01*
X358453Y696547D01*
X359512Y698131D01*
X359631Y698730D01*
D02*
G37*
G36*
X353730D02*
X350369D01*
X350488Y698131D01*
X351547Y696547D01*
X353131Y695488D01*
X353730Y695369D01*
Y698730D01*
D02*
G37*
G36*
X658270Y699631D02*
Y696270D01*
X661631D01*
X661512Y696869D01*
X660453Y698453D01*
X658869Y699512D01*
X658270Y699631D01*
D02*
G37*
G36*
X647730D02*
X647131Y699512D01*
X645547Y698453D01*
X644488Y696869D01*
X644369Y696270D01*
X647730D01*
Y699631D01*
D02*
G37*
G36*
X570270Y698631D02*
Y695270D01*
X573631D01*
X573512Y695869D01*
X572453Y697453D01*
X570869Y698512D01*
X570270Y698631D01*
D02*
G37*
G36*
X647730Y693730D02*
X644369D01*
X644488Y693131D01*
X645547Y691547D01*
X647131Y690488D01*
X647730Y690369D01*
Y693730D01*
D02*
G37*
G36*
X476250Y689340D02*
X469980D01*
Y683070D01*
X476250D01*
Y689340D01*
D02*
G37*
G36*
Y698150D02*
X469980D01*
Y691880D01*
X476250D01*
Y698150D01*
D02*
G37*
G36*
X661631Y693730D02*
X658270D01*
Y690369D01*
X658869Y690488D01*
X660453Y691547D01*
X661512Y693131D01*
X661631Y693730D01*
D02*
G37*
G36*
X774664Y676648D02*
X764462D01*
Y666446D01*
X766205Y666675D01*
X769012Y667838D01*
X771422Y669688D01*
X773272Y672098D01*
X774435Y674905D01*
X774664Y676648D01*
D02*
G37*
G36*
X431660Y672500D02*
X425390D01*
Y666230D01*
X431660D01*
Y672500D01*
D02*
G37*
G36*
X844664Y676648D02*
X834462D01*
Y666446D01*
X836205Y666675D01*
X839012Y667838D01*
X841422Y669688D01*
X843272Y672098D01*
X844435Y674905D01*
X844664Y676648D01*
D02*
G37*
G36*
X831922D02*
X821720D01*
X821949Y674905D01*
X823112Y672098D01*
X824962Y669688D01*
X827372Y667838D01*
X830180Y666675D01*
X831922Y666446D01*
Y676648D01*
D02*
G37*
G36*
X180852Y669308D02*
X155772D01*
Y664376D01*
X155380Y663429D01*
X155253Y662470D01*
X181147D01*
X181020Y663429D01*
X180852Y663836D01*
Y669308D01*
D02*
G37*
G36*
X281800Y662380D02*
X275530D01*
Y656110D01*
X281800D01*
Y662380D01*
D02*
G37*
G36*
X272990D02*
X266720D01*
Y656110D01*
X272990D01*
Y662380D01*
D02*
G37*
G36*
X142852Y669308D02*
X117772D01*
Y664376D01*
X117380Y663429D01*
X117254Y662470D01*
X143146D01*
X143020Y663429D01*
X142852Y663836D01*
Y669308D01*
D02*
G37*
G36*
X368540Y663680D02*
X362270D01*
Y657410D01*
X368540D01*
Y663680D01*
D02*
G37*
G36*
X761922Y676648D02*
X751720D01*
X751949Y674905D01*
X753112Y672098D01*
X754962Y669688D01*
X757372Y667838D01*
X760180Y666675D01*
X761922Y666446D01*
Y676648D01*
D02*
G37*
G36*
X431660Y681310D02*
X425390D01*
Y675040D01*
X431660D01*
Y681310D01*
D02*
G37*
G36*
X422850D02*
X416580D01*
Y675040D01*
X422850D01*
Y681310D01*
D02*
G37*
G36*
X345300Y681620D02*
X339030D01*
Y675350D01*
X345300D01*
Y681620D01*
D02*
G37*
G36*
X336490D02*
X330220D01*
Y675350D01*
X336490D01*
Y681620D01*
D02*
G37*
G36*
X180852Y680618D02*
X169582D01*
Y671848D01*
X180852D01*
Y680618D01*
D02*
G37*
G36*
X129042D02*
X117772D01*
Y671848D01*
X129042D01*
Y680618D01*
D02*
G37*
G36*
X345300Y672810D02*
X339030D01*
Y666540D01*
X345300D01*
Y672810D01*
D02*
G37*
G36*
X167042Y680618D02*
X155772D01*
Y671848D01*
X167042D01*
Y680618D01*
D02*
G37*
G36*
X142852D02*
X131582D01*
Y671848D01*
X142852D01*
Y680618D01*
D02*
G37*
G36*
X775400Y727540D02*
X769130D01*
Y721270D01*
X775400D01*
Y727540D01*
D02*
G37*
G36*
X766590D02*
X760320D01*
Y721270D01*
X766590D01*
Y727540D01*
D02*
G37*
G36*
X828730Y744524D02*
X825582Y744214D01*
X821333Y742925D01*
X817417Y740832D01*
X813985Y738016D01*
X811168Y734583D01*
X809075Y730668D01*
X807786Y726419D01*
X807476Y723270D01*
X828730D01*
Y744524D01*
D02*
G37*
G36*
X138730D02*
X135581Y744214D01*
X131333Y742925D01*
X127417Y740832D01*
X123985Y738016D01*
X121168Y734583D01*
X119075Y730668D01*
X117786Y726419D01*
X117476Y723270D01*
X138730D01*
Y744524D01*
D02*
G37*
G36*
X279581Y731730D02*
X268370D01*
Y720519D01*
X270374Y720783D01*
X273424Y722046D01*
X276044Y724056D01*
X278054Y726676D01*
X279317Y729726D01*
X279581Y731730D01*
D02*
G37*
G36*
X548730Y724730D02*
X542960D01*
Y715460D01*
X548730D01*
Y724730D01*
D02*
G37*
G36*
X775400Y718730D02*
X769130D01*
Y712460D01*
X775400D01*
Y718730D01*
D02*
G37*
G36*
X374160Y731260D02*
X362949D01*
X363213Y729256D01*
X364476Y726206D01*
X366486Y723586D01*
X369106Y721576D01*
X372156Y720313D01*
X374160Y720049D01*
Y731260D01*
D02*
G37*
G36*
X557040Y724730D02*
X551270D01*
Y715460D01*
X557040D01*
Y724730D01*
D02*
G37*
G36*
X831270Y744524D02*
Y723270D01*
X852524D01*
X852214Y726419D01*
X850925Y730668D01*
X848832Y734583D01*
X846015Y738016D01*
X842583Y740832D01*
X838668Y742925D01*
X834419Y744214D01*
X831270Y744524D01*
D02*
G37*
G36*
X374160Y745011D02*
X372156Y744747D01*
X369106Y743484D01*
X366486Y741474D01*
X364476Y738854D01*
X363213Y735804D01*
X362949Y733800D01*
X374160D01*
Y745011D01*
D02*
G37*
G36*
X614442Y738730D02*
X607770D01*
Y732058D01*
X608599Y732167D01*
X610555Y732977D01*
X612234Y734266D01*
X613523Y735945D01*
X614333Y737901D01*
X614442Y738730D01*
D02*
G37*
G36*
X265830Y745481D02*
X263826Y745217D01*
X260776Y743954D01*
X258156Y741944D01*
X256146Y739324D01*
X254883Y736274D01*
X254768Y735403D01*
X253487D01*
X253391Y736133D01*
X252182Y739052D01*
X250259Y741559D01*
X247752Y743482D01*
X244833Y744691D01*
X241700Y745104D01*
X238567Y744691D01*
X235648Y743482D01*
X233141Y741559D01*
X231218Y739052D01*
X230009Y736133D01*
X229715Y733904D01*
X229640Y733335D01*
X228360D01*
X228284Y733904D01*
X227991Y736133D01*
X226782Y739052D01*
X224858Y741559D01*
X222352Y743482D01*
X219433Y744691D01*
X216300Y745104D01*
X213167Y744691D01*
X210248Y743482D01*
X207742Y741559D01*
X205818Y739052D01*
X204609Y736133D01*
X204315Y733904D01*
X204240Y733335D01*
X202960D01*
X202885Y733904D01*
X202591Y736133D01*
X201382Y739052D01*
X199459Y741559D01*
X196952Y743482D01*
X194033Y744691D01*
X190900Y745104D01*
X187767Y744691D01*
X184848Y743482D01*
X182341Y741559D01*
X180418Y739052D01*
X179209Y736133D01*
X178796Y733000D01*
X179209Y729867D01*
X180418Y726948D01*
X182341Y724442D01*
X184848Y722518D01*
X187767Y721309D01*
X190882Y720899D01*
Y645465D01*
X190674Y645326D01*
X185810Y640462D01*
X184540Y640988D01*
Y644230D01*
X159460D01*
Y638460D01*
X160000D01*
Y627200D01*
Y617500D01*
Y607500D01*
Y597540D01*
X159460D01*
Y591770D01*
X184540D01*
Y593149D01*
X185713Y593635D01*
X190674Y588674D01*
X192659Y587348D01*
X195000Y586883D01*
X200500D01*
Y580850D01*
X216500D01*
Y601150D01*
X215013D01*
X214820Y602340D01*
X214820D01*
Y616340D01*
X200820D01*
Y616059D01*
X184000D01*
Y619941D01*
X200820D01*
Y618850D01*
X214820D01*
Y632850D01*
X202298D01*
X201772Y634120D01*
X204326Y636674D01*
X205652Y638659D01*
X206117Y641000D01*
X205652Y643341D01*
X204326Y645326D01*
X204326Y645326D01*
X203118Y646133D01*
Y726900D01*
X202652Y729241D01*
X202454Y729537D01*
X202591Y729867D01*
X202885Y732096D01*
X202960Y732665D01*
X204240D01*
X204315Y732096D01*
X204609Y729867D01*
X205818Y726948D01*
X207742Y724442D01*
X210248Y722518D01*
X213167Y721309D01*
X216300Y720896D01*
X219433Y721309D01*
X222352Y722518D01*
X224858Y724442D01*
X226782Y726948D01*
X227991Y729867D01*
X228284Y732096D01*
X228360Y732665D01*
X229640D01*
X229715Y732096D01*
X230009Y729867D01*
X231218Y726948D01*
X233141Y724442D01*
X235648Y722518D01*
X238567Y721309D01*
X241700Y720896D01*
X244833Y721309D01*
X247752Y722518D01*
X250259Y724442D01*
X252182Y726948D01*
X253391Y729867D01*
X253487Y730597D01*
X254768D01*
X254883Y729726D01*
X256146Y726676D01*
X258156Y724056D01*
X260776Y722046D01*
X263826Y720783D01*
X265830Y720519D01*
Y733000D01*
Y745481D01*
D02*
G37*
G36*
X268370D02*
Y734270D01*
X279581D01*
X279317Y736274D01*
X278054Y739324D01*
X276044Y741944D01*
X273424Y743954D01*
X270374Y745217D01*
X268370Y745481D01*
D02*
G37*
G36*
X685230Y738730D02*
X678558D01*
X678667Y737901D01*
X679477Y735945D01*
X680766Y734266D01*
X682445Y732977D01*
X684401Y732167D01*
X685230Y732058D01*
Y738730D01*
D02*
G37*
G36*
X548730Y736540D02*
X542960D01*
Y727270D01*
X548730D01*
Y736540D01*
D02*
G37*
G36*
X141270Y744524D02*
Y723270D01*
X162524D01*
X162214Y726419D01*
X160925Y730668D01*
X158832Y734583D01*
X156015Y738016D01*
X152583Y740832D01*
X148667Y742925D01*
X144419Y744214D01*
X141270Y744524D01*
D02*
G37*
G36*
X694442Y738730D02*
X687770D01*
Y732058D01*
X688599Y732167D01*
X690555Y732977D01*
X692234Y734266D01*
X693523Y735945D01*
X694333Y737901D01*
X694442Y738730D01*
D02*
G37*
G36*
X557040Y736540D02*
X551270D01*
Y727270D01*
X557040D01*
Y736540D01*
D02*
G37*
G36*
X162524Y720730D02*
X141270D01*
Y699476D01*
X144419Y699786D01*
X148667Y701075D01*
X152583Y703168D01*
X156015Y705985D01*
X158832Y709417D01*
X160925Y713333D01*
X162214Y717582D01*
X162524Y720730D01*
D02*
G37*
G36*
X852524D02*
X831270D01*
Y699476D01*
X834419Y699786D01*
X838668Y701075D01*
X842583Y703168D01*
X846015Y705985D01*
X848832Y709417D01*
X850925Y713333D01*
X852214Y717582D01*
X852524Y720730D01*
D02*
G37*
G36*
X356270Y704631D02*
Y701270D01*
X359631D01*
X359512Y701869D01*
X358453Y703453D01*
X356869Y704512D01*
X356270Y704631D01*
D02*
G37*
G36*
X353730D02*
X353131Y704512D01*
X351547Y703453D01*
X350488Y701869D01*
X350369Y701270D01*
X353730D01*
Y704631D01*
D02*
G37*
G36*
X828730Y720730D02*
X807476D01*
X807786Y717582D01*
X809075Y713333D01*
X811168Y709417D01*
X813985Y705985D01*
X817417Y703168D01*
X821333Y701075D01*
X825582Y699786D01*
X828730Y699476D01*
Y720730D01*
D02*
G37*
G36*
X758631Y701730D02*
X755270D01*
Y698369D01*
X755869Y698488D01*
X757453Y699547D01*
X758512Y701131D01*
X758631Y701730D01*
D02*
G37*
G36*
X752730D02*
X749369D01*
X749488Y701131D01*
X750547Y699547D01*
X752131Y698488D01*
X752730Y698369D01*
Y701730D01*
D02*
G37*
G36*
X138730Y720730D02*
X117476D01*
X117786Y717582D01*
X119075Y713333D01*
X121168Y709417D01*
X123985Y705985D01*
X127417Y703168D01*
X131333Y701075D01*
X135581Y699786D01*
X138730Y699476D01*
Y720730D01*
D02*
G37*
G36*
X655730Y699631D02*
X655131Y699512D01*
X653847Y698654D01*
X653000Y698532D01*
X652153Y698654D01*
X650869Y699512D01*
X650270Y699631D01*
Y695000D01*
Y690369D01*
X650869Y690488D01*
X652153Y691346D01*
X653000Y691468D01*
X653847Y691346D01*
X655131Y690488D01*
X655730Y690369D01*
Y695000D01*
Y699631D01*
D02*
G37*
G36*
X504730Y705730D02*
X501369D01*
X501488Y705131D01*
X502547Y703547D01*
X504131Y702488D01*
X504730Y702369D01*
Y705730D01*
D02*
G37*
G36*
X515270Y711631D02*
Y708270D01*
X518631D01*
X518512Y708869D01*
X517453Y710453D01*
X515869Y711512D01*
X515270Y711631D01*
D02*
G37*
G36*
X504730D02*
X504131Y711512D01*
X502547Y710453D01*
X501488Y708869D01*
X501369Y708270D01*
X504730D01*
Y711631D01*
D02*
G37*
G36*
X766590Y718730D02*
X760320D01*
Y712460D01*
X766590D01*
Y718730D01*
D02*
G37*
G36*
X512730Y711631D02*
X512131Y711512D01*
X510847Y710654D01*
X510000Y710532D01*
X509153Y710654D01*
X507869Y711512D01*
X507270Y711631D01*
Y707000D01*
Y702369D01*
X507869Y702488D01*
X509153Y703346D01*
X510000Y703468D01*
X510847Y703346D01*
X512131Y702488D01*
X512730Y702369D01*
Y707000D01*
Y711631D01*
D02*
G37*
G36*
X376700Y745011D02*
Y732530D01*
Y720049D01*
X378704Y720313D01*
X381754Y721576D01*
X384374Y723586D01*
X386384Y726206D01*
X387647Y729256D01*
X387762Y730127D01*
X389043D01*
X389139Y729397D01*
X390348Y726478D01*
X392271Y723971D01*
X394778Y722048D01*
X397697Y720839D01*
X400830Y720426D01*
X403963Y720839D01*
X406680Y721965D01*
X422002Y706643D01*
X423084Y705920D01*
X424360Y705666D01*
X425636Y705920D01*
X425668Y705941D01*
X488970D01*
X488970Y705941D01*
X490140Y706174D01*
X491133Y706837D01*
X498296Y714000D01*
X507970D01*
Y728000D01*
X508110Y728000D01*
Y742000D01*
X494110D01*
Y728000D01*
X493970Y728000D01*
Y718326D01*
X491173Y715529D01*
X490000Y716015D01*
Y726788D01*
X490140Y728000D01*
X490140Y729212D01*
Y742000D01*
X476140D01*
Y738059D01*
X462329D01*
X462112Y738582D01*
X460188Y741088D01*
X457682Y743012D01*
X454763Y744221D01*
X451630Y744634D01*
X448497Y744221D01*
X445578Y743012D01*
X443072Y741088D01*
X441148Y738582D01*
X439939Y735663D01*
X439646Y733434D01*
X439570Y732865D01*
X438290D01*
X438214Y733434D01*
X437921Y735663D01*
X436712Y738582D01*
X434789Y741088D01*
X432282Y743012D01*
X429363Y744221D01*
X426230Y744634D01*
X423097Y744221D01*
X420178Y743012D01*
X417672Y741088D01*
X415748Y738582D01*
X414539Y735663D01*
X414245Y733434D01*
X414170Y732865D01*
X412890D01*
X412814Y733434D01*
X412521Y735663D01*
X411312Y738582D01*
X409389Y741088D01*
X406882Y743012D01*
X403963Y744221D01*
X400830Y744634D01*
X397697Y744221D01*
X394778Y743012D01*
X392271Y741088D01*
X390348Y738582D01*
X389139Y735663D01*
X389043Y734933D01*
X387762D01*
X387647Y735804D01*
X386384Y738854D01*
X384374Y741474D01*
X381754Y743484D01*
X378704Y744747D01*
X376700Y745011D01*
D02*
G37*
G36*
X746540Y706790D02*
X740270D01*
Y704270D01*
X746540D01*
Y706790D01*
D02*
G37*
G36*
X518631Y705730D02*
X515270D01*
Y702369D01*
X515869Y702488D01*
X517453Y703547D01*
X518512Y705131D01*
X518631Y705730D01*
D02*
G37*
G36*
X755270Y707631D02*
Y704270D01*
X758631D01*
X758512Y704869D01*
X757453Y706453D01*
X755869Y707512D01*
X755270Y707631D01*
D02*
G37*
G36*
X752730D02*
X752131Y707512D01*
X750547Y706453D01*
X749488Y704869D01*
X749369Y704270D01*
X752730D01*
Y707631D01*
D02*
G37*
G36*
X184540Y589230D02*
X159460D01*
Y583662D01*
X159460Y583492D01*
X159455Y583401D01*
X159358Y582232D01*
X157609Y580891D01*
X156240Y579107D01*
X155380Y577029D01*
X155253Y576070D01*
X181147D01*
X181020Y577029D01*
X180160Y579107D01*
X178791Y580891D01*
X177098Y582190D01*
X177094Y582328D01*
X177847Y583460D01*
X184540D01*
Y589230D01*
D02*
G37*
G36*
X134700Y583414D02*
X131470D01*
Y576070D01*
X143146D01*
X143020Y577029D01*
X142160Y579107D01*
X140791Y580891D01*
X139007Y582260D01*
X136929Y583120D01*
X134700Y583414D01*
D02*
G37*
G36*
X276631Y592730D02*
X273270D01*
Y589369D01*
X273869Y589488D01*
X275453Y590547D01*
X276512Y592131D01*
X276631Y592730D01*
D02*
G37*
G36*
X270730D02*
X267369D01*
X267488Y592131D01*
X268547Y590547D01*
X270131Y589488D01*
X270730Y589369D01*
Y592730D01*
D02*
G37*
G36*
X128930Y583414D02*
X125700D01*
X123471Y583120D01*
X121393Y582260D01*
X119609Y580891D01*
X118240Y579107D01*
X117380Y577029D01*
X117254Y576070D01*
X128930D01*
Y583414D01*
D02*
G37*
G36*
X181147Y573530D02*
X155253D01*
X155380Y572571D01*
X155548Y572165D01*
Y566692D01*
X168088D01*
X180628D01*
Y571624D01*
X181020Y572571D01*
X181147Y573530D01*
D02*
G37*
G36*
X270730Y598631D02*
X270131Y598512D01*
X268547Y597453D01*
X267488Y595869D01*
X267369Y595270D01*
X270730D01*
Y598631D01*
D02*
G37*
G36*
X831922Y620648D02*
X821720D01*
X821949Y618905D01*
X823112Y616098D01*
X824962Y613688D01*
X827372Y611838D01*
X830180Y610675D01*
X831922Y610446D01*
Y620648D01*
D02*
G37*
G36*
X289430Y607730D02*
X283160D01*
Y601460D01*
X289430D01*
Y607730D01*
D02*
G37*
G36*
X273270Y598631D02*
Y595270D01*
X276631D01*
X276512Y595869D01*
X275453Y597453D01*
X273869Y598512D01*
X273270Y598631D01*
D02*
G37*
G36*
X280620Y607730D02*
X274350D01*
Y601460D01*
X280620D01*
Y607730D01*
D02*
G37*
G36*
X368160Y555470D02*
X361890D01*
Y549200D01*
X368160D01*
Y555470D01*
D02*
G37*
G36*
X359350D02*
X353080D01*
Y549200D01*
X359350D01*
Y555470D01*
D02*
G37*
G36*
X180628Y564152D02*
X168088D01*
X155548D01*
Y555382D01*
X155622D01*
X156008Y554112D01*
X155936Y554064D01*
X154997Y552658D01*
X154667Y551000D01*
X154997Y549342D01*
X155936Y547936D01*
X157342Y546997D01*
X159000Y546667D01*
X160658Y546997D01*
X162064Y547936D01*
X162365Y548386D01*
X163635D01*
X163936Y547936D01*
X165342Y546997D01*
X167000Y546667D01*
X168658Y546997D01*
X170064Y547936D01*
X171003Y549342D01*
X171333Y551000D01*
X171003Y552658D01*
X170064Y554064D01*
X169992Y554112D01*
X170378Y555382D01*
X180628D01*
Y564152D01*
D02*
G37*
G36*
X339540Y553430D02*
X333270D01*
Y547160D01*
X339540D01*
Y553430D01*
D02*
G37*
G36*
X330730D02*
X324460D01*
Y547160D01*
X330730D01*
Y553430D01*
D02*
G37*
G36*
X303631Y552730D02*
X300270D01*
Y549369D01*
X300869Y549488D01*
X302453Y550547D01*
X303512Y552131D01*
X303631Y552730D01*
D02*
G37*
G36*
X359350Y564280D02*
X353080D01*
Y558010D01*
X359350D01*
Y564280D01*
D02*
G37*
G36*
X143146Y573530D02*
X117254D01*
X117380Y572571D01*
X117548Y572165D01*
Y566692D01*
X130088D01*
Y565422D01*
D01*
Y566692D01*
X142628D01*
Y571624D01*
X143020Y572571D01*
X143146Y573530D01*
D02*
G37*
G36*
X142628Y564152D02*
X131358D01*
Y555382D01*
X142628D01*
Y564152D01*
D02*
G37*
G36*
X128818D02*
X117548D01*
Y555382D01*
X128818D01*
Y564152D01*
D02*
G37*
G36*
X300270Y558631D02*
Y555270D01*
X303631D01*
X303512Y555869D01*
X302453Y557453D01*
X300869Y558512D01*
X300270Y558631D01*
D02*
G37*
G36*
X828192Y658996D02*
X825843Y658686D01*
X823653Y657779D01*
X821773Y656337D01*
X820331Y654457D01*
X819424Y652268D01*
X819114Y649918D01*
X819424Y647569D01*
X820331Y645379D01*
X821773Y643499D01*
X823653Y642057D01*
X825843Y641150D01*
X828192Y640840D01*
X830542Y641150D01*
X832731Y642057D01*
X834611Y643499D01*
X836053Y645379D01*
X836960Y647569D01*
X837270Y649918D01*
X836960Y652268D01*
X836053Y654457D01*
X834611Y656337D01*
X832731Y657779D01*
X830542Y658686D01*
X828192Y658996D01*
D02*
G37*
G36*
X777647Y648648D02*
X769462D01*
Y640463D01*
X770683Y640624D01*
X773003Y641585D01*
X774996Y643114D01*
X776525Y645107D01*
X777486Y647428D01*
X777647Y648648D01*
D02*
G37*
G36*
X272990Y653570D02*
X266720D01*
Y647300D01*
X272990D01*
Y653570D01*
D02*
G37*
G36*
X181147Y659930D02*
X155253D01*
X155380Y658971D01*
X156240Y656893D01*
X157609Y655109D01*
X159358Y653768D01*
X159455Y652599D01*
X159460Y652508D01*
X159460Y652338D01*
Y646770D01*
X184540D01*
Y652540D01*
X177847D01*
X177094Y653672D01*
X177098Y653810D01*
X178791Y655109D01*
X180160Y656893D01*
X181020Y658971D01*
X181147Y659930D01*
D02*
G37*
G36*
X766922Y648648D02*
X758737D01*
X758898Y647428D01*
X759859Y645107D01*
X761388Y643114D01*
X763381Y641585D01*
X765702Y640624D01*
X766922Y640463D01*
Y648648D01*
D02*
G37*
G36*
X142730Y630631D02*
X142131Y630512D01*
X140547Y629453D01*
X139488Y627869D01*
X139369Y627270D01*
X142730D01*
Y630631D01*
D02*
G37*
G36*
X233330Y633390D02*
X227060D01*
Y627120D01*
X233330D01*
Y633390D01*
D02*
G37*
G36*
X441730Y636650D02*
X435460D01*
Y630380D01*
X441730D01*
Y636650D01*
D02*
G37*
G36*
X145270Y630631D02*
Y627270D01*
X148631D01*
X148512Y627869D01*
X147453Y629453D01*
X145869Y630512D01*
X145270Y630631D01*
D02*
G37*
G36*
X281800Y653570D02*
X275530D01*
Y647300D01*
X281800D01*
Y653570D01*
D02*
G37*
G36*
X128930Y659930D02*
X117254D01*
X117380Y658971D01*
X118240Y656893D01*
X119609Y655109D01*
X121393Y653740D01*
X123471Y652880D01*
X125700Y652586D01*
X128930D01*
Y659930D01*
D02*
G37*
G36*
X769462Y659373D02*
Y651188D01*
X777647D01*
X777486Y652408D01*
X776525Y654729D01*
X774996Y656722D01*
X773003Y658251D01*
X770683Y659212D01*
X769462Y659373D01*
D02*
G37*
G36*
X704540Y659430D02*
X698270D01*
Y653160D01*
X704540D01*
Y659430D01*
D02*
G37*
G36*
X143146Y659930D02*
X131470D01*
Y652586D01*
X134700D01*
X136929Y652880D01*
X139007Y653740D01*
X140791Y655109D01*
X142160Y656893D01*
X143020Y658971D01*
X143146Y659930D01*
D02*
G37*
G36*
X766922Y659373D02*
X765702Y659212D01*
X763381Y658251D01*
X761388Y656722D01*
X759859Y654729D01*
X758898Y652408D01*
X758737Y651188D01*
X766922D01*
Y659373D01*
D02*
G37*
G36*
X368540Y654870D02*
X362270D01*
Y648600D01*
X368540D01*
Y654870D01*
D02*
G37*
G36*
X359730Y663680D02*
X353460D01*
Y661262D01*
X353000Y660884D01*
X351131Y660512D01*
X349547Y659453D01*
X348488Y657869D01*
X348369Y657270D01*
X353000D01*
Y654730D01*
X348369D01*
X348488Y654131D01*
X349547Y652547D01*
X351131Y651488D01*
X353000Y651116D01*
X353460Y650738D01*
Y648600D01*
X359730D01*
Y656140D01*
Y663680D01*
D02*
G37*
G36*
X448000Y652333D02*
X446342Y652003D01*
X444936Y651064D01*
X444635Y650614D01*
X443365D01*
X443064Y651064D01*
X441658Y652003D01*
X440000Y652333D01*
X438342Y652003D01*
X436936Y651064D01*
X435997Y649658D01*
X435667Y648000D01*
X435997Y646342D01*
X436936Y644936D01*
X438342Y643997D01*
X440000Y643667D01*
X441658Y643997D01*
X443064Y644936D01*
X443365Y645386D01*
X444635D01*
X444936Y644936D01*
X446342Y643997D01*
X448000Y643667D01*
X449658Y643997D01*
X451064Y644936D01*
X452003Y646342D01*
X452333Y648000D01*
X452003Y649658D01*
X451064Y651064D01*
X449658Y652003D01*
X448000Y652333D01*
D02*
G37*
G36*
X305730Y653730D02*
X302369D01*
X302488Y653131D01*
X303547Y651547D01*
X305131Y650488D01*
X305730Y650369D01*
Y653730D01*
D02*
G37*
G36*
X148631Y616730D02*
X145270D01*
Y613369D01*
X145869Y613488D01*
X147453Y614547D01*
X148512Y616131D01*
X148631Y616730D01*
D02*
G37*
G36*
X142730D02*
X139369D01*
X139488Y616131D01*
X140547Y614547D01*
X142131Y613488D01*
X142730Y613369D01*
Y616730D01*
D02*
G37*
G36*
X233330Y624580D02*
X227060D01*
Y618310D01*
X233330D01*
Y624580D01*
D02*
G37*
G36*
X224520D02*
X218250D01*
Y618310D01*
X224520D01*
Y624580D01*
D02*
G37*
G36*
X233330Y616880D02*
X227060D01*
Y610610D01*
X233330D01*
Y616880D01*
D02*
G37*
G36*
X774664Y620648D02*
X764462D01*
Y610446D01*
X766205Y610675D01*
X769012Y611838D01*
X771422Y613688D01*
X773272Y616098D01*
X774435Y618905D01*
X774664Y620648D01*
D02*
G37*
G36*
X761922D02*
X751720D01*
X751949Y618905D01*
X753112Y616098D01*
X754962Y613688D01*
X757372Y611838D01*
X760180Y610675D01*
X761922Y610446D01*
Y620648D01*
D02*
G37*
G36*
X224520Y616880D02*
X218250D01*
Y610610D01*
X224520D01*
Y616880D01*
D02*
G37*
G36*
X844664Y620648D02*
X834462D01*
Y610446D01*
X836205Y610675D01*
X839012Y611838D01*
X841422Y613688D01*
X843272Y616098D01*
X844435Y618905D01*
X844664Y620648D01*
D02*
G37*
G36*
X148631Y624730D02*
X139369D01*
X139488Y624131D01*
X140346Y622847D01*
X140468Y622000D01*
X140346Y621153D01*
X139488Y619869D01*
X139369Y619270D01*
X148631D01*
X148512Y619869D01*
X147654Y621153D01*
X147532Y622000D01*
X147654Y622847D01*
X148512Y624131D01*
X148631Y624730D01*
D02*
G37*
G36*
X831922Y633390D02*
X830180Y633161D01*
X827372Y631998D01*
X824962Y630148D01*
X823112Y627738D01*
X821949Y624931D01*
X821720Y623188D01*
X831922D01*
Y633390D01*
D02*
G37*
G36*
X764462D02*
Y623188D01*
X774664D01*
X774435Y624931D01*
X773272Y627738D01*
X771422Y630148D01*
X769012Y631998D01*
X766205Y633161D01*
X764462Y633390D01*
D02*
G37*
G36*
X224520Y633390D02*
X218250D01*
Y627120D01*
X224520D01*
Y633390D01*
D02*
G37*
G36*
X834462Y633390D02*
Y623188D01*
X844664D01*
X844435Y624931D01*
X843272Y627738D01*
X841422Y630148D01*
X839012Y631998D01*
X836205Y633161D01*
X834462Y633390D01*
D02*
G37*
G36*
X761922Y633390D02*
X760180Y633161D01*
X757372Y631998D01*
X754962Y630148D01*
X753112Y627738D01*
X751949Y624931D01*
X751720Y623188D01*
X761922D01*
Y633390D01*
D02*
G37*
G36*
X469730Y636650D02*
X458270D01*
Y629110D01*
Y621570D01*
X469730D01*
Y629110D01*
Y636650D01*
D02*
G37*
G36*
X483730D02*
X472270D01*
Y629110D01*
Y621570D01*
X483730D01*
Y629110D01*
Y636650D01*
D02*
G37*
G36*
X441730Y627840D02*
X435460D01*
Y621570D01*
X441730D01*
Y627840D01*
D02*
G37*
G36*
X455730Y636650D02*
X444270D01*
Y629110D01*
Y621570D01*
X455730D01*
Y629110D01*
Y636650D01*
D02*
G37*
G36*
X750000Y509333D02*
X748342Y509003D01*
X746936Y508064D01*
X745997Y506658D01*
X745667Y505000D01*
X745997Y503342D01*
X746936Y501936D01*
X748342Y500997D01*
X750000Y500667D01*
X751658Y500997D01*
X753064Y501936D01*
X754003Y503342D01*
X754333Y505000D01*
X754003Y506658D01*
X753064Y508064D01*
X751658Y509003D01*
X750000Y509333D01*
D02*
G37*
G36*
X709678Y515902D02*
X690678D01*
Y499902D01*
X709678D01*
Y515902D01*
D02*
G37*
G36*
X770631Y517730D02*
X767270D01*
Y514369D01*
X767869Y514488D01*
X769453Y515547D01*
X770512Y517131D01*
X770631Y517730D01*
D02*
G37*
G36*
X644730Y522730D02*
X641369D01*
X641488Y522131D01*
X642547Y520547D01*
X644131Y519488D01*
X644730Y519369D01*
Y522730D01*
D02*
G37*
G36*
X767270Y523631D02*
Y520270D01*
X770631D01*
X770512Y520869D01*
X769453Y522453D01*
X767869Y523512D01*
X767270Y523631D01*
D02*
G37*
G36*
X764730D02*
X764131Y523512D01*
X762547Y522453D01*
X761488Y520869D01*
X761369Y520270D01*
X764730D01*
Y523631D01*
D02*
G37*
G36*
Y517730D02*
X761369D01*
X761488Y517131D01*
X762547Y515547D01*
X764131Y514488D01*
X764730Y514369D01*
Y517730D01*
D02*
G37*
G36*
X734000Y529333D02*
X732342Y529003D01*
X730936Y528064D01*
X729997Y526658D01*
X729667Y525000D01*
X729997Y523342D01*
X730936Y521936D01*
X730941Y521932D01*
Y514267D01*
X730006Y513332D01*
X730000Y513333D01*
X728342Y513003D01*
X726936Y512064D01*
X725997Y510658D01*
X725667Y509000D01*
X725997Y507342D01*
X726936Y505936D01*
X728342Y504997D01*
X730000Y504667D01*
X731658Y504997D01*
X733064Y505936D01*
X734003Y507342D01*
X734333Y509000D01*
X734332Y509006D01*
X736163Y510837D01*
X736163Y510837D01*
X736826Y511829D01*
X737059Y513000D01*
Y521932D01*
X737064Y521936D01*
X738003Y523342D01*
X738333Y525000D01*
X738003Y526658D01*
X737064Y528064D01*
X735658Y529003D01*
X734000Y529333D01*
D02*
G37*
G36*
X762675Y535008D02*
X761017Y534678D01*
X759611Y533739D01*
X758672Y532333D01*
X758342Y530675D01*
X758672Y529017D01*
X759611Y527611D01*
X761017Y526672D01*
X762675Y526342D01*
X764333Y526672D01*
X765739Y527611D01*
X766678Y529017D01*
X767008Y530675D01*
X766678Y532333D01*
X765739Y533739D01*
X764333Y534678D01*
X762675Y535008D01*
D02*
G37*
G36*
X644730Y528631D02*
X644131Y528512D01*
X642547Y527453D01*
X641488Y525869D01*
X641369Y525270D01*
X644730D01*
Y528631D01*
D02*
G37*
G36*
X698840Y551540D02*
X692570D01*
Y545270D01*
X698840D01*
Y551540D01*
D02*
G37*
G36*
X712730Y610131D02*
X712131Y610012D01*
X710547Y608953D01*
X709488Y607369D01*
X709369Y606770D01*
X712730D01*
Y610131D01*
D02*
G37*
G36*
X715270D02*
Y606770D01*
X718631D01*
X718512Y607369D01*
X717453Y608953D01*
X715869Y610012D01*
X715270Y610131D01*
D02*
G37*
G36*
X712730Y604230D02*
X709369D01*
X709488Y603631D01*
X710547Y602047D01*
X712131Y600988D01*
X712730Y600869D01*
Y604230D01*
D02*
G37*
G36*
X718631D02*
X715270D01*
Y600869D01*
X715869Y600988D01*
X717453Y602047D01*
X718512Y603631D01*
X718631Y604230D01*
D02*
G37*
G36*
X706730Y554631D02*
X706131Y554512D01*
X704547Y553453D01*
X703488Y551869D01*
X703422Y551540D01*
X701380D01*
Y545270D01*
X708774D01*
X709869Y545488D01*
X711453Y546547D01*
X712512Y548131D01*
X712631Y548730D01*
X708000D01*
Y550000D01*
X706730D01*
Y554631D01*
D02*
G37*
G36*
X812330Y572926D02*
X811100D01*
X808479Y572581D01*
X806037Y571570D01*
X803939Y569961D01*
X802330Y567863D01*
X801318Y565421D01*
X801140Y564070D01*
X812330D01*
Y572926D01*
D02*
G37*
G36*
Y561530D02*
X801140D01*
X801318Y560179D01*
X802330Y557737D01*
X803939Y555639D01*
X806037Y554030D01*
X808479Y553018D01*
X811100Y552673D01*
X812330D01*
Y561530D01*
D02*
G37*
G36*
X709270Y554631D02*
Y551270D01*
X712631D01*
X712512Y551869D01*
X711453Y553453D01*
X709869Y554512D01*
X709270Y554631D01*
D02*
G37*
%LPD*%
D10*
X252000Y313000D02*
D03*
Y359000D02*
D03*
X216000Y313000D02*
D03*
Y359000D02*
D03*
D11*
X327970Y340000D02*
D03*
X310000D02*
D03*
X325860Y369000D02*
D03*
X307890D02*
D03*
X315860Y479000D02*
D03*
X297890D02*
D03*
X315860Y465000D02*
D03*
X297890D02*
D03*
X157140Y521000D02*
D03*
X175110D02*
D03*
X157140Y537000D02*
D03*
X175110D02*
D03*
X309910Y326130D02*
D03*
X327880D02*
D03*
X207820Y609340D02*
D03*
X225790D02*
D03*
X207820Y625850D02*
D03*
X225790D02*
D03*
X207140Y380000D02*
D03*
X225110D02*
D03*
X207140Y449000D02*
D03*
X225110D02*
D03*
X682140Y544000D02*
D03*
X700110D02*
D03*
X309910Y312160D02*
D03*
X327880D02*
D03*
X299860Y609000D02*
D03*
X281890D02*
D03*
X385860Y509000D02*
D03*
X367890D02*
D03*
X309720Y529050D02*
D03*
X327690D02*
D03*
X274160D02*
D03*
X292130D02*
D03*
X385860Y609000D02*
D03*
X367890D02*
D03*
X483000Y721000D02*
D03*
X500970D02*
D03*
X483140Y735000D02*
D03*
X501110D02*
D03*
X732860Y647000D02*
D03*
X714890D02*
D03*
X142110Y537000D02*
D03*
X124140D02*
D03*
X142110Y521000D02*
D03*
X124140D02*
D03*
X749890Y720000D02*
D03*
X767860D02*
D03*
D12*
X250000Y393000D02*
D03*
X255000D02*
D03*
X260000D02*
D03*
X265000D02*
D03*
X270000D02*
D03*
X250000Y443000D02*
D03*
X270000D02*
D03*
X265000D02*
D03*
X260000D02*
D03*
X255000D02*
D03*
D13*
X296000Y495000D02*
D03*
X318000D02*
D03*
Y449000D02*
D03*
X296000D02*
D03*
D14*
X512000Y607000D02*
D03*
Y603000D02*
D03*
Y599000D02*
D03*
Y591000D02*
D03*
Y595000D02*
D03*
Y579000D02*
D03*
Y575000D02*
D03*
Y583000D02*
D03*
Y587000D02*
D03*
Y555000D02*
D03*
Y551000D02*
D03*
Y543000D02*
D03*
Y547000D02*
D03*
Y563000D02*
D03*
Y559000D02*
D03*
Y567000D02*
D03*
Y571000D02*
D03*
Y523000D02*
D03*
Y531000D02*
D03*
Y527000D02*
D03*
Y535000D02*
D03*
Y539000D02*
D03*
X616000Y591000D02*
D03*
Y595000D02*
D03*
Y603000D02*
D03*
Y599000D02*
D03*
Y607000D02*
D03*
Y559000D02*
D03*
Y563000D02*
D03*
Y571000D02*
D03*
Y567000D02*
D03*
Y583000D02*
D03*
Y587000D02*
D03*
Y579000D02*
D03*
Y575000D02*
D03*
Y543000D02*
D03*
Y547000D02*
D03*
Y555000D02*
D03*
Y551000D02*
D03*
Y535000D02*
D03*
Y539000D02*
D03*
Y531000D02*
D03*
Y527000D02*
D03*
Y523000D02*
D03*
D15*
X590000Y513000D02*
D03*
X594000D02*
D03*
X602000D02*
D03*
X598000D02*
D03*
X606000D02*
D03*
X558000D02*
D03*
X562000D02*
D03*
X570000D02*
D03*
X566000D02*
D03*
X582000D02*
D03*
X586000D02*
D03*
X578000D02*
D03*
X574000D02*
D03*
X542000D02*
D03*
X546000D02*
D03*
X554000D02*
D03*
X550000D02*
D03*
X534000D02*
D03*
X538000D02*
D03*
X530000D02*
D03*
X526000D02*
D03*
X522000D02*
D03*
X538000Y617000D02*
D03*
X534000D02*
D03*
X526000D02*
D03*
X530000D02*
D03*
X522000D02*
D03*
X570000D02*
D03*
X566000D02*
D03*
X558000D02*
D03*
X562000D02*
D03*
X546000D02*
D03*
X542000D02*
D03*
X550000D02*
D03*
X554000D02*
D03*
X586000D02*
D03*
X582000D02*
D03*
X574000D02*
D03*
X578000D02*
D03*
X594000D02*
D03*
X590000D02*
D03*
X598000D02*
D03*
X602000D02*
D03*
X606000D02*
D03*
D16*
X544950Y545950D02*
D03*
X583050Y584050D02*
D03*
D17*
Y545950D02*
D03*
X544950Y584050D02*
D03*
D18*
X406667Y608254D02*
D03*
X420129D02*
D03*
X320667Y579254D02*
D03*
X334129D02*
D03*
X400667Y508254D02*
D03*
X414129D02*
D03*
X324667Y603254D02*
D03*
X338129D02*
D03*
D19*
X692064Y378523D02*
D03*
Y371055D02*
D03*
X705064Y378222D02*
D03*
Y370754D02*
D03*
X718064Y378222D02*
D03*
Y370754D02*
D03*
X731064Y378222D02*
D03*
Y370754D02*
D03*
X581936Y648246D02*
D03*
Y640778D02*
D03*
D20*
X530000Y643000D02*
D03*
X514000D02*
D03*
X499000Y652000D02*
D03*
Y637000D02*
D03*
Y622000D02*
D03*
X702000Y727000D02*
D03*
X715000D02*
D03*
X728000D02*
D03*
X689000Y705000D02*
D03*
Y692000D02*
D03*
X717000Y661000D02*
D03*
X730000D02*
D03*
X311000Y598000D02*
D03*
X386000Y496000D02*
D03*
X311000Y580000D02*
D03*
X397000Y598000D02*
D03*
X265000Y374000D02*
D03*
X278000D02*
D03*
X641000Y439000D02*
D03*
X461000Y673000D02*
D03*
X559000Y643000D02*
D03*
D21*
X709000Y415140D02*
D03*
Y433110D02*
D03*
X695000Y415140D02*
D03*
Y433110D02*
D03*
X584760Y439090D02*
D03*
Y457060D02*
D03*
X612760Y438840D02*
D03*
Y456810D02*
D03*
X491490Y690360D02*
D03*
Y672390D02*
D03*
X519430Y690360D02*
D03*
Y672390D02*
D03*
X337760Y656110D02*
D03*
Y674080D02*
D03*
X425200Y557340D02*
D03*
Y575310D02*
D03*
X337760Y620550D02*
D03*
Y638520D02*
D03*
X425200Y523050D02*
D03*
Y541020D02*
D03*
X424120Y655800D02*
D03*
Y673770D02*
D03*
Y621510D02*
D03*
Y639480D02*
D03*
X656000Y537860D02*
D03*
Y519890D02*
D03*
X598730Y456810D02*
D03*
Y438840D02*
D03*
X626730Y456560D02*
D03*
Y438590D02*
D03*
X477520Y672640D02*
D03*
Y690610D02*
D03*
X505460Y672640D02*
D03*
Y690610D02*
D03*
X561340Y690360D02*
D03*
Y672390D02*
D03*
X533400Y690360D02*
D03*
Y672390D02*
D03*
X547370Y672640D02*
D03*
Y690610D02*
D03*
X319980Y620550D02*
D03*
Y638520D02*
D03*
X274260Y654840D02*
D03*
Y672810D02*
D03*
X406150Y523050D02*
D03*
Y541020D02*
D03*
X360620Y556740D02*
D03*
Y574710D02*
D03*
X332000Y563860D02*
D03*
Y545890D02*
D03*
X406340Y621510D02*
D03*
Y639480D02*
D03*
X361000Y656140D02*
D03*
Y674110D02*
D03*
X683000Y652140D02*
D03*
Y670110D02*
D03*
X668000Y652140D02*
D03*
Y670110D02*
D03*
X653000Y652140D02*
D03*
Y670110D02*
D03*
X613000Y652030D02*
D03*
Y670000D02*
D03*
X598000Y652030D02*
D03*
Y670000D02*
D03*
X638000Y652140D02*
D03*
Y670110D02*
D03*
X697000Y669860D02*
D03*
Y651890D02*
D03*
X425000Y474860D02*
D03*
Y456890D02*
D03*
X410000Y474860D02*
D03*
Y456890D02*
D03*
X395000Y474860D02*
D03*
Y456890D02*
D03*
X571000Y456860D02*
D03*
Y438890D02*
D03*
X557000Y456860D02*
D03*
Y438890D02*
D03*
X443000Y611140D02*
D03*
Y629110D02*
D03*
X457000Y611140D02*
D03*
Y629110D02*
D03*
X471000Y611140D02*
D03*
Y629110D02*
D03*
X485000Y611140D02*
D03*
Y629110D02*
D03*
X357000Y484110D02*
D03*
Y466140D02*
D03*
X343000Y465890D02*
D03*
Y483860D02*
D03*
X271000Y484860D02*
D03*
Y466890D02*
D03*
X256000Y467140D02*
D03*
Y485110D02*
D03*
X289000Y407860D02*
D03*
Y389890D02*
D03*
D22*
X700178Y507902D02*
D03*
Y527206D02*
D03*
X677572D02*
D03*
Y507902D02*
D03*
D23*
X293010Y664970D02*
D03*
Y674470D02*
D03*
Y655470D02*
D03*
X319010Y674470D02*
D03*
Y655470D02*
D03*
X379180Y566200D02*
D03*
Y575700D02*
D03*
Y556700D02*
D03*
X405180Y575700D02*
D03*
Y556700D02*
D03*
X287800Y554480D02*
D03*
Y563980D02*
D03*
Y544980D02*
D03*
X313800Y563980D02*
D03*
Y544980D02*
D03*
X379370Y664660D02*
D03*
Y674160D02*
D03*
Y655160D02*
D03*
X405370Y674160D02*
D03*
Y655160D02*
D03*
D24*
X734900Y599500D02*
D03*
Y590000D02*
D03*
Y580500D02*
D03*
X761100Y590000D02*
D03*
Y580500D02*
D03*
Y599500D02*
D03*
D25*
X210500Y399900D02*
D03*
X220000D02*
D03*
X229500D02*
D03*
X220000Y426100D02*
D03*
X229500D02*
D03*
X210500D02*
D03*
D26*
X275730Y629410D02*
D03*
X300730D02*
D03*
X361900Y530640D02*
D03*
X386900D02*
D03*
X362090Y630370D02*
D03*
X387090D02*
D03*
D27*
X275246Y563064D02*
D03*
X267778D02*
D03*
X275246Y550064D02*
D03*
X267778D02*
D03*
X304532Y398000D02*
D03*
X312000D02*
D03*
X304532Y411000D02*
D03*
X312000D02*
D03*
X304532Y385000D02*
D03*
X312000D02*
D03*
X304532Y424000D02*
D03*
X312000D02*
D03*
X303754Y510936D02*
D03*
X311222D02*
D03*
X320754Y435936D02*
D03*
X328222D02*
D03*
D28*
X179420Y425330D02*
D03*
Y465330D02*
D03*
Y457830D02*
D03*
Y445330D02*
D03*
Y420330D02*
D03*
Y407830D02*
D03*
Y400330D02*
D03*
Y402830D02*
D03*
Y415330D02*
D03*
Y410330D02*
D03*
Y440330D02*
D03*
Y450330D02*
D03*
Y455330D02*
D03*
Y462830D02*
D03*
Y435330D02*
D03*
Y430330D02*
D03*
D29*
X126334Y486460D02*
D03*
X168134D02*
D03*
X168706Y379200D02*
D03*
X126334D02*
D03*
D30*
X229500Y591000D02*
D03*
X208500D02*
D03*
X227500Y468000D02*
D03*
X206500D02*
D03*
D31*
X725000Y707000D02*
D03*
X730000D02*
D03*
X720000D02*
D03*
X730000Y679000D02*
D03*
X720000D02*
D03*
X725000D02*
D03*
D32*
X711000Y693000D02*
D03*
Y698000D02*
D03*
Y688000D02*
D03*
Y703000D02*
D03*
Y683000D02*
D03*
X739000Y703000D02*
D03*
Y683000D02*
D03*
Y698000D02*
D03*
Y688000D02*
D03*
Y693000D02*
D03*
D33*
X550000Y726000D02*
D03*
X596000D02*
D03*
D34*
X168088Y565422D02*
D03*
X130088D02*
D03*
X168312Y670578D02*
D03*
X130312D02*
D03*
D35*
X172000Y645500D02*
D03*
Y590500D02*
D03*
D36*
Y633200D02*
D03*
Y602800D02*
D03*
D37*
Y613000D02*
D03*
Y623000D02*
D03*
D38*
X410000Y444000D02*
Y456890D01*
X626730Y438590D02*
X640590D01*
X562000Y482820D02*
X575910Y468910D01*
X562000Y482820D02*
Y515000D01*
X558000Y492000D02*
Y515000D01*
X554000Y488000D02*
X558000Y492000D01*
X571000Y488000D02*
X577000D01*
X566000Y493000D02*
X571000Y488000D01*
X388000Y429000D02*
X398000D01*
X357000Y460000D02*
X388000Y429000D01*
X357000Y460000D02*
Y466140D01*
X347000Y458000D02*
Y461890D01*
X645000Y615000D02*
X653000Y623000D01*
X854000Y552400D02*
Y572000D01*
X849000Y577000D02*
X854000Y572000D01*
X838000Y577000D02*
X849000D01*
X821000Y594000D02*
X838000Y577000D01*
X602000Y615000D02*
Y621000D01*
X252000Y313000D02*
X309070D01*
X327970Y326220D02*
Y340000D01*
X270000Y380000D02*
X275000Y375000D01*
X270000Y380000D02*
Y393000D01*
X265000Y376000D02*
Y393000D01*
X730000Y509000D02*
X734000Y513000D01*
Y525000D01*
X218000Y452000D02*
Y454000D01*
Y452000D02*
X221000Y449000D01*
X225110D01*
X318000Y385000D02*
X319000D01*
X312000D02*
X318000D01*
X304532Y372358D02*
Y385000D01*
X514000Y643000D02*
X517000Y640000D01*
X468000Y659000D02*
X520000D01*
X525500Y660390D02*
X529035D01*
X522890Y663000D02*
X525500Y660390D01*
X527157Y664390D02*
X536610D01*
X521977Y669570D02*
X527157Y664390D01*
X498000Y663000D02*
X522890D01*
X467500Y658500D02*
X468000Y659000D01*
X491490Y669510D02*
X498000Y663000D01*
X499000Y652000D02*
X506000Y645000D01*
X522000Y640000D02*
X534000Y628000D01*
X517000Y640000D02*
X522000D01*
X523000Y633000D02*
X530000Y626000D01*
X511000Y633000D02*
X523000D01*
X522343Y628000D02*
X526000Y624343D01*
X506000Y628000D02*
X522343D01*
X530000Y638000D02*
Y643000D01*
Y638000D02*
X538000Y630000D01*
Y615000D02*
Y630000D01*
X499000Y635000D02*
X506000Y628000D01*
X506000Y638000D02*
X511000Y633000D01*
X526000Y617000D02*
Y624343D01*
X296000Y438856D02*
Y449000D01*
X318000D02*
Y462860D01*
X731064Y323236D02*
X735300Y319000D01*
X731064Y323236D02*
Y369459D01*
X705000Y364000D02*
Y370586D01*
X718064Y327164D02*
Y369459D01*
X692064Y336836D02*
Y370951D01*
X442000Y558000D02*
X453000Y569000D01*
X442000Y448343D02*
Y558000D01*
X438000Y564000D02*
X452000Y578000D01*
X438000Y450000D02*
Y564000D01*
X499000Y635000D02*
Y637000D01*
Y622000D02*
X506000Y615000D01*
X542000D02*
Y641000D01*
X537000Y646000D02*
X542000Y641000D01*
X537000Y646000D02*
Y652425D01*
X546000Y615000D02*
Y646000D01*
X543000Y649000D02*
X546000Y646000D01*
X536610Y664390D02*
X551250Y649750D01*
X529035Y660390D02*
X537000Y652425D01*
X506000Y615000D02*
X522000D01*
X295000Y674470D02*
X296890Y676360D01*
X578000Y579000D02*
Y607000D01*
X695000Y413000D02*
Y415140D01*
X693000Y411000D02*
X695000Y413000D01*
X683000Y411000D02*
X693000D01*
X731064Y378301D02*
X740699D01*
X438200Y346400D02*
Y410602D01*
X451000Y371000D02*
Y417745D01*
Y333600D02*
Y371000D01*
X740699Y378301D02*
X740778Y378222D01*
X731064D02*
Y378301D01*
X705000Y364000D02*
X705064Y364064D01*
X709900Y319000D02*
X718064Y327164D01*
X692064Y336836D02*
X709900Y319000D01*
X728000Y380000D02*
X730000D01*
X709000Y399000D02*
X728000Y380000D01*
X709000Y399000D02*
Y415140D01*
X718064Y378222D02*
Y381936D01*
X695000Y405000D02*
X718064Y381936D01*
X695000Y405000D02*
Y415140D01*
X694286Y388000D02*
X704064Y378222D01*
X678000Y388000D02*
X694286D01*
X662699Y380301D02*
X692064D01*
X657000Y386000D02*
X662699Y380301D01*
X410000Y456890D02*
X425000D01*
X395000D02*
X410000D01*
X384110D02*
X395000D01*
X420000Y579000D02*
X423690Y575310D01*
X425200D01*
X207670Y626000D02*
X207820Y625850D01*
X584760Y457060D02*
X598480D01*
X613010Y438590D02*
X626730D01*
X612760Y456810D02*
X626480D01*
X505460Y672640D02*
X519180D01*
X533400Y672390D02*
X533650Y672640D01*
X547370Y688330D02*
Y690610D01*
Y688330D02*
X561340Y674360D01*
X629000Y333400D02*
X641400Y321000D01*
X604000Y333000D02*
X616000Y321000D01*
X553000Y333200D02*
X565200Y321000D01*
X527000Y333800D02*
X539800Y321000D01*
X522000Y412000D02*
Y515000D01*
X502000Y333400D02*
Y374000D01*
Y333400D02*
X514400Y321000D01*
X476000Y334000D02*
X489000Y321000D01*
X451000Y333600D02*
X463600Y321000D01*
X425000Y334200D02*
X438200Y321000D01*
X463600Y346400D02*
X465000Y347800D01*
X400000Y333800D02*
X412800Y321000D01*
X590000Y604000D02*
X590000Y604000D01*
X590000Y604000D02*
Y615000D01*
X825600Y397000D02*
X839000Y410400D01*
X826200Y423000D02*
X839000Y435800D01*
X594000Y500000D02*
Y515000D01*
Y500000D02*
X609000Y485000D01*
X590000Y498343D02*
X607343Y481000D01*
X586000Y496686D02*
X605686Y477000D01*
X582000Y495029D02*
X604030Y473000D01*
X578000Y493373D02*
X602373Y469000D01*
X590000Y498343D02*
Y515000D01*
X586000Y496686D02*
Y515000D01*
X582000Y495029D02*
Y515000D01*
X578000Y493373D02*
Y515000D01*
X598000Y501657D02*
Y515000D01*
Y501657D02*
X610657Y489000D01*
X602000Y503314D02*
Y515000D01*
Y503314D02*
X612314Y493000D01*
X825400Y473000D02*
X839000Y486600D01*
X606000Y504971D02*
X613971Y497000D01*
X606000Y504971D02*
Y515000D01*
X823000Y500000D02*
X835000Y512000D01*
X839000D01*
X613971Y497000D02*
X642343D01*
X612314Y493000D02*
X640686D01*
X610657Y489000D02*
X639030D01*
X609000Y485000D02*
X637373D01*
X607343Y481000D02*
X635716D01*
X605686Y477000D02*
X634059D01*
X604030Y473000D02*
X632402D01*
X602373Y469000D02*
X630745D01*
X649000Y547000D02*
X655000Y541000D01*
X660000D01*
X656000Y537000D02*
Y537860D01*
X666000Y519474D02*
Y527000D01*
Y519474D02*
X677572Y507902D01*
X655000Y536000D02*
X660000Y541000D01*
X656000Y537000D02*
X656000Y537000D01*
X666000Y527000D01*
X682140Y544000D02*
X698934Y527206D01*
X700178D01*
X826600Y525000D02*
X839000Y537400D01*
X828500Y450700D02*
X839000Y461200D01*
X804000Y397000D02*
X825600D01*
X796257Y410400D02*
X813600D01*
X789314Y423000D02*
X826200D01*
X782171Y435800D02*
X813600D01*
X309910Y312160D02*
Y326130D01*
X514000Y531000D02*
X522000D01*
X608657Y595000D02*
X614000D01*
X605000Y592000D02*
X605657D01*
X608657Y595000D01*
X533400Y672390D02*
X547120D01*
X561340Y658660D02*
Y672390D01*
Y658660D02*
X574000Y646000D01*
Y615000D02*
Y646000D01*
X547370Y666973D02*
Y672640D01*
Y666973D02*
X570000Y644343D01*
Y615000D02*
Y644343D01*
X584760Y457060D02*
Y460060D01*
X574000Y491716D02*
X600716Y465000D01*
X607000D01*
X612760Y459240D01*
Y456810D02*
Y459240D01*
X669940Y542060D02*
X678560D01*
X661000Y551000D02*
X669940Y542060D01*
X659000Y555000D02*
X663000Y559000D01*
X652000Y559000D02*
X659000Y566000D01*
X769000Y490000D02*
X804000Y525000D01*
X826600D01*
X770657Y486000D02*
X796657Y512000D01*
X813600D01*
X772314Y482000D02*
X790314Y500000D01*
X823000D01*
X773970Y478000D02*
X782570Y486600D01*
X813600D01*
X578000Y607000D02*
Y615000D01*
X598730Y454270D02*
Y456810D01*
Y454270D02*
X612760Y440240D01*
X761100Y590000D02*
X768000D01*
X614000Y555000D02*
X659000D01*
X614000Y559000D02*
X652000D01*
X614000Y563000D02*
X647000D01*
X356870Y326130D02*
X362000Y321000D01*
X554000Y606000D02*
Y615000D01*
X554000Y606000D02*
X554000Y606000D01*
X594000Y609000D02*
Y615000D01*
Y609000D02*
X598000Y605000D01*
X411000Y423000D02*
X438000Y450000D01*
X465000Y347800D02*
Y426088D01*
X476000Y334000D02*
Y431432D01*
X478000Y433432D01*
X465000Y426088D02*
X474000Y435089D01*
X451000Y417745D02*
X470000Y436745D01*
X438200Y410602D02*
X466000Y438402D01*
X425000Y334200D02*
Y403059D01*
X462000Y440059D01*
X412800Y346400D02*
Y396516D01*
X458000Y441716D01*
X400000Y333800D02*
Y389373D01*
X454000Y443373D01*
X411657Y418000D02*
X442000Y448343D01*
X387400Y346400D02*
Y382430D01*
X491000Y385000D02*
X502000Y374000D01*
X511000Y520000D02*
X514000Y523000D01*
X511000Y518000D02*
Y520000D01*
X526000Y416000D02*
Y515000D01*
X579000Y332600D02*
X590600Y321000D01*
X514400Y353600D02*
Y376600D01*
X527000Y333800D02*
Y375343D01*
X512000Y399000D02*
X539800Y371200D01*
Y346400D02*
Y371200D01*
X516000Y404000D02*
X553000Y367000D01*
Y333200D02*
Y367000D01*
X522000Y412000D02*
X565200Y368800D01*
Y346400D02*
Y368800D01*
X526000Y416000D02*
X579000Y363000D01*
Y332600D02*
Y363000D01*
X530000Y418000D02*
Y515000D01*
X534000Y419657D02*
Y515000D01*
X538000Y421314D02*
Y515000D01*
X542000Y422970D02*
Y515000D01*
X546000Y424627D02*
Y515000D01*
X530000Y418000D02*
X590600Y357400D01*
Y346400D02*
Y357400D01*
X604000Y333000D02*
Y357000D01*
X616000Y346400D02*
Y356000D01*
X629000Y333400D02*
Y354000D01*
X641400Y346400D02*
Y349600D01*
X546000Y424627D02*
X596627Y374000D01*
X617000D01*
X641400Y349600D01*
X594971Y370000D02*
X613000D01*
X629000Y354000D01*
X593314Y366000D02*
X606000D01*
X616000Y356000D01*
X591657Y362000D02*
X599000D01*
X604000Y357000D01*
X542000Y422970D02*
X594971Y370000D01*
X538000Y421314D02*
X593314Y366000D01*
X534000Y419657D02*
X591657Y362000D01*
X733000Y552000D02*
X741000D01*
X687750Y587250D02*
X728250Y546750D01*
X671000Y579000D02*
Y587250D01*
X687750D01*
X521000Y539000D02*
X524000Y542000D01*
Y549000D01*
X519243Y587000D02*
X527250Y595007D01*
X532257Y605000D02*
X533000D01*
X527250Y595007D02*
Y599993D01*
X532257Y605000D01*
X839000Y537400D02*
X854000Y552400D01*
X641000Y543000D02*
X644000Y540000D01*
X522000Y531000D02*
X522000Y531000D01*
X524000D01*
X614000Y523000D02*
X622000D01*
X614000Y527000D02*
X623657D01*
X614000Y531000D02*
X625314D01*
X614000Y551000D02*
X661000D01*
X614000Y547000D02*
X649000D01*
X614000Y543000D02*
X641000D01*
X603000Y539000D02*
X614000D01*
X607000Y535000D02*
X614000D01*
X604000Y532000D02*
X607000Y535000D01*
X375000Y333400D02*
X387400Y321000D01*
X625314Y531000D02*
X666314Y490000D01*
X769000D01*
X623657Y527000D02*
X664657Y486000D01*
X770657D01*
X622000Y523000D02*
X663000Y482000D01*
X772314D01*
X642343Y497000D02*
X661343Y478000D01*
X773970D01*
X640686Y493000D02*
X660686Y473000D01*
X825400D01*
X630745Y469000D02*
X650745Y449000D01*
X752000D01*
X804000Y397000D01*
X632402Y473000D02*
X652402Y453000D01*
X753657D01*
X634059Y477000D02*
X654059Y457000D01*
X755314D01*
X635716Y481000D02*
X655716Y461000D01*
X756971D01*
X637373Y485000D02*
X657373Y465000D01*
X758627D01*
X772927Y450700D01*
X828500D01*
X639030Y489000D02*
X659029Y469000D01*
X760284D01*
X768084Y461200D01*
X813600D01*
X753657Y453000D02*
X796257Y410400D01*
X755314Y457000D02*
X789314Y423000D01*
X756971Y461000D02*
X782171Y435800D01*
X716000Y577000D02*
X735750Y557250D01*
X728250Y546750D02*
X760750D01*
X766000Y552000D01*
X735750Y557250D02*
X748750D01*
X754000Y552000D01*
X655000Y571000D02*
Y577000D01*
X647000Y563000D02*
X655000Y571000D01*
X614000Y571000D02*
X640000D01*
X642999Y573999D01*
Y577000D01*
X701750Y599250D02*
X736000Y565000D01*
X697750Y595250D02*
X716000Y577000D01*
X693750Y591250D02*
X733000Y552000D01*
X671000Y579000D02*
X674000Y576000D01*
Y573000D02*
Y576000D01*
X603000Y599000D02*
X603000Y599000D01*
X614000D01*
X605000Y567000D02*
X614000D01*
X581936Y640778D02*
X582000Y640714D01*
Y615000D02*
Y640714D01*
X612000Y642000D02*
Y651030D01*
X602500Y643000D02*
Y647530D01*
X598000Y652030D02*
X602500Y647530D01*
X657000Y642000D02*
Y648140D01*
X667000Y643000D02*
Y651140D01*
X678250Y643250D02*
Y647390D01*
X683000Y652140D01*
X519430Y669570D02*
Y672390D01*
X491490Y669510D02*
Y672390D01*
X519430Y669570D02*
X521977D01*
X645000Y615000D02*
X645000Y615000D01*
X711110Y670110D02*
X720000Y679000D01*
X711000Y688000D02*
X718750D01*
X719000Y688250D01*
X717000Y661000D02*
X725000Y669000D01*
Y679000D01*
X730000Y661000D02*
Y679000D01*
X721999Y696999D02*
X723000Y698000D01*
X721999Y695999D02*
Y696999D01*
X733507Y698000D02*
X739000D01*
X729750Y694243D02*
X733507Y698000D01*
X729750Y693833D02*
Y694243D01*
X739000Y683000D02*
X742000Y680000D01*
Y676000D02*
Y680000D01*
Y656140D02*
Y676000D01*
X581936Y649541D02*
X581936Y649541D01*
X304532Y386295D02*
Y398000D01*
X477770Y672390D02*
X491490D01*
X497000Y394000D02*
X514400Y376600D01*
X504000Y398343D02*
Y428686D01*
X502000Y442000D02*
X516000Y428000D01*
Y404000D02*
Y428000D01*
X497000Y394000D02*
Y430029D01*
X491000Y385000D02*
Y430373D01*
X512000Y399000D02*
Y426343D01*
X487000Y346400D02*
Y428716D01*
X482000Y433716D02*
X487000Y428716D01*
X486000Y435373D02*
X491000Y430373D01*
X490000Y437030D02*
X497000Y430029D01*
X494000Y438686D02*
X504000Y428686D01*
X498000Y440343D02*
X512000Y426343D01*
X730000Y701507D02*
Y707000D01*
X723000Y698000D02*
X726493D01*
X730000Y701507D01*
X558000Y615000D02*
Y626000D01*
X558000Y626000D02*
X558000Y626000D01*
X550000Y615000D02*
Y631000D01*
X551250Y632250D01*
X506000Y638000D02*
Y645000D01*
X530000Y615000D02*
Y621899D01*
X526000Y615000D02*
Y620243D01*
X530000Y617000D02*
Y626000D01*
X534000Y615000D02*
Y628000D01*
X452000Y578000D02*
X459000D01*
X502000Y442000D02*
Y526000D01*
X487000Y567000D02*
X514000D01*
X466000Y438402D02*
Y546000D01*
X485343Y571000D02*
X514000D01*
X462000Y440059D02*
Y547657D01*
X483686Y575000D02*
X514000D01*
X458000Y441716D02*
Y549314D01*
X482000Y579000D02*
X514000D01*
X454000Y443373D02*
Y551000D01*
X480343Y583000D02*
X514000D01*
X478686Y587000D02*
X519243D01*
X446000Y446686D02*
Y554314D01*
X478686Y587000D01*
X450000Y552657D02*
X480343Y583000D01*
X454000Y551000D02*
X482000Y579000D01*
X458000Y549314D02*
X483686Y575000D01*
X462000Y547657D02*
X485343Y571000D01*
X466000Y546000D02*
X487000Y567000D01*
X478000Y433432D02*
Y540000D01*
X493000Y555000D01*
X514000D01*
X474000Y541657D02*
X491343Y559000D01*
X470000Y543314D02*
X489686Y563000D01*
X474000Y435089D02*
Y541657D01*
X491343Y559000D02*
X514000D01*
X470000Y436745D02*
Y543314D01*
X489686Y563000D02*
X514000D01*
X490000Y437030D02*
Y534000D01*
X499000Y543000D01*
X514000D01*
X486000Y535657D02*
X497343Y547000D01*
X482000Y537314D02*
X495686Y551000D01*
X486000Y435373D02*
Y535657D01*
X497343Y547000D02*
X514000D01*
X482000Y433716D02*
Y537314D01*
X495686Y551000D02*
X514000D01*
X494000Y438686D02*
Y532000D01*
X508758Y535000D02*
X514000D01*
X494000Y532000D02*
X501000Y539000D01*
X521000D01*
X503000Y535000D02*
X512000D01*
X498000Y440343D02*
Y530000D01*
X503000Y535000D01*
Y527000D02*
X512000D01*
X502000Y526000D02*
X503000Y527000D01*
X508000Y527000D02*
X514000D01*
X602000Y627000D02*
X605360Y630360D01*
X602000Y617000D02*
Y627000D01*
X598000Y617000D02*
Y629562D01*
X633999Y575000D02*
X635999Y577000D01*
X614000Y591000D02*
X625604D01*
X633854Y599250D01*
X627261Y587000D02*
X635511Y595250D01*
X697750D01*
X628918Y583000D02*
X637168Y591250D01*
X693750D01*
X638825Y587250D02*
X671000D01*
X630575Y579000D02*
X638825Y587250D01*
X614000Y579000D02*
X630575D01*
X614000Y583000D02*
X628918D01*
X633854Y599250D02*
X701750D01*
X493000Y591000D02*
X514000D01*
X485000Y607000D02*
Y611140D01*
X481000Y603000D02*
X485000Y599000D01*
X493000Y591000D01*
X485000Y604000D02*
Y607000D01*
Y604000D02*
X494000Y595000D01*
X616000Y539000D02*
X628000D01*
X616000Y535000D02*
X628000D01*
X616000Y607000D02*
X627000D01*
X616000Y603000D02*
X627000D01*
X616000Y599000D02*
X627000D01*
X616000Y595000D02*
X623947D01*
X606000Y606000D02*
Y615000D01*
X606000D02*
X606000D01*
X609999D01*
X606000D02*
Y625000D01*
X594000Y617000D02*
Y627000D01*
X590000Y617000D02*
Y627000D01*
X554000Y617000D02*
Y624000D01*
X614000Y575000D02*
X633999D01*
X739000Y703000D02*
X754000D01*
X725000Y707000D02*
Y716000D01*
X728000Y719000D01*
Y727000D01*
X711000Y703000D02*
Y710000D01*
X702000Y719000D02*
X711000Y710000D01*
X702000Y719000D02*
Y727000D01*
X715000Y720000D02*
Y727000D01*
Y720000D02*
X720000Y715000D01*
Y707000D02*
Y715000D01*
X406314Y407000D02*
X446000Y446686D01*
X375000Y333400D02*
Y375686D01*
X398000Y400000D02*
X401485Y396515D01*
X387400Y382430D02*
X401485Y396515D01*
X450000Y445029D01*
Y552657D01*
X343000Y483860D02*
X356750D01*
X375000Y375686D02*
Y386000D01*
X396000Y407000D01*
X406314D01*
X698000Y683000D02*
X711000D01*
X689000Y692000D02*
X698000Y683000D01*
X689000Y705000D02*
X701000Y693000D01*
X711000D01*
X616000Y567000D02*
X627000D01*
X554000Y483000D02*
Y488000D01*
Y483000D02*
X558000Y479000D01*
X554000Y488000D02*
X554000Y488000D01*
X550000Y492000D02*
Y513000D01*
Y492000D02*
X554000Y488000D01*
X554000Y488000D02*
Y515000D01*
X554000Y462860D02*
Y483000D01*
Y462860D02*
X560000Y456860D01*
X557000D02*
X560000D01*
X571000D01*
X574000Y491716D02*
Y515000D01*
X566000Y493000D02*
Y515000D01*
X570000Y496000D02*
Y513000D01*
X570000Y515000D02*
Y526000D01*
X304532Y411000D02*
Y424000D01*
X312000Y398000D02*
X319000D01*
X339000Y418000D01*
X411657D01*
X312000Y411000D02*
X325000D01*
X337000Y423000D01*
X411000D01*
X175110Y537000D02*
X178970Y533140D01*
X175110Y521000D02*
Y537000D01*
X142110D02*
X157140D01*
X142110Y521000D02*
X157140D01*
X124140D02*
X135140Y510000D01*
X178000D01*
X195000Y486000D02*
Y493000D01*
X178000Y510000D02*
X195000Y493000D01*
X273000Y440000D02*
X277000D01*
X270000Y443000D02*
X273000Y440000D01*
X300000Y398000D02*
X304428D01*
X311936Y423936D02*
X327936D01*
X339000Y435000D01*
Y440000D01*
X343000Y462000D02*
Y465890D01*
X325860Y369000D02*
X336000D01*
X728000Y719000D02*
X747000D01*
X303000Y329000D02*
X307040D01*
X327880Y312160D02*
X334840D01*
X335000Y312000D01*
X581936Y649541D02*
Y659936D01*
X454100Y735000D02*
X483140D01*
X426230Y729770D02*
Y732530D01*
Y729770D02*
X441000Y715000D01*
X477000D01*
X483000Y721000D01*
X501110Y721140D02*
Y735000D01*
X488970Y709000D02*
X500970Y721000D01*
X424360Y709000D02*
X488970D01*
X614000Y587000D02*
X627261D01*
X504000Y398343D02*
X527000Y375343D01*
X581936Y659936D02*
X592000Y670000D01*
X598000D01*
X597000Y704000D02*
X625000Y676000D01*
X597000Y704000D02*
Y724000D01*
X520000Y659000D02*
X525000Y654000D01*
X528000D01*
X260000Y381000D02*
Y393000D01*
X257000Y378000D02*
X260000Y381000D01*
X242000Y378000D02*
X257000D01*
X204190Y629480D02*
X207670Y626000D01*
X367890Y608890D02*
Y609000D01*
X375999Y616999D02*
X375999D01*
X367890Y608890D02*
X375999Y616999D01*
X178970Y533140D02*
X207790D01*
X653000Y623000D02*
X714000D01*
X727000Y610000D01*
X287800Y554480D02*
X298520D01*
X299000Y554000D01*
X293010Y664970D02*
X300030D01*
X307000Y658000D01*
Y655000D02*
Y658000D01*
X379370Y664660D02*
X385340D01*
X392000Y658000D01*
X372200Y566200D02*
X379180D01*
X372000Y566000D02*
X372200Y566200D01*
X220000Y390000D02*
Y399900D01*
X697000Y643000D02*
Y651890D01*
X703000Y698000D02*
X711000D01*
X699000Y702000D02*
X703000Y698000D01*
X699000Y702000D02*
Y709000D01*
X732860Y647000D02*
X742000Y656140D01*
X204670Y623000D02*
X207670Y626000D01*
X353140Y656140D02*
X361000D01*
X353000Y656000D02*
X353140Y656140D01*
X494000Y595000D02*
X514000D01*
X225110Y449000D02*
X234000D01*
X240000Y443000D01*
Y439000D02*
Y443000D01*
X575910Y468910D02*
X584760Y460060D01*
X551250Y643000D02*
X559000D01*
X551250Y632250D02*
Y643000D01*
Y649750D01*
X461000Y673000D02*
X477160D01*
X172000Y613000D02*
X204160D01*
X311222Y510936D02*
X318000Y504158D01*
Y495000D02*
Y504158D01*
X302936Y510936D02*
X303754D01*
X296000Y504000D02*
X302936Y510936D01*
X296000Y495000D02*
Y504000D01*
X304428Y430428D02*
X305000Y431000D01*
X309936Y435936D01*
X319459D01*
X318000Y449000D02*
X321000D01*
X328571Y441429D01*
Y435936D02*
Y441429D01*
X304428Y424000D02*
Y430428D01*
X296000Y438856D02*
X304428Y430428D01*
X247000Y486000D02*
X256000D01*
X282000Y496000D02*
X295000D01*
X166000Y623000D02*
X172000D01*
X204670D01*
X216000Y313000D02*
X227000D01*
X235000Y321000D01*
X286000D02*
X305000Y340000D01*
X310000D01*
X235000Y321000D02*
X286000D01*
D39*
X190900Y733000D02*
X197000Y726900D01*
Y643000D02*
Y726900D01*
X457000Y599000D02*
X463000D01*
X451000D02*
X457000D01*
X437000D02*
X451000D01*
X428000Y608000D02*
X435000D01*
X422923D02*
X428000D01*
X437000Y599000D01*
X435000Y608000D02*
X436000Y607000D01*
X319980Y604893D02*
X321873Y603000D01*
X349000Y605000D02*
Y612000D01*
X353000D01*
Y607000D02*
Y612000D01*
Y602000D02*
Y607000D01*
X351000Y357400D02*
X362000Y346400D01*
X351000Y357400D02*
Y398000D01*
X265190Y672810D02*
X274260D01*
X362110Y674350D02*
X370110D01*
X300730Y629410D02*
X309590Y620550D01*
X319980D02*
X337760D01*
X300730Y624370D02*
X304550Y620550D01*
X309590D01*
X319980D01*
X344000Y576000D02*
X351000D01*
X416875Y511000D02*
X422000D01*
X428000D01*
X417383Y505000D02*
X422000D01*
X428000D01*
Y511000D01*
X387090Y610230D02*
Y630370D01*
X386860Y608000D02*
X403873D01*
X463000Y599000D02*
X485000D01*
X436000Y607000D02*
X485000D01*
X319980Y604893D02*
Y606980D01*
Y620550D01*
X257000Y673000D02*
X265000D01*
X207790Y492210D02*
X227180Y472820D01*
Y464560D02*
Y472820D01*
X195000Y641000D02*
X200000D01*
X229500Y580500D02*
Y591000D01*
X207000Y558000D02*
X229500Y580500D01*
X207790Y492210D02*
Y507740D01*
X172000Y633200D02*
X187200D01*
X195000Y641000D01*
X172000Y602800D02*
X185200D01*
X187200Y633200D02*
X192200D01*
X200000Y641000D01*
X185200Y602800D02*
X190200D01*
X485000Y599000D02*
Y604000D01*
Y607000D01*
X185200Y602800D02*
X195000Y593000D01*
X190200Y602800D02*
X200000Y593000D01*
X206500D01*
X195000D02*
X200000D01*
D40*
X796000Y610519D02*
Y646000D01*
X778481Y593000D02*
X796000Y610519D01*
X772877Y593000D02*
X778481D01*
X800610Y608610D02*
Y646000D01*
X780360Y588360D02*
X800610Y608610D01*
X774237Y588360D02*
X780360D01*
X760000Y583580D02*
X769457D01*
X760000Y596420D02*
X769457D01*
X800610Y646000D02*
X804528Y649918D01*
X792082D02*
X796000Y646000D01*
X804528Y649918D02*
X808192D01*
X788192D02*
X792082D01*
X758020Y583580D02*
X761100Y580500D01*
X751680Y594475D02*
X751955Y594750D01*
X751680Y585525D02*
Y594475D01*
Y585525D02*
X753625Y583580D01*
X758020D01*
X598000Y629562D02*
X603438Y635000D01*
X769457Y583580D02*
X774237Y588360D01*
X769457Y596420D02*
X772877Y593000D01*
X751680Y595025D02*
X751955Y594750D01*
X751680Y595025D02*
Y597758D01*
X719078Y630360D02*
X751680Y597758D01*
X605360Y630360D02*
X719078D01*
X756500Y599500D02*
X761100D01*
X603438Y635000D02*
X721000D01*
X756500Y599500D01*
D41*
X279000Y399890D02*
X289000Y389890D01*
X279000Y399890D02*
Y400000D01*
X297265Y479000D02*
X297890D01*
X289000Y458000D02*
X296000Y465000D01*
X297890D01*
X318000Y481140D02*
Y495000D01*
X260000Y429560D02*
X261000Y428560D01*
X260000Y429560D02*
Y443000D01*
X270110Y408890D02*
X279000Y400000D01*
X263110Y408890D02*
X270110D01*
X275242Y548862D02*
Y562832D01*
X276389Y563980D01*
X264936Y550064D02*
X267778D01*
X267000Y570000D02*
X287540Y590540D01*
X293010Y674470D02*
X295000D01*
X167330Y440330D02*
X179420D01*
X165000Y438000D02*
X167330Y440330D01*
X165000Y433000D02*
Y438000D01*
Y433000D02*
X167750Y430250D01*
X179420Y425330D02*
X193330D01*
X195000Y427000D01*
X276389Y563980D02*
X287800D01*
X405180Y575700D02*
X423540Y557340D01*
X406150Y541020D02*
X425200D01*
Y557340D01*
X424120Y639480D02*
Y655800D01*
X406340Y639480D02*
X424120D01*
X405760Y674160D02*
X424120Y655800D01*
X337370Y656110D02*
X337760D01*
X319010Y674470D02*
X337370Y656110D01*
X319980Y638520D02*
X337760D01*
Y655720D01*
X277261Y544980D02*
X287800D01*
X275242Y547000D02*
X277261Y544980D01*
X313800Y563980D02*
X331880D01*
X309720Y529050D02*
Y540900D01*
X313800Y544980D01*
X287800Y533380D02*
X292130Y529050D01*
X287800Y533380D02*
Y544980D01*
X267000Y563842D02*
Y570000D01*
Y563842D02*
X267778Y563064D01*
X179420Y435330D02*
X195670D01*
X195000Y427000D02*
X197835Y429835D01*
Y433165D01*
X195670Y435330D02*
X197835Y433165D01*
X340000Y586000D02*
X452000D01*
X334129Y580129D02*
X340000Y586000D01*
X313800Y572387D02*
X320667Y579254D01*
X287540Y590540D02*
X410540D01*
X428000Y608000D01*
X313800Y563980D02*
Y572387D01*
X311746Y579254D02*
X320667D01*
X179420Y440330D02*
X220670D01*
X229500Y431500D01*
Y426100D02*
Y431500D01*
X195670Y435330D02*
X210670D01*
X212000Y434000D01*
Y427600D02*
Y434000D01*
X250000Y393000D02*
Y404000D01*
X244000Y410000D02*
X250000Y404000D01*
X255000Y393000D02*
Y405420D01*
X245881Y414540D02*
X255000Y405420D01*
X231460Y414540D02*
X245881D01*
X229000Y417000D02*
X231460Y414540D01*
X225790Y413790D02*
X229580Y410000D01*
X167750Y430250D02*
X179420D01*
X229000Y417000D02*
Y425600D01*
X210500Y418500D02*
Y426100D01*
Y418500D02*
X215210Y413790D01*
X225790D01*
X179420Y415330D02*
X195670D01*
X250000Y443000D02*
X250230Y442770D01*
Y440520D02*
Y442770D01*
X241000Y407000D02*
Y410000D01*
X239000Y409000D02*
X241000Y407000D01*
X229580Y410000D02*
X241000D01*
X244000D01*
X250000Y443000D02*
Y461140D01*
X256000Y467140D01*
X255000Y427000D02*
X257980Y424020D01*
X255000Y427000D02*
Y443000D01*
X250000Y425000D02*
Y437000D01*
Y425000D02*
X255520Y419480D01*
X266520D01*
X400830Y732530D02*
X424360Y709000D01*
X262000Y553000D02*
X264936Y550064D01*
X261000Y569000D02*
X262000Y568000D01*
Y553000D02*
Y568000D01*
X284000Y465735D02*
X297265Y479000D01*
X257980Y424020D02*
X277020D01*
X289000Y436000D01*
Y458000D01*
X261000Y428560D02*
X275140D01*
X284000Y437421D01*
Y465735D01*
X266520Y419480D02*
X278000Y408000D01*
X285000D01*
X289000Y404000D01*
X195670Y415330D02*
X201000Y410000D01*
Y386140D02*
X207140Y380000D01*
X201000Y386140D02*
Y410000D01*
D42*
X265000Y455000D02*
X271000Y461000D01*
X695000Y433110D02*
X709000D01*
X159000Y447000D02*
X167330Y455330D01*
X159000Y417896D02*
Y447000D01*
X638000Y649000D02*
X645000Y642000D01*
X638000Y649000D02*
Y652140D01*
X598000Y670000D02*
X613000D01*
X630860Y652140D01*
X638000D01*
X639000Y655110D02*
X654000Y670110D01*
X668000D01*
X683000D01*
X711110D01*
X309500Y596500D02*
X319980Y606980D01*
X397000Y598000D02*
Y607000D01*
X386000Y496000D02*
Y508860D01*
X220000Y426100D02*
Y432000D01*
X219000Y433000D02*
X220000Y432000D01*
X219000Y433000D02*
Y434000D01*
X271000Y458000D02*
Y461000D01*
X265000Y443000D02*
Y455000D01*
X271000Y461000D02*
Y466890D01*
D43*
X403873Y619043D02*
X406340Y621510D01*
X351300Y575700D02*
X379180D01*
X714000Y601000D02*
Y608000D01*
Y601000D02*
X725000Y590000D01*
X734900D01*
X375430Y708430D02*
Y732530D01*
X666800Y346400D02*
Y359200D01*
Y321000D02*
Y346400D01*
X813600Y562800D02*
X839000D01*
X812800D02*
X813600D01*
X802000Y552000D02*
X812800Y562800D01*
X299860Y609000D02*
Y628540D01*
X386900Y530640D02*
X394490Y523050D01*
X406150D01*
X425200D01*
X385860Y509000D02*
Y529600D01*
X386606Y508254D02*
X400667D01*
X406340Y621510D02*
X424120D01*
X403873Y608000D02*
Y619043D01*
D44*
X340383Y601000D02*
X353000D01*
X338129Y603254D02*
X347254D01*
X338129D02*
X340383Y601000D01*
X275920Y674470D02*
X293010D01*
Y646690D02*
Y655470D01*
X275730Y629410D02*
X293010Y646690D01*
X379370Y647650D02*
Y655160D01*
X362090Y630370D02*
X379370Y647650D01*
X379180Y547920D02*
Y556700D01*
X361900Y530640D02*
X379180Y547920D01*
X370110Y674350D02*
X370300Y674160D01*
X379370D01*
X330000Y326130D02*
X356870D01*
X359740Y674160D02*
X370300D01*
X265000Y673000D02*
X265190Y672810D01*
D45*
X295000Y674470D02*
X300010D01*
X319010Y655470D01*
X386370Y674160D02*
X405370Y655160D01*
X379370Y674160D02*
X386370D01*
X379180Y575700D02*
X386180D01*
X405180Y556700D01*
X565360Y690360D02*
X569000Y694000D01*
D46*
X646000Y524000D02*
X650110Y519890D01*
X656000D01*
X153330Y400330D02*
X179420D01*
X154170Y402830D02*
X179420D01*
X168706Y389616D02*
X179420Y400330D01*
X155330Y465330D02*
X179420D01*
X168420Y465750D02*
Y476030D01*
X155830Y462830D02*
X179420D01*
X191830D01*
X179420Y465330D02*
X183330D01*
X189000Y471000D01*
X191830Y462830D02*
X195000Y466000D01*
X193830Y457830D02*
X200560Y464560D01*
X206180D01*
X194330Y455330D02*
X202000Y463000D01*
X159000Y417896D02*
X169066Y407830D01*
X179420Y445330D02*
X207640D01*
X179420Y457830D02*
X193830D01*
X179420Y455330D02*
X194330D01*
X167330D02*
X179420D01*
X169066Y407830D02*
X179420D01*
D47*
X328135Y514606D02*
D03*
X272135Y594606D02*
D03*
X355135Y700606D02*
D03*
X630785Y388956D02*
D03*
X266135Y514606D02*
D03*
D48*
X708000Y550000D02*
D03*
D49*
X240606Y380865D02*
D03*
X714606Y605365D02*
D03*
X511606Y474865D02*
D03*
D50*
X564000Y565000D02*
D03*
D51*
X347000Y576000D02*
D03*
D52*
X261000Y673000D02*
D03*
D53*
X364500Y674500D02*
D03*
D54*
X406000Y444000D02*
D03*
X510000Y707000D02*
D03*
X578000Y426000D02*
D03*
X740000Y423000D02*
D03*
X653000Y695000D02*
D03*
D55*
X409500Y479000D02*
D03*
D56*
X144000Y622000D02*
D03*
X147000Y431000D02*
D03*
D57*
X554000Y485000D02*
D03*
D58*
X289000Y361000D02*
D03*
D59*
X55000Y80000D02*
D03*
X945000D02*
D03*
X55000Y920000D02*
D03*
X945000D02*
D03*
X140000Y332000D02*
D03*
X830000D02*
D03*
X140000Y722000D02*
D03*
X830000D02*
D03*
D60*
X805000Y594000D02*
D03*
X825000D02*
D03*
X845000D02*
D03*
D61*
X813600Y537400D02*
D03*
Y512000D02*
D03*
Y486600D02*
D03*
Y385000D02*
D03*
Y410400D02*
D03*
Y435800D02*
D03*
Y461200D02*
D03*
Y562800D02*
D03*
X839000D02*
D03*
Y461200D02*
D03*
Y435800D02*
D03*
Y410400D02*
D03*
Y385000D02*
D03*
Y486600D02*
D03*
Y512000D02*
D03*
Y537400D02*
D03*
D62*
X616000Y346400D02*
D03*
X590600D02*
D03*
X641400D02*
D03*
X565200D02*
D03*
X489000D02*
D03*
X514400D02*
D03*
X539800D02*
D03*
X438200D02*
D03*
X412800D02*
D03*
X387400D02*
D03*
X463600D02*
D03*
X362000D02*
D03*
X463600Y321000D02*
D03*
X362000D02*
D03*
X387400D02*
D03*
X412800D02*
D03*
X438200D02*
D03*
X539800D02*
D03*
X514400D02*
D03*
X489000D02*
D03*
X565200D02*
D03*
X641400D02*
D03*
X590600D02*
D03*
X616000D02*
D03*
X666800D02*
D03*
Y346400D02*
D03*
D63*
X375430Y732530D02*
D03*
X400830D02*
D03*
X426230D02*
D03*
X451630D02*
D03*
X267100Y733000D02*
D03*
X241700D02*
D03*
X216300D02*
D03*
X190900D02*
D03*
X709900Y319000D02*
D03*
X735300D02*
D03*
X760700D02*
D03*
X786100D02*
D03*
X207000Y558000D02*
D03*
X232400D02*
D03*
X207000Y507200D02*
D03*
X232400D02*
D03*
Y532600D02*
D03*
X207000D02*
D03*
D64*
X833192Y677918D02*
D03*
Y621918D02*
D03*
X763192Y677918D02*
D03*
Y621918D02*
D03*
D65*
X828192Y649918D02*
D03*
X768192D02*
D03*
X808192D02*
D03*
X788192D02*
D03*
D66*
X126620Y389630D02*
D03*
Y476030D02*
D03*
D67*
X168420Y389630D02*
D03*
Y476030D02*
D03*
D68*
X163420Y403930D02*
D03*
Y461730D02*
D03*
D69*
X686500Y740000D02*
D03*
X606500D02*
D03*
D70*
X130200Y661200D02*
D03*
X168200Y574800D02*
D03*
X130200D02*
D03*
X168200Y661200D02*
D03*
D71*
X328000Y514000D02*
D03*
X571000Y488000D02*
D03*
X237000Y341000D02*
D03*
X217000D02*
D03*
X727000Y610000D02*
D03*
X708000Y550000D02*
D03*
X735000Y540000D02*
D03*
X730000Y509000D02*
D03*
X734000Y525000D02*
D03*
X762675Y530675D02*
D03*
X218000Y454000D02*
D03*
X240000Y381000D02*
D03*
X318000Y385000D02*
D03*
X467500Y658500D02*
D03*
X536000Y565000D02*
D03*
X564000Y553000D02*
D03*
Y595000D02*
D03*
X457000Y599000D02*
D03*
X463000D02*
D03*
X451000D02*
D03*
X353000Y607000D02*
D03*
Y602000D02*
D03*
Y612000D02*
D03*
X543000Y649000D02*
D03*
X351000Y398000D02*
D03*
X438000Y363000D02*
D03*
X451000Y371000D02*
D03*
X740778Y378222D02*
D03*
X683000Y411000D02*
D03*
X705000Y364000D02*
D03*
X678000Y388000D02*
D03*
X657000Y386000D02*
D03*
X709000Y433110D02*
D03*
X528000Y654000D02*
D03*
X402000Y444000D02*
D03*
X410000D02*
D03*
X420000Y579000D02*
D03*
X506000Y707000D02*
D03*
X514000D02*
D03*
X714000Y605500D02*
D03*
X646000Y524000D02*
D03*
X574000Y426000D02*
D03*
X582000D02*
D03*
X736000Y423000D02*
D03*
X744000D02*
D03*
X657000Y695000D02*
D03*
X649000D02*
D03*
X362110Y674350D02*
D03*
X370110D02*
D03*
X344000Y576000D02*
D03*
X590000Y604000D02*
D03*
X422000Y511000D02*
D03*
Y505000D02*
D03*
X605000Y592000D02*
D03*
X663000Y559000D02*
D03*
X659000Y566000D02*
D03*
X642999Y577000D02*
D03*
X578000Y607000D02*
D03*
X741000Y552000D02*
D03*
X768000Y590000D02*
D03*
X453000Y569000D02*
D03*
X554000Y606000D02*
D03*
X440000Y648000D02*
D03*
X448000D02*
D03*
X598000Y605000D02*
D03*
X762000Y571000D02*
D03*
X351000Y576000D02*
D03*
X511000Y504000D02*
D03*
Y511000D02*
D03*
Y518000D02*
D03*
X428000Y484000D02*
D03*
X422000D02*
D03*
X416000D02*
D03*
X750000Y505000D02*
D03*
X716000Y577000D02*
D03*
X701000Y583000D02*
D03*
X524000Y549000D02*
D03*
X533000Y605000D02*
D03*
X524000D02*
D03*
X644000Y540000D02*
D03*
X604000Y532000D02*
D03*
X524000Y531000D02*
D03*
X603000Y539000D02*
D03*
X754000Y552000D02*
D03*
X766000D02*
D03*
X736000Y565000D02*
D03*
X655000Y577000D02*
D03*
X678250Y643250D02*
D03*
X667000Y643000D02*
D03*
X645000Y642000D02*
D03*
X657000D02*
D03*
X612000D02*
D03*
X602500Y643000D02*
D03*
X674000Y573000D02*
D03*
X603000Y599000D02*
D03*
X623000Y643000D02*
D03*
X609999Y614999D02*
D03*
X645000Y615000D02*
D03*
X719000Y688250D02*
D03*
X711000Y670000D02*
D03*
X721999Y695999D02*
D03*
X729750Y693833D02*
D03*
X742000Y676000D02*
D03*
X569000Y694000D02*
D03*
X144000Y626000D02*
D03*
Y618000D02*
D03*
X147000Y435000D02*
D03*
Y427000D02*
D03*
X452000Y586000D02*
D03*
X459000Y578000D02*
D03*
X635999Y577000D02*
D03*
X428000Y505000D02*
D03*
Y511000D02*
D03*
X558000Y628000D02*
D03*
X605000Y567000D02*
D03*
X754000Y703000D02*
D03*
X375000Y375686D02*
D03*
X398000Y400000D02*
D03*
Y429000D02*
D03*
X766000Y519000D02*
D03*
X554000Y488000D02*
D03*
X554000Y483000D02*
D03*
X570000Y526000D02*
D03*
X219000Y434000D02*
D03*
X263110Y408890D02*
D03*
X241000Y407000D02*
D03*
X195000Y486000D02*
D03*
X277000Y440000D02*
D03*
X271000Y458000D02*
D03*
X305000Y431000D02*
D03*
X300000Y398000D02*
D03*
X339000Y440000D02*
D03*
X347000Y458000D02*
D03*
X336000Y369000D02*
D03*
X303000Y329000D02*
D03*
X335000Y312000D02*
D03*
X522076Y381500D02*
D03*
X511000Y475000D02*
D03*
X605000Y413000D02*
D03*
X625000Y676000D02*
D03*
X265000Y673000D02*
D03*
X257000D02*
D03*
X261000Y569000D02*
D03*
X272000Y594000D02*
D03*
X355000Y700000D02*
D03*
X375999Y616999D02*
D03*
X293000Y361000D02*
D03*
X285000D02*
D03*
X200000Y641000D02*
D03*
X195000Y641000D02*
D03*
X299000Y554000D02*
D03*
X307000Y655000D02*
D03*
X392000Y658000D02*
D03*
X372000Y566000D02*
D03*
X220000Y390000D02*
D03*
X697000Y643000D02*
D03*
X353000Y656000D02*
D03*
X240000Y439000D02*
D03*
X630650Y389350D02*
D03*
X166000Y613000D02*
D03*
Y623000D02*
D03*
X195000Y593000D02*
D03*
X200000D02*
D03*
X266000Y514000D02*
D03*
X247000Y486000D02*
D03*
X282000Y496000D02*
D03*
X167000Y551000D02*
D03*
X159000D02*
D03*
X316000Y340000D02*
D03*
X217000Y334000D02*
D03*
X237000Y333000D02*
D03*
M02*
