M48
;Layer_Color=9474304
;FILE_FORMAT=4:4
METRIC,LZ
;TYPE=PLATED
T1F00S00C0.3000
T3F00S00C0.7000
T5F00S00C0.8000
T6F00S00C0.8500
T7F00S00C1.0000
T8F00S00C1.5000
;TYPE=NON_PLATED
T9F00S00C1.1000
T10F00S00C3.0000
%
T01
X00217Y00334
Y00341
X0022Y0039
X00219Y00434
X00218Y00454
X00195Y00486
X00167Y00551
X00159
X00166Y00613
Y00623
X00144Y00626
Y00618
X00195Y00641
X002Y00641
X002Y00593
X00195
X00147Y00435
Y00427
X0024Y00439
X00241Y00407
X0026311Y0040889
X00277Y0044
X00271Y00458
X00282Y00496
X00266Y00514
X00247Y00486
X00261Y00569
X00272Y00594
X00299Y00554
X00344Y00576
X00351
X00353Y00602
Y00607
Y00612
X00375999Y00616999
X00372Y00566
X0042Y00579
X00452Y00586
X00451Y00599
X00457
X00463
X00459Y00578
X00453Y00569
X00428Y00511
X00422
Y00505
X00428
Y00484
X00422
X00416
X0041Y00444
X00402
X00398Y00429
Y004
X00375Y00375686
X00336Y00369
X00318Y00385
X003Y00398
X00305Y00431
X00339Y0044
X00347Y00458
X00351Y00398
X00316Y0034
X00303Y00329
X00293Y00361
X00285
X0024Y00381
X00237Y00341
Y00333
X00335Y00312
X00438Y00363
X00451Y00371
X00522076Y003815
X00574Y00426
X00582
X00605Y00413
X00571Y00488
X00554
X00554Y00483
X00511Y00475
Y00504
Y00511
Y00518
X00524Y00531
Y00549
X00536Y00565
X00564Y00553
X0057Y00526
X00604Y00532
X00603Y00539
X00605Y00567
Y00592
X00603Y00599
X00598Y00605
X0059Y00604
X00578Y00607
X00554Y00606
X00564Y00595
X00558Y00628
X00543Y00649
X00528Y00654
X00524Y00605
X00533
X00609999Y00614999
X00612Y00642
X006025Y00643
X00623Y00643
X00625Y00676
X00569Y00694
X004675Y006585
X00448Y00648
X0044
X00392Y00658
X0037011Y0067435
X0036211
X00353Y00656
X00307Y00655
X00265Y00673
X00257
X00328Y00514
X00646Y00524
X00644Y0054
X00663Y00559
X00659Y00566
X00655Y00577
X00642999Y00577
X00635999
X00674Y00573
X00701Y00583
X00716Y00577
X00714Y006055
X00727Y0061
X00736Y00565
X00741Y00552
X00754
X00766
X00762Y00571
X00768Y0059
X00762675Y00530675
X00766Y00519
X0075Y00505
X0073Y00509
X00734Y00525
X00735Y0054
X00708Y0055
X00697Y00643
X0067825Y0064325
X00667Y00643
X00657Y00642
X00645
Y00615
X00649Y00695
X00657
X00721999Y00695999
X0072975Y00693833
X00719Y0068825
X00711Y0067
X00742Y00676
X00744Y00423
X00736
X00709Y0043311
X00683Y00411
X00678Y00388
X00657Y00386
X0063065Y0038935
X00705Y00364
X00740778Y00378222
X00754Y00703
X00514Y00707
X00506
X00355Y007
T03
X0016342Y0040393
Y0046173
T05
X00207Y005072
X002324
Y005326
Y00558
X00207Y005326
X00362Y003464
X003874
X004128
X004382
X004636
X00489
X005144
X005398
X005652
X005906
X00616
Y00321
X005906
X005652
X005398
X005144
X00489
X004636
X004382
X004128
X003874
X00362
X006414
Y003464
X006668
Y00321
X007099Y00319
X007353
X007607
X007861
X008136Y00385
Y004104
Y004358
Y004612
Y004866
Y00512
Y005374
Y005628
X00839
Y005374
Y00512
Y004866
Y004612
Y004358
Y004104
Y00385
X00845Y00594
X00825
X00805
X0045163Y0073253
X0042623
X0040083
X0037543
X002671Y00733
X002417
X002163
X001909
T06
X00207Y00558
T07
X00768192Y00649918
X00788192
X00808192
X00828192
T08
X00763192Y00621918
Y00677918
X00833192
Y00621918
T09
X006865Y0074
X006065
T10
X00945Y0008
X00055
X0014Y00332
X0083
Y00722
X00945Y0092
X00055
X0014Y00722
M30
