G04 Layer_Color=16711935*
%FSLAX44Y44*%
%MOMM*%
G71*
G01*
G75*
%ADD95R,0.9900X1.2400*%
%ADD100R,1.2032X1.2032*%
%ADD108O,0.5032X0.4032*%
%ADD109C,1.0032*%
%ADD110R,1.2032X1.2032*%
%ADD127C,4.2032*%
%ADD128C,1.7032*%
%ADD129O,2.2032X1.7032*%
%ADD130O,1.7032X2.2032*%
%ADD131C,2.2032*%
%ADD132C,2.0032*%
%ADD133C,1.6032*%
%ADD134O,2.4032X1.2032*%
%ADD135O,2.7032X1.2032*%
%ADD136C,0.9032*%
%ADD137C,1.3032*%
%ADD138O,2.3032X1.4032*%
%ADD139O,1.0032X1.7032*%
%ADD140R,0.8032X2.2032*%
%ADD141O,0.8032X2.2032*%
%ADD142R,1.4032X0.6032*%
%ADD143R,0.9032X1.8032*%
%ADD144R,1.8032X2.3532*%
%ADD145R,1.6032X1.8032*%
%ADD146R,1.4032X1.6032*%
%ADD147R,2.2032X1.8032*%
%ADD148R,0.7032X1.5032*%
%ADD149O,1.5032X2.2032*%
D95*
X179950Y547700D02*
D03*
Y517700D02*
D03*
D100*
X751860Y601000D02*
D03*
X733890D02*
D03*
X751860Y581000D02*
D03*
X733890D02*
D03*
X741860Y502000D02*
D03*
X723890D02*
D03*
D108*
X179936Y551222D02*
D03*
Y543754D02*
D03*
Y521222D02*
D03*
Y513754D02*
D03*
D109*
X556343Y658000D02*
D03*
X156000Y625000D02*
D03*
Y611000D02*
D03*
D110*
X534000Y503860D02*
D03*
Y485890D02*
D03*
X520000Y503860D02*
D03*
Y485890D02*
D03*
X502000Y503860D02*
D03*
Y485890D02*
D03*
X489000Y503860D02*
D03*
Y485890D02*
D03*
X475000Y503860D02*
D03*
Y485890D02*
D03*
D127*
X55000Y80000D02*
D03*
X945000D02*
D03*
X55000Y920000D02*
D03*
X945000D02*
D03*
X140000Y332000D02*
D03*
X830000D02*
D03*
X140000Y722000D02*
D03*
X830000D02*
D03*
D128*
X805000Y594000D02*
D03*
X825000D02*
D03*
X845000D02*
D03*
D129*
X813600Y537400D02*
D03*
Y512000D02*
D03*
Y486600D02*
D03*
Y385000D02*
D03*
Y410400D02*
D03*
Y435800D02*
D03*
Y461200D02*
D03*
Y562800D02*
D03*
X839000D02*
D03*
Y461200D02*
D03*
Y435800D02*
D03*
Y410400D02*
D03*
Y385000D02*
D03*
Y486600D02*
D03*
Y512000D02*
D03*
Y537400D02*
D03*
D130*
X616000Y346400D02*
D03*
X590600D02*
D03*
X641400D02*
D03*
X565200D02*
D03*
X489000D02*
D03*
X514400D02*
D03*
X539800D02*
D03*
X438200D02*
D03*
X412800D02*
D03*
X387400D02*
D03*
X463600D02*
D03*
X362000D02*
D03*
X463600Y321000D02*
D03*
X362000D02*
D03*
X387400D02*
D03*
X412800D02*
D03*
X438200D02*
D03*
X539800D02*
D03*
X514400D02*
D03*
X489000D02*
D03*
X565200D02*
D03*
X641400D02*
D03*
X590600D02*
D03*
X616000D02*
D03*
X666800D02*
D03*
Y346400D02*
D03*
D131*
X375430Y732530D02*
D03*
X400830D02*
D03*
X426230D02*
D03*
X451630D02*
D03*
X267100Y733000D02*
D03*
X241700D02*
D03*
X216300D02*
D03*
X190900D02*
D03*
X709900Y319000D02*
D03*
X735300D02*
D03*
X760700D02*
D03*
X786100D02*
D03*
X207000Y558000D02*
D03*
X232400D02*
D03*
X207000Y507200D02*
D03*
X232400D02*
D03*
Y532600D02*
D03*
X207000D02*
D03*
D132*
X833192Y677918D02*
D03*
Y621918D02*
D03*
X763192Y677918D02*
D03*
Y621918D02*
D03*
D133*
X828192Y649918D02*
D03*
X768192D02*
D03*
X808192D02*
D03*
X788192D02*
D03*
D134*
X126620Y389630D02*
D03*
Y476030D02*
D03*
D135*
X168420Y389630D02*
D03*
Y476030D02*
D03*
D136*
X163420Y403930D02*
D03*
Y461730D02*
D03*
D137*
X686500Y740000D02*
D03*
X606500D02*
D03*
D138*
X130200Y661200D02*
D03*
X168200Y574800D02*
D03*
X130200D02*
D03*
X168200Y661200D02*
D03*
D139*
X673000Y565000D02*
D03*
X695000D02*
D03*
X684000D02*
D03*
X706000D02*
D03*
D140*
X617950Y459000D02*
D03*
D141*
X630650D02*
D03*
X643350D02*
D03*
X656050D02*
D03*
X617950Y405000D02*
D03*
X630650D02*
D03*
X643350D02*
D03*
X656050D02*
D03*
D142*
X723028Y531650D02*
D03*
Y544350D02*
D03*
Y518950D02*
D03*
Y557050D02*
D03*
X782972Y518950D02*
D03*
Y557050D02*
D03*
Y531650D02*
D03*
Y544350D02*
D03*
D143*
X590000Y631000D02*
D03*
X601000D02*
D03*
X667000D02*
D03*
X656000D02*
D03*
X678000D02*
D03*
X645000D02*
D03*
X634000D02*
D03*
X623000D02*
D03*
X612000D02*
D03*
D144*
X736000Y735000D02*
D03*
X578500D02*
D03*
D145*
X724500Y640000D02*
D03*
D146*
X578000D02*
D03*
D147*
X284000Y343000D02*
D03*
X190000D02*
D03*
D148*
X262000Y316200D02*
D03*
X252000D02*
D03*
X242000D02*
D03*
X232000D02*
D03*
X222000D02*
D03*
X212000D02*
D03*
D149*
X257000Y339000D02*
D03*
X217000D02*
D03*
X237000D02*
D03*
M02*
