G04 Layer_Color=2752767*
%FSLAX44Y44*%
%MOMM*%
G71*
G01*
G75*
%ADD150C,0.0508*%
%ADD151C,0.0677*%
%ADD152C,0.0339*%
D150*
X52968Y77968D02*
Y82032D01*
X57032D01*
Y77968D01*
X52968D01*
X942968D02*
Y82032D01*
X947032D01*
Y77968D01*
X942968D01*
X52968Y917968D02*
Y922032D01*
X57032D01*
Y917968D01*
X52968D01*
X942968D02*
Y922032D01*
X947032D01*
Y917968D01*
X942968D01*
X833192Y675886D02*
X831160Y679950D01*
X835224D01*
X833192Y675886D01*
Y619886D02*
X831160Y623950D01*
X835224D01*
X833192Y619886D01*
X763192Y675886D02*
X761160Y679950D01*
X765224D01*
X763192Y675886D01*
Y619886D02*
X761160Y623950D01*
X765224D01*
X763192Y619886D01*
X828192Y647886D02*
X829208Y648902D01*
X830224D01*
X829208Y649918D01*
X830224Y650934D01*
X829208D01*
X828192Y651950D01*
X827176Y650934D01*
X826160D01*
X827176Y649918D01*
X826160Y648902D01*
X827176D01*
X828192Y647886D01*
X768192D02*
X769208Y648902D01*
X770224D01*
X769208Y649918D01*
X770224Y650934D01*
X769208D01*
X768192Y651950D01*
X767176Y650934D01*
X766160D01*
X767176Y649918D01*
X766160Y648902D01*
X767176D01*
X768192Y647886D01*
X124588Y387598D02*
X125604Y389630D01*
X124588Y391662D01*
X126620Y390646D01*
X128652Y391662D01*
X127636Y389630D01*
X128652Y387598D01*
X126620Y388614D01*
X124588Y387598D01*
X167404Y388614D02*
Y387598D01*
X169436D01*
Y388614D01*
X170452D01*
Y390646D01*
X169436D01*
Y391662D01*
X167404D01*
Y390646D01*
X166388D01*
Y388614D01*
X167404D01*
X124588Y473998D02*
X125604Y476030D01*
X124588Y478062D01*
X126620Y477046D01*
X128652Y478062D01*
X127636Y476030D01*
X128652Y473998D01*
X126620Y475014D01*
X124588Y473998D01*
X167404Y475014D02*
Y473998D01*
X169436D01*
Y475014D01*
X170452D01*
Y477046D01*
X169436D01*
Y478062D01*
X167404D01*
Y477046D01*
X166388D01*
Y475014D01*
X167404D01*
X161388Y401898D02*
X162404D01*
X163420Y402914D01*
X164436Y401898D01*
X165452D01*
Y402914D01*
X164436Y403930D01*
X165452Y404946D01*
Y405962D01*
X164436D01*
X163420Y404946D01*
X162404Y405962D01*
X161388D01*
Y404946D01*
X162404Y403930D01*
X161388Y402914D01*
Y401898D01*
Y459698D02*
X162404D01*
X163420Y460714D01*
X164436Y459698D01*
X165452D01*
Y460714D01*
X164436Y461730D01*
X165452Y462746D01*
Y463762D01*
X164436D01*
X163420Y462746D01*
X162404Y463762D01*
X161388D01*
Y462746D01*
X162404Y461730D01*
X161388Y460714D01*
Y459698D01*
X137968Y329968D02*
Y334032D01*
X142032D01*
Y329968D01*
X137968D01*
X827968D02*
Y334032D01*
X832032D01*
Y329968D01*
X827968D01*
X137968Y719968D02*
Y724032D01*
X142032D01*
Y719968D01*
X137968D01*
X827968D02*
Y724032D01*
X832032D01*
Y719968D01*
X827968D01*
X684468Y740000D02*
X686500Y742032D01*
X688532Y740000D01*
X686500Y737968D01*
X684468Y740000D01*
X604468D02*
X606500Y742032D01*
X608532Y740000D01*
X606500Y737968D01*
X604468Y740000D01*
X808192Y647886D02*
X809208Y648902D01*
X810224D01*
X809208Y649918D01*
X810224Y650934D01*
X809208D01*
X808192Y651950D01*
X807176Y650934D01*
X806160D01*
X807176Y649918D01*
X806160Y648902D01*
X807176D01*
X808192Y647886D01*
X788192D02*
X789208Y648902D01*
X790224D01*
X789208Y649918D01*
X790224Y650934D01*
X789208D01*
X788192Y651950D01*
X787176Y650934D01*
X786160D01*
X787176Y649918D01*
X786160Y648902D01*
X787176D01*
X788192Y647886D01*
X204968Y555968D02*
Y560032D01*
X209032D01*
Y555968D01*
X204968D01*
X205984Y556984D02*
Y559016D01*
X208016D01*
Y556984D01*
X205984D01*
X328000Y511968D02*
X325968Y516032D01*
X330032D01*
X328000Y511968D01*
Y512984D02*
X326984Y515016D01*
X329016D01*
X328000Y512984D01*
X571000Y485968D02*
X568968Y490032D01*
X573032D01*
X571000Y485968D01*
Y486984D02*
X569984Y489016D01*
X572016D01*
X571000Y486984D01*
X237000Y338968D02*
X234968Y343032D01*
X239032D01*
X237000Y338968D01*
Y339984D02*
X235984Y342016D01*
X238016D01*
X237000Y339984D01*
X217000Y338968D02*
X214968Y343032D01*
X219032D01*
X217000Y338968D01*
Y339984D02*
X215984Y342016D01*
X218016D01*
X217000Y339984D01*
X727000Y607968D02*
X724968Y612032D01*
X729032D01*
X727000Y607968D01*
Y608984D02*
X725984Y611016D01*
X728016D01*
X727000Y608984D01*
X708000Y547968D02*
X705968Y552032D01*
X710032D01*
X708000Y547968D01*
Y548984D02*
X706984Y551016D01*
X709016D01*
X708000Y548984D01*
X735000Y537968D02*
X732968Y542032D01*
X737032D01*
X735000Y537968D01*
Y538984D02*
X733984Y541016D01*
X736016D01*
X735000Y538984D01*
X730000Y506968D02*
X727968Y511032D01*
X732032D01*
X730000Y506968D01*
Y507984D02*
X728984Y510016D01*
X731016D01*
X730000Y507984D01*
X734000Y522968D02*
X731968Y527032D01*
X736032D01*
X734000Y522968D01*
Y523984D02*
X732984Y526016D01*
X735016D01*
X734000Y523984D01*
X762675Y528643D02*
X760643Y532707D01*
X764707D01*
X762675Y528643D01*
Y529659D02*
X761659Y531691D01*
X763691D01*
X762675Y529659D01*
X218000Y451968D02*
X215968Y456032D01*
X220032D01*
X218000Y451968D01*
Y452984D02*
X216984Y455016D01*
X219016D01*
X218000Y452984D01*
X240000Y378968D02*
X237968Y383032D01*
X242032D01*
X240000Y378968D01*
Y379984D02*
X238984Y382016D01*
X241016D01*
X240000Y379984D01*
X318000Y382968D02*
X315968Y387032D01*
X320032D01*
X318000Y382968D01*
Y383984D02*
X316984Y386016D01*
X319016D01*
X318000Y383984D01*
X467500Y656468D02*
X465468Y660532D01*
X469532D01*
X467500Y656468D01*
Y657484D02*
X466484Y659516D01*
X468516D01*
X467500Y657484D01*
X536000Y562968D02*
X533968Y567032D01*
X538032D01*
X536000Y562968D01*
Y563984D02*
X534984Y566016D01*
X537016D01*
X536000Y563984D01*
X564000Y550968D02*
X561968Y555032D01*
X566032D01*
X564000Y550968D01*
Y551984D02*
X562984Y554016D01*
X565016D01*
X564000Y551984D01*
Y592968D02*
X561968Y597032D01*
X566032D01*
X564000Y592968D01*
Y593984D02*
X562984Y596016D01*
X565016D01*
X564000Y593984D01*
X457000Y596968D02*
X454968Y601032D01*
X459032D01*
X457000Y596968D01*
Y597984D02*
X455984Y600016D01*
X458016D01*
X457000Y597984D01*
X463000Y596968D02*
X460968Y601032D01*
X465032D01*
X463000Y596968D01*
Y597984D02*
X461984Y600016D01*
X464016D01*
X463000Y597984D01*
X451000Y596968D02*
X448968Y601032D01*
X453032D01*
X451000Y596968D01*
Y597984D02*
X449984Y600016D01*
X452016D01*
X451000Y597984D01*
X353000Y604968D02*
X350968Y609032D01*
X355032D01*
X353000Y604968D01*
Y605984D02*
X351984Y608016D01*
X354016D01*
X353000Y605984D01*
Y599968D02*
X350968Y604032D01*
X355032D01*
X353000Y599968D01*
Y600984D02*
X351984Y603016D01*
X354016D01*
X353000Y600984D01*
Y609968D02*
X350968Y614032D01*
X355032D01*
X353000Y609968D01*
Y610984D02*
X351984Y613016D01*
X354016D01*
X353000Y610984D01*
X543000Y646968D02*
X540968Y651032D01*
X545032D01*
X543000Y646968D01*
Y647984D02*
X541984Y650016D01*
X544016D01*
X543000Y647984D01*
X351000Y395968D02*
X348968Y400032D01*
X353032D01*
X351000Y395968D01*
Y396984D02*
X349984Y399016D01*
X352016D01*
X351000Y396984D01*
X438000Y360968D02*
X435968Y365032D01*
X440032D01*
X438000Y360968D01*
Y361984D02*
X436984Y364016D01*
X439016D01*
X438000Y361984D01*
X451000Y368968D02*
X448968Y373032D01*
X453032D01*
X451000Y368968D01*
Y369984D02*
X449984Y372016D01*
X452016D01*
X451000Y369984D01*
X740778Y376190D02*
X738746Y380254D01*
X742810D01*
X740778Y376190D01*
Y377206D02*
X739762Y379238D01*
X741794D01*
X740778Y377206D01*
X683000Y408968D02*
X680968Y413032D01*
X685032D01*
X683000Y408968D01*
Y409984D02*
X681984Y412016D01*
X684016D01*
X683000Y409984D01*
X705000Y361968D02*
X702968Y366032D01*
X707032D01*
X705000Y361968D01*
Y362984D02*
X703984Y365016D01*
X706016D01*
X705000Y362984D01*
X678000Y385968D02*
X675968Y390032D01*
X680032D01*
X678000Y385968D01*
Y386984D02*
X676984Y389016D01*
X679016D01*
X678000Y386984D01*
X657000Y383968D02*
X654968Y388032D01*
X659032D01*
X657000Y383968D01*
Y384984D02*
X655984Y387016D01*
X658016D01*
X657000Y384984D01*
X709000Y431078D02*
X706968Y435142D01*
X711032D01*
X709000Y431078D01*
Y432094D02*
X707984Y434126D01*
X710016D01*
X709000Y432094D01*
X528000Y651968D02*
X525968Y656032D01*
X530032D01*
X528000Y651968D01*
Y652984D02*
X526984Y655016D01*
X529016D01*
X528000Y652984D01*
X402000Y441968D02*
X399968Y446032D01*
X404032D01*
X402000Y441968D01*
Y442984D02*
X400984Y445016D01*
X403016D01*
X402000Y442984D01*
X410000Y441968D02*
X407968Y446032D01*
X412032D01*
X410000Y441968D01*
Y442984D02*
X408984Y445016D01*
X411016D01*
X410000Y442984D01*
X420000Y576968D02*
X417968Y581032D01*
X422032D01*
X420000Y576968D01*
Y577984D02*
X418984Y580016D01*
X421016D01*
X420000Y577984D01*
X506000Y704968D02*
X503968Y709032D01*
X508032D01*
X506000Y704968D01*
Y705984D02*
X504984Y708016D01*
X507016D01*
X506000Y705984D01*
X514000Y704968D02*
X511968Y709032D01*
X516032D01*
X514000Y704968D01*
Y705984D02*
X512984Y708016D01*
X515016D01*
X514000Y705984D01*
X714000Y603468D02*
X711968Y607532D01*
X716032D01*
X714000Y603468D01*
Y604484D02*
X712984Y606516D01*
X715016D01*
X714000Y604484D01*
X646000Y521968D02*
X643968Y526032D01*
X648032D01*
X646000Y521968D01*
Y522984D02*
X644984Y525016D01*
X647016D01*
X646000Y522984D01*
X574000Y423968D02*
X571968Y428032D01*
X576032D01*
X574000Y423968D01*
Y424984D02*
X572984Y427016D01*
X575016D01*
X574000Y424984D01*
X582000Y423968D02*
X579968Y428032D01*
X584032D01*
X582000Y423968D01*
Y424984D02*
X580984Y427016D01*
X583016D01*
X582000Y424984D01*
X736000Y420968D02*
X733968Y425032D01*
X738032D01*
X736000Y420968D01*
Y421984D02*
X734984Y424016D01*
X737016D01*
X736000Y421984D01*
X744000Y420968D02*
X741968Y425032D01*
X746032D01*
X744000Y420968D01*
Y421984D02*
X742984Y424016D01*
X745016D01*
X744000Y421984D01*
X657000Y692968D02*
X654968Y697032D01*
X659032D01*
X657000Y692968D01*
Y693984D02*
X655984Y696016D01*
X658016D01*
X657000Y693984D01*
X649000Y692968D02*
X646968Y697032D01*
X651032D01*
X649000Y692968D01*
Y693984D02*
X647984Y696016D01*
X650016D01*
X649000Y693984D01*
X362110Y672318D02*
X360078Y676382D01*
X364142D01*
X362110Y672318D01*
Y673334D02*
X361094Y675366D01*
X363126D01*
X362110Y673334D01*
X370110Y672318D02*
X368078Y676382D01*
X372142D01*
X370110Y672318D01*
Y673334D02*
X369094Y675366D01*
X371126D01*
X370110Y673334D01*
X344000Y573968D02*
X341968Y578032D01*
X346032D01*
X344000Y573968D01*
Y574984D02*
X342984Y577016D01*
X345016D01*
X344000Y574984D01*
X590000Y601968D02*
X587968Y606032D01*
X592032D01*
X590000Y601968D01*
Y602984D02*
X588984Y605016D01*
X591016D01*
X590000Y602984D01*
X422000Y508968D02*
X419968Y513032D01*
X424032D01*
X422000Y508968D01*
Y509984D02*
X420984Y512016D01*
X423016D01*
X422000Y509984D01*
Y502968D02*
X419968Y507032D01*
X424032D01*
X422000Y502968D01*
Y503984D02*
X420984Y506016D01*
X423016D01*
X422000Y503984D01*
X605000Y589968D02*
X602968Y594032D01*
X607032D01*
X605000Y589968D01*
Y590984D02*
X603984Y593016D01*
X606016D01*
X605000Y590984D01*
X663000Y556968D02*
X660968Y561032D01*
X665032D01*
X663000Y556968D01*
Y557984D02*
X661984Y560016D01*
X664016D01*
X663000Y557984D01*
X659000Y563968D02*
X656968Y568032D01*
X661032D01*
X659000Y563968D01*
Y564984D02*
X657984Y567016D01*
X660016D01*
X659000Y564984D01*
X642999Y574967D02*
X640967Y579031D01*
X645031D01*
X642999Y574967D01*
Y575984D02*
X641983Y578016D01*
X644015D01*
X642999Y575984D01*
X578000Y604968D02*
X575968Y609032D01*
X580032D01*
X578000Y604968D01*
Y605984D02*
X576984Y608016D01*
X579016D01*
X578000Y605984D01*
X741000Y549968D02*
X738968Y554032D01*
X743032D01*
X741000Y549968D01*
Y550984D02*
X739984Y553016D01*
X742016D01*
X741000Y550984D01*
X768000Y587968D02*
X765968Y592032D01*
X770032D01*
X768000Y587968D01*
Y588984D02*
X766984Y591016D01*
X769016D01*
X768000Y588984D01*
X453000Y566968D02*
X450968Y571032D01*
X455032D01*
X453000Y566968D01*
Y567984D02*
X451984Y570016D01*
X454016D01*
X453000Y567984D01*
X554000Y603968D02*
X551968Y608032D01*
X556032D01*
X554000Y603968D01*
Y604984D02*
X552984Y607016D01*
X555016D01*
X554000Y604984D01*
X440000Y645968D02*
X437968Y650032D01*
X442032D01*
X440000Y645968D01*
Y646984D02*
X438984Y649016D01*
X441016D01*
X440000Y646984D01*
X448000Y645968D02*
X445968Y650032D01*
X450032D01*
X448000Y645968D01*
Y646984D02*
X446984Y649016D01*
X449016D01*
X448000Y646984D01*
X598000Y602968D02*
X595968Y607032D01*
X600032D01*
X598000Y602968D01*
Y603984D02*
X596984Y606016D01*
X599016D01*
X598000Y603984D01*
X762000Y568968D02*
X759968Y573032D01*
X764032D01*
X762000Y568968D01*
Y569984D02*
X760984Y572016D01*
X763016D01*
X762000Y569984D01*
X351000Y573968D02*
X348968Y578032D01*
X353032D01*
X351000Y573968D01*
Y574984D02*
X349984Y577016D01*
X352016D01*
X351000Y574984D01*
X511000Y501968D02*
X508968Y506032D01*
X513032D01*
X511000Y501968D01*
Y502984D02*
X509984Y505016D01*
X512016D01*
X511000Y502984D01*
Y508968D02*
X508968Y513032D01*
X513032D01*
X511000Y508968D01*
Y509984D02*
X509984Y512016D01*
X512016D01*
X511000Y509984D01*
Y515968D02*
X508968Y520032D01*
X513032D01*
X511000Y515968D01*
Y516984D02*
X509984Y519016D01*
X512016D01*
X511000Y516984D01*
X428000Y481968D02*
X425968Y486032D01*
X430032D01*
X428000Y481968D01*
Y482984D02*
X426984Y485016D01*
X429016D01*
X428000Y482984D01*
X422000Y481968D02*
X419968Y486032D01*
X424032D01*
X422000Y481968D01*
Y482984D02*
X420984Y485016D01*
X423016D01*
X422000Y482984D01*
X416000Y481968D02*
X413968Y486032D01*
X418032D01*
X416000Y481968D01*
Y482984D02*
X414984Y485016D01*
X417016D01*
X416000Y482984D01*
X750000Y502968D02*
X747968Y507032D01*
X752032D01*
X750000Y502968D01*
Y503984D02*
X748984Y506016D01*
X751016D01*
X750000Y503984D01*
X716000Y574968D02*
X713968Y579032D01*
X718032D01*
X716000Y574968D01*
Y575984D02*
X714984Y578016D01*
X717016D01*
X716000Y575984D01*
X701000Y580968D02*
X698968Y585032D01*
X703032D01*
X701000Y580968D01*
Y581984D02*
X699984Y584016D01*
X702016D01*
X701000Y581984D01*
X524000Y546968D02*
X521968Y551032D01*
X526032D01*
X524000Y546968D01*
Y547984D02*
X522984Y550016D01*
X525016D01*
X524000Y547984D01*
X533000Y602968D02*
X530968Y607032D01*
X535032D01*
X533000Y602968D01*
Y603984D02*
X531984Y606016D01*
X534016D01*
X533000Y603984D01*
X524000Y602968D02*
X521968Y607032D01*
X526032D01*
X524000Y602968D01*
Y603984D02*
X522984Y606016D01*
X525016D01*
X524000Y603984D01*
X644000Y537968D02*
X641968Y542032D01*
X646032D01*
X644000Y537968D01*
Y538984D02*
X642984Y541016D01*
X645016D01*
X644000Y538984D01*
X604000Y529968D02*
X601968Y534032D01*
X606032D01*
X604000Y529968D01*
Y530984D02*
X602984Y533016D01*
X605016D01*
X604000Y530984D01*
X524000Y528968D02*
X521968Y533032D01*
X526032D01*
X524000Y528968D01*
Y529984D02*
X522984Y532016D01*
X525016D01*
X524000Y529984D01*
X603000Y536968D02*
X600968Y541032D01*
X605032D01*
X603000Y536968D01*
Y537984D02*
X601984Y540016D01*
X604016D01*
X603000Y537984D01*
X754000Y549968D02*
X751968Y554032D01*
X756032D01*
X754000Y549968D01*
Y550984D02*
X752984Y553016D01*
X755016D01*
X754000Y550984D01*
X766000Y549968D02*
X763968Y554032D01*
X768032D01*
X766000Y549968D01*
Y550984D02*
X764984Y553016D01*
X767016D01*
X766000Y550984D01*
X736000Y562968D02*
X733968Y567032D01*
X738032D01*
X736000Y562968D01*
Y563984D02*
X734984Y566016D01*
X737016D01*
X736000Y563984D01*
X655000Y574968D02*
X652968Y579032D01*
X657032D01*
X655000Y574968D01*
Y575984D02*
X653984Y578016D01*
X656016D01*
X655000Y575984D01*
X678250Y641218D02*
X676218Y645282D01*
X680282D01*
X678250Y641218D01*
Y642234D02*
X677234Y644266D01*
X679266D01*
X678250Y642234D01*
X667000Y640968D02*
X664968Y645032D01*
X669032D01*
X667000Y640968D01*
Y641984D02*
X665984Y644016D01*
X668016D01*
X667000Y641984D01*
X645000Y639968D02*
X642968Y644032D01*
X647032D01*
X645000Y639968D01*
Y640984D02*
X643984Y643016D01*
X646016D01*
X645000Y640984D01*
X657000Y639968D02*
X654968Y644032D01*
X659032D01*
X657000Y639968D01*
Y640984D02*
X655984Y643016D01*
X658016D01*
X657000Y640984D01*
X612000Y639968D02*
X609968Y644032D01*
X614032D01*
X612000Y639968D01*
Y640984D02*
X610984Y643016D01*
X613016D01*
X612000Y640984D01*
X602500Y640968D02*
X600468Y645032D01*
X604532D01*
X602500Y640968D01*
Y641984D02*
X601484Y644016D01*
X603516D01*
X602500Y641984D01*
X674000Y570968D02*
X671968Y575032D01*
X676032D01*
X674000Y570968D01*
Y571984D02*
X672984Y574016D01*
X675016D01*
X674000Y571984D01*
X603000Y596968D02*
X600968Y601032D01*
X605032D01*
X603000Y596968D01*
Y597984D02*
X601984Y600016D01*
X604016D01*
X603000Y597984D01*
X623000Y640968D02*
X620968Y645032D01*
X625032D01*
X623000Y640968D01*
Y641984D02*
X621984Y644016D01*
X624016D01*
X623000Y641984D01*
X609999Y612967D02*
X607967Y617031D01*
X612031D01*
X609999Y612967D01*
Y613983D02*
X608983Y616015D01*
X611015D01*
X609999Y613983D01*
X645000Y612968D02*
X642968Y617032D01*
X647032D01*
X645000Y612968D01*
Y613984D02*
X643984Y616016D01*
X646016D01*
X645000Y613984D01*
X719000Y686218D02*
X716968Y690282D01*
X721032D01*
X719000Y686218D01*
Y687234D02*
X717984Y689266D01*
X720016D01*
X719000Y687234D01*
X711000Y667968D02*
X708968Y672032D01*
X713032D01*
X711000Y667968D01*
Y668984D02*
X709984Y671016D01*
X712016D01*
X711000Y668984D01*
X721999Y693967D02*
X719967Y698031D01*
X724031D01*
X721999Y693967D01*
Y694983D02*
X720983Y697015D01*
X723015D01*
X721999Y694983D01*
X729750Y691801D02*
X727718Y695865D01*
X731782D01*
X729750Y691801D01*
Y692817D02*
X728734Y694849D01*
X730766D01*
X729750Y692817D01*
X742000Y673968D02*
X739968Y678032D01*
X744032D01*
X742000Y673968D01*
Y674984D02*
X740984Y677016D01*
X743016D01*
X742000Y674984D01*
X569000Y691968D02*
X566968Y696032D01*
X571032D01*
X569000Y691968D01*
Y692984D02*
X567984Y695016D01*
X570016D01*
X569000Y692984D01*
X144000Y623968D02*
X141968Y628032D01*
X146032D01*
X144000Y623968D01*
Y624984D02*
X142984Y627016D01*
X145016D01*
X144000Y624984D01*
Y615968D02*
X141968Y620032D01*
X146032D01*
X144000Y615968D01*
Y616984D02*
X142984Y619016D01*
X145016D01*
X144000Y616984D01*
X147000Y432968D02*
X144968Y437032D01*
X149032D01*
X147000Y432968D01*
Y433984D02*
X145984Y436016D01*
X148016D01*
X147000Y433984D01*
Y424968D02*
X144968Y429032D01*
X149032D01*
X147000Y424968D01*
Y425984D02*
X145984Y428016D01*
X148016D01*
X147000Y425984D01*
X452000Y583968D02*
X449968Y588032D01*
X454032D01*
X452000Y583968D01*
Y584984D02*
X450984Y587016D01*
X453016D01*
X452000Y584984D01*
X459000Y575968D02*
X456968Y580032D01*
X461032D01*
X459000Y575968D01*
Y576984D02*
X457984Y579016D01*
X460016D01*
X459000Y576984D01*
X635999Y574967D02*
X633967Y579031D01*
X638031D01*
X635999Y574967D01*
Y575984D02*
X634983Y578016D01*
X637015D01*
X635999Y575984D01*
X428000Y502968D02*
X425968Y507032D01*
X430032D01*
X428000Y502968D01*
Y503984D02*
X426984Y506016D01*
X429016D01*
X428000Y503984D01*
Y508968D02*
X425968Y513032D01*
X430032D01*
X428000Y508968D01*
Y509984D02*
X426984Y512016D01*
X429016D01*
X428000Y509984D01*
X558000Y625968D02*
X555968Y630032D01*
X560032D01*
X558000Y625968D01*
Y626984D02*
X556984Y629016D01*
X559016D01*
X558000Y626984D01*
X605000Y564968D02*
X602968Y569032D01*
X607032D01*
X605000Y564968D01*
Y565984D02*
X603984Y568016D01*
X606016D01*
X605000Y565984D01*
X754000Y700968D02*
X751968Y705032D01*
X756032D01*
X754000Y700968D01*
Y701984D02*
X752984Y704016D01*
X755016D01*
X754000Y701984D01*
X375000Y373654D02*
X372968Y377718D01*
X377032D01*
X375000Y373654D01*
Y374670D02*
X373984Y376702D01*
X376016D01*
X375000Y374670D01*
X398000Y397968D02*
X395968Y402032D01*
X400032D01*
X398000Y397968D01*
Y398984D02*
X396984Y401016D01*
X399016D01*
X398000Y398984D01*
Y426968D02*
X395968Y431032D01*
X400032D01*
X398000Y426968D01*
Y427984D02*
X396984Y430016D01*
X399016D01*
X398000Y427984D01*
X766000Y516968D02*
X763968Y521032D01*
X768032D01*
X766000Y516968D01*
Y517984D02*
X764984Y520016D01*
X767016D01*
X766000Y517984D01*
X554000Y485968D02*
X551968Y490032D01*
X556032D01*
X554000Y485968D01*
Y486984D02*
X552984Y489016D01*
X555016D01*
X554000Y486984D01*
X554000Y480968D02*
X551968Y485032D01*
X556032D01*
X554000Y480968D01*
Y481984D02*
X552984Y484016D01*
X555016D01*
X554000Y481984D01*
X570000Y523968D02*
X567968Y528032D01*
X572032D01*
X570000Y523968D01*
Y524984D02*
X568984Y527016D01*
X571016D01*
X570000Y524984D01*
X219000Y431968D02*
X216968Y436032D01*
X221032D01*
X219000Y431968D01*
Y432984D02*
X217984Y435016D01*
X220016D01*
X219000Y432984D01*
X263110Y406858D02*
X261078Y410922D01*
X265142D01*
X263110Y406858D01*
Y407874D02*
X262094Y409906D01*
X264126D01*
X263110Y407874D01*
X241000Y404968D02*
X238968Y409032D01*
X243032D01*
X241000Y404968D01*
Y405984D02*
X239984Y408016D01*
X242016D01*
X241000Y405984D01*
X195000Y483968D02*
X192968Y488032D01*
X197032D01*
X195000Y483968D01*
Y484984D02*
X193984Y487016D01*
X196016D01*
X195000Y484984D01*
X277000Y437968D02*
X274968Y442032D01*
X279032D01*
X277000Y437968D01*
Y438984D02*
X275984Y441016D01*
X278016D01*
X277000Y438984D01*
X271000Y455968D02*
X268968Y460032D01*
X273032D01*
X271000Y455968D01*
Y456984D02*
X269984Y459016D01*
X272016D01*
X271000Y456984D01*
X305000Y428968D02*
X302968Y433032D01*
X307032D01*
X305000Y428968D01*
Y429984D02*
X303984Y432016D01*
X306016D01*
X305000Y429984D01*
X300000Y395968D02*
X297968Y400032D01*
X302032D01*
X300000Y395968D01*
Y396984D02*
X298984Y399016D01*
X301016D01*
X300000Y396984D01*
X339000Y437968D02*
X336968Y442032D01*
X341032D01*
X339000Y437968D01*
Y438984D02*
X337984Y441016D01*
X340016D01*
X339000Y438984D01*
X347000Y455968D02*
X344968Y460032D01*
X349032D01*
X347000Y455968D01*
Y456984D02*
X345984Y459016D01*
X348016D01*
X347000Y456984D01*
X336000Y366968D02*
X333968Y371032D01*
X338032D01*
X336000Y366968D01*
Y367984D02*
X334984Y370016D01*
X337016D01*
X336000Y367984D01*
X303000Y326968D02*
X300968Y331032D01*
X305032D01*
X303000Y326968D01*
Y327984D02*
X301984Y330016D01*
X304016D01*
X303000Y327984D01*
X335000Y309968D02*
X332968Y314032D01*
X337032D01*
X335000Y309968D01*
Y310984D02*
X333984Y313016D01*
X336016D01*
X335000Y310984D01*
X522076Y379468D02*
X520043Y383532D01*
X524108D01*
X522076Y379468D01*
Y380484D02*
X521059Y382516D01*
X523092D01*
X522076Y380484D01*
X511000Y472968D02*
X508968Y477032D01*
X513032D01*
X511000Y472968D01*
Y473984D02*
X509984Y476016D01*
X512016D01*
X511000Y473984D01*
X605000Y410968D02*
X602968Y415032D01*
X607032D01*
X605000Y410968D01*
Y411984D02*
X603984Y414016D01*
X606016D01*
X605000Y411984D01*
X625000Y673968D02*
X622968Y678032D01*
X627032D01*
X625000Y673968D01*
Y674984D02*
X623984Y677016D01*
X626016D01*
X625000Y674984D01*
X265000Y670968D02*
X262968Y675032D01*
X267032D01*
X265000Y670968D01*
Y671984D02*
X263984Y674016D01*
X266016D01*
X265000Y671984D01*
X257000Y670968D02*
X254968Y675032D01*
X259032D01*
X257000Y670968D01*
Y671984D02*
X255984Y674016D01*
X258016D01*
X257000Y671984D01*
X261000Y566968D02*
X258968Y571032D01*
X263032D01*
X261000Y566968D01*
Y567984D02*
X259984Y570016D01*
X262016D01*
X261000Y567984D01*
X272000Y591968D02*
X269968Y596032D01*
X274032D01*
X272000Y591968D01*
Y592984D02*
X270984Y595016D01*
X273016D01*
X272000Y592984D01*
X355000Y697968D02*
X352968Y702032D01*
X357032D01*
X355000Y697968D01*
Y698984D02*
X353984Y701016D01*
X356016D01*
X355000Y698984D01*
X375999Y614967D02*
X373968Y619031D01*
X378032D01*
X375999Y614967D01*
Y615983D02*
X374983Y618015D01*
X377015D01*
X375999Y615983D01*
X293000Y358968D02*
X290968Y363032D01*
X295032D01*
X293000Y358968D01*
Y359984D02*
X291984Y362016D01*
X294016D01*
X293000Y359984D01*
X285000Y358968D02*
X282968Y363032D01*
X287032D01*
X285000Y358968D01*
Y359984D02*
X283984Y362016D01*
X286016D01*
X285000Y359984D01*
X200000Y638968D02*
X197968Y643032D01*
X202032D01*
X200000Y638968D01*
Y639984D02*
X198984Y642016D01*
X201016D01*
X200000Y639984D01*
X195000Y638968D02*
X192968Y643032D01*
X197032D01*
X195000Y638968D01*
Y639984D02*
X193984Y642016D01*
X196016D01*
X195000Y639984D01*
X299000Y551968D02*
X296968Y556032D01*
X301032D01*
X299000Y551968D01*
Y552984D02*
X297984Y555016D01*
X300016D01*
X299000Y552984D01*
X307000Y652968D02*
X304968Y657032D01*
X309032D01*
X307000Y652968D01*
Y653984D02*
X305984Y656016D01*
X308016D01*
X307000Y653984D01*
X392000Y655968D02*
X389968Y660032D01*
X394032D01*
X392000Y655968D01*
Y656984D02*
X390984Y659016D01*
X393016D01*
X392000Y656984D01*
X372000Y563968D02*
X369968Y568032D01*
X374032D01*
X372000Y563968D01*
Y564984D02*
X370984Y567016D01*
X373016D01*
X372000Y564984D01*
X220000Y387968D02*
X217968Y392032D01*
X222032D01*
X220000Y387968D01*
Y388984D02*
X218984Y391016D01*
X221016D01*
X220000Y388984D01*
X697000Y640968D02*
X694968Y645032D01*
X699032D01*
X697000Y640968D01*
Y641984D02*
X695984Y644016D01*
X698016D01*
X697000Y641984D01*
X353000Y653968D02*
X350968Y658032D01*
X355032D01*
X353000Y653968D01*
Y654984D02*
X351984Y657016D01*
X354016D01*
X353000Y654984D01*
X240000Y436968D02*
X237968Y441032D01*
X242032D01*
X240000Y436968D01*
Y437984D02*
X238984Y440016D01*
X241016D01*
X240000Y437984D01*
X630650Y387318D02*
X628618Y391382D01*
X632682D01*
X630650Y387318D01*
Y388334D02*
X629634Y390366D01*
X631666D01*
X630650Y388334D01*
X166000Y610968D02*
X163968Y615032D01*
X168032D01*
X166000Y610968D01*
Y611984D02*
X164984Y614016D01*
X167016D01*
X166000Y611984D01*
Y620968D02*
X163968Y625032D01*
X168032D01*
X166000Y620968D01*
Y621984D02*
X164984Y624016D01*
X167016D01*
X166000Y621984D01*
X195000Y590968D02*
X192968Y595032D01*
X197032D01*
X195000Y590968D01*
Y591984D02*
X193984Y594016D01*
X196016D01*
X195000Y591984D01*
X200000Y590968D02*
X197968Y595032D01*
X202032D01*
X200000Y590968D01*
Y591984D02*
X198984Y594016D01*
X201016D01*
X200000Y591984D01*
X266000Y511968D02*
X263968Y516032D01*
X268032D01*
X266000Y511968D01*
Y512984D02*
X264984Y515016D01*
X267016D01*
X266000Y512984D01*
X247000Y483968D02*
X244968Y488032D01*
X249032D01*
X247000Y483968D01*
Y484984D02*
X245984Y487016D01*
X248016D01*
X247000Y484984D01*
X282000Y493968D02*
X279968Y498032D01*
X284032D01*
X282000Y493968D01*
Y494984D02*
X280984Y497016D01*
X283016D01*
X282000Y494984D01*
X167000Y548968D02*
X164968Y553032D01*
X169032D01*
X167000Y548968D01*
Y549984D02*
X165984Y552016D01*
X168016D01*
X167000Y549984D01*
X159000Y548968D02*
X156968Y553032D01*
X161032D01*
X159000Y548968D01*
Y549984D02*
X157984Y552016D01*
X160016D01*
X159000Y549984D01*
X316000Y337968D02*
X313968Y342032D01*
X318032D01*
X316000Y337968D01*
Y338984D02*
X314984Y341016D01*
X317016D01*
X316000Y338984D01*
X217000Y331968D02*
X214968Y336032D01*
X219032D01*
X217000Y331968D01*
Y332984D02*
X215984Y335016D01*
X218016D01*
X217000Y332984D01*
X237000Y330968D02*
X234968Y335032D01*
X239032D01*
X237000Y330968D01*
Y331984D02*
X235984Y334016D01*
X238016D01*
X237000Y331984D01*
D151*
X807032Y594000D02*
G03*
X807032Y594000I-2032J0D01*
G01*
X827032D02*
G03*
X827032Y594000I-2032J0D01*
G01*
X847032D02*
G03*
X847032Y594000I-2032J0D01*
G01*
X815632Y537400D02*
G03*
X815632Y537400I-2032J0D01*
G01*
Y512000D02*
G03*
X815632Y512000I-2032J0D01*
G01*
Y486600D02*
G03*
X815632Y486600I-2032J0D01*
G01*
Y385000D02*
G03*
X815632Y385000I-2032J0D01*
G01*
Y410400D02*
G03*
X815632Y410400I-2032J0D01*
G01*
Y435800D02*
G03*
X815632Y435800I-2032J0D01*
G01*
Y461200D02*
G03*
X815632Y461200I-2032J0D01*
G01*
Y562800D02*
G03*
X815632Y562800I-2032J0D01*
G01*
X841032D02*
G03*
X841032Y562800I-2032J0D01*
G01*
Y461200D02*
G03*
X841032Y461200I-2032J0D01*
G01*
Y435800D02*
G03*
X841032Y435800I-2032J0D01*
G01*
Y410400D02*
G03*
X841032Y410400I-2032J0D01*
G01*
Y385000D02*
G03*
X841032Y385000I-2032J0D01*
G01*
Y486600D02*
G03*
X841032Y486600I-2032J0D01*
G01*
Y512000D02*
G03*
X841032Y512000I-2032J0D01*
G01*
Y537400D02*
G03*
X841032Y537400I-2032J0D01*
G01*
X618032Y346400D02*
G03*
X618032Y346400I-2032J0D01*
G01*
X592632D02*
G03*
X592632Y346400I-2032J0D01*
G01*
X643432D02*
G03*
X643432Y346400I-2032J0D01*
G01*
X567232D02*
G03*
X567232Y346400I-2032J0D01*
G01*
X491032D02*
G03*
X491032Y346400I-2032J0D01*
G01*
X516432D02*
G03*
X516432Y346400I-2032J0D01*
G01*
X541832D02*
G03*
X541832Y346400I-2032J0D01*
G01*
X440232D02*
G03*
X440232Y346400I-2032J0D01*
G01*
X414832D02*
G03*
X414832Y346400I-2032J0D01*
G01*
X389432D02*
G03*
X389432Y346400I-2032J0D01*
G01*
X465632D02*
G03*
X465632Y346400I-2032J0D01*
G01*
X364032D02*
G03*
X364032Y346400I-2032J0D01*
G01*
X465632Y321000D02*
G03*
X465632Y321000I-2032J0D01*
G01*
X364032D02*
G03*
X364032Y321000I-2032J0D01*
G01*
X389432D02*
G03*
X389432Y321000I-2032J0D01*
G01*
X414832D02*
G03*
X414832Y321000I-2032J0D01*
G01*
X440232D02*
G03*
X440232Y321000I-2032J0D01*
G01*
X541832D02*
G03*
X541832Y321000I-2032J0D01*
G01*
X516432D02*
G03*
X516432Y321000I-2032J0D01*
G01*
X491032D02*
G03*
X491032Y321000I-2032J0D01*
G01*
X567232D02*
G03*
X567232Y321000I-2032J0D01*
G01*
X643432D02*
G03*
X643432Y321000I-2032J0D01*
G01*
X592632D02*
G03*
X592632Y321000I-2032J0D01*
G01*
X618032D02*
G03*
X618032Y321000I-2032J0D01*
G01*
X668832D02*
G03*
X668832Y321000I-2032J0D01*
G01*
Y346400D02*
G03*
X668832Y346400I-2032J0D01*
G01*
X377462Y732530D02*
G03*
X377462Y732530I-2032J0D01*
G01*
X402862D02*
G03*
X402862Y732530I-2032J0D01*
G01*
X428262D02*
G03*
X428262Y732530I-2032J0D01*
G01*
X453662D02*
G03*
X453662Y732530I-2032J0D01*
G01*
X269132Y733000D02*
G03*
X269132Y733000I-2032J0D01*
G01*
X243732D02*
G03*
X243732Y733000I-2032J0D01*
G01*
X218332D02*
G03*
X218332Y733000I-2032J0D01*
G01*
X192932D02*
G03*
X192932Y733000I-2032J0D01*
G01*
X711932Y319000D02*
G03*
X711932Y319000I-2032J0D01*
G01*
X737332D02*
G03*
X737332Y319000I-2032J0D01*
G01*
X762732D02*
G03*
X762732Y319000I-2032J0D01*
G01*
X788132D02*
G03*
X788132Y319000I-2032J0D01*
G01*
X234432Y558000D02*
G03*
X234432Y558000I-2032J0D01*
G01*
X209032Y507200D02*
G03*
X209032Y507200I-2032J0D01*
G01*
X234432D02*
G03*
X234432Y507200I-2032J0D01*
G01*
Y532600D02*
G03*
X234432Y532600I-2032J0D01*
G01*
X209032D02*
G03*
X209032Y532600I-2032J0D01*
G01*
X132232Y661200D02*
G03*
X132232Y661200I-2032J0D01*
G01*
X170232Y574800D02*
G03*
X170232Y574800I-2032J0D01*
G01*
X132232D02*
G03*
X132232Y574800I-2032J0D01*
G01*
X170232Y661200D02*
G03*
X170232Y661200I-2032J0D01*
G01*
D152*
X131216D02*
G03*
X131216Y661200I-1016J0D01*
G01*
X169216Y574800D02*
G03*
X169216Y574800I-1016J0D01*
G01*
X131216D02*
G03*
X131216Y574800I-1016J0D01*
G01*
X169216Y661200D02*
G03*
X169216Y661200I-1016J0D01*
G01*
M02*
