G04 Layer_Color=16711935*
%FSLAX44Y44*%
%MOMM*%
G71*
G01*
G75*
%ADD38C,0.2000*%
%ADD41C,0.2540*%
%ADD91C,0.1000*%
D38*
X0Y40000D02*
X1000000D01*
X860000Y0D02*
Y1000000D01*
X110000Y0D02*
Y1000000D01*
X1000000Y0D02*
Y1000000D01*
X0D02*
X1000000D01*
X0Y0D02*
X1000000D01*
X0D02*
Y1000000D01*
Y960000D02*
X1000000D01*
X110000Y770000D02*
X860000D01*
X110000Y285000D02*
X860000D01*
X1032000Y974996D02*
Y966999D01*
X1035999Y963000D01*
X1039997Y966999D01*
Y974996D01*
X1043996Y968998D02*
X1051994D01*
X1063990Y972997D02*
X1061990Y974996D01*
X1057992D01*
X1055992Y972997D01*
Y964999D01*
X1057992Y963000D01*
X1061990D01*
X1063990Y964999D01*
X1067988Y974996D02*
Y964999D01*
X1069988Y963000D01*
X1073986D01*
X1075986Y964999D01*
Y974996D01*
X1079985D02*
X1087982D01*
X1083983D01*
Y963000D01*
X1032000Y54996D02*
Y46999D01*
X1035999Y43000D01*
X1039997Y46999D01*
Y54996D01*
X1043996Y48998D02*
X1051994D01*
X1063990Y52997D02*
X1061990Y54996D01*
X1057992D01*
X1055992Y52997D01*
Y44999D01*
X1057992Y43000D01*
X1061990D01*
X1063990Y44999D01*
X1067988Y54996D02*
Y44999D01*
X1069988Y43000D01*
X1073986D01*
X1075986Y44999D01*
Y54996D01*
X1079985D02*
X1087982D01*
X1083983D01*
Y43000D01*
X874996Y-32000D02*
X866999D01*
X863000Y-35999D01*
X866999Y-39997D01*
X874996D01*
X868998Y-43996D02*
Y-51993D01*
X872997Y-63990D02*
X874996Y-61990D01*
Y-57992D01*
X872997Y-55992D01*
X864999D01*
X863000Y-57992D01*
Y-61990D01*
X864999Y-63990D01*
X874996Y-67988D02*
X864999D01*
X863000Y-69988D01*
Y-73986D01*
X864999Y-75986D01*
X874996D01*
Y-79984D02*
Y-87982D01*
Y-83983D01*
X863000D01*
X124996Y-32000D02*
X116999D01*
X113000Y-35999D01*
X116999Y-39997D01*
X124996D01*
X118998Y-43996D02*
Y-51993D01*
X122997Y-63990D02*
X124996Y-61990D01*
Y-57992D01*
X122997Y-55992D01*
X114999D01*
X113000Y-57992D01*
Y-61990D01*
X114999Y-63990D01*
X124996Y-67988D02*
X114999D01*
X113000Y-69988D01*
Y-73986D01*
X114999Y-75986D01*
X124996D01*
Y-79984D02*
Y-87982D01*
Y-83983D01*
X113000D01*
D41*
X830000Y302000D02*
G03*
X860000Y332000I0J30000D01*
G01*
Y722000D02*
G03*
X830000Y752000I-30000J0D01*
G01*
X140000D02*
G03*
X110000Y722000I0J-30000D01*
G01*
Y332000D02*
G03*
X140000Y302000I30000J0D01*
G01*
X830000D01*
X110000Y332000D02*
Y722000D01*
X860000Y332000D02*
Y722000D01*
X140000Y752000D02*
X830000D01*
D91*
X1000000Y960000D02*
X1089000D01*
X1000000Y40000D02*
X1089000D01*
X860000Y-89000D02*
Y0D01*
X110000Y-89000D02*
Y0D01*
M02*
