G04 Layer_Physical_Order=3*
G04 Layer_Color=16440176*
%FSLAX44Y44*%
%MOMM*%
G71*
G01*
G75*
%ADD38C,0.2000*%
%ADD39C,0.8000*%
%ADD41C,0.2540*%
%ADD43C,0.6000*%
%ADD48R,1.0000X1.0000*%
%ADD59C,4.0000*%
%ADD61O,2.0000X1.5000*%
%ADD62O,1.5000X2.0000*%
%ADD63C,2.0000*%
%ADD64C,1.8000*%
%ADD65C,1.4000*%
%ADD66O,2.2000X1.0000*%
%ADD67O,2.5000X1.0000*%
%ADD68C,0.7000*%
%ADD69C,1.1000*%
%ADD70O,2.1000X1.2000*%
%ADD71C,0.4500*%
G36*
X698643Y568643D02*
X699724Y567920D01*
X701000Y567666D01*
X731259D01*
X731944Y566396D01*
X731667Y565000D01*
X731997Y563342D01*
X732936Y561936D01*
X734342Y560997D01*
X736000Y560667D01*
X737658Y560997D01*
X739064Y561936D01*
X740003Y563342D01*
X740333Y565000D01*
X740056Y566396D01*
X740741Y567666D01*
X759340D01*
X760342Y566997D01*
X762000Y566667D01*
X763658Y566997D01*
X765064Y567936D01*
X766003Y569342D01*
X766333Y571000D01*
X766003Y572658D01*
X765064Y574064D01*
X763658Y575003D01*
X762000Y575333D01*
X760342Y575003D01*
X759340Y574334D01*
X720741D01*
X720056Y575604D01*
X720333Y577000D01*
X720003Y578658D01*
X719064Y580064D01*
X717658Y581003D01*
X716000Y581333D01*
X714342Y581003D01*
X712936Y580064D01*
X711997Y578658D01*
X711667Y577000D01*
X711944Y575604D01*
X711259Y574334D01*
X702381D01*
X698809Y577906D01*
X699045Y578390D01*
X699557Y578954D01*
X701000Y578667D01*
X702658Y578997D01*
X704064Y579936D01*
X705003Y581342D01*
X705333Y583000D01*
X705274Y583301D01*
X705488Y583614D01*
X706375Y584272D01*
X708333Y583882D01*
X770133D01*
Y555751D01*
X769628Y555427D01*
X768863Y555199D01*
X767658Y556003D01*
X766000Y556333D01*
X764342Y556003D01*
X762936Y555064D01*
X761997Y553658D01*
X761667Y552000D01*
X761997Y550342D01*
X762936Y548936D01*
X764342Y547997D01*
X766000Y547667D01*
X767658Y547997D01*
X768863Y548801D01*
X769628Y548573D01*
X770133Y548249D01*
Y523527D01*
X768863Y522848D01*
X767869Y523512D01*
X767270Y523631D01*
Y519000D01*
Y514369D01*
X767869Y514488D01*
X768863Y515152D01*
X770133Y514473D01*
Y405750D01*
X770598Y403409D01*
X771924Y401424D01*
X792674Y380674D01*
X794659Y379348D01*
X797000Y378882D01*
X803820D01*
X804324Y378224D01*
X806309Y376702D01*
X808620Y375744D01*
X811100Y375418D01*
X816100D01*
X818580Y375744D01*
X820891Y376702D01*
X822875Y378224D01*
X824398Y380209D01*
X825355Y382520D01*
X825659Y384829D01*
X826940D01*
X827244Y382520D01*
X827849Y381059D01*
X804188Y357398D01*
X771208D01*
Y374890D01*
X770820Y376841D01*
X769715Y378495D01*
X723605Y424605D01*
X723605Y424605D01*
X720210Y428000D01*
X751605Y459395D01*
X752710Y461049D01*
X753098Y463000D01*
Y501987D01*
X754003Y503342D01*
X754333Y505000D01*
X754003Y506658D01*
X753098Y508013D01*
Y527616D01*
X759607D01*
X759611Y527611D01*
X761017Y526672D01*
X762675Y526342D01*
X764333Y526672D01*
X765739Y527611D01*
X766678Y529017D01*
X767008Y530675D01*
X766678Y532333D01*
X765739Y533739D01*
X764333Y534678D01*
X762675Y535008D01*
X761017Y534678D01*
X759611Y533739D01*
X759607Y533734D01*
X752187D01*
X751605Y534605D01*
X742605Y543605D01*
X740951Y544710D01*
X739000Y545098D01*
X711571D01*
X711186Y546368D01*
X711453Y546547D01*
X712512Y548131D01*
X712631Y548730D01*
X703369D01*
X703488Y548131D01*
X704547Y546547D01*
X704814Y546368D01*
X704429Y545098D01*
X646112D01*
X632098Y559112D01*
Y573076D01*
X633368Y573646D01*
X634341Y572996D01*
X635999Y572666D01*
X637657Y572996D01*
X639063Y573935D01*
X639935D01*
X641341Y572996D01*
X642999Y572666D01*
X644657Y572996D01*
X646063Y573935D01*
X647002Y575341D01*
X647332Y577000D01*
X647002Y578658D01*
X646063Y580064D01*
X644657Y581003D01*
X642999Y581333D01*
X641341Y581003D01*
X640388Y580366D01*
X639499Y580163D01*
X638610Y580366D01*
X637657Y581003D01*
X635999Y581333D01*
X634341Y581003D01*
X633368Y580353D01*
X632098Y580923D01*
Y587000D01*
Y595887D01*
X646390Y610178D01*
X646951Y610290D01*
X648605Y611395D01*
X649710Y613049D01*
X650098Y615000D01*
X650001Y615488D01*
X651171Y616114D01*
X698643Y568643D01*
D02*
G37*
G36*
X834175Y748357D02*
X838246Y747379D01*
X842115Y745777D01*
X845685Y743589D01*
X848869Y740870D01*
X851589Y737685D01*
X853777Y734115D01*
X855379Y730246D01*
X856357Y726175D01*
X856680Y722070D01*
X856666Y722000D01*
Y332000D01*
X856680Y331930D01*
X856357Y327826D01*
X855379Y323754D01*
X853777Y319885D01*
X851589Y316315D01*
X848869Y313131D01*
X845685Y310411D01*
X842115Y308223D01*
X838246Y306621D01*
X834175Y305643D01*
X830070Y305320D01*
X830000Y305334D01*
X788099D01*
X788016Y306604D01*
X789374Y306783D01*
X792424Y308046D01*
X795044Y310056D01*
X797054Y312676D01*
X798317Y315726D01*
X798581Y317730D01*
X786100D01*
Y319000D01*
X784830D01*
Y331481D01*
X782826Y331217D01*
X779776Y329954D01*
X777156Y327944D01*
X775146Y325324D01*
X773883Y322274D01*
X773768Y321403D01*
X772487D01*
X772391Y322133D01*
X771182Y325052D01*
X769258Y327559D01*
X766752Y329482D01*
X765798Y329877D01*
Y347202D01*
X806300D01*
X808251Y347590D01*
X809905Y348695D01*
X836627Y375418D01*
X841500D01*
X843980Y375744D01*
X846291Y376702D01*
X848275Y378224D01*
X849798Y380209D01*
X850755Y382520D01*
X851082Y385000D01*
X850755Y387480D01*
X849798Y389791D01*
X848275Y391775D01*
X846291Y393298D01*
X843980Y394255D01*
X841500Y394582D01*
X836500D01*
X834020Y394255D01*
X831709Y393298D01*
X829724Y391775D01*
X828202Y389791D01*
X827244Y387480D01*
X826940Y385170D01*
X825659D01*
X825355Y387480D01*
X824398Y389791D01*
X822875Y391775D01*
X820891Y393298D01*
X818580Y394255D01*
X816100Y394582D01*
X811100D01*
X808620Y394255D01*
X806309Y393298D01*
X804324Y391775D01*
X803820Y391117D01*
X799534D01*
X782368Y408284D01*
Y588442D01*
X821789Y627864D01*
X822866Y627145D01*
X821949Y624931D01*
X821720Y623188D01*
X831922D01*
Y633390D01*
X830180Y633161D01*
X827965Y632244D01*
X827246Y633321D01*
X830326Y636400D01*
X831652Y638385D01*
X832117Y640726D01*
Y641803D01*
X832731Y642057D01*
X834611Y643499D01*
X836053Y645379D01*
X836960Y647569D01*
X837270Y649918D01*
X836960Y652268D01*
X836053Y654457D01*
X834611Y656337D01*
X832731Y657779D01*
X830542Y658686D01*
X828192Y658996D01*
X825843Y658686D01*
X823653Y657779D01*
X821773Y656337D01*
X820331Y654457D01*
X819424Y652268D01*
X819114Y649918D01*
X819424Y647569D01*
X819883Y646461D01*
Y643260D01*
X772740Y596118D01*
X710867D01*
X705658Y601326D01*
X703674Y602652D01*
X701333Y603117D01*
X687815D01*
X653337Y637596D01*
X651352Y638922D01*
X649790Y639233D01*
X649393Y639792D01*
X649060Y640577D01*
X649062Y640637D01*
X649333Y642000D01*
X649003Y643658D01*
X648064Y645064D01*
X646658Y646003D01*
X645000Y646333D01*
X643342Y646003D01*
X641936Y645064D01*
X640997Y643658D01*
X640667Y642000D01*
X640934Y640658D01*
X640223Y639388D01*
X627874D01*
X627195Y640658D01*
X627512Y641131D01*
X627631Y641730D01*
X618369D01*
X618488Y641131D01*
X618804Y640658D01*
X618125Y639388D01*
X616777D01*
X616066Y640658D01*
X616333Y642000D01*
X616003Y643658D01*
X615064Y645064D01*
X613658Y646003D01*
X612000Y646333D01*
X610342Y646003D01*
X608936Y645064D01*
X607997Y643659D01*
X607994Y643658D01*
X606702Y643660D01*
X606503Y644658D01*
X605564Y646064D01*
X604158Y647003D01*
X602500Y647333D01*
X600842Y647003D01*
X599436Y646064D01*
X598497Y644658D01*
X598167Y643000D01*
X598497Y641342D01*
X598954Y640658D01*
X598275Y639388D01*
X567264D01*
X564326Y642326D01*
X562341Y643652D01*
X560000Y644118D01*
X547000D01*
X546431Y644004D01*
X545936Y645201D01*
X546453Y645547D01*
X547512Y647131D01*
X547631Y647730D01*
X538369D01*
X538488Y647131D01*
X539547Y645547D01*
X541131Y644488D01*
X543000Y644116D01*
X543097Y644135D01*
X543592Y642939D01*
X542674Y642326D01*
X541466Y641117D01*
X466534D01*
X455326Y652326D01*
X453341Y653652D01*
X451000Y654118D01*
X440000D01*
X437659Y653652D01*
X435674Y652326D01*
X434348Y650341D01*
X433882Y648000D01*
X434348Y645659D01*
X435674Y643674D01*
X448674Y630674D01*
X450659Y629348D01*
X453000Y628882D01*
X544000D01*
X546341Y629348D01*
X548326Y630674D01*
X549534Y631883D01*
X554049D01*
X554634Y630612D01*
X553997Y629658D01*
X553667Y628000D01*
X553997Y626342D01*
X554936Y624936D01*
X555786Y624368D01*
X555401Y623098D01*
X505000D01*
X503049Y622710D01*
X501395Y621605D01*
X497395Y617605D01*
X497395Y617605D01*
X487888Y608098D01*
X433112D01*
X405928Y635282D01*
Y721653D01*
X406882Y722048D01*
X409389Y723971D01*
X411312Y726478D01*
X412521Y729397D01*
X412814Y731626D01*
X412890Y732196D01*
X414170D01*
X414245Y731626D01*
X414539Y729397D01*
X415748Y726478D01*
X417672Y723971D01*
X420178Y722048D01*
X423097Y720839D01*
X426230Y720426D01*
X429363Y720839D01*
X432282Y722048D01*
X434789Y723971D01*
X436712Y726478D01*
X437921Y729397D01*
X438214Y731626D01*
X438290Y732196D01*
X439570D01*
X439646Y731626D01*
X439939Y729397D01*
X441148Y726478D01*
X443072Y723971D01*
X445578Y722048D01*
X448497Y720839D01*
X451630Y720426D01*
X454763Y720839D01*
X457682Y722048D01*
X460188Y723971D01*
X462112Y726478D01*
X463321Y729397D01*
X463734Y732530D01*
X463321Y735663D01*
X462112Y738582D01*
X460188Y741088D01*
X457682Y743012D01*
X454763Y744221D01*
X451630Y744634D01*
X448497Y744221D01*
X445578Y743012D01*
X443072Y741088D01*
X441148Y738582D01*
X439939Y735663D01*
X439646Y733434D01*
X439570Y732865D01*
X438290D01*
X438214Y733434D01*
X437921Y735663D01*
X436712Y738582D01*
X434789Y741088D01*
X432282Y743012D01*
X429363Y744221D01*
X426230Y744634D01*
X423097Y744221D01*
X420178Y743012D01*
X417672Y741088D01*
X415748Y738582D01*
X414539Y735663D01*
X414245Y733434D01*
X414170Y732865D01*
X412890D01*
X412814Y733434D01*
X412521Y735663D01*
X411312Y738582D01*
X409389Y741088D01*
X406882Y743012D01*
X403963Y744221D01*
X400830Y744634D01*
X397697Y744221D01*
X394778Y743012D01*
X392271Y741088D01*
X390348Y738582D01*
X389139Y735663D01*
X389043Y734933D01*
X387762D01*
X387647Y735804D01*
X386384Y738854D01*
X384374Y741474D01*
X381754Y743484D01*
X378704Y744747D01*
X376700Y745011D01*
Y732530D01*
Y720049D01*
X378704Y720313D01*
X381754Y721576D01*
X384374Y723586D01*
X386384Y726206D01*
X387647Y729256D01*
X387762Y730127D01*
X389043D01*
X389139Y729397D01*
X390348Y726478D01*
X392271Y723971D01*
X394778Y722048D01*
X395732Y721653D01*
Y662795D01*
X394462Y662116D01*
X393869Y662512D01*
X393270Y662631D01*
Y658000D01*
Y653369D01*
X393869Y653488D01*
X394462Y653884D01*
X395732Y653205D01*
Y633170D01*
Y622170D01*
X396120Y620219D01*
X397225Y618565D01*
X416395Y599395D01*
X423395Y592395D01*
X425049Y591290D01*
X427000Y590902D01*
X449401D01*
X449786Y589632D01*
X448936Y589064D01*
X447997Y587658D01*
X447667Y586000D01*
X447997Y584342D01*
X448936Y582936D01*
X450342Y581997D01*
X452000Y581667D01*
X453658Y581997D01*
X455064Y582936D01*
X456003Y584342D01*
X456333Y586000D01*
X456003Y587658D01*
X455064Y589064D01*
X454214Y589632D01*
X454599Y590902D01*
X493888D01*
X505902Y578888D01*
Y544000D01*
X506290Y542049D01*
X507395Y540395D01*
X520395Y527395D01*
X522049Y526290D01*
X524000Y525902D01*
X525951Y526290D01*
X527605Y527395D01*
X528710Y529049D01*
X529098Y531000D01*
X528710Y532951D01*
X527605Y534605D01*
X516098Y546112D01*
Y581000D01*
X515710Y582951D01*
X514605Y584605D01*
X502098Y597112D01*
Y601888D01*
X509362Y609152D01*
X520278D01*
X520608Y608607D01*
X520814Y607882D01*
X519997Y606658D01*
X519667Y605000D01*
X519997Y603342D01*
X520936Y601936D01*
X520941Y601932D01*
Y552068D01*
X520936Y552064D01*
X519997Y550658D01*
X519667Y549000D01*
X519997Y547342D01*
X520936Y545936D01*
X522342Y544997D01*
X524000Y544667D01*
X525658Y544997D01*
X527064Y545936D01*
X528003Y547342D01*
X528333Y549000D01*
X528003Y550658D01*
X527064Y552064D01*
X527059Y552068D01*
Y601932D01*
X527064Y601936D01*
X527794Y603029D01*
X528096Y603107D01*
X528904D01*
X529206Y603029D01*
X529936Y601936D01*
X531342Y600997D01*
X533000Y600667D01*
X534658Y600997D01*
X536064Y601936D01*
X537003Y603342D01*
X537333Y605000D01*
X537003Y606658D01*
X536186Y607882D01*
X536392Y608607D01*
X536722Y609152D01*
X549467D01*
X550146Y607882D01*
X549997Y607658D01*
X549667Y606000D01*
X549997Y604342D01*
X550936Y602936D01*
X552342Y601997D01*
X554000Y601667D01*
X555658Y601997D01*
X557064Y602936D01*
X558003Y604342D01*
X558333Y606000D01*
X558003Y607658D01*
X557854Y607882D01*
X558533Y609152D01*
X572266D01*
X572978Y608270D01*
X578000D01*
Y607000D01*
X579270D01*
Y602369D01*
X579457Y602406D01*
X579542Y602334D01*
X580182Y601286D01*
X579290Y599951D01*
X578902Y598000D01*
Y547112D01*
X553888Y522098D01*
X512183D01*
X511000Y522333D01*
X509817Y522098D01*
X423000D01*
X421049Y521710D01*
X419395Y520605D01*
X418395Y519605D01*
X417290Y517951D01*
X416902Y516000D01*
Y505000D01*
X417290Y503049D01*
X418395Y501395D01*
X420049Y500290D01*
X422000Y499902D01*
X509817D01*
X511000Y499667D01*
X512183Y499902D01*
X552000D01*
X553951Y500290D01*
X555605Y501395D01*
X561605Y507395D01*
X561605Y507395D01*
X567605Y513395D01*
X573605Y519395D01*
X573605Y519395D01*
X593605Y539395D01*
X594710Y541049D01*
X595098Y543000D01*
Y600315D01*
X596138Y601035D01*
X596368Y600991D01*
X598000Y600667D01*
X598771Y599525D01*
X598667Y599000D01*
X598997Y597342D01*
X599936Y595936D01*
X600770Y595378D01*
X601121Y593844D01*
X600997Y593658D01*
X600667Y592000D01*
X600997Y590342D01*
X601936Y588936D01*
X603342Y587997D01*
X605000Y587667D01*
X606658Y587997D01*
X608064Y588936D01*
X609003Y590342D01*
X609333Y592000D01*
X609003Y593658D01*
X608064Y595064D01*
X607229Y595622D01*
X606879Y597156D01*
X607003Y597342D01*
X607333Y599000D01*
X607003Y600658D01*
X606064Y602064D01*
X604658Y603003D01*
X603000Y603333D01*
X602229Y604475D01*
X602333Y605000D01*
X602003Y606658D01*
X601333Y607661D01*
X602320Y608471D01*
X616902Y593888D01*
Y555000D01*
X617290Y553049D01*
X618395Y551395D01*
X638395Y531395D01*
X640049Y530290D01*
X642000Y529902D01*
X644609D01*
X644734Y528632D01*
X644131Y528512D01*
X642547Y527453D01*
X641488Y525869D01*
X641369Y525270D01*
X650631D01*
X650512Y525869D01*
X649453Y527453D01*
X647869Y528512D01*
X647266Y528632D01*
X647391Y529902D01*
X731401D01*
X731786Y528632D01*
X730936Y528064D01*
X729997Y526658D01*
X729667Y525000D01*
X729997Y523342D01*
X730936Y521936D01*
X732342Y520997D01*
X734000Y520667D01*
X735658Y520997D01*
X736632Y521647D01*
X737902Y521078D01*
Y467112D01*
X708043Y437253D01*
X707342Y437113D01*
X705936Y436174D01*
X704997Y434768D01*
X704857Y434067D01*
X699638Y428848D01*
X615750D01*
X613799Y428460D01*
X612145Y427355D01*
X580888Y396098D01*
X401922D01*
X401353Y397368D01*
X402003Y398342D01*
X402333Y400000D01*
X402003Y401658D01*
X401064Y403064D01*
X399658Y404003D01*
X398000Y404333D01*
X396342Y404003D01*
X394936Y403064D01*
X393997Y401658D01*
X393667Y400000D01*
X393997Y398342D01*
X394647Y397368D01*
X394078Y396098D01*
X373000D01*
X371049Y395710D01*
X369395Y394605D01*
X346037Y371247D01*
X345171Y371826D01*
X344000Y372059D01*
X344000Y372059D01*
X339068D01*
X339064Y372064D01*
X337658Y373003D01*
X336000Y373333D01*
X334342Y373003D01*
X332936Y372064D01*
X331997Y370658D01*
X331667Y369000D01*
X331997Y367342D01*
X332936Y365936D01*
X334342Y364997D01*
X336000Y364667D01*
X337658Y364997D01*
X339064Y365936D01*
X339068Y365941D01*
X342733D01*
X343902Y364772D01*
Y334000D01*
X344290Y332049D01*
X345395Y330395D01*
X352418Y323372D01*
Y318500D01*
X352745Y316020D01*
X353702Y313709D01*
X355225Y311724D01*
X357209Y310202D01*
X359520Y309244D01*
X362000Y308918D01*
X364480Y309244D01*
X366791Y310202D01*
X368775Y311724D01*
X370298Y313709D01*
X371255Y316020D01*
X371582Y318500D01*
Y323500D01*
X371255Y325980D01*
X370298Y328291D01*
X368775Y330275D01*
X366791Y331798D01*
X364480Y332756D01*
X362170Y333060D01*
Y334341D01*
X364480Y334645D01*
X366791Y335602D01*
X368775Y337124D01*
X370298Y339109D01*
X371255Y341420D01*
X371582Y343900D01*
Y348900D01*
X371255Y351380D01*
X370298Y353691D01*
X368775Y355676D01*
X366791Y357198D01*
X364480Y358156D01*
X362000Y358482D01*
X359520Y358156D01*
X357209Y357198D01*
X355368Y355785D01*
X354098Y356071D01*
Y364888D01*
X375112Y385902D01*
X518728D01*
X519113Y384632D01*
X519011Y384564D01*
X518072Y383158D01*
X517742Y381500D01*
X518072Y379842D01*
X519011Y378436D01*
X520417Y377497D01*
X522076Y377167D01*
X523734Y377497D01*
X525140Y378436D01*
X526079Y379842D01*
X526409Y381500D01*
X526079Y383158D01*
X525140Y384564D01*
X525038Y384632D01*
X525423Y385902D01*
X588000D01*
X589951Y386290D01*
X591605Y387395D01*
X617362Y413152D01*
X677915D01*
X678842Y411882D01*
X678667Y411000D01*
X678997Y409342D01*
X679936Y407936D01*
X681342Y406997D01*
X683000Y406667D01*
X684658Y406997D01*
X686064Y407936D01*
X687003Y409342D01*
X687333Y411000D01*
X687158Y411882D01*
X688085Y413152D01*
X713888D01*
X755602Y371438D01*
Y352300D01*
Y329877D01*
X754648Y329482D01*
X752141Y327559D01*
X750218Y325052D01*
X749009Y322133D01*
X748716Y319904D01*
X748640Y319335D01*
X747360D01*
X747284Y319904D01*
X746991Y322133D01*
X745782Y325052D01*
X743858Y327559D01*
X741352Y329482D01*
X738433Y330691D01*
X735300Y331104D01*
X732167Y330691D01*
X729248Y329482D01*
X726741Y327559D01*
X724818Y325052D01*
X723609Y322133D01*
X723316Y319904D01*
X723240Y319335D01*
X721960D01*
X721885Y319904D01*
X721591Y322133D01*
X720382Y325052D01*
X718458Y327559D01*
X715952Y329482D01*
X713033Y330691D01*
X709900Y331104D01*
X706767Y330691D01*
X703848Y329482D01*
X701341Y327559D01*
X699418Y325052D01*
X698209Y322133D01*
X697796Y319000D01*
X698209Y315867D01*
X699418Y312948D01*
X701341Y310441D01*
X703848Y308518D01*
X706767Y307309D01*
X709900Y306896D01*
X713033Y307309D01*
X715952Y308518D01*
X718458Y310441D01*
X720382Y312948D01*
X721591Y315867D01*
X721885Y318096D01*
X721960Y318666D01*
X723240D01*
X723316Y318096D01*
X723609Y315867D01*
X724818Y312948D01*
X726741Y310441D01*
X729248Y308518D01*
X732167Y307309D01*
X735300Y306896D01*
X738433Y307309D01*
X741352Y308518D01*
X743858Y310441D01*
X745782Y312948D01*
X746991Y315867D01*
X747284Y318096D01*
X747360Y318666D01*
X748640D01*
X748716Y318096D01*
X749009Y315867D01*
X750218Y312948D01*
X752141Y310441D01*
X754648Y308518D01*
X757567Y307309D01*
X760700Y306896D01*
X763833Y307309D01*
X766752Y308518D01*
X769258Y310441D01*
X771182Y312948D01*
X772391Y315867D01*
X772487Y316597D01*
X773768D01*
X773883Y315726D01*
X775146Y312676D01*
X777156Y310056D01*
X779776Y308046D01*
X782826Y306783D01*
X784184Y306604D01*
X784101Y305334D01*
X140000D01*
X139930Y305320D01*
X135826Y305643D01*
X131754Y306621D01*
X127885Y308223D01*
X124315Y310411D01*
X121131Y313131D01*
X118411Y316315D01*
X116223Y319885D01*
X114621Y323754D01*
X113643Y327826D01*
X113320Y331930D01*
X113334Y332000D01*
Y384654D01*
X114604Y385085D01*
X115243Y384252D01*
X116818Y383044D01*
X118652Y382284D01*
X120620Y382025D01*
X125350D01*
Y389630D01*
Y397235D01*
X120620D01*
X118652Y396976D01*
X116818Y396216D01*
X115243Y395008D01*
X114604Y394175D01*
X113334Y394607D01*
Y471054D01*
X114604Y471485D01*
X115243Y470653D01*
X116818Y469444D01*
X118652Y468684D01*
X120620Y468425D01*
X125350D01*
Y476030D01*
Y483635D01*
X120620D01*
X118652Y483376D01*
X116818Y482616D01*
X115243Y481408D01*
X114604Y480575D01*
X113334Y481007D01*
Y722000D01*
X113320Y722070D01*
X113643Y726175D01*
X114621Y730246D01*
X116223Y734115D01*
X118411Y737685D01*
X121131Y740870D01*
X124315Y743589D01*
X127885Y745777D01*
X131754Y747379D01*
X135826Y748357D01*
X139930Y748680D01*
X140000Y748666D01*
X603094D01*
X603346Y747396D01*
X602445Y747023D01*
X600766Y745734D01*
X599477Y744055D01*
X598667Y742099D01*
X598558Y741270D01*
X606500D01*
X614442D01*
X614333Y742099D01*
X613523Y744055D01*
X612234Y745734D01*
X610555Y747023D01*
X609654Y747396D01*
X609906Y748666D01*
X683094D01*
X683346Y747396D01*
X682445Y747023D01*
X680766Y745734D01*
X679477Y744055D01*
X678667Y742099D01*
X678558Y741270D01*
X686500D01*
X694442D01*
X694333Y742099D01*
X693523Y744055D01*
X692234Y745734D01*
X690555Y747023D01*
X689654Y747396D01*
X689906Y748666D01*
X830000D01*
X830070Y748680D01*
X834175Y748357D01*
D02*
G37*
%LPC*%
G36*
X742730Y427631D02*
X742131Y427512D01*
X740847Y426654D01*
X740000Y426532D01*
X739153Y426654D01*
X737869Y427512D01*
X737270Y427631D01*
Y423000D01*
Y418369D01*
X737869Y418488D01*
X739153Y419346D01*
X740000Y419468D01*
X740847Y419346D01*
X742131Y418488D01*
X742730Y418369D01*
Y423000D01*
Y427631D01*
D02*
G37*
G36*
X734730D02*
X734131Y427512D01*
X732547Y426453D01*
X731488Y424869D01*
X731369Y424270D01*
X734730D01*
Y427631D01*
D02*
G37*
G36*
X745270D02*
Y424270D01*
X748631D01*
X748512Y424869D01*
X747453Y426453D01*
X745869Y427512D01*
X745270Y427631D01*
D02*
G37*
G36*
X709270Y554631D02*
Y551270D01*
X712631D01*
X712512Y551869D01*
X711453Y553453D01*
X709869Y554512D01*
X709270Y554631D01*
D02*
G37*
G36*
X706730D02*
X706131Y554512D01*
X704547Y553453D01*
X703488Y551869D01*
X703369Y551270D01*
X706730D01*
Y554631D01*
D02*
G37*
G36*
X754000Y556333D02*
X752342Y556003D01*
X750936Y555064D01*
X749997Y553658D01*
X749667Y552000D01*
X749997Y550342D01*
X750936Y548936D01*
X752342Y547997D01*
X754000Y547667D01*
X755658Y547997D01*
X757064Y548936D01*
X758003Y550342D01*
X758333Y552000D01*
X758003Y553658D01*
X757064Y555064D01*
X755658Y556003D01*
X754000Y556333D01*
D02*
G37*
G36*
X741000D02*
X739342Y556003D01*
X737936Y555064D01*
X736997Y553658D01*
X736667Y552000D01*
X736997Y550342D01*
X737936Y548936D01*
X739342Y547997D01*
X741000Y547667D01*
X742658Y547997D01*
X744064Y548936D01*
X745003Y550342D01*
X745333Y552000D01*
X745003Y553658D01*
X744064Y555064D01*
X742658Y556003D01*
X741000Y556333D01*
D02*
G37*
G36*
X659000Y570333D02*
X657342Y570003D01*
X655936Y569064D01*
X654997Y567658D01*
X654667Y566000D01*
X654997Y564342D01*
X655936Y562936D01*
X657342Y561997D01*
X658244Y561817D01*
X658968Y560702D01*
X658961Y560478D01*
X658667Y559000D01*
X658997Y557342D01*
X659936Y555936D01*
X661342Y554997D01*
X663000Y554667D01*
X664658Y554997D01*
X666064Y555936D01*
X667003Y557342D01*
X667333Y559000D01*
X667003Y560658D01*
X666064Y562064D01*
X664658Y563003D01*
X663756Y563183D01*
X663032Y564298D01*
X663039Y564522D01*
X663333Y566000D01*
X663003Y567658D01*
X662064Y569064D01*
X660658Y570003D01*
X659000Y570333D01*
D02*
G37*
G36*
X764730Y523631D02*
X764131Y523512D01*
X762547Y522453D01*
X761488Y520869D01*
X761369Y520270D01*
X764730D01*
Y523631D01*
D02*
G37*
G36*
Y517730D02*
X761369D01*
X761488Y517131D01*
X762547Y515547D01*
X764131Y514488D01*
X764730Y514369D01*
Y517730D01*
D02*
G37*
G36*
X748631Y421730D02*
X745270D01*
Y418369D01*
X745869Y418488D01*
X747453Y419547D01*
X748512Y421131D01*
X748631Y421730D01*
D02*
G37*
G36*
X734730D02*
X731369D01*
X731488Y421131D01*
X732547Y419547D01*
X734131Y418488D01*
X734730Y418369D01*
Y421730D01*
D02*
G37*
G36*
X674000Y577333D02*
X672342Y577003D01*
X670936Y576064D01*
X669997Y574658D01*
X669667Y573000D01*
X669997Y571342D01*
X670936Y569936D01*
X672342Y568997D01*
X674000Y568667D01*
X675658Y568997D01*
X677064Y569936D01*
X678003Y571342D01*
X678333Y573000D01*
X678003Y574658D01*
X677064Y576064D01*
X675658Y577003D01*
X674000Y577333D01*
D02*
G37*
G36*
X655000Y581333D02*
X653342Y581003D01*
X651936Y580064D01*
X650997Y578658D01*
X650667Y577000D01*
X650997Y575342D01*
X651936Y573936D01*
X653342Y572997D01*
X655000Y572667D01*
X656658Y572997D01*
X658064Y573936D01*
X659003Y575342D01*
X659333Y577000D01*
X659003Y578658D01*
X658064Y580064D01*
X656658Y581003D01*
X655000Y581333D01*
D02*
G37*
G36*
X222631Y452730D02*
X219270D01*
Y449369D01*
X219869Y449488D01*
X221453Y450547D01*
X222512Y452131D01*
X222631Y452730D01*
D02*
G37*
G36*
X216730D02*
X213369D01*
X213488Y452131D01*
X214547Y450547D01*
X216131Y449488D01*
X216730Y449369D01*
Y452730D01*
D02*
G37*
G36*
X219270Y458631D02*
Y455270D01*
X222631D01*
X222512Y455869D01*
X221453Y457453D01*
X219869Y458512D01*
X219270Y458631D01*
D02*
G37*
G36*
X216730D02*
X216131Y458512D01*
X214547Y457453D01*
X213488Y455869D01*
X213369Y455270D01*
X216730D01*
Y458631D01*
D02*
G37*
G36*
X400730Y448631D02*
X400131Y448512D01*
X398547Y447453D01*
X397488Y445869D01*
X397369Y445270D01*
X400730D01*
Y448631D01*
D02*
G37*
G36*
X241270Y443631D02*
Y440270D01*
X244631D01*
X244512Y440869D01*
X243453Y442453D01*
X241869Y443512D01*
X241270Y443631D01*
D02*
G37*
G36*
X408730Y448631D02*
X408131Y448512D01*
X406847Y447654D01*
X406000Y447532D01*
X405153Y447654D01*
X403869Y448512D01*
X403270Y448631D01*
Y444000D01*
Y439369D01*
X403869Y439488D01*
X405153Y440346D01*
X406000Y440468D01*
X406847Y440346D01*
X408131Y439488D01*
X408730Y439369D01*
Y444000D01*
Y448631D01*
D02*
G37*
G36*
X411270D02*
Y445270D01*
X414631D01*
X414512Y445869D01*
X413453Y447453D01*
X411869Y448512D01*
X411270Y448631D01*
D02*
G37*
G36*
X515631Y473730D02*
X512270D01*
Y470369D01*
X512869Y470488D01*
X514453Y471547D01*
X515512Y473131D01*
X515631Y473730D01*
D02*
G37*
G36*
X509730D02*
X506369D01*
X506488Y473131D01*
X507547Y471547D01*
X509131Y470488D01*
X509730Y470369D01*
Y473730D01*
D02*
G37*
G36*
X167150Y483635D02*
X160920D01*
X158952Y483376D01*
X157118Y482616D01*
X155542Y481408D01*
X154334Y479833D01*
X153574Y477999D01*
X153482Y477300D01*
X167150D01*
Y483635D01*
D02*
G37*
G36*
X132620D02*
X127890D01*
Y477300D01*
X140058D01*
X139966Y477999D01*
X139206Y479833D01*
X137998Y481408D01*
X136423Y482616D01*
X134589Y483376D01*
X132620Y483635D01*
D02*
G37*
G36*
X140058Y474760D02*
X127890D01*
Y468425D01*
X132620D01*
X134589Y468684D01*
X136423Y469444D01*
X137998Y470653D01*
X139206Y472228D01*
X139966Y474062D01*
X140058Y474760D01*
D02*
G37*
G36*
X169326Y460460D02*
X164690D01*
Y455824D01*
X165777Y456040D01*
X167775Y457375D01*
X169110Y459373D01*
X169326Y460460D01*
D02*
G37*
G36*
X162150D02*
X157515D01*
X157731Y459373D01*
X159066Y457375D01*
X161064Y456040D01*
X162150Y455824D01*
Y460460D01*
D02*
G37*
G36*
X167150Y474760D02*
X153482D01*
X153574Y474062D01*
X154334Y472228D01*
X155542Y470653D01*
X157118Y469444D01*
X158952Y468684D01*
X160429Y468490D01*
X160696Y467174D01*
X159066Y466085D01*
X157731Y464087D01*
X157515Y463000D01*
X169326D01*
X169110Y464087D01*
X167775Y466085D01*
X166173Y467155D01*
X166558Y468425D01*
X167150D01*
Y474760D01*
D02*
G37*
G36*
X841500Y470782D02*
X836500D01*
X834020Y470455D01*
X831709Y469498D01*
X829724Y467975D01*
X828202Y465991D01*
X827244Y463680D01*
X827056Y462251D01*
X826940Y461370D01*
X825659D01*
X825543Y462251D01*
X825355Y463680D01*
X824398Y465991D01*
X822875Y467975D01*
X820891Y469498D01*
X818580Y470455D01*
X816100Y470782D01*
X811100D01*
X808620Y470455D01*
X806309Y469498D01*
X804324Y467975D01*
X802802Y465991D01*
X801844Y463680D01*
X801518Y461200D01*
X801844Y458720D01*
X802802Y456409D01*
X804324Y454424D01*
X806309Y452902D01*
X808620Y451944D01*
X811100Y451618D01*
X816100D01*
X818580Y451944D01*
X820891Y452902D01*
X822875Y454424D01*
X824398Y456409D01*
X825355Y458720D01*
X825543Y460148D01*
X825659Y461029D01*
X826940D01*
X827056Y460148D01*
X827244Y458720D01*
X828202Y456409D01*
X829724Y454424D01*
X831709Y452902D01*
X834020Y451944D01*
X836500Y451618D01*
X841500D01*
X843980Y451944D01*
X846291Y452902D01*
X848275Y454424D01*
X849798Y456409D01*
X850755Y458720D01*
X851082Y461200D01*
X850755Y463680D01*
X849798Y465991D01*
X848275Y467975D01*
X846291Y469498D01*
X843980Y470455D01*
X841500Y470782D01*
D02*
G37*
G36*
X414631Y442730D02*
X411270D01*
Y439369D01*
X411869Y439488D01*
X413453Y440547D01*
X414512Y442131D01*
X414631Y442730D01*
D02*
G37*
G36*
X572730Y430631D02*
X572131Y430512D01*
X570547Y429453D01*
X569488Y427869D01*
X569369Y427270D01*
X572730D01*
Y430631D01*
D02*
G37*
G36*
X151631Y433730D02*
X142369D01*
X142488Y433131D01*
X143346Y431847D01*
X143468Y431000D01*
X143346Y430153D01*
X142488Y428869D01*
X142369Y428270D01*
X151631D01*
X151512Y428869D01*
X150654Y430153D01*
X150532Y431000D01*
X150654Y431847D01*
X151512Y433131D01*
X151631Y433730D01*
D02*
G37*
G36*
X583270Y430631D02*
Y427270D01*
X586631D01*
X586512Y427869D01*
X585453Y429453D01*
X583869Y430512D01*
X583270Y430631D01*
D02*
G37*
G36*
X151631Y425730D02*
X148270D01*
Y422369D01*
X148869Y422488D01*
X150453Y423547D01*
X151512Y425131D01*
X151631Y425730D01*
D02*
G37*
G36*
X398000Y433333D02*
X396342Y433003D01*
X394936Y432064D01*
X393997Y430658D01*
X393667Y429000D01*
X393997Y427342D01*
X394936Y425936D01*
X396342Y424997D01*
X398000Y424667D01*
X399658Y424997D01*
X401064Y425936D01*
X402003Y427342D01*
X402333Y429000D01*
X402003Y430658D01*
X401064Y432064D01*
X399658Y433003D01*
X398000Y433333D01*
D02*
G37*
G36*
X580730Y430631D02*
X580131Y430512D01*
X578847Y429654D01*
X578000Y429532D01*
X577153Y429654D01*
X575869Y430512D01*
X575270Y430631D01*
Y426000D01*
Y421369D01*
X575869Y421488D01*
X577153Y422346D01*
X578000Y422468D01*
X578847Y422346D01*
X580131Y421488D01*
X580730Y421369D01*
Y426000D01*
Y430631D01*
D02*
G37*
G36*
X145730Y439631D02*
X145131Y439512D01*
X143547Y438453D01*
X142488Y436869D01*
X142369Y436270D01*
X145730D01*
Y439631D01*
D02*
G37*
G36*
X841500Y445382D02*
X836500D01*
X834020Y445055D01*
X831709Y444098D01*
X829724Y442575D01*
X828202Y440591D01*
X827244Y438280D01*
X827056Y436851D01*
X826940Y435970D01*
X825659D01*
X825543Y436851D01*
X825355Y438280D01*
X824398Y440591D01*
X822875Y442575D01*
X820891Y444098D01*
X818580Y445055D01*
X816100Y445382D01*
X811100D01*
X808620Y445055D01*
X806309Y444098D01*
X804324Y442575D01*
X802802Y440591D01*
X801844Y438280D01*
X801518Y435800D01*
X801844Y433320D01*
X802802Y431009D01*
X804324Y429024D01*
X806309Y427502D01*
X808620Y426544D01*
X811100Y426218D01*
X816100D01*
X818580Y426544D01*
X820891Y427502D01*
X822875Y429024D01*
X824398Y431009D01*
X825355Y433320D01*
X825543Y434748D01*
X825659Y435629D01*
X826940D01*
X827056Y434748D01*
X827244Y433320D01*
X828202Y431009D01*
X829724Y429024D01*
X831709Y427502D01*
X834020Y426544D01*
X836500Y426218D01*
X841500D01*
X843980Y426544D01*
X846291Y427502D01*
X848275Y429024D01*
X849798Y431009D01*
X850755Y433320D01*
X851082Y435800D01*
X850755Y438280D01*
X849798Y440591D01*
X848275Y442575D01*
X846291Y444098D01*
X843980Y445055D01*
X841500Y445382D01*
D02*
G37*
G36*
X400730Y442730D02*
X397369D01*
X397488Y442131D01*
X398547Y440547D01*
X400131Y439488D01*
X400730Y439369D01*
Y442730D01*
D02*
G37*
G36*
X148270Y439631D02*
Y436270D01*
X151631D01*
X151512Y436869D01*
X150453Y438453D01*
X148869Y439512D01*
X148270Y439631D01*
D02*
G37*
G36*
X244631Y437730D02*
X241270D01*
Y434369D01*
X241869Y434488D01*
X243453Y435547D01*
X244512Y437131D01*
X244631Y437730D01*
D02*
G37*
G36*
X238730D02*
X235369D01*
X235488Y437131D01*
X236547Y435547D01*
X238131Y434488D01*
X238730Y434369D01*
Y437730D01*
D02*
G37*
G36*
X339000Y444333D02*
X337342Y444003D01*
X335936Y443064D01*
X334997Y441658D01*
X334667Y440000D01*
X334997Y438342D01*
X335936Y436936D01*
X337342Y435997D01*
X339000Y435667D01*
X340658Y435997D01*
X342064Y436936D01*
X343003Y438342D01*
X343333Y440000D01*
X343003Y441658D01*
X342064Y443064D01*
X340658Y444003D01*
X339000Y444333D01*
D02*
G37*
G36*
X167000Y557118D02*
X159000D01*
X156659Y556652D01*
X154674Y555326D01*
X153348Y553341D01*
X152882Y551000D01*
X153348Y548659D01*
X154674Y546674D01*
X160882Y540466D01*
Y502333D01*
X161348Y499992D01*
X162674Y498007D01*
X175776Y484905D01*
X175250Y483635D01*
X169690D01*
Y476030D01*
Y468425D01*
X175920D01*
X177888Y468684D01*
X179723Y469444D01*
X180613Y470127D01*
X181882Y469501D01*
Y403000D01*
X182348Y400659D01*
X183674Y398674D01*
X210882Y371466D01*
Y334000D01*
X211348Y331659D01*
X212674Y329674D01*
X214659Y328348D01*
X217000Y327882D01*
X219341Y328348D01*
X221326Y329674D01*
X222652Y331659D01*
X223118Y334000D01*
Y374000D01*
X222652Y376341D01*
X221326Y378326D01*
X194118Y405534D01*
Y434897D01*
X195291Y435383D01*
X211837Y418837D01*
X212829Y418174D01*
X214000Y417941D01*
X214000Y417941D01*
X238000D01*
X238000Y417941D01*
X239170Y418174D01*
X240163Y418837D01*
X258267Y436941D01*
X273932D01*
X273936Y436936D01*
X275342Y435997D01*
X277000Y435667D01*
X278658Y435997D01*
X280064Y436936D01*
X281003Y438342D01*
X281333Y440000D01*
X281003Y441658D01*
X280064Y443064D01*
X278658Y444003D01*
X277000Y444333D01*
X275342Y444003D01*
X273936Y443064D01*
X273932Y443059D01*
X257000D01*
X257000Y443059D01*
X255830Y442826D01*
X254837Y442163D01*
X236733Y424059D01*
X215267D01*
X198059Y441267D01*
Y482932D01*
X198064Y482936D01*
X199003Y484342D01*
X199333Y486000D01*
X199003Y487658D01*
X198064Y489064D01*
X196658Y490003D01*
X195000Y490333D01*
X193342Y490003D01*
X191936Y489064D01*
X191447Y488333D01*
X189888Y488097D01*
X173118Y504867D01*
Y543000D01*
Y551000D01*
X172652Y553341D01*
X171326Y555326D01*
X169341Y556652D01*
X167000Y557118D01*
D02*
G37*
G36*
X245730Y484730D02*
X242369D01*
X242488Y484131D01*
X243547Y482547D01*
X245131Y481488D01*
X245730Y481369D01*
Y484730D01*
D02*
G37*
G36*
X303631Y552730D02*
X300270D01*
Y549369D01*
X300869Y549488D01*
X302453Y550547D01*
X303512Y552131D01*
X303631Y552730D01*
D02*
G37*
G36*
X297730D02*
X294369D01*
X294488Y552131D01*
X295547Y550547D01*
X297131Y549488D01*
X297730Y549369D01*
Y552730D01*
D02*
G37*
G36*
X568631Y551730D02*
X565270D01*
Y548369D01*
X565869Y548488D01*
X567453Y549547D01*
X568512Y551131D01*
X568631Y551730D01*
D02*
G37*
G36*
X562730D02*
X559369D01*
X559488Y551131D01*
X560547Y549547D01*
X562131Y548488D01*
X562730Y548369D01*
Y551730D01*
D02*
G37*
G36*
X812330Y561530D02*
X801140D01*
X801318Y560179D01*
X802330Y557737D01*
X803939Y555639D01*
X806037Y554030D01*
X808479Y553018D01*
X811100Y552673D01*
X812330D01*
Y561530D01*
D02*
G37*
G36*
X300270Y558631D02*
Y555270D01*
X303631D01*
X303512Y555869D01*
X302453Y557453D01*
X300869Y558512D01*
X300270Y558631D01*
D02*
G37*
G36*
X297730D02*
X297131Y558512D01*
X295547Y557453D01*
X294488Y555869D01*
X294369Y555270D01*
X297730D01*
Y558631D01*
D02*
G37*
G36*
X540631Y563730D02*
X537270D01*
Y560369D01*
X537869Y560488D01*
X539453Y561547D01*
X540512Y563131D01*
X540631Y563730D01*
D02*
G37*
G36*
X534730D02*
X531369D01*
X531488Y563131D01*
X532547Y561547D01*
X534131Y560488D01*
X534730Y560369D01*
Y563730D01*
D02*
G37*
G36*
X562730Y557631D02*
X562131Y557512D01*
X560547Y556453D01*
X559488Y554869D01*
X559369Y554270D01*
X562730D01*
Y557631D01*
D02*
G37*
G36*
X851459Y561530D02*
X840270D01*
Y552673D01*
X841500D01*
X844121Y553018D01*
X846563Y554030D01*
X848660Y555639D01*
X850270Y557737D01*
X851281Y560179D01*
X851459Y561530D01*
D02*
G37*
G36*
X565270Y557631D02*
Y554270D01*
X568631D01*
X568512Y554869D01*
X567453Y556453D01*
X565869Y557512D01*
X565270Y557631D01*
D02*
G37*
G36*
X841500Y546982D02*
X836500D01*
X834020Y546655D01*
X831709Y545698D01*
X829724Y544175D01*
X828202Y542191D01*
X827244Y539880D01*
X827056Y538451D01*
X826940Y537570D01*
X825659D01*
X825543Y538451D01*
X825355Y539880D01*
X824398Y542191D01*
X822875Y544175D01*
X820891Y545698D01*
X818580Y546655D01*
X816100Y546982D01*
X811100D01*
X808620Y546655D01*
X806309Y545698D01*
X804324Y544175D01*
X802802Y542191D01*
X801844Y539880D01*
X801518Y537400D01*
X801844Y534920D01*
X802802Y532609D01*
X804324Y530624D01*
X806309Y529102D01*
X808620Y528144D01*
X811100Y527818D01*
X816100D01*
X818580Y528144D01*
X820891Y529102D01*
X822875Y530624D01*
X824398Y532609D01*
X825355Y534920D01*
X825543Y536348D01*
X825659Y537229D01*
X826940D01*
X827056Y536348D01*
X827244Y534920D01*
X828202Y532609D01*
X829724Y530624D01*
X831709Y529102D01*
X834020Y528144D01*
X836500Y527818D01*
X841500D01*
X843980Y528144D01*
X846291Y529102D01*
X848275Y530624D01*
X849798Y532609D01*
X850755Y534920D01*
X851082Y537400D01*
X850755Y539880D01*
X849798Y542191D01*
X848275Y544175D01*
X846291Y545698D01*
X843980Y546655D01*
X841500Y546982D01*
D02*
G37*
G36*
X244881Y505930D02*
X233670D01*
Y494719D01*
X235674Y494983D01*
X238724Y496246D01*
X241344Y498256D01*
X243354Y500876D01*
X244617Y503926D01*
X244881Y505930D01*
D02*
G37*
G36*
X282000Y500333D02*
X280342Y500003D01*
X278936Y499064D01*
X277997Y497658D01*
X277667Y496000D01*
X277997Y494342D01*
X278936Y492936D01*
X280342Y491997D01*
X282000Y491667D01*
X283658Y491997D01*
X285064Y492936D01*
X286003Y494342D01*
X286333Y496000D01*
X286003Y497658D01*
X285064Y499064D01*
X283658Y500003D01*
X282000Y500333D01*
D02*
G37*
G36*
X264730Y512730D02*
X261369D01*
X261488Y512131D01*
X262547Y510547D01*
X264131Y509488D01*
X264730Y509369D01*
Y512730D01*
D02*
G37*
G36*
X730000Y513333D02*
X728342Y513003D01*
X726936Y512064D01*
X725997Y510658D01*
X725667Y509000D01*
X725997Y507342D01*
X726936Y505936D01*
X728342Y504997D01*
X730000Y504667D01*
X731658Y504997D01*
X733064Y505936D01*
X734003Y507342D01*
X734333Y509000D01*
X734003Y510658D01*
X733064Y512064D01*
X731658Y513003D01*
X730000Y513333D01*
D02*
G37*
G36*
X841500Y496182D02*
X836500D01*
X834020Y495855D01*
X831709Y494898D01*
X829724Y493375D01*
X828202Y491391D01*
X827244Y489080D01*
X827056Y487651D01*
X826940Y486770D01*
X825659D01*
X825543Y487651D01*
X825355Y489080D01*
X824398Y491391D01*
X822875Y493375D01*
X820891Y494898D01*
X818580Y495855D01*
X816100Y496182D01*
X811100D01*
X808620Y495855D01*
X806309Y494898D01*
X804324Y493375D01*
X802802Y491391D01*
X801844Y489080D01*
X801518Y486600D01*
X801844Y484120D01*
X802802Y481809D01*
X804324Y479824D01*
X806309Y478302D01*
X808620Y477344D01*
X811100Y477018D01*
X816100D01*
X818580Y477344D01*
X820891Y478302D01*
X822875Y479824D01*
X824398Y481809D01*
X825355Y484120D01*
X825543Y485548D01*
X825659Y486429D01*
X826940D01*
X827056Y485548D01*
X827244Y484120D01*
X828202Y481809D01*
X829724Y479824D01*
X831709Y478302D01*
X834020Y477344D01*
X836500Y477018D01*
X841500D01*
X843980Y477344D01*
X846291Y478302D01*
X848275Y479824D01*
X849798Y481809D01*
X850755Y484120D01*
X851082Y486600D01*
X850755Y489080D01*
X849798Y491391D01*
X848275Y493375D01*
X846291Y494898D01*
X843980Y495855D01*
X841500Y496182D01*
D02*
G37*
G36*
X251631Y484730D02*
X248270D01*
Y481369D01*
X248869Y481488D01*
X250453Y482547D01*
X251512Y484131D01*
X251631Y484730D01*
D02*
G37*
G36*
X248270Y490631D02*
Y487270D01*
X251631D01*
X251512Y487869D01*
X250453Y489453D01*
X248869Y490512D01*
X248270Y490631D01*
D02*
G37*
G36*
X245730D02*
X245131Y490512D01*
X243547Y489453D01*
X242488Y487869D01*
X242369Y487270D01*
X245730D01*
Y490631D01*
D02*
G37*
G36*
X270631Y512730D02*
X267270D01*
Y509369D01*
X267869Y509488D01*
X269453Y510547D01*
X270512Y512131D01*
X270631Y512730D01*
D02*
G37*
G36*
X650631Y522730D02*
X647270D01*
Y519369D01*
X647869Y519488D01*
X649453Y520547D01*
X650512Y522131D01*
X650631Y522730D01*
D02*
G37*
G36*
X644730D02*
X641369D01*
X641488Y522131D01*
X642547Y520547D01*
X644131Y519488D01*
X644730Y519369D01*
Y522730D01*
D02*
G37*
G36*
X603000Y543333D02*
X601342Y543003D01*
X599936Y542064D01*
X598997Y540658D01*
X598667Y539000D01*
X598997Y537342D01*
X599936Y535936D01*
X600936Y535268D01*
Y535064D01*
X599997Y533658D01*
X599667Y532000D01*
X599997Y530342D01*
X600936Y528936D01*
X602342Y527997D01*
X604000Y527667D01*
X605658Y527997D01*
X607064Y528936D01*
X608003Y530342D01*
X608333Y532000D01*
X608003Y533658D01*
X607064Y535064D01*
X606064Y535732D01*
Y535936D01*
X607003Y537342D01*
X607333Y539000D01*
X607003Y540658D01*
X606064Y542064D01*
X604658Y543003D01*
X603000Y543333D01*
D02*
G37*
G36*
X841500Y521582D02*
X836500D01*
X834020Y521255D01*
X831709Y520298D01*
X829724Y518775D01*
X828202Y516791D01*
X827244Y514480D01*
X827056Y513051D01*
X826940Y512170D01*
X825659D01*
X825543Y513051D01*
X825355Y514480D01*
X824398Y516791D01*
X822875Y518775D01*
X820891Y520298D01*
X818580Y521255D01*
X816100Y521582D01*
X811100D01*
X808620Y521255D01*
X806309Y520298D01*
X804324Y518775D01*
X802802Y516791D01*
X801844Y514480D01*
X801518Y512000D01*
X801844Y509520D01*
X802802Y507209D01*
X804324Y505224D01*
X806309Y503702D01*
X808620Y502744D01*
X811100Y502418D01*
X816100D01*
X818580Y502744D01*
X820891Y503702D01*
X822875Y505224D01*
X824398Y507209D01*
X825355Y509520D01*
X825543Y510948D01*
X825659Y511829D01*
X826940D01*
X827056Y510948D01*
X827244Y509520D01*
X828202Y507209D01*
X829724Y505224D01*
X831709Y503702D01*
X834020Y502744D01*
X836500Y502418D01*
X841500D01*
X843980Y502744D01*
X846291Y503702D01*
X848275Y505224D01*
X849798Y507209D01*
X850755Y509520D01*
X851082Y512000D01*
X850755Y514480D01*
X849798Y516791D01*
X848275Y518775D01*
X846291Y520298D01*
X843980Y521255D01*
X841500Y521582D01*
D02*
G37*
G36*
X267270Y518631D02*
Y515270D01*
X270631D01*
X270512Y515869D01*
X269453Y517453D01*
X267869Y518512D01*
X267270Y518631D01*
D02*
G37*
G36*
X264730D02*
X264131Y518512D01*
X262547Y517453D01*
X261488Y515869D01*
X261369Y515270D01*
X264730D01*
Y518631D01*
D02*
G37*
G36*
X138730Y354524D02*
X135581Y354214D01*
X131333Y352925D01*
X127417Y350832D01*
X123985Y348015D01*
X121168Y344583D01*
X119075Y340667D01*
X117786Y336419D01*
X117476Y333270D01*
X138730D01*
Y354524D01*
D02*
G37*
G36*
X303000Y333333D02*
X301342Y333003D01*
X299936Y332064D01*
X298997Y330658D01*
X298667Y329000D01*
X298997Y327342D01*
X299936Y325936D01*
X301342Y324997D01*
X303000Y324667D01*
X304658Y324997D01*
X306064Y325936D01*
X307003Y327342D01*
X307333Y329000D01*
X307003Y330658D01*
X306064Y332064D01*
X304658Y333003D01*
X303000Y333333D01*
D02*
G37*
G36*
X831270Y354524D02*
Y333270D01*
X852524D01*
X852214Y336419D01*
X850925Y340667D01*
X848832Y344583D01*
X846015Y348015D01*
X842583Y350832D01*
X838668Y352925D01*
X834419Y354214D01*
X831270Y354524D01*
D02*
G37*
G36*
X828730D02*
X825582Y354214D01*
X821333Y352925D01*
X817417Y350832D01*
X813985Y348015D01*
X811168Y344583D01*
X809075Y340667D01*
X807786Y336419D01*
X807476Y333270D01*
X828730D01*
Y354524D01*
D02*
G37*
G36*
X676927Y345130D02*
X656673D01*
Y343900D01*
X657018Y341279D01*
X658030Y338837D01*
X659639Y336739D01*
X661737Y335130D01*
X663530Y334387D01*
Y333013D01*
X661737Y332270D01*
X659639Y330661D01*
X658030Y328563D01*
X657018Y326121D01*
X656673Y323500D01*
Y322270D01*
X676927D01*
Y323500D01*
X676582Y326121D01*
X675570Y328563D01*
X673961Y330661D01*
X671863Y332270D01*
X670070Y333013D01*
Y334387D01*
X671863Y335130D01*
X673961Y336739D01*
X675570Y338837D01*
X676582Y341279D01*
X676927Y343900D01*
Y345130D01*
D02*
G37*
G36*
X333730Y316631D02*
X333131Y316512D01*
X331547Y315453D01*
X330488Y313869D01*
X330369Y313270D01*
X333730D01*
Y316631D01*
D02*
G37*
G36*
X162524Y330730D02*
X141270D01*
Y309476D01*
X144419Y309786D01*
X148667Y311075D01*
X152583Y313168D01*
X156015Y315985D01*
X158832Y319417D01*
X160925Y323332D01*
X162214Y327581D01*
X162524Y330730D01*
D02*
G37*
G36*
X787370Y331481D02*
Y320270D01*
X798581D01*
X798317Y322274D01*
X797054Y325324D01*
X795044Y327944D01*
X792424Y329954D01*
X789374Y331217D01*
X787370Y331481D01*
D02*
G37*
G36*
X336270Y316631D02*
Y313270D01*
X339631D01*
X339512Y313869D01*
X338453Y315453D01*
X336869Y316512D01*
X336270Y316631D01*
D02*
G37*
G36*
X705000Y368333D02*
X703342Y368003D01*
X701936Y367064D01*
X700997Y365658D01*
X700667Y364000D01*
X700997Y362342D01*
X701936Y360936D01*
X703342Y359997D01*
X705000Y359667D01*
X706658Y359997D01*
X708064Y360936D01*
X709003Y362342D01*
X709333Y364000D01*
X709003Y365658D01*
X708064Y367064D01*
X706658Y368003D01*
X705000Y368333D01*
D02*
G37*
G36*
X297631Y359730D02*
X294270D01*
Y356369D01*
X294869Y356488D01*
X296453Y357547D01*
X297512Y359131D01*
X297631Y359730D01*
D02*
G37*
G36*
X294270Y365631D02*
Y362270D01*
X297631D01*
X297512Y362869D01*
X296453Y364453D01*
X294869Y365512D01*
X294270Y365631D01*
D02*
G37*
G36*
X283730D02*
X283131Y365512D01*
X281547Y364453D01*
X280488Y362869D01*
X280369Y362270D01*
X283730D01*
Y365631D01*
D02*
G37*
G36*
Y359730D02*
X280369D01*
X280488Y359131D01*
X281547Y357547D01*
X283131Y356488D01*
X283730Y356369D01*
Y359730D01*
D02*
G37*
G36*
X316000Y344333D02*
X314342Y344003D01*
X312936Y343064D01*
X311997Y341658D01*
X311667Y340000D01*
X311997Y338342D01*
X312936Y336936D01*
X314342Y335997D01*
X316000Y335667D01*
X317658Y335997D01*
X319064Y336936D01*
X320003Y338342D01*
X320333Y340000D01*
X320003Y341658D01*
X319064Y343064D01*
X317658Y344003D01*
X316000Y344333D01*
D02*
G37*
G36*
X141270Y354524D02*
Y333270D01*
X162524D01*
X162214Y336419D01*
X160925Y340667D01*
X158832Y344583D01*
X156015Y348015D01*
X152583Y350832D01*
X148667Y352925D01*
X144419Y354214D01*
X141270Y354524D01*
D02*
G37*
G36*
X668070Y358859D02*
Y347670D01*
X676927D01*
Y348900D01*
X676582Y351521D01*
X675570Y353963D01*
X673961Y356061D01*
X671863Y357670D01*
X669421Y358682D01*
X668070Y358859D01*
D02*
G37*
G36*
X665530D02*
X664179Y358682D01*
X661737Y357670D01*
X659639Y356061D01*
X658030Y353963D01*
X657018Y351521D01*
X656673Y348900D01*
Y347670D01*
X665530D01*
Y358859D01*
D02*
G37*
G36*
X438000Y367333D02*
X436342Y367003D01*
X434936Y366064D01*
X433997Y364658D01*
X433667Y363000D01*
X433997Y361342D01*
X434936Y359936D01*
X435690Y359432D01*
X435704Y358848D01*
X435470Y358052D01*
X433409Y357198D01*
X431425Y355676D01*
X429902Y353691D01*
X428945Y351380D01*
X428618Y348900D01*
Y343900D01*
X428945Y341420D01*
X429902Y339109D01*
X431425Y337124D01*
X433409Y335602D01*
X435720Y334645D01*
X437149Y334456D01*
X438030Y334340D01*
Y333060D01*
X437149Y332943D01*
X435720Y332756D01*
X433409Y331798D01*
X431425Y330275D01*
X429902Y328291D01*
X428945Y325980D01*
X428618Y323500D01*
Y318500D01*
X428945Y316020D01*
X429902Y313709D01*
X431425Y311724D01*
X433409Y310202D01*
X435720Y309244D01*
X438200Y308918D01*
X440680Y309244D01*
X442991Y310202D01*
X444976Y311724D01*
X446498Y313709D01*
X447455Y316020D01*
X447782Y318500D01*
Y323500D01*
X447455Y325980D01*
X446498Y328291D01*
X444976Y330275D01*
X442991Y331798D01*
X440680Y332756D01*
X439252Y332943D01*
X438371Y333060D01*
Y334340D01*
X439251Y334456D01*
X440680Y334645D01*
X442991Y335602D01*
X444976Y337124D01*
X446498Y339109D01*
X447455Y341420D01*
X447782Y343900D01*
Y348900D01*
X447455Y351380D01*
X446498Y353691D01*
X444976Y355676D01*
X442991Y357198D01*
X440680Y358156D01*
X440376Y359476D01*
X441064Y359936D01*
X442003Y361342D01*
X442333Y363000D01*
X442003Y364658D01*
X441064Y366064D01*
X439658Y367003D01*
X438000Y367333D01*
D02*
G37*
G36*
X412800Y358482D02*
X410320Y358156D01*
X408009Y357198D01*
X406025Y355676D01*
X404502Y353691D01*
X403545Y351380D01*
X403218Y348900D01*
Y343900D01*
X403545Y341420D01*
X404502Y339109D01*
X406025Y337124D01*
X408009Y335602D01*
X410320Y334645D01*
X411749Y334456D01*
X412630Y334340D01*
Y333060D01*
X411749Y332943D01*
X410320Y332756D01*
X408009Y331798D01*
X406025Y330275D01*
X404502Y328291D01*
X403545Y325980D01*
X403218Y323500D01*
Y318500D01*
X403545Y316020D01*
X404502Y313709D01*
X406025Y311724D01*
X408009Y310202D01*
X410320Y309244D01*
X412800Y308918D01*
X415280Y309244D01*
X417591Y310202D01*
X419576Y311724D01*
X421098Y313709D01*
X422056Y316020D01*
X422382Y318500D01*
Y323500D01*
X422056Y325980D01*
X421098Y328291D01*
X419576Y330275D01*
X417591Y331798D01*
X415280Y332756D01*
X413852Y332943D01*
X412971Y333060D01*
Y334340D01*
X413851Y334456D01*
X415280Y334645D01*
X417591Y335602D01*
X419576Y337124D01*
X421098Y339109D01*
X422056Y341420D01*
X422382Y343900D01*
Y348900D01*
X422056Y351380D01*
X421098Y353691D01*
X419576Y355676D01*
X417591Y357198D01*
X415280Y358156D01*
X412800Y358482D01*
D02*
G37*
G36*
X489000D02*
X486520Y358156D01*
X484209Y357198D01*
X482225Y355676D01*
X480702Y353691D01*
X479745Y351380D01*
X479418Y348900D01*
Y343900D01*
X479745Y341420D01*
X480702Y339109D01*
X482225Y337124D01*
X484209Y335602D01*
X486520Y334645D01*
X487949Y334456D01*
X488829Y334340D01*
Y333060D01*
X487949Y332943D01*
X486520Y332756D01*
X484209Y331798D01*
X482225Y330275D01*
X480702Y328291D01*
X479745Y325980D01*
X479418Y323500D01*
Y318500D01*
X479745Y316020D01*
X480702Y313709D01*
X482225Y311724D01*
X484209Y310202D01*
X486520Y309244D01*
X489000Y308918D01*
X491480Y309244D01*
X493791Y310202D01*
X495775Y311724D01*
X497298Y313709D01*
X498256Y316020D01*
X498582Y318500D01*
Y323500D01*
X498256Y325980D01*
X497298Y328291D01*
X495775Y330275D01*
X493791Y331798D01*
X491480Y332756D01*
X490051Y332943D01*
X489171Y333060D01*
Y334340D01*
X490051Y334456D01*
X491480Y334645D01*
X493791Y335602D01*
X495775Y337124D01*
X497298Y339109D01*
X498256Y341420D01*
X498582Y343900D01*
Y348900D01*
X498256Y351380D01*
X497298Y353691D01*
X495775Y355676D01*
X493791Y357198D01*
X491480Y358156D01*
X489000Y358482D01*
D02*
G37*
G36*
X463600D02*
X461120Y358156D01*
X458809Y357198D01*
X456825Y355676D01*
X455302Y353691D01*
X454345Y351380D01*
X454018Y348900D01*
Y343900D01*
X454345Y341420D01*
X455302Y339109D01*
X456825Y337124D01*
X458809Y335602D01*
X461120Y334645D01*
X462549Y334456D01*
X463429Y334340D01*
Y333060D01*
X462549Y332943D01*
X461120Y332756D01*
X458809Y331798D01*
X456825Y330275D01*
X455302Y328291D01*
X454345Y325980D01*
X454018Y323500D01*
Y318500D01*
X454345Y316020D01*
X455302Y313709D01*
X456825Y311724D01*
X458809Y310202D01*
X461120Y309244D01*
X463600Y308918D01*
X466080Y309244D01*
X468391Y310202D01*
X470376Y311724D01*
X471898Y313709D01*
X472855Y316020D01*
X473182Y318500D01*
Y323500D01*
X472855Y325980D01*
X471898Y328291D01*
X470376Y330275D01*
X468391Y331798D01*
X466080Y332756D01*
X464651Y332943D01*
X463771Y333060D01*
Y334340D01*
X464651Y334456D01*
X466080Y334645D01*
X468391Y335602D01*
X470376Y337124D01*
X471898Y339109D01*
X472855Y341420D01*
X473182Y343900D01*
Y348900D01*
X472855Y351380D01*
X471898Y353691D01*
X470376Y355676D01*
X468391Y357198D01*
X466080Y358156D01*
X463600Y358482D01*
D02*
G37*
G36*
X387400D02*
X384920Y358156D01*
X382609Y357198D01*
X380625Y355676D01*
X379102Y353691D01*
X378145Y351380D01*
X377818Y348900D01*
Y343900D01*
X378145Y341420D01*
X379102Y339109D01*
X380625Y337124D01*
X382609Y335602D01*
X384920Y334645D01*
X386349Y334456D01*
X387229Y334340D01*
Y333060D01*
X386349Y332943D01*
X384920Y332756D01*
X382609Y331798D01*
X380625Y330275D01*
X379102Y328291D01*
X378145Y325980D01*
X377818Y323500D01*
Y318500D01*
X378145Y316020D01*
X379102Y313709D01*
X380625Y311724D01*
X382609Y310202D01*
X384920Y309244D01*
X387400Y308918D01*
X389880Y309244D01*
X392191Y310202D01*
X394175Y311724D01*
X395698Y313709D01*
X396656Y316020D01*
X396982Y318500D01*
Y323500D01*
X396656Y325980D01*
X395698Y328291D01*
X394175Y330275D01*
X392191Y331798D01*
X389880Y332756D01*
X388451Y332943D01*
X387571Y333060D01*
Y334340D01*
X388451Y334456D01*
X389880Y334645D01*
X392191Y335602D01*
X394175Y337124D01*
X395698Y339109D01*
X396656Y341420D01*
X396982Y343900D01*
Y348900D01*
X396656Y351380D01*
X395698Y353691D01*
X394175Y355676D01*
X392191Y357198D01*
X389880Y358156D01*
X387400Y358482D01*
D02*
G37*
G36*
X339631Y310730D02*
X336270D01*
Y307369D01*
X336869Y307488D01*
X338453Y308547D01*
X339512Y310131D01*
X339631Y310730D01*
D02*
G37*
G36*
X333730D02*
X330369D01*
X330488Y310131D01*
X331547Y308547D01*
X333131Y307488D01*
X333730Y307369D01*
Y310730D01*
D02*
G37*
G36*
X676927Y319730D02*
X668070D01*
Y308541D01*
X669421Y308718D01*
X671863Y309730D01*
X673961Y311339D01*
X675570Y313437D01*
X676582Y315879D01*
X676927Y318500D01*
Y319730D01*
D02*
G37*
G36*
X665530D02*
X656673D01*
Y318500D01*
X657018Y315879D01*
X658030Y313437D01*
X659639Y311339D01*
X661737Y309730D01*
X664179Y308718D01*
X665530Y308541D01*
Y319730D01*
D02*
G37*
G36*
X138730Y330730D02*
X117476D01*
X117786Y327581D01*
X119075Y323332D01*
X121168Y319417D01*
X123985Y315985D01*
X127417Y313168D01*
X131333Y311075D01*
X135581Y309786D01*
X138730Y309476D01*
Y330730D01*
D02*
G37*
G36*
X641400Y358482D02*
X638920Y358156D01*
X636609Y357198D01*
X634625Y355676D01*
X633102Y353691D01*
X632145Y351380D01*
X631818Y348900D01*
Y343900D01*
X632145Y341420D01*
X633102Y339109D01*
X634625Y337124D01*
X636609Y335602D01*
X638920Y334645D01*
X640349Y334456D01*
X641229Y334340D01*
Y333060D01*
X640349Y332943D01*
X638920Y332756D01*
X636609Y331798D01*
X634625Y330275D01*
X633102Y328291D01*
X632145Y325980D01*
X631818Y323500D01*
Y318500D01*
X632145Y316020D01*
X633102Y313709D01*
X634625Y311724D01*
X636609Y310202D01*
X638920Y309244D01*
X641400Y308918D01*
X643880Y309244D01*
X646191Y310202D01*
X648176Y311724D01*
X649698Y313709D01*
X650656Y316020D01*
X650982Y318500D01*
Y323500D01*
X650656Y325980D01*
X649698Y328291D01*
X648176Y330275D01*
X646191Y331798D01*
X643880Y332756D01*
X642451Y332943D01*
X641571Y333060D01*
Y334340D01*
X642451Y334456D01*
X643880Y334645D01*
X646191Y335602D01*
X648176Y337124D01*
X649698Y339109D01*
X650656Y341420D01*
X650982Y343900D01*
Y348900D01*
X650656Y351380D01*
X649698Y353691D01*
X648176Y355676D01*
X646191Y357198D01*
X643880Y358156D01*
X641400Y358482D01*
D02*
G37*
G36*
X852524Y330730D02*
X831270D01*
Y309476D01*
X834419Y309786D01*
X838668Y311075D01*
X842583Y313168D01*
X846015Y315985D01*
X848832Y319417D01*
X850925Y323332D01*
X852214Y327581D01*
X852524Y330730D01*
D02*
G37*
G36*
X828730D02*
X807476D01*
X807786Y327581D01*
X809075Y323332D01*
X811168Y319417D01*
X813985Y315985D01*
X817417Y313168D01*
X821333Y311075D01*
X825582Y309786D01*
X828730Y309476D01*
Y330730D01*
D02*
G37*
G36*
X616000Y358482D02*
X613520Y358156D01*
X611209Y357198D01*
X609225Y355676D01*
X607702Y353691D01*
X606745Y351380D01*
X606418Y348900D01*
Y343900D01*
X606745Y341420D01*
X607702Y339109D01*
X609225Y337124D01*
X611209Y335602D01*
X613520Y334645D01*
X614949Y334456D01*
X615830Y334340D01*
Y333060D01*
X614949Y332943D01*
X613520Y332756D01*
X611209Y331798D01*
X609225Y330275D01*
X607702Y328291D01*
X606745Y325980D01*
X606418Y323500D01*
Y318500D01*
X606745Y316020D01*
X607702Y313709D01*
X609225Y311724D01*
X611209Y310202D01*
X613520Y309244D01*
X616000Y308918D01*
X618480Y309244D01*
X620791Y310202D01*
X622775Y311724D01*
X624298Y313709D01*
X625256Y316020D01*
X625582Y318500D01*
Y323500D01*
X625256Y325980D01*
X624298Y328291D01*
X622775Y330275D01*
X620791Y331798D01*
X618480Y332756D01*
X617052Y332943D01*
X616171Y333060D01*
Y334340D01*
X617051Y334456D01*
X618480Y334645D01*
X620791Y335602D01*
X622775Y337124D01*
X624298Y339109D01*
X625256Y341420D01*
X625582Y343900D01*
Y348900D01*
X625256Y351380D01*
X624298Y353691D01*
X622775Y355676D01*
X620791Y357198D01*
X618480Y358156D01*
X616000Y358482D01*
D02*
G37*
G36*
X539800D02*
X537320Y358156D01*
X535009Y357198D01*
X533025Y355676D01*
X531502Y353691D01*
X530545Y351380D01*
X530218Y348900D01*
Y343900D01*
X530545Y341420D01*
X531502Y339109D01*
X533025Y337124D01*
X535009Y335602D01*
X537320Y334645D01*
X538749Y334456D01*
X539630Y334340D01*
Y333060D01*
X538749Y332943D01*
X537320Y332756D01*
X535009Y331798D01*
X533025Y330275D01*
X531502Y328291D01*
X530545Y325980D01*
X530218Y323500D01*
Y318500D01*
X530545Y316020D01*
X531502Y313709D01*
X533025Y311724D01*
X535009Y310202D01*
X537320Y309244D01*
X539800Y308918D01*
X542280Y309244D01*
X544591Y310202D01*
X546576Y311724D01*
X548098Y313709D01*
X549055Y316020D01*
X549382Y318500D01*
Y323500D01*
X549055Y325980D01*
X548098Y328291D01*
X546576Y330275D01*
X544591Y331798D01*
X542280Y332756D01*
X540852Y332943D01*
X539971Y333060D01*
Y334340D01*
X540851Y334456D01*
X542280Y334645D01*
X544591Y335602D01*
X546576Y337124D01*
X548098Y339109D01*
X549055Y341420D01*
X549382Y343900D01*
Y348900D01*
X549055Y351380D01*
X548098Y353691D01*
X546576Y355676D01*
X544591Y357198D01*
X542280Y358156D01*
X539800Y358482D01*
D02*
G37*
G36*
X514400D02*
X511920Y358156D01*
X509609Y357198D01*
X507625Y355676D01*
X506102Y353691D01*
X505145Y351380D01*
X504818Y348900D01*
Y343900D01*
X505145Y341420D01*
X506102Y339109D01*
X507625Y337124D01*
X509609Y335602D01*
X511920Y334645D01*
X513349Y334456D01*
X514230Y334340D01*
Y333060D01*
X513349Y332943D01*
X511920Y332756D01*
X509609Y331798D01*
X507625Y330275D01*
X506102Y328291D01*
X505145Y325980D01*
X504818Y323500D01*
Y318500D01*
X505145Y316020D01*
X506102Y313709D01*
X507625Y311724D01*
X509609Y310202D01*
X511920Y309244D01*
X514400Y308918D01*
X516880Y309244D01*
X519191Y310202D01*
X521175Y311724D01*
X522698Y313709D01*
X523656Y316020D01*
X523982Y318500D01*
Y323500D01*
X523656Y325980D01*
X522698Y328291D01*
X521175Y330275D01*
X519191Y331798D01*
X516880Y332756D01*
X515452Y332943D01*
X514571Y333060D01*
Y334340D01*
X515451Y334456D01*
X516880Y334645D01*
X519191Y335602D01*
X521175Y337124D01*
X522698Y339109D01*
X523656Y341420D01*
X523982Y343900D01*
Y348900D01*
X523656Y351380D01*
X522698Y353691D01*
X521175Y355676D01*
X519191Y357198D01*
X516880Y358156D01*
X514400Y358482D01*
D02*
G37*
G36*
X590600D02*
X588120Y358156D01*
X585809Y357198D01*
X583825Y355676D01*
X582302Y353691D01*
X581345Y351380D01*
X581018Y348900D01*
Y343900D01*
X581345Y341420D01*
X582302Y339109D01*
X583825Y337124D01*
X585809Y335602D01*
X588120Y334645D01*
X589549Y334456D01*
X590429Y334340D01*
Y333060D01*
X589549Y332943D01*
X588120Y332756D01*
X585809Y331798D01*
X583825Y330275D01*
X582302Y328291D01*
X581345Y325980D01*
X581018Y323500D01*
Y318500D01*
X581345Y316020D01*
X582302Y313709D01*
X583825Y311724D01*
X585809Y310202D01*
X588120Y309244D01*
X590600Y308918D01*
X593080Y309244D01*
X595391Y310202D01*
X597375Y311724D01*
X598898Y313709D01*
X599855Y316020D01*
X600182Y318500D01*
Y323500D01*
X599855Y325980D01*
X598898Y328291D01*
X597375Y330275D01*
X595391Y331798D01*
X593080Y332756D01*
X591651Y332943D01*
X590771Y333060D01*
Y334340D01*
X591651Y334456D01*
X593080Y334645D01*
X595391Y335602D01*
X597375Y337124D01*
X598898Y339109D01*
X599855Y341420D01*
X600182Y343900D01*
Y348900D01*
X599855Y351380D01*
X598898Y353691D01*
X597375Y355676D01*
X595391Y357198D01*
X593080Y358156D01*
X590600Y358482D01*
D02*
G37*
G36*
X565200D02*
X562720Y358156D01*
X560409Y357198D01*
X558425Y355676D01*
X556902Y353691D01*
X555945Y351380D01*
X555618Y348900D01*
Y343900D01*
X555945Y341420D01*
X556902Y339109D01*
X558425Y337124D01*
X560409Y335602D01*
X562720Y334645D01*
X564149Y334456D01*
X565029Y334340D01*
Y333060D01*
X564149Y332943D01*
X562720Y332756D01*
X560409Y331798D01*
X558425Y330275D01*
X556902Y328291D01*
X555945Y325980D01*
X555618Y323500D01*
Y318500D01*
X555945Y316020D01*
X556902Y313709D01*
X558425Y311724D01*
X560409Y310202D01*
X562720Y309244D01*
X565200Y308918D01*
X567680Y309244D01*
X569991Y310202D01*
X571976Y311724D01*
X573498Y313709D01*
X574455Y316020D01*
X574782Y318500D01*
Y323500D01*
X574455Y325980D01*
X573498Y328291D01*
X571976Y330275D01*
X569991Y331798D01*
X567680Y332756D01*
X566251Y332943D01*
X565371Y333060D01*
Y334340D01*
X566251Y334456D01*
X567680Y334645D01*
X569991Y335602D01*
X571976Y337124D01*
X573498Y339109D01*
X574455Y341420D01*
X574782Y343900D01*
Y348900D01*
X574455Y351380D01*
X573498Y353691D01*
X571976Y355676D01*
X569991Y357198D01*
X567680Y358156D01*
X565200Y358482D01*
D02*
G37*
G36*
X221270Y394631D02*
Y391270D01*
X224631D01*
X224512Y391869D01*
X223453Y393453D01*
X221869Y394512D01*
X221270Y394631D01*
D02*
G37*
G36*
X218730D02*
X218131Y394512D01*
X216547Y393453D01*
X215488Y391869D01*
X215369Y391270D01*
X218730D01*
Y394631D01*
D02*
G37*
G36*
X241000Y411333D02*
X239342Y411003D01*
X237936Y410064D01*
X236997Y408658D01*
X236667Y407000D01*
X236997Y405342D01*
X237936Y403936D01*
X239342Y402997D01*
X241000Y402667D01*
X242658Y402997D01*
X244064Y403936D01*
X245003Y405342D01*
X245333Y407000D01*
X245003Y408658D01*
X244064Y410064D01*
X242658Y411003D01*
X241000Y411333D01*
D02*
G37*
G36*
X300000Y402333D02*
X298342Y402003D01*
X296936Y401064D01*
X295997Y399658D01*
X295667Y398000D01*
X295997Y396342D01*
X296936Y394936D01*
X298342Y393997D01*
X300000Y393667D01*
X301658Y393997D01*
X303064Y394936D01*
X304003Y396342D01*
X304333Y398000D01*
X304003Y399658D01*
X303064Y401064D01*
X301658Y402003D01*
X300000Y402333D01*
D02*
G37*
G36*
X175920Y397235D02*
X169690D01*
Y390900D01*
X183358D01*
X183266Y391598D01*
X182506Y393433D01*
X181298Y395008D01*
X179723Y396216D01*
X177888Y396976D01*
X175920Y397235D01*
D02*
G37*
G36*
X631920Y393981D02*
Y390620D01*
X635281D01*
X635162Y391219D01*
X634103Y392803D01*
X632519Y393862D01*
X631920Y393981D01*
D02*
G37*
G36*
X629380D02*
X628781Y393862D01*
X627197Y392803D01*
X626138Y391219D01*
X626019Y390620D01*
X629380D01*
Y393981D01*
D02*
G37*
G36*
X169326Y402660D02*
X157515D01*
X157731Y401573D01*
X159066Y399576D01*
X160696Y398487D01*
X160429Y397170D01*
X158952Y396976D01*
X157118Y396216D01*
X155542Y395008D01*
X154334Y393433D01*
X153574Y391598D01*
X153482Y390900D01*
X167150D01*
Y397235D01*
X166558D01*
X166173Y398505D01*
X167775Y399576D01*
X169110Y401573D01*
X169326Y402660D01*
D02*
G37*
G36*
X132620Y397235D02*
X127890D01*
Y390900D01*
X140058D01*
X139966Y391598D01*
X139206Y393433D01*
X137998Y395008D01*
X136423Y396216D01*
X134589Y396976D01*
X132620Y397235D01*
D02*
G37*
G36*
X572730Y424730D02*
X569369D01*
X569488Y424131D01*
X570547Y422547D01*
X572131Y421488D01*
X572730Y421369D01*
Y424730D01*
D02*
G37*
G36*
X145730Y425730D02*
X142369D01*
X142488Y425131D01*
X143547Y423547D01*
X145131Y422488D01*
X145730Y422369D01*
Y425730D01*
D02*
G37*
G36*
X586631Y424730D02*
X583270D01*
Y421369D01*
X583869Y421488D01*
X585453Y422547D01*
X586512Y424131D01*
X586631Y424730D01*
D02*
G37*
G36*
X162150Y409836D02*
X161064Y409620D01*
X159066Y408285D01*
X157731Y406287D01*
X157515Y405200D01*
X162150D01*
Y409836D01*
D02*
G37*
G36*
X263110Y413223D02*
X261452Y412893D01*
X260046Y411954D01*
X259107Y410548D01*
X258777Y408890D01*
X259107Y407232D01*
X260046Y405826D01*
X261452Y404887D01*
X263110Y404557D01*
X264768Y404887D01*
X266174Y405826D01*
X267113Y407232D01*
X267443Y408890D01*
X267113Y410548D01*
X266174Y411954D01*
X264768Y412893D01*
X263110Y413223D01*
D02*
G37*
G36*
X841500Y419982D02*
X836500D01*
X834020Y419655D01*
X831709Y418698D01*
X829724Y417175D01*
X828202Y415191D01*
X827244Y412880D01*
X827056Y411451D01*
X826940Y410570D01*
X825659D01*
X825543Y411451D01*
X825355Y412880D01*
X824398Y415191D01*
X822875Y417175D01*
X820891Y418698D01*
X818580Y419655D01*
X816100Y419982D01*
X811100D01*
X808620Y419655D01*
X806309Y418698D01*
X804324Y417175D01*
X802802Y415191D01*
X801844Y412880D01*
X801518Y410400D01*
X801844Y407920D01*
X802802Y405609D01*
X804324Y403624D01*
X806309Y402102D01*
X808620Y401144D01*
X811100Y400818D01*
X816100D01*
X818580Y401144D01*
X820891Y402102D01*
X822875Y403624D01*
X824398Y405609D01*
X825355Y407920D01*
X825543Y409348D01*
X825659Y410229D01*
X826940D01*
X827056Y409348D01*
X827244Y407920D01*
X828202Y405609D01*
X829724Y403624D01*
X831709Y402102D01*
X834020Y401144D01*
X836500Y400818D01*
X841500D01*
X843980Y401144D01*
X846291Y402102D01*
X848275Y403624D01*
X849798Y405609D01*
X850755Y407920D01*
X851082Y410400D01*
X850755Y412880D01*
X849798Y415191D01*
X848275Y417175D01*
X846291Y418698D01*
X843980Y419655D01*
X841500Y419982D01*
D02*
G37*
G36*
X164690Y409836D02*
Y405200D01*
X169326D01*
X169110Y406287D01*
X167775Y408285D01*
X165777Y409620D01*
X164690Y409836D01*
D02*
G37*
G36*
X318000Y389333D02*
X316342Y389003D01*
X314936Y388064D01*
X313997Y386658D01*
X313667Y385000D01*
X313997Y383342D01*
X314936Y381936D01*
X316342Y380997D01*
X318000Y380667D01*
X319658Y380997D01*
X321064Y381936D01*
X322003Y383342D01*
X322333Y385000D01*
X322003Y386658D01*
X321064Y388064D01*
X319658Y389003D01*
X318000Y389333D01*
D02*
G37*
G36*
X244631Y379730D02*
X241270D01*
Y376369D01*
X241869Y376488D01*
X243453Y377547D01*
X244512Y379131D01*
X244631Y379730D01*
D02*
G37*
G36*
X140058Y388360D02*
X127890D01*
Y382025D01*
X132620D01*
X134589Y382284D01*
X136423Y383044D01*
X137998Y384252D01*
X139206Y385827D01*
X139966Y387662D01*
X140058Y388360D01*
D02*
G37*
G36*
X657000Y390333D02*
X655342Y390003D01*
X653936Y389064D01*
X652997Y387658D01*
X652667Y386000D01*
X652997Y384342D01*
X653936Y382936D01*
X655342Y381997D01*
X657000Y381667D01*
X658658Y381997D01*
X660064Y382936D01*
X661003Y384342D01*
X661333Y386000D01*
X661003Y387658D01*
X660064Y389064D01*
X658658Y390003D01*
X657000Y390333D01*
D02*
G37*
G36*
X238730Y379730D02*
X235369D01*
X235488Y379131D01*
X236547Y377547D01*
X238131Y376488D01*
X238730Y376369D01*
Y379730D01*
D02*
G37*
G36*
X451000Y375333D02*
X449342Y375003D01*
X447936Y374064D01*
X446997Y372658D01*
X446667Y371000D01*
X446997Y369342D01*
X447936Y367936D01*
X449342Y366997D01*
X451000Y366667D01*
X452658Y366997D01*
X454064Y367936D01*
X455003Y369342D01*
X455333Y371000D01*
X455003Y372658D01*
X454064Y374064D01*
X452658Y375003D01*
X451000Y375333D01*
D02*
G37*
G36*
X291730Y365631D02*
X291131Y365512D01*
X289847Y364654D01*
X289000Y364532D01*
X288153Y364654D01*
X286869Y365512D01*
X286270Y365631D01*
Y361000D01*
Y356369D01*
X286869Y356488D01*
X288153Y357346D01*
X289000Y357468D01*
X289847Y357346D01*
X291131Y356488D01*
X291730Y356369D01*
Y361000D01*
Y365631D01*
D02*
G37*
G36*
X740778Y382555D02*
X739120Y382225D01*
X737714Y381286D01*
X736775Y379880D01*
X736445Y378222D01*
X736775Y376564D01*
X737714Y375158D01*
X739120Y374219D01*
X740778Y373889D01*
X742436Y374219D01*
X743842Y375158D01*
X744781Y376564D01*
X745111Y378222D01*
X744781Y379880D01*
X743842Y381286D01*
X742436Y382225D01*
X740778Y382555D01*
D02*
G37*
G36*
X375000Y380020D02*
X373342Y379690D01*
X371936Y378750D01*
X370997Y377345D01*
X370667Y375686D01*
X370997Y374028D01*
X371936Y372622D01*
X373342Y371683D01*
X375000Y371353D01*
X376658Y371683D01*
X378064Y372622D01*
X379003Y374028D01*
X379333Y375686D01*
X379003Y377345D01*
X378064Y378750D01*
X376658Y379690D01*
X375000Y380020D01*
D02*
G37*
G36*
X635281Y388080D02*
X631920D01*
Y384719D01*
X632519Y384838D01*
X634103Y385897D01*
X635162Y387481D01*
X635281Y388080D01*
D02*
G37*
G36*
X629380D02*
X626019D01*
X626138Y387481D01*
X627197Y385897D01*
X628781Y384838D01*
X629380Y384719D01*
Y388080D01*
D02*
G37*
G36*
X224631Y388730D02*
X221270D01*
Y385369D01*
X221869Y385488D01*
X223453Y386547D01*
X224512Y388131D01*
X224631Y388730D01*
D02*
G37*
G36*
X218730D02*
X215369D01*
X215488Y388131D01*
X216547Y386547D01*
X218131Y385488D01*
X218730Y385369D01*
Y388730D01*
D02*
G37*
G36*
X678000Y392333D02*
X676342Y392003D01*
X674936Y391064D01*
X673997Y389658D01*
X673667Y388000D01*
X673997Y386342D01*
X674936Y384936D01*
X676342Y383997D01*
X678000Y383667D01*
X679658Y383997D01*
X681064Y384936D01*
X682003Y386342D01*
X682333Y388000D01*
X682003Y389658D01*
X681064Y391064D01*
X679658Y392003D01*
X678000Y392333D01*
D02*
G37*
G36*
X183358Y388360D02*
X169690D01*
Y382025D01*
X175920D01*
X177888Y382284D01*
X179723Y383044D01*
X181298Y384252D01*
X182506Y385827D01*
X183266Y387662D01*
X183358Y388360D01*
D02*
G37*
G36*
X167150D02*
X153482D01*
X153574Y387662D01*
X154334Y385827D01*
X155542Y384252D01*
X157118Y383044D01*
X158952Y382284D01*
X160920Y382025D01*
X167150D01*
Y388360D01*
D02*
G37*
G36*
X241270Y385631D02*
Y382270D01*
X244631D01*
X244512Y382869D01*
X243453Y384453D01*
X241869Y385512D01*
X241270Y385631D01*
D02*
G37*
G36*
X238730D02*
X238131Y385512D01*
X236547Y384453D01*
X235488Y382869D01*
X235369Y382270D01*
X238730D01*
Y385631D01*
D02*
G37*
G36*
X742000Y680333D02*
X740342Y680003D01*
X738936Y679064D01*
X737997Y677658D01*
X737667Y676000D01*
X737997Y674342D01*
X738936Y672936D01*
X740342Y671997D01*
X742000Y671667D01*
X743658Y671997D01*
X745064Y672936D01*
X746003Y674342D01*
X746333Y676000D01*
X746003Y677658D01*
X745064Y679064D01*
X743658Y680003D01*
X742000Y680333D01*
D02*
G37*
G36*
X625000D02*
X623342Y680003D01*
X621936Y679064D01*
X620997Y677658D01*
X620667Y676000D01*
X620997Y674342D01*
X621936Y672936D01*
X623342Y671997D01*
X625000Y671667D01*
X626658Y671997D01*
X628064Y672936D01*
X629003Y674342D01*
X629333Y676000D01*
X629003Y677658D01*
X628064Y679064D01*
X626658Y680003D01*
X625000Y680333D01*
D02*
G37*
G36*
X831922Y689390D02*
X830180Y689161D01*
X827372Y687998D01*
X824962Y686148D01*
X823112Y683738D01*
X821949Y680930D01*
X821720Y679188D01*
X831922D01*
Y689390D01*
D02*
G37*
G36*
X370110Y680467D02*
X347350D01*
X345009Y680002D01*
X343686Y679118D01*
X257000D01*
X257000Y679118D01*
X257000Y679118D01*
X255690Y678857D01*
X254659Y678652D01*
X254659Y678652D01*
X254659Y678652D01*
X253390Y677804D01*
X252674Y677326D01*
X252674Y677326D01*
X252674Y677326D01*
X246214Y670865D01*
X245422Y669679D01*
X244888Y668881D01*
X244888Y668881D01*
X244888Y668881D01*
X244631Y667587D01*
X244423Y666540D01*
Y584118D01*
X195000D01*
X192659Y583652D01*
X190674Y582326D01*
X182432Y574084D01*
X181293Y574646D01*
X181314Y574800D01*
X181020Y577029D01*
X180160Y579107D01*
X178791Y580891D01*
X177007Y582260D01*
X174929Y583120D01*
X172700Y583414D01*
X169470D01*
Y574800D01*
Y566186D01*
X172700D01*
X174929Y566480D01*
X177007Y567340D01*
X177612Y567805D01*
X178883Y567179D01*
Y548000D01*
X179348Y545659D01*
X180674Y543674D01*
X195611Y528737D01*
X196518Y526548D01*
X198442Y524041D01*
X200948Y522118D01*
X203867Y520909D01*
X206096Y520616D01*
X206665Y520540D01*
Y519260D01*
X206096Y519184D01*
X203867Y518891D01*
X200948Y517682D01*
X198442Y515759D01*
X196518Y513252D01*
X195309Y510333D01*
X194897Y507200D01*
X195309Y504067D01*
X196518Y501148D01*
X198442Y498642D01*
X200948Y496718D01*
X201672Y496418D01*
Y490210D01*
X202138Y487869D01*
X203464Y485884D01*
X232848Y456500D01*
X214674Y438326D01*
X213348Y436341D01*
X212882Y434000D01*
X213348Y431659D01*
X214674Y429674D01*
X216659Y428348D01*
X219000Y427882D01*
X221341Y428348D01*
X223326Y429674D01*
X234112Y440460D01*
X234468Y440270D01*
X238730D01*
Y444533D01*
X238540Y444888D01*
X245534Y451883D01*
X271000D01*
X273341Y452348D01*
X275326Y453674D01*
X276652Y455659D01*
X277118Y458000D01*
X276652Y460341D01*
X275326Y462326D01*
X273341Y463652D01*
X271000Y464118D01*
X242534D01*
X213908Y492744D01*
Y497375D01*
X215558Y498642D01*
X217482Y501148D01*
X218691Y504067D01*
X218787Y504797D01*
X220068D01*
X220183Y503926D01*
X221446Y500876D01*
X223456Y498256D01*
X226076Y496246D01*
X229126Y494983D01*
X231130Y494719D01*
Y507200D01*
X232400D01*
Y508470D01*
X244881D01*
X244617Y510474D01*
X243354Y513524D01*
X241344Y516144D01*
X238724Y518154D01*
X235674Y519417D01*
X234803Y519532D01*
Y520813D01*
X235533Y520909D01*
X238452Y522118D01*
X240958Y524041D01*
X242831Y526483D01*
X275866D01*
X289883Y512466D01*
Y415534D01*
X232674Y358326D01*
X231348Y356341D01*
X230882Y354000D01*
Y333000D01*
X231348Y330659D01*
X232674Y328674D01*
X234659Y327348D01*
X237000Y326883D01*
X239341Y327348D01*
X241326Y328674D01*
X242652Y330659D01*
X243118Y333000D01*
Y351466D01*
X300326Y408674D01*
X301652Y410659D01*
X302118Y413000D01*
Y426334D01*
X303161Y427014D01*
X303388Y426987D01*
X305000Y426667D01*
X306658Y426997D01*
X308064Y427936D01*
X309003Y429342D01*
X309333Y431000D01*
X309003Y432658D01*
X308064Y434064D01*
X306658Y435003D01*
X305000Y435333D01*
X303388Y435013D01*
X303161Y434986D01*
X302118Y435666D01*
Y515000D01*
X301652Y517341D01*
X300326Y519326D01*
X282726Y536926D01*
X280741Y538252D01*
X278400Y538717D01*
X242831D01*
X240958Y541158D01*
X238452Y543082D01*
X235533Y544291D01*
X233305Y544585D01*
X232735Y544660D01*
Y545940D01*
X233304Y546016D01*
X235533Y546309D01*
X238452Y547518D01*
X240958Y549441D01*
X242882Y551948D01*
X244091Y554867D01*
X244504Y558000D01*
X244091Y561133D01*
X242882Y564052D01*
X240958Y566558D01*
X238452Y568482D01*
X235533Y569691D01*
X232400Y570104D01*
X229267Y569691D01*
X226348Y568482D01*
X223841Y566558D01*
X221918Y564052D01*
X220709Y561133D01*
X220415Y558904D01*
X220340Y558335D01*
X219060D01*
X218985Y558904D01*
X218691Y561133D01*
X217482Y564052D01*
X215558Y566558D01*
X213052Y568482D01*
X210133Y569691D01*
X207000Y570104D01*
X203867Y569691D01*
X200948Y568482D01*
X198442Y566558D01*
X196518Y564052D01*
X195309Y561133D01*
X194897Y558000D01*
X195309Y554867D01*
X196518Y551948D01*
X198442Y549441D01*
X200948Y547518D01*
X203867Y546309D01*
X206096Y546016D01*
X206665Y545940D01*
Y544660D01*
X206096Y544585D01*
X203867Y544291D01*
X200948Y543082D01*
X199602Y542049D01*
X191118Y550534D01*
Y565466D01*
X197534Y571883D01*
X245046D01*
X246215Y570134D01*
X250674Y565674D01*
X252659Y564348D01*
X255000Y563882D01*
X337882D01*
Y476000D01*
Y465000D01*
X338348Y462659D01*
X339674Y460674D01*
X342746Y457603D01*
X342997Y456342D01*
X343936Y454936D01*
X344883Y454304D01*
Y398000D01*
X345348Y395659D01*
X346674Y393674D01*
X348659Y392348D01*
X351000Y391883D01*
X353341Y392348D01*
X355326Y393674D01*
X363326Y401674D01*
X364652Y403659D01*
X365118Y406000D01*
Y461000D01*
X364652Y463341D01*
X363326Y465326D01*
X357118Y471534D01*
Y576000D01*
X356652Y578341D01*
X355326Y580326D01*
X353341Y581652D01*
X351000Y582118D01*
X344000D01*
X343996Y582117D01*
X343992Y582118D01*
X264262Y582012D01*
X263118Y583156D01*
Y652466D01*
X271074Y660422D01*
X304207D01*
X304592Y659152D01*
X303547Y658453D01*
X302488Y656869D01*
X302369Y656270D01*
X311631D01*
X311512Y656869D01*
X310453Y658453D01*
X309408Y659152D01*
X309793Y660422D01*
X348885D01*
X349345Y659152D01*
X348488Y657869D01*
X348369Y657270D01*
X357631D01*
X357512Y657869D01*
X356655Y659152D01*
X357115Y660422D01*
X362300D01*
X364641Y660888D01*
X366626Y662214D01*
X374436Y670024D01*
X375762Y672009D01*
X376228Y674350D01*
X375762Y676691D01*
X374436Y678676D01*
X372451Y680002D01*
X370110Y680467D01*
D02*
G37*
G36*
X831922Y676648D02*
X821720D01*
X821949Y674905D01*
X823112Y672098D01*
X824962Y669688D01*
X827372Y667838D01*
X830180Y666675D01*
X831922Y666446D01*
Y676648D01*
D02*
G37*
G36*
X774664Y676648D02*
X764462D01*
Y666446D01*
X766205Y666675D01*
X769012Y667838D01*
X771422Y669688D01*
X773272Y672098D01*
X774435Y674905D01*
X774664Y676648D01*
D02*
G37*
G36*
X761922D02*
X751720D01*
X751949Y674905D01*
X753112Y672098D01*
X754962Y669688D01*
X757372Y667838D01*
X760180Y666675D01*
X761922Y666446D01*
Y676648D01*
D02*
G37*
G36*
X844664Y676648D02*
X834462D01*
Y666446D01*
X836205Y666675D01*
X839012Y667838D01*
X841422Y669688D01*
X843272Y672098D01*
X844435Y674905D01*
X844664Y676648D01*
D02*
G37*
G36*
X834462Y689390D02*
Y679188D01*
X844664D01*
X844435Y680930D01*
X843272Y683738D01*
X841422Y686148D01*
X839012Y687998D01*
X836205Y689161D01*
X834462Y689390D01*
D02*
G37*
G36*
X573631Y692730D02*
X570270D01*
Y689369D01*
X570869Y689488D01*
X572453Y690547D01*
X573512Y692131D01*
X573631Y692730D01*
D02*
G37*
G36*
X567730D02*
X564369D01*
X564488Y692131D01*
X565547Y690547D01*
X567131Y689488D01*
X567730Y689369D01*
Y692730D01*
D02*
G37*
G36*
X647730Y693730D02*
X644369D01*
X644488Y693131D01*
X645547Y691547D01*
X647131Y690488D01*
X647730Y690369D01*
Y693730D01*
D02*
G37*
G36*
X721999Y700332D02*
X720340Y700003D01*
X718935Y699063D01*
X717995Y697657D01*
X717665Y695999D01*
X717995Y694341D01*
X718190Y694049D01*
X717704Y692876D01*
X717131Y692762D01*
X715547Y691703D01*
X714488Y690119D01*
X714369Y689520D01*
X723631D01*
X723512Y690119D01*
X723186Y690607D01*
X723657Y691996D01*
X724390Y692486D01*
X725714Y692182D01*
X725836Y692041D01*
X726686Y690769D01*
X728092Y689829D01*
X729750Y689500D01*
X731408Y689829D01*
X732814Y690769D01*
X733753Y692175D01*
X734083Y693833D01*
X733753Y695491D01*
X732814Y696897D01*
X731408Y697836D01*
X729750Y698166D01*
X728092Y697836D01*
X727359Y697346D01*
X726035Y697650D01*
X725913Y697791D01*
X725063Y699063D01*
X723657Y700003D01*
X721999Y700332D01*
D02*
G37*
G36*
X764462Y689390D02*
Y679188D01*
X774664D01*
X774435Y680930D01*
X773272Y683738D01*
X771422Y686148D01*
X769012Y687998D01*
X766205Y689161D01*
X764462Y689390D01*
D02*
G37*
G36*
X761922Y689390D02*
X760180Y689161D01*
X757372Y687998D01*
X754962Y686148D01*
X753112Y683738D01*
X751949Y680930D01*
X751720Y679188D01*
X761922D01*
Y689390D01*
D02*
G37*
G36*
X723631Y686980D02*
X720270D01*
Y683619D01*
X720869Y683738D01*
X722453Y684797D01*
X723512Y686381D01*
X723631Y686980D01*
D02*
G37*
G36*
X717730D02*
X714369D01*
X714488Y686381D01*
X715547Y684797D01*
X717131Y683738D01*
X717730Y683619D01*
Y686980D01*
D02*
G37*
G36*
X711000Y674333D02*
X709342Y674003D01*
X707936Y673064D01*
X706997Y671658D01*
X706667Y670000D01*
X706997Y668342D01*
X707936Y666936D01*
X709342Y665997D01*
X711000Y665667D01*
X712658Y665997D01*
X714064Y666936D01*
X715003Y668342D01*
X715333Y670000D01*
X715003Y671658D01*
X714064Y673064D01*
X712658Y674003D01*
X711000Y674333D01*
D02*
G37*
G36*
X357631Y654730D02*
X354270D01*
Y651369D01*
X354869Y651488D01*
X356453Y652547D01*
X357512Y654131D01*
X357631Y654730D01*
D02*
G37*
G36*
X351730D02*
X348369D01*
X348488Y654131D01*
X349547Y652547D01*
X351131Y651488D01*
X351730Y651369D01*
Y654730D01*
D02*
G37*
G36*
X143146Y659930D02*
X131470D01*
Y652586D01*
X134700D01*
X136929Y652880D01*
X139007Y653740D01*
X140791Y655109D01*
X142160Y656893D01*
X143020Y658971D01*
X143146Y659930D01*
D02*
G37*
G36*
X128930D02*
X117254D01*
X117380Y658971D01*
X118240Y656893D01*
X119609Y655109D01*
X121393Y653740D01*
X123471Y652880D01*
X125700Y652586D01*
X128930D01*
Y659930D01*
D02*
G37*
G36*
X311631Y653730D02*
X308270D01*
Y650369D01*
X308869Y650488D01*
X310453Y651547D01*
X311512Y653131D01*
X311631Y653730D01*
D02*
G37*
G36*
X305730D02*
X302369D01*
X302488Y653131D01*
X303547Y651547D01*
X305131Y650488D01*
X305730Y650369D01*
Y653730D01*
D02*
G37*
G36*
X769462Y659373D02*
Y651188D01*
X777647D01*
X777486Y652408D01*
X776525Y654729D01*
X774996Y656722D01*
X773003Y658251D01*
X770683Y659212D01*
X769462Y659373D01*
D02*
G37*
G36*
X766922D02*
X765702Y659212D01*
X763381Y658251D01*
X761388Y656722D01*
X759859Y654729D01*
X758898Y652408D01*
X758737Y651188D01*
X766922D01*
Y659373D01*
D02*
G37*
G36*
X166930Y659930D02*
X155253D01*
X155380Y658971D01*
X156240Y656893D01*
X157609Y655109D01*
X159393Y653740D01*
X161471Y652880D01*
X163700Y652586D01*
X166930D01*
Y659930D01*
D02*
G37*
G36*
X134700Y669814D02*
X131470D01*
Y662470D01*
X143146D01*
X143020Y663429D01*
X142160Y665507D01*
X140791Y667291D01*
X139007Y668660D01*
X136929Y669520D01*
X134700Y669814D01*
D02*
G37*
G36*
X128930D02*
X125700D01*
X123471Y669520D01*
X121393Y668660D01*
X119609Y667291D01*
X118240Y665507D01*
X117380Y663429D01*
X117254Y662470D01*
X128930D01*
Y669814D01*
D02*
G37*
G36*
X172700D02*
X169470D01*
Y662470D01*
X181147D01*
X181020Y663429D01*
X180160Y665507D01*
X178791Y667291D01*
X177007Y668660D01*
X174929Y669520D01*
X172700Y669814D01*
D02*
G37*
G36*
X166930D02*
X163700D01*
X161471Y669520D01*
X159393Y668660D01*
X157609Y667291D01*
X156240Y665507D01*
X155380Y663429D01*
X155253Y662470D01*
X166930D01*
Y669814D01*
D02*
G37*
G36*
X390730Y656730D02*
X387369D01*
X387488Y656131D01*
X388547Y654547D01*
X390131Y653488D01*
X390730Y653369D01*
Y656730D01*
D02*
G37*
G36*
X181147Y659930D02*
X169470D01*
Y652586D01*
X172700D01*
X174929Y652880D01*
X177007Y653740D01*
X178791Y655109D01*
X180160Y656893D01*
X181020Y658971D01*
X181147Y659930D01*
D02*
G37*
G36*
X390730Y662631D02*
X390131Y662512D01*
X388547Y661453D01*
X387488Y659869D01*
X387369Y659270D01*
X390730D01*
Y662631D01*
D02*
G37*
G36*
X467500Y662833D02*
X465842Y662503D01*
X464436Y661564D01*
X463497Y660158D01*
X463167Y658500D01*
X463497Y656842D01*
X464436Y655436D01*
X465842Y654497D01*
X467500Y654167D01*
X469158Y654497D01*
X470564Y655436D01*
X471503Y656842D01*
X471833Y658500D01*
X471503Y660158D01*
X470564Y661564D01*
X469158Y662503D01*
X467500Y662833D01*
D02*
G37*
G36*
X661631Y693730D02*
X658270D01*
Y690369D01*
X658869Y690488D01*
X660453Y691547D01*
X661512Y693131D01*
X661631Y693730D01*
D02*
G37*
G36*
X279581Y731730D02*
X268370D01*
Y720519D01*
X270374Y720783D01*
X273424Y722046D01*
X276044Y724056D01*
X278054Y726676D01*
X279317Y729726D01*
X279581Y731730D01*
D02*
G37*
G36*
X374160Y731260D02*
X362949D01*
X363213Y729256D01*
X364476Y726206D01*
X366486Y723586D01*
X369106Y721576D01*
X372156Y720313D01*
X374160Y720049D01*
Y731260D01*
D02*
G37*
G36*
X828730Y744524D02*
X825582Y744214D01*
X821333Y742925D01*
X817417Y740832D01*
X813985Y738016D01*
X811168Y734583D01*
X809075Y730668D01*
X807786Y726419D01*
X807476Y723270D01*
X828730D01*
Y744524D01*
D02*
G37*
G36*
X138730D02*
X135581Y744214D01*
X131333Y742925D01*
X127417Y740832D01*
X123985Y738016D01*
X121168Y734583D01*
X119075Y730668D01*
X117786Y726419D01*
X117476Y723270D01*
X138730D01*
Y744524D01*
D02*
G37*
G36*
X504730Y711631D02*
X504131Y711512D01*
X502547Y710453D01*
X501488Y708869D01*
X501369Y708270D01*
X504730D01*
Y711631D01*
D02*
G37*
G36*
X755270Y707631D02*
Y704270D01*
X758631D01*
X758512Y704869D01*
X757453Y706453D01*
X755869Y707512D01*
X755270Y707631D01*
D02*
G37*
G36*
X512730Y711631D02*
X512131Y711512D01*
X510847Y710654D01*
X510000Y710532D01*
X509153Y710654D01*
X507869Y711512D01*
X507270Y711631D01*
Y707000D01*
Y702369D01*
X507869Y702488D01*
X509153Y703346D01*
X510000Y703468D01*
X510847Y703346D01*
X512131Y702488D01*
X512730Y702369D01*
Y707000D01*
Y711631D01*
D02*
G37*
G36*
X515270D02*
Y708270D01*
X518631D01*
X518512Y708869D01*
X517453Y710453D01*
X515869Y711512D01*
X515270Y711631D01*
D02*
G37*
G36*
X831270Y744524D02*
Y723270D01*
X852524D01*
X852214Y726419D01*
X850925Y730668D01*
X848832Y734583D01*
X846015Y738016D01*
X842583Y740832D01*
X838668Y742925D01*
X834419Y744214D01*
X831270Y744524D01*
D02*
G37*
G36*
X374160Y745011D02*
X372156Y744747D01*
X369106Y743484D01*
X366486Y741474D01*
X364476Y738854D01*
X363213Y735804D01*
X362949Y733800D01*
X374160D01*
Y745011D01*
D02*
G37*
G36*
X614442Y738730D02*
X607770D01*
Y732058D01*
X608599Y732167D01*
X610555Y732977D01*
X612234Y734266D01*
X613523Y735945D01*
X614333Y737901D01*
X614442Y738730D01*
D02*
G37*
G36*
X265830Y745481D02*
X263826Y745217D01*
X260776Y743954D01*
X258156Y741944D01*
X256146Y739324D01*
X254883Y736274D01*
X254768Y735403D01*
X253487D01*
X253391Y736133D01*
X252182Y739052D01*
X250259Y741559D01*
X247752Y743482D01*
X244833Y744691D01*
X241700Y745104D01*
X238567Y744691D01*
X235648Y743482D01*
X233141Y741559D01*
X231218Y739052D01*
X230009Y736133D01*
X229715Y733904D01*
X229640Y733335D01*
X228360D01*
X228284Y733904D01*
X227991Y736133D01*
X226782Y739052D01*
X224858Y741559D01*
X222352Y743482D01*
X219433Y744691D01*
X216300Y745104D01*
X213167Y744691D01*
X210248Y743482D01*
X207742Y741559D01*
X205818Y739052D01*
X204609Y736133D01*
X204315Y733904D01*
X204240Y733335D01*
X202960D01*
X202885Y733904D01*
X202591Y736133D01*
X201382Y739052D01*
X199459Y741559D01*
X196952Y743482D01*
X194033Y744691D01*
X190900Y745104D01*
X187767Y744691D01*
X184848Y743482D01*
X182341Y741559D01*
X180418Y739052D01*
X179209Y736133D01*
X178796Y733000D01*
X179209Y729867D01*
X180418Y726948D01*
X182341Y724442D01*
X184848Y722518D01*
X187767Y721309D01*
X190900Y720896D01*
X194033Y721309D01*
X196952Y722518D01*
X199459Y724442D01*
X201382Y726948D01*
X202591Y729867D01*
X202885Y732096D01*
X202960Y732665D01*
X204240D01*
X204315Y732096D01*
X204609Y729867D01*
X205818Y726948D01*
X207742Y724442D01*
X210248Y722518D01*
X213167Y721309D01*
X216300Y720896D01*
X219433Y721309D01*
X222352Y722518D01*
X224858Y724442D01*
X226782Y726948D01*
X227991Y729867D01*
X228284Y732096D01*
X228360Y732665D01*
X229640D01*
X229715Y732096D01*
X230009Y729867D01*
X231218Y726948D01*
X233141Y724442D01*
X235648Y722518D01*
X238567Y721309D01*
X241700Y720896D01*
X244833Y721309D01*
X247752Y722518D01*
X250259Y724442D01*
X252182Y726948D01*
X253391Y729867D01*
X253487Y730597D01*
X254768D01*
X254883Y729726D01*
X256146Y726676D01*
X258156Y724056D01*
X260776Y722046D01*
X263826Y720783D01*
X265830Y720519D01*
Y733000D01*
Y745481D01*
D02*
G37*
G36*
X268370D02*
Y734270D01*
X279581D01*
X279317Y736274D01*
X278054Y739324D01*
X276044Y741944D01*
X273424Y743954D01*
X270374Y745217D01*
X268370Y745481D01*
D02*
G37*
G36*
X605230Y738730D02*
X598558D01*
X598667Y737901D01*
X599477Y735945D01*
X600766Y734266D01*
X602445Y732977D01*
X604401Y732167D01*
X605230Y732058D01*
Y738730D01*
D02*
G37*
G36*
X141270Y744524D02*
Y723270D01*
X162524D01*
X162214Y726419D01*
X160925Y730668D01*
X158832Y734583D01*
X156015Y738016D01*
X152583Y740832D01*
X148667Y742925D01*
X144419Y744214D01*
X141270Y744524D01*
D02*
G37*
G36*
X685230Y738730D02*
X678558D01*
X678667Y737901D01*
X679477Y735945D01*
X680766Y734266D01*
X682445Y732977D01*
X684401Y732167D01*
X685230Y732058D01*
Y738730D01*
D02*
G37*
G36*
X694442D02*
X687770D01*
Y732058D01*
X688599Y732167D01*
X690555Y732977D01*
X692234Y734266D01*
X693523Y735945D01*
X694333Y737901D01*
X694442Y738730D01*
D02*
G37*
G36*
X752730Y707631D02*
X752131Y707512D01*
X750547Y706453D01*
X749488Y704869D01*
X749369Y704270D01*
X752730D01*
Y707631D01*
D02*
G37*
G36*
X658270Y699631D02*
Y696270D01*
X661631D01*
X661512Y696869D01*
X660453Y698453D01*
X658869Y699512D01*
X658270Y699631D01*
D02*
G37*
G36*
X647730D02*
X647131Y699512D01*
X645547Y698453D01*
X644488Y696869D01*
X644369Y696270D01*
X647730D01*
Y699631D01*
D02*
G37*
G36*
X758631Y701730D02*
X755270D01*
Y698369D01*
X755869Y698488D01*
X757453Y699547D01*
X758512Y701131D01*
X758631Y701730D01*
D02*
G37*
G36*
X752730D02*
X749369D01*
X749488Y701131D01*
X750547Y699547D01*
X752131Y698488D01*
X752730Y698369D01*
Y701730D01*
D02*
G37*
G36*
X570270Y698631D02*
Y695270D01*
X573631D01*
X573512Y695869D01*
X572453Y697453D01*
X570869Y698512D01*
X570270Y698631D01*
D02*
G37*
G36*
X567730D02*
X567131Y698512D01*
X565547Y697453D01*
X564488Y695869D01*
X564369Y695270D01*
X567730D01*
Y698631D01*
D02*
G37*
G36*
X359631Y698730D02*
X356270D01*
Y695369D01*
X356869Y695488D01*
X358453Y696547D01*
X359512Y698131D01*
X359631Y698730D01*
D02*
G37*
G36*
X353730D02*
X350369D01*
X350488Y698131D01*
X351547Y696547D01*
X353131Y695488D01*
X353730Y695369D01*
Y698730D01*
D02*
G37*
G36*
X655730Y699631D02*
X655131Y699512D01*
X653847Y698654D01*
X653000Y698532D01*
X652153Y698654D01*
X650869Y699512D01*
X650270Y699631D01*
Y695000D01*
Y690369D01*
X650869Y690488D01*
X652153Y691346D01*
X653000Y691468D01*
X653847Y691346D01*
X655131Y690488D01*
X655730Y690369D01*
Y695000D01*
Y699631D01*
D02*
G37*
G36*
X356270Y704631D02*
Y701270D01*
X359631D01*
X359512Y701869D01*
X358453Y703453D01*
X356869Y704512D01*
X356270Y704631D01*
D02*
G37*
G36*
X353730D02*
X353131Y704512D01*
X351547Y703453D01*
X350488Y701869D01*
X350369Y701270D01*
X353730D01*
Y704631D01*
D02*
G37*
G36*
X518631Y705730D02*
X515270D01*
Y702369D01*
X515869Y702488D01*
X517453Y703547D01*
X518512Y705131D01*
X518631Y705730D01*
D02*
G37*
G36*
X504730D02*
X501369D01*
X501488Y705131D01*
X502547Y703547D01*
X504131Y702488D01*
X504730Y702369D01*
Y705730D01*
D02*
G37*
G36*
X828730Y720730D02*
X807476D01*
X807786Y717582D01*
X809075Y713333D01*
X811168Y709417D01*
X813985Y705985D01*
X817417Y703168D01*
X821333Y701075D01*
X825582Y699786D01*
X828730Y699476D01*
Y720730D01*
D02*
G37*
G36*
X138730D02*
X117476D01*
X117786Y717582D01*
X119075Y713333D01*
X121168Y709417D01*
X123985Y705985D01*
X127417Y703168D01*
X131333Y701075D01*
X135581Y699786D01*
X138730Y699476D01*
Y720730D01*
D02*
G37*
G36*
X162524D02*
X141270D01*
Y699476D01*
X144419Y699786D01*
X148667Y701075D01*
X152583Y703168D01*
X156015Y705985D01*
X158832Y709417D01*
X160925Y713333D01*
X162214Y717582D01*
X162524Y720730D01*
D02*
G37*
G36*
X852524D02*
X831270D01*
Y699476D01*
X834419Y699786D01*
X838668Y701075D01*
X842583Y703168D01*
X846015Y705985D01*
X848832Y709417D01*
X850925Y713333D01*
X852214Y717582D01*
X852524Y720730D01*
D02*
G37*
G36*
X544270Y653631D02*
Y650270D01*
X547631D01*
X547512Y650869D01*
X546453Y652453D01*
X544869Y653512D01*
X544270Y653631D01*
D02*
G37*
G36*
X421270Y583631D02*
Y580270D01*
X424631D01*
X424512Y580869D01*
X423453Y582453D01*
X421869Y583512D01*
X421270Y583631D01*
D02*
G37*
G36*
X418730D02*
X418131Y583512D01*
X416547Y582453D01*
X415488Y580869D01*
X415369Y580270D01*
X418730D01*
Y583631D01*
D02*
G37*
G36*
X270730Y592730D02*
X267369D01*
X267488Y592131D01*
X268547Y590547D01*
X270131Y589488D01*
X270730Y589369D01*
Y592730D01*
D02*
G37*
G36*
X200000Y647118D02*
X195000D01*
X192659Y646652D01*
X190674Y645326D01*
X189348Y643341D01*
X188883Y641000D01*
X188883Y641000D01*
Y593000D01*
X189348Y590659D01*
X190674Y588674D01*
X192659Y587348D01*
X195000Y586883D01*
X200000D01*
X202341Y587348D01*
X204326Y588674D01*
X205652Y590659D01*
X206117Y593000D01*
X206117Y593000D01*
X206117Y593000D01*
Y641000D01*
X205652Y643341D01*
X204326Y645326D01*
X202341Y646652D01*
X202341D01*
X202341Y646652D01*
X200000Y647118D01*
D02*
G37*
G36*
X128930Y583414D02*
X125700D01*
X123471Y583120D01*
X121393Y582260D01*
X119609Y580891D01*
X118240Y579107D01*
X117380Y577029D01*
X117254Y576070D01*
X128930D01*
Y583414D01*
D02*
G37*
G36*
X424631Y577730D02*
X421270D01*
Y574369D01*
X421869Y574488D01*
X423453Y575547D01*
X424512Y577131D01*
X424631Y577730D01*
D02*
G37*
G36*
X166930Y583414D02*
X163700D01*
X161471Y583120D01*
X159393Y582260D01*
X157609Y580891D01*
X156240Y579107D01*
X155380Y577029D01*
X155253Y576070D01*
X166930D01*
Y583414D01*
D02*
G37*
G36*
X134700D02*
X131470D01*
Y576070D01*
X143146D01*
X143020Y577029D01*
X142160Y579107D01*
X140791Y580891D01*
X139007Y582260D01*
X136929Y583120D01*
X134700Y583414D01*
D02*
G37*
G36*
X276631Y592730D02*
X273270D01*
Y589369D01*
X273869Y589488D01*
X275453Y590547D01*
X276512Y592131D01*
X276631Y592730D01*
D02*
G37*
G36*
X562730Y599631D02*
X562131Y599512D01*
X560547Y598453D01*
X559488Y596869D01*
X559369Y596270D01*
X562730D01*
Y599631D01*
D02*
G37*
G36*
X845000Y603582D02*
X842520Y603256D01*
X840209Y602298D01*
X838225Y600775D01*
X836702Y598791D01*
X835745Y596480D01*
X835640Y595690D01*
X834360D01*
X834256Y596480D01*
X833298Y598791D01*
X831776Y600775D01*
X829791Y602298D01*
X827480Y603256D01*
X825000Y603582D01*
X822520Y603256D01*
X820209Y602298D01*
X818225Y600775D01*
X816702Y598791D01*
X815745Y596480D01*
X815640Y595690D01*
X814360D01*
X814256Y596480D01*
X813298Y598791D01*
X811776Y600775D01*
X809791Y602298D01*
X807480Y603256D01*
X805000Y603582D01*
X802520Y603256D01*
X800209Y602298D01*
X798225Y600775D01*
X796702Y598791D01*
X795745Y596480D01*
X795418Y594000D01*
X795745Y591520D01*
X796702Y589209D01*
X798225Y587225D01*
X800209Y585702D01*
X802520Y584745D01*
X805000Y584418D01*
X807480Y584745D01*
X809791Y585702D01*
X811776Y587225D01*
X813298Y589209D01*
X814256Y591520D01*
X814360Y592310D01*
X815640D01*
X815745Y591520D01*
X816702Y589209D01*
X818225Y587225D01*
X820209Y585702D01*
X822520Y584745D01*
X825000Y584418D01*
X827480Y584745D01*
X829791Y585702D01*
X831776Y587225D01*
X833298Y589209D01*
X834256Y591520D01*
X834360Y592310D01*
X835640D01*
X835745Y591520D01*
X836702Y589209D01*
X838225Y587225D01*
X840209Y585702D01*
X842520Y584745D01*
X845000Y584418D01*
X847480Y584745D01*
X849791Y585702D01*
X851776Y587225D01*
X853298Y589209D01*
X854256Y591520D01*
X854582Y594000D01*
X854256Y596480D01*
X853298Y598791D01*
X851776Y600775D01*
X849791Y602298D01*
X847480Y603256D01*
X845000Y603582D01*
D02*
G37*
G36*
X712730Y604230D02*
X709369D01*
X709488Y603631D01*
X710547Y602047D01*
X712131Y600988D01*
X712730Y600869D01*
Y604230D01*
D02*
G37*
G36*
X565270Y599631D02*
Y596270D01*
X568631D01*
X568512Y596869D01*
X567453Y598453D01*
X565869Y599512D01*
X565270Y599631D01*
D02*
G37*
G36*
X568631Y593730D02*
X565270D01*
Y590369D01*
X565869Y590488D01*
X567453Y591547D01*
X568512Y593131D01*
X568631Y593730D01*
D02*
G37*
G36*
X562730D02*
X559369D01*
X559488Y593131D01*
X560547Y591547D01*
X562131Y590488D01*
X562730Y590369D01*
Y593730D01*
D02*
G37*
G36*
X273270Y598631D02*
Y595270D01*
X276631D01*
X276512Y595869D01*
X275453Y597453D01*
X273869Y598512D01*
X273270Y598631D01*
D02*
G37*
G36*
X270730D02*
X270131Y598512D01*
X268547Y597453D01*
X267488Y595869D01*
X267369Y595270D01*
X270730D01*
Y598631D01*
D02*
G37*
G36*
X418730Y577730D02*
X415369D01*
X415488Y577131D01*
X416547Y575547D01*
X418131Y574488D01*
X418730Y574369D01*
Y577730D01*
D02*
G37*
G36*
X453000Y573333D02*
X451342Y573003D01*
X449936Y572064D01*
X448997Y570658D01*
X448667Y569000D01*
X448997Y567342D01*
X449936Y565936D01*
X451342Y564997D01*
X453000Y564667D01*
X454658Y564997D01*
X456064Y565936D01*
X457003Y567342D01*
X457333Y569000D01*
X457003Y570658D01*
X456064Y572064D01*
X454658Y573003D01*
X453000Y573333D01*
D02*
G37*
G36*
X841500Y572926D02*
X840270D01*
Y564070D01*
X851459D01*
X851281Y565421D01*
X850270Y567863D01*
X848660Y569961D01*
X846563Y571570D01*
X844121Y572581D01*
X841500Y572926D01*
D02*
G37*
G36*
X128930Y573530D02*
X117254D01*
X117380Y572571D01*
X118240Y570493D01*
X119609Y568709D01*
X121393Y567340D01*
X123471Y566480D01*
X125700Y566186D01*
X128930D01*
Y573530D01*
D02*
G37*
G36*
X837730Y572926D02*
X836500D01*
X833879Y572581D01*
X831436Y571570D01*
X829339Y569961D01*
X827730Y567863D01*
X826987Y566070D01*
X825612D01*
X824870Y567863D01*
X823260Y569961D01*
X821163Y571570D01*
X818721Y572581D01*
X816100Y572926D01*
X814870D01*
Y562800D01*
Y552673D01*
X816100D01*
X818721Y553018D01*
X821163Y554030D01*
X823260Y555639D01*
X824870Y557737D01*
X825612Y559530D01*
X826987D01*
X827730Y557737D01*
X829339Y555639D01*
X831436Y554030D01*
X833879Y553018D01*
X836500Y552673D01*
X837730D01*
Y562800D01*
Y572926D01*
D02*
G37*
G36*
X376631Y564730D02*
X373270D01*
Y561369D01*
X373869Y561488D01*
X375453Y562547D01*
X376512Y564131D01*
X376631Y564730D01*
D02*
G37*
G36*
X370730D02*
X367369D01*
X367488Y564131D01*
X368547Y562547D01*
X370131Y561488D01*
X370730Y561369D01*
Y564730D01*
D02*
G37*
G36*
X812330Y572926D02*
X811100D01*
X808479Y572581D01*
X806037Y571570D01*
X803939Y569961D01*
X802330Y567863D01*
X801318Y565421D01*
X801140Y564070D01*
X812330D01*
Y572926D01*
D02*
G37*
G36*
X605000Y571333D02*
X603342Y571003D01*
X601936Y570064D01*
X600997Y568658D01*
X600667Y567000D01*
X600997Y565342D01*
X601936Y563936D01*
X603342Y562997D01*
X605000Y562667D01*
X606658Y562997D01*
X608064Y563936D01*
X609003Y565342D01*
X609333Y567000D01*
X609003Y568658D01*
X608064Y570064D01*
X606658Y571003D01*
X605000Y571333D01*
D02*
G37*
G36*
X143146Y573530D02*
X131470D01*
Y566186D01*
X134700D01*
X136929Y566480D01*
X139007Y567340D01*
X140791Y568709D01*
X142160Y570493D01*
X143020Y572571D01*
X143146Y573530D01*
D02*
G37*
G36*
X373270Y570631D02*
Y567270D01*
X376631D01*
X376512Y567869D01*
X375453Y569453D01*
X373869Y570512D01*
X373270Y570631D01*
D02*
G37*
G36*
X459000Y582333D02*
X457342Y582003D01*
X455936Y581064D01*
X454997Y579658D01*
X454667Y578000D01*
X454997Y576342D01*
X455936Y574936D01*
X457342Y573997D01*
X459000Y573667D01*
X460658Y573997D01*
X462064Y574936D01*
X463003Y576342D01*
X463333Y578000D01*
X463003Y579658D01*
X462064Y581064D01*
X460658Y582003D01*
X459000Y582333D01*
D02*
G37*
G36*
X534730Y569631D02*
X534131Y569512D01*
X532547Y568453D01*
X531488Y566869D01*
X531369Y566270D01*
X534730D01*
Y569631D01*
D02*
G37*
G36*
X166930Y573530D02*
X155253D01*
X155380Y572571D01*
X156240Y570493D01*
X157609Y568709D01*
X159393Y567340D01*
X161471Y566480D01*
X163700Y566186D01*
X166930D01*
Y573530D01*
D02*
G37*
G36*
X370730Y570631D02*
X370131Y570512D01*
X368547Y569453D01*
X367488Y567869D01*
X367369Y567270D01*
X370730D01*
Y570631D01*
D02*
G37*
G36*
X537270Y569631D02*
Y566270D01*
X540631D01*
X540512Y566869D01*
X539453Y568453D01*
X537869Y569512D01*
X537270Y569631D01*
D02*
G37*
G36*
X718631Y604230D02*
X715270D01*
Y600869D01*
X715869Y600988D01*
X717453Y602047D01*
X718512Y603631D01*
X718631Y604230D01*
D02*
G37*
G36*
X667000Y647333D02*
X665342Y647003D01*
X663936Y646064D01*
X662997Y644658D01*
X662667Y643000D01*
X662997Y641342D01*
X663936Y639936D01*
X665342Y638997D01*
X667000Y638667D01*
X668658Y638997D01*
X670064Y639936D01*
X671003Y641342D01*
X671333Y643000D01*
X671003Y644658D01*
X670064Y646064D01*
X668658Y647003D01*
X667000Y647333D01*
D02*
G37*
G36*
X701631Y641730D02*
X698270D01*
Y638369D01*
X698869Y638488D01*
X700453Y639547D01*
X701512Y641131D01*
X701631Y641730D01*
D02*
G37*
G36*
X766922Y648648D02*
X758737D01*
X758898Y647428D01*
X759859Y645107D01*
X761388Y643114D01*
X763381Y641585D01*
X765702Y640624D01*
X766922Y640463D01*
Y648648D01*
D02*
G37*
G36*
X678250Y647583D02*
X676592Y647253D01*
X675186Y646314D01*
X674247Y644908D01*
X673917Y643250D01*
X674247Y641592D01*
X675186Y640186D01*
X676592Y639247D01*
X678250Y638917D01*
X679908Y639247D01*
X681314Y640186D01*
X682253Y641592D01*
X682583Y643250D01*
X682253Y644908D01*
X681314Y646314D01*
X679908Y647253D01*
X678250Y647583D01*
D02*
G37*
G36*
X145270Y630631D02*
Y627270D01*
X148631D01*
X148512Y627869D01*
X147453Y629453D01*
X145869Y630512D01*
X145270Y630631D01*
D02*
G37*
G36*
X142730D02*
X142131Y630512D01*
X140547Y629453D01*
X139488Y627869D01*
X139369Y627270D01*
X142730D01*
Y630631D01*
D02*
G37*
G36*
X695730Y641730D02*
X692369D01*
X692488Y641131D01*
X693547Y639547D01*
X695131Y638488D01*
X695730Y638369D01*
Y641730D01*
D02*
G37*
G36*
X657000Y646333D02*
X655342Y646003D01*
X653936Y645064D01*
X652997Y643658D01*
X652667Y642000D01*
X652997Y640342D01*
X653936Y638936D01*
X655342Y637997D01*
X657000Y637667D01*
X658658Y637997D01*
X660064Y638936D01*
X661003Y640342D01*
X661333Y642000D01*
X661003Y643658D01*
X660064Y645064D01*
X658658Y646003D01*
X657000Y646333D01*
D02*
G37*
G36*
X777647Y648648D02*
X769462D01*
Y640463D01*
X770683Y640624D01*
X773003Y641585D01*
X774996Y643114D01*
X776525Y645107D01*
X777486Y647428D01*
X777647Y648648D01*
D02*
G37*
G36*
X624270Y647631D02*
Y644270D01*
X627631D01*
X627512Y644869D01*
X626453Y646454D01*
X624869Y647512D01*
X624270Y647631D01*
D02*
G37*
G36*
X621730D02*
X621131Y647512D01*
X619546Y646454D01*
X618488Y644869D01*
X618369Y644270D01*
X621730D01*
Y647631D01*
D02*
G37*
G36*
X541730Y653631D02*
X541131Y653512D01*
X539547Y652453D01*
X538488Y650869D01*
X538369Y650270D01*
X541730D01*
Y653631D01*
D02*
G37*
G36*
X528000Y658333D02*
X526342Y658003D01*
X524936Y657064D01*
X523997Y655658D01*
X523667Y654000D01*
X523997Y652342D01*
X524936Y650936D01*
X526342Y649997D01*
X528000Y649667D01*
X529658Y649997D01*
X531064Y650936D01*
X532003Y652342D01*
X532333Y654000D01*
X532003Y655658D01*
X531064Y657064D01*
X529658Y658003D01*
X528000Y658333D01*
D02*
G37*
G36*
X808192Y658996D02*
X805843Y658686D01*
X803653Y657779D01*
X801773Y656337D01*
X800331Y654457D01*
X799424Y652268D01*
X799114Y649918D01*
X799424Y647569D01*
X800331Y645379D01*
X801773Y643499D01*
X803653Y642057D01*
X805843Y641150D01*
X808192Y640840D01*
X810542Y641150D01*
X812731Y642057D01*
X814611Y643499D01*
X816053Y645379D01*
X816960Y647569D01*
X817270Y649918D01*
X816960Y652268D01*
X816053Y654457D01*
X814611Y656337D01*
X812731Y657779D01*
X810542Y658686D01*
X808192Y658996D01*
D02*
G37*
G36*
X788192D02*
X785843Y658686D01*
X783653Y657779D01*
X781773Y656337D01*
X780331Y654457D01*
X779424Y652268D01*
X779114Y649918D01*
X779424Y647569D01*
X780331Y645379D01*
X781773Y643499D01*
X783653Y642057D01*
X785843Y641150D01*
X788192Y640840D01*
X790542Y641150D01*
X792731Y642057D01*
X794611Y643499D01*
X796053Y645379D01*
X796960Y647569D01*
X797270Y649918D01*
X796960Y652268D01*
X796053Y654457D01*
X794611Y656337D01*
X792731Y657779D01*
X790542Y658686D01*
X788192Y658996D01*
D02*
G37*
G36*
X698270Y647631D02*
Y644270D01*
X701631D01*
X701512Y644869D01*
X700453Y646453D01*
X698869Y647512D01*
X698270Y647631D01*
D02*
G37*
G36*
X695730D02*
X695131Y647512D01*
X693547Y646453D01*
X692488Y644869D01*
X692369Y644270D01*
X695730D01*
Y647631D01*
D02*
G37*
G36*
X834462Y633390D02*
Y623188D01*
X844664D01*
X844435Y624931D01*
X843272Y627738D01*
X841422Y630148D01*
X839012Y631998D01*
X836205Y633161D01*
X834462Y633390D01*
D02*
G37*
G36*
X831922Y620648D02*
X821720D01*
X821949Y618905D01*
X823112Y616098D01*
X824962Y613688D01*
X827372Y611838D01*
X830180Y610675D01*
X831922Y610446D01*
Y620648D01*
D02*
G37*
G36*
X166000Y617333D02*
X164342Y617003D01*
X162936Y616064D01*
X161997Y614658D01*
X161667Y613000D01*
X161997Y611342D01*
X162936Y609936D01*
X164342Y608997D01*
X166000Y608667D01*
X167658Y608997D01*
X169064Y609936D01*
X170003Y611342D01*
X170333Y613000D01*
X170003Y614658D01*
X169064Y616064D01*
X167658Y617003D01*
X166000Y617333D01*
D02*
G37*
G36*
X774664Y620648D02*
X764462D01*
Y610446D01*
X766205Y610675D01*
X769012Y611838D01*
X771422Y613688D01*
X773272Y616098D01*
X774435Y618905D01*
X774664Y620648D01*
D02*
G37*
G36*
X761922D02*
X751720D01*
X751949Y618905D01*
X753112Y616098D01*
X754962Y613688D01*
X757372Y611838D01*
X760180Y610675D01*
X761922Y610446D01*
Y620648D01*
D02*
G37*
G36*
X727000Y614333D02*
X725342Y614003D01*
X723936Y613064D01*
X722997Y611658D01*
X722667Y610000D01*
X722997Y608342D01*
X723936Y606936D01*
X725342Y605997D01*
X727000Y605667D01*
X728658Y605997D01*
X730064Y606936D01*
X731003Y608342D01*
X731333Y610000D01*
X731003Y611658D01*
X730064Y613064D01*
X728658Y614003D01*
X727000Y614333D01*
D02*
G37*
G36*
X576730Y605730D02*
X573369D01*
X573488Y605131D01*
X574547Y603547D01*
X576131Y602488D01*
X576730Y602369D01*
Y605730D01*
D02*
G37*
G36*
X715270Y610131D02*
Y606770D01*
X718631D01*
X718512Y607369D01*
X717453Y608953D01*
X715869Y610012D01*
X715270Y610131D01*
D02*
G37*
G36*
X712730D02*
X712131Y610012D01*
X710547Y608953D01*
X709488Y607369D01*
X709369Y606770D01*
X712730D01*
Y610131D01*
D02*
G37*
G36*
X844664Y620648D02*
X834462D01*
Y610446D01*
X836205Y610675D01*
X839012Y611838D01*
X841422Y613688D01*
X843272Y616098D01*
X844435Y618905D01*
X844664Y620648D01*
D02*
G37*
G36*
X148631Y624730D02*
X139369D01*
X139488Y624131D01*
X140346Y622847D01*
X140468Y622000D01*
X140346Y621153D01*
X139488Y619869D01*
X139369Y619270D01*
X148631D01*
X148512Y619869D01*
X147654Y621153D01*
X147532Y622000D01*
X147654Y622847D01*
X148512Y624131D01*
X148631Y624730D01*
D02*
G37*
G36*
X166000Y627333D02*
X164342Y627003D01*
X162936Y626064D01*
X161997Y624658D01*
X161667Y623000D01*
X161997Y621342D01*
X162936Y619936D01*
X164342Y618997D01*
X166000Y618667D01*
X167658Y618997D01*
X169064Y619936D01*
X170003Y621342D01*
X170333Y623000D01*
X170003Y624658D01*
X169064Y626064D01*
X167658Y627003D01*
X166000Y627333D01*
D02*
G37*
G36*
X764462Y633390D02*
Y623188D01*
X774664D01*
X774435Y624931D01*
X773272Y627738D01*
X771422Y630148D01*
X769012Y631998D01*
X766205Y633161D01*
X764462Y633390D01*
D02*
G37*
G36*
X761922D02*
X760180Y633161D01*
X757372Y631998D01*
X754962Y630148D01*
X753112Y627738D01*
X751949Y624931D01*
X751720Y623188D01*
X761922D01*
Y633390D01*
D02*
G37*
G36*
X148631Y616730D02*
X145270D01*
Y613369D01*
X145869Y613488D01*
X147453Y614547D01*
X148512Y616131D01*
X148631Y616730D01*
D02*
G37*
G36*
X142730D02*
X139369D01*
X139488Y616131D01*
X140547Y614547D01*
X142131Y613488D01*
X142730Y613369D01*
Y616730D01*
D02*
G37*
G36*
X377270Y621631D02*
Y618269D01*
X380631D01*
X380512Y618868D01*
X379453Y620453D01*
X377868Y621511D01*
X377270Y621631D01*
D02*
G37*
G36*
X374729D02*
X374131Y621511D01*
X372546Y620453D01*
X371487Y618868D01*
X371249Y617670D01*
X369000Y618117D01*
X353000D01*
X350659Y617652D01*
X348674Y616326D01*
X347348Y614341D01*
X346883Y612000D01*
Y602000D01*
X347348Y599659D01*
X348674Y597674D01*
X350659Y596348D01*
X353000Y595882D01*
X376466D01*
X391883Y580466D01*
Y503000D01*
Y499000D01*
X392348Y496659D01*
X393674Y494674D01*
X408674Y479674D01*
X410659Y478348D01*
X413000Y477882D01*
X505754D01*
X506437Y476612D01*
X506369Y476270D01*
X515631D01*
X515563Y476612D01*
X516246Y477882D01*
X568000D01*
X570341Y478348D01*
X572326Y479674D01*
X575326Y482674D01*
X576652Y484659D01*
X577118Y487000D01*
Y488000D01*
X576652Y490341D01*
X575326Y492326D01*
X573341Y493652D01*
X571000Y494118D01*
X415534D01*
X404118Y505534D01*
Y583000D01*
X403652Y585341D01*
X402326Y587326D01*
X383326Y606326D01*
X378279Y611373D01*
X378523Y612925D01*
X379453Y613546D01*
X380512Y615130D01*
X380631Y615729D01*
X375999D01*
Y616999D01*
X374729D01*
Y621631D01*
D02*
G37*
%LPD*%
D38*
X748325Y530675D02*
X762675D01*
X524000Y549000D02*
Y605000D01*
X336000Y369000D02*
X344000D01*
X349000Y364000D01*
X238000Y421000D02*
X257000Y440000D01*
X277000D01*
X195000D02*
Y486000D01*
Y440000D02*
X214000Y421000D01*
X238000D01*
D39*
X554000Y488000D02*
X571000D01*
Y487000D02*
Y488000D01*
X351000Y398000D02*
Y458000D01*
X344000Y465000D02*
X351000Y458000D01*
Y469000D01*
X167000Y543000D02*
Y551000D01*
Y502333D02*
Y543000D01*
X159000Y551000D02*
X167000Y543000D01*
X826000Y640726D02*
Y651000D01*
X775274Y590000D02*
X826000Y640726D01*
X768000Y590000D02*
X775274D01*
X464000Y635000D02*
X544000D01*
X353000Y602000D02*
X379000D01*
X353000Y607000D02*
X372000D01*
X353000Y612000D02*
X369000D01*
X379000Y602000D02*
X398000Y583000D01*
X369000Y612000D02*
X379000Y602000D01*
X353000D02*
Y607000D01*
Y612000D01*
X250540Y575890D02*
X260890D01*
X257000Y579781D02*
X260890Y575890D01*
X257000Y579781D02*
Y655000D01*
X344000Y570000D02*
X345000D01*
X351000Y576000D01*
X344000Y570000D02*
Y576000D01*
X347350Y674350D02*
X362110D01*
X370110D01*
X260890Y575890D02*
X344000Y576000D01*
X257000Y665000D02*
X258540Y666540D01*
X268540D01*
X257000Y655000D02*
X268540Y666540D01*
X257000Y655000D02*
Y665000D01*
X268540Y666540D02*
X362300D01*
X398000Y499000D02*
X413000Y484000D01*
X797000Y385000D02*
X813600D01*
X440000Y648000D02*
X448000D01*
X451000D01*
X362300Y666540D02*
X370110Y674350D01*
X344000Y576000D02*
X351000D01*
X776250Y405750D02*
X797000Y385000D01*
X775274Y590000D02*
X776250Y589024D01*
Y405750D02*
Y589024D01*
X708333Y590000D02*
X768000D01*
X685281Y597000D02*
X701333D01*
X708333Y590000D01*
X359000Y406000D02*
Y461000D01*
X351000Y398000D02*
X359000Y406000D01*
X344000Y476000D02*
X351000Y469000D01*
X359000Y461000D01*
X344000Y465000D02*
Y476000D01*
Y570000D01*
X351000Y469000D02*
Y576000D01*
X398000Y503000D02*
X413000Y488000D01*
X398000Y499000D02*
Y503000D01*
Y583000D01*
X413000Y484000D02*
X416000D01*
X422000D01*
X428000D01*
X649011Y633270D02*
X685281Y597000D01*
X564730Y633270D02*
X649011D01*
X560000Y638000D02*
X564730Y633270D01*
X451000Y648000D02*
X464000Y635000D01*
X544000D02*
X547000Y638000D01*
X560000D01*
X453000Y635000D02*
X464000D01*
X440000Y648000D02*
X453000Y635000D01*
X568000Y484000D02*
X571000Y487000D01*
X413000Y488000D02*
X554000D01*
X428000Y484000D02*
X568000D01*
X219000Y434000D02*
X243000Y458000D01*
X271000D01*
X200000Y593000D02*
Y641000D01*
X346000Y673000D02*
X347350Y674350D01*
X265000Y673000D02*
X346000D01*
X258540Y666540D02*
X265000Y673000D01*
X250540Y666540D02*
X257000Y673000D01*
X265000D01*
X207790Y490210D02*
X240000Y458000D01*
X243000D01*
X200000Y641000D02*
X200000Y641000D01*
X195000Y641000D02*
X195000D01*
X200000D01*
X250540Y574460D02*
Y575890D01*
Y574460D02*
X255000Y570000D01*
X344000D01*
X200400Y532600D02*
X207000D01*
X185000Y548000D02*
X200400Y532600D01*
X185000Y548000D02*
Y568000D01*
X195000Y578000D01*
X250540D01*
Y575890D02*
Y578000D01*
X207790Y490210D02*
Y507740D01*
X195000Y593000D02*
Y641000D01*
Y593000D02*
X200000D01*
X250540Y666540D02*
X258540D01*
X250540Y581000D02*
Y666540D01*
X232400Y532600D02*
X278400D01*
X296000Y515000D01*
Y413000D02*
Y515000D01*
X159000Y551000D02*
X167000D01*
Y502333D02*
X188000Y481333D01*
X237000Y354000D02*
X296000Y413000D01*
X188000Y403000D02*
Y481333D01*
Y403000D02*
X217000Y374000D01*
Y334000D02*
Y374000D01*
X237000Y333000D02*
Y354000D01*
D41*
X701000Y571000D02*
X762000D01*
X560000Y626000D02*
X646000D01*
X701000Y571000D01*
X558000Y628000D02*
X560000Y626000D01*
D43*
X505000Y618000D02*
X642000D01*
X735000Y540000D02*
X739000D01*
X644000D02*
X735000D01*
X748000Y526000D02*
Y531000D01*
X739000Y540000D02*
X748000Y531000D01*
X497000Y597000D02*
Y605000D01*
X423000Y600000D02*
X427000Y596000D01*
X420000Y603000D02*
X423000Y600000D01*
X583000Y391000D02*
X588000D01*
X373000D02*
X583000D01*
X704500Y426500D02*
X743000Y465000D01*
X615250Y418250D02*
X716000D01*
X701750Y423750D02*
X704500Y426500D01*
X699000Y421000D02*
X701750Y423750D01*
X615750D02*
X701750D01*
X583000Y391000D02*
X615750Y423750D01*
X713000Y428000D02*
X748000Y463000D01*
X760700Y352300D02*
X806300D01*
X716000Y418250D02*
X760700Y373550D01*
Y352300D02*
Y373550D01*
X766110Y353000D02*
Y374890D01*
X590000Y543000D02*
Y604000D01*
X422000Y505000D02*
Y511000D01*
X558000D02*
X564000Y517000D01*
X584000Y598000D02*
X590000Y604000D01*
X556000Y517000D02*
X564000D01*
X556000D02*
X584000Y545000D01*
Y598000D01*
Y545000D02*
X588000D01*
X498000Y605000D02*
X507000Y614000D01*
X760700Y319000D02*
Y352300D01*
X806300D02*
X839000Y385000D01*
X627000Y557000D02*
Y587000D01*
X627000Y587000D01*
X507000Y614000D02*
X507250Y614250D01*
X552000Y505000D02*
X558000Y511000D01*
X423000Y517000D02*
X556000D01*
X497000Y605000D02*
X498000D01*
X494000D02*
X497000D01*
X494000Y600000D02*
X497000Y597000D01*
X492000Y600000D02*
X494000D01*
X511000Y544000D02*
Y581000D01*
X501000Y614000D02*
X507000D01*
X627000Y557000D02*
X644000Y540000D01*
X511000Y544000D02*
X524000Y531000D01*
X627000Y587000D02*
Y591000D01*
Y597998D01*
X507250Y614250D02*
X603750D01*
X609250D01*
X622000Y555000D02*
Y596000D01*
Y555000D02*
X642000Y535000D01*
X622000Y596000D02*
X627000Y591000D01*
X642000Y535000D02*
X736000D01*
X743000Y528000D01*
X745000Y526000D01*
X743000Y459000D02*
Y465000D01*
Y528000D01*
X349000Y334000D02*
X362000Y321000D01*
X627000Y597998D02*
X644002Y615000D01*
X619000Y613000D02*
Y615000D01*
X610000D02*
X619000D01*
X644002D01*
X619000Y613000D02*
X622000Y610000D01*
X628000Y604000D01*
X630000Y606000D02*
Y610000D01*
X622000D02*
X630000D01*
X637000D01*
X400830Y633170D02*
Y732530D01*
Y622170D02*
Y633170D01*
X402000Y626000D02*
X425000Y603000D01*
X400830Y622170D02*
X420000Y603000D01*
X745000Y526000D02*
X748000D01*
Y463000D02*
Y526000D01*
X588000Y391000D02*
X615250Y418250D01*
X720000Y421000D02*
X766110Y374890D01*
X713000Y428000D02*
X720000Y421000D01*
X704500Y426500D02*
X711500D01*
X699000Y421000D02*
X720000D01*
X609999Y614999D02*
X627000Y597998D01*
X609250Y614250D02*
X609999Y614999D01*
X610000Y615000D01*
X642000Y618000D02*
X645000Y615000D01*
X644002D02*
X645000D01*
X422000Y516000D02*
X423000Y517000D01*
X422000Y511000D02*
Y516000D01*
X428000Y505000D02*
Y511000D01*
X422000D02*
X428000D01*
X511000D01*
X558000D01*
X422000Y505000D02*
X428000D01*
X552000D01*
X400830Y633170D02*
X431000Y603000D01*
X431500Y602500D01*
X420000Y603000D02*
X425000D01*
X431000D01*
X489000D02*
X489500Y602500D01*
X492000Y600000D01*
X501000Y614000D02*
X505000Y618000D01*
X488000Y601000D02*
X489500Y602500D01*
X501000Y614000D01*
X431000Y603000D02*
X489000D01*
X603750Y614250D02*
X622000Y596000D01*
X570000Y523000D02*
X590000Y543000D01*
X564000Y517000D02*
X570000Y523000D01*
X605000Y413000D02*
X610000D01*
X615250Y418250D01*
X696250D02*
X699000Y421000D01*
X349000Y367000D02*
X373000Y391000D01*
X349000Y334000D02*
Y364000D01*
Y367000D01*
X488000Y596000D02*
X492000Y600000D01*
X488000Y596000D02*
X496000D01*
X492000Y600000D02*
X496000Y596000D01*
X511000Y581000D01*
X427000Y596000D02*
X488000D01*
X423000Y600000D02*
X492000D01*
D48*
X708000Y550000D02*
D03*
D59*
X140000Y332000D02*
D03*
X830000D02*
D03*
X140000Y722000D02*
D03*
X830000D02*
D03*
D61*
X813600Y385000D02*
D03*
Y562800D02*
D03*
X839000D02*
D03*
Y385000D02*
D03*
D62*
X362000Y321000D02*
D03*
X666800D02*
D03*
Y346400D02*
D03*
D63*
X375430Y732530D02*
D03*
X400830D02*
D03*
X267100Y733000D02*
D03*
X760700Y319000D02*
D03*
X786100D02*
D03*
X207000Y507200D02*
D03*
X232400D02*
D03*
Y532600D02*
D03*
X207000D02*
D03*
D64*
X833192Y677918D02*
D03*
Y621918D02*
D03*
X763192Y677918D02*
D03*
Y621918D02*
D03*
D65*
X828192Y649918D02*
D03*
X768192D02*
D03*
D66*
X126620Y389630D02*
D03*
Y476030D02*
D03*
D67*
X168420Y389630D02*
D03*
Y476030D02*
D03*
D68*
X163420Y403930D02*
D03*
Y461730D02*
D03*
D69*
X686500Y740000D02*
D03*
X606500D02*
D03*
D70*
X130200Y661200D02*
D03*
X168200Y574800D02*
D03*
X130200D02*
D03*
X168200Y661200D02*
D03*
D71*
X328000Y514000D02*
D03*
X571000Y488000D02*
D03*
X237000Y341000D02*
D03*
X217000D02*
D03*
X708000Y550000D02*
D03*
X735000Y540000D02*
D03*
X762675Y530675D02*
D03*
X218000Y454000D02*
D03*
X240000Y381000D02*
D03*
X536000Y565000D02*
D03*
X564000Y553000D02*
D03*
Y595000D02*
D03*
X457000Y599000D02*
D03*
X463000D02*
D03*
X451000D02*
D03*
X353000Y607000D02*
D03*
Y602000D02*
D03*
Y612000D02*
D03*
X543000Y649000D02*
D03*
X351000Y398000D02*
D03*
X709000Y433110D02*
D03*
X402000Y444000D02*
D03*
X410000D02*
D03*
X420000Y579000D02*
D03*
X506000Y707000D02*
D03*
X514000D02*
D03*
X714000Y605500D02*
D03*
X646000Y524000D02*
D03*
X574000Y426000D02*
D03*
X582000D02*
D03*
X736000Y423000D02*
D03*
X744000D02*
D03*
X657000Y695000D02*
D03*
X649000D02*
D03*
X362110Y674350D02*
D03*
X370110D02*
D03*
X344000Y576000D02*
D03*
X590000Y604000D02*
D03*
X422000Y511000D02*
D03*
Y505000D02*
D03*
X578000Y607000D02*
D03*
X768000Y590000D02*
D03*
X440000Y648000D02*
D03*
X448000D02*
D03*
X762000Y571000D02*
D03*
X351000Y576000D02*
D03*
X511000Y504000D02*
D03*
Y511000D02*
D03*
Y518000D02*
D03*
X428000Y484000D02*
D03*
X422000D02*
D03*
X416000D02*
D03*
X750000Y505000D02*
D03*
X524000Y549000D02*
D03*
Y605000D02*
D03*
X644000Y540000D02*
D03*
X524000Y531000D02*
D03*
X623000Y643000D02*
D03*
X609999Y614999D02*
D03*
X645000Y615000D02*
D03*
X719000Y688250D02*
D03*
X569000Y694000D02*
D03*
X144000Y626000D02*
D03*
Y618000D02*
D03*
X147000Y435000D02*
D03*
Y427000D02*
D03*
X428000Y505000D02*
D03*
Y511000D02*
D03*
X558000Y628000D02*
D03*
X754000Y703000D02*
D03*
X766000Y519000D02*
D03*
X554000Y488000D02*
D03*
X554000Y483000D02*
D03*
X570000Y526000D02*
D03*
X219000Y434000D02*
D03*
X195000Y486000D02*
D03*
X277000Y440000D02*
D03*
X271000Y458000D02*
D03*
X347000D02*
D03*
X336000Y369000D02*
D03*
X335000Y312000D02*
D03*
X511000Y475000D02*
D03*
X605000Y413000D02*
D03*
X265000Y673000D02*
D03*
X257000D02*
D03*
X261000Y569000D02*
D03*
X272000Y594000D02*
D03*
X355000Y700000D02*
D03*
X375999Y616999D02*
D03*
X293000Y361000D02*
D03*
X285000D02*
D03*
X200000Y641000D02*
D03*
X195000Y641000D02*
D03*
X299000Y554000D02*
D03*
X307000Y655000D02*
D03*
X392000Y658000D02*
D03*
X372000Y566000D02*
D03*
X220000Y390000D02*
D03*
X697000Y643000D02*
D03*
X353000Y656000D02*
D03*
X240000Y439000D02*
D03*
X630650Y389350D02*
D03*
X195000Y593000D02*
D03*
X200000D02*
D03*
X266000Y514000D02*
D03*
X247000Y486000D02*
D03*
X167000Y551000D02*
D03*
X159000D02*
D03*
X217000Y334000D02*
D03*
X237000Y333000D02*
D03*
M02*
