G04 Layer_Color=8421504*
%FSLAX44Y44*%
%MOMM*%
G71*
G01*
G75*
%ADD10R,1.6000X0.9000*%
%ADD11R,1.0000X1.0000*%
%ADD12R,0.3000X1.5500*%
%ADD13R,0.6000X0.5000*%
%ADD14R,1.2000X0.2000*%
%ADD15R,0.2000X1.2000*%
%ADD16R,2.9000X2.9000*%
%ADD17R,2.9000X2.9000*%
%ADD18R,0.4000X0.8000*%
%ADD19O,0.3000X0.2000*%
%ADD20C,0.8000*%
%ADD21R,1.0000X1.0000*%
%ADD22R,1.5000X1.2000*%
%ADD23R,1.1000X0.6000*%
%ADD24R,1.2200X0.6200*%
%ADD25R,0.6200X1.2200*%
%ADD26R,1.2500X2.0000*%
%ADD27O,0.2000X0.3000*%
%ADD28R,2.0000X0.2500*%
%ADD29R,2.0000X1.8000*%
%ADD30R,1.2000X1.6300*%
%ADD31R,0.2500X1.0000*%
%ADD32R,1.0000X0.2500*%
%ADD33R,0.9000X1.6000*%
%ADD34R,2.0000X1.5000*%
%ADD35R,2.0000X0.9000*%
%ADD36R,2.0000X0.8000*%
%ADD37R,2.0000X0.7000*%
D10*
X252000Y313000D02*
D03*
Y359000D02*
D03*
X216000Y313000D02*
D03*
Y359000D02*
D03*
D11*
X327970Y340000D02*
D03*
X310000D02*
D03*
X325860Y369000D02*
D03*
X307890D02*
D03*
X315860Y479000D02*
D03*
X297890D02*
D03*
X315860Y465000D02*
D03*
X297890D02*
D03*
X157140Y521000D02*
D03*
X175110D02*
D03*
X157140Y537000D02*
D03*
X175110D02*
D03*
X309910Y326130D02*
D03*
X327880D02*
D03*
X207820Y609340D02*
D03*
X225790D02*
D03*
X207820Y625850D02*
D03*
X225790D02*
D03*
X207140Y380000D02*
D03*
X225110D02*
D03*
X207140Y449000D02*
D03*
X225110D02*
D03*
X682140Y544000D02*
D03*
X700110D02*
D03*
X309910Y312160D02*
D03*
X327880D02*
D03*
X299860Y609000D02*
D03*
X281890D02*
D03*
X385860Y509000D02*
D03*
X367890D02*
D03*
X309720Y529050D02*
D03*
X327690D02*
D03*
X274160D02*
D03*
X292130D02*
D03*
X385860Y609000D02*
D03*
X367890D02*
D03*
X483000Y721000D02*
D03*
X500970D02*
D03*
X483140Y735000D02*
D03*
X501110D02*
D03*
X732860Y647000D02*
D03*
X714890D02*
D03*
X142110Y537000D02*
D03*
X124140D02*
D03*
X142110Y521000D02*
D03*
X124140D02*
D03*
X749890Y720000D02*
D03*
X767860D02*
D03*
D12*
X250000Y393000D02*
D03*
X255000D02*
D03*
X260000D02*
D03*
X265000D02*
D03*
X270000D02*
D03*
X250000Y443000D02*
D03*
X270000D02*
D03*
X265000D02*
D03*
X260000D02*
D03*
X255000D02*
D03*
D13*
X296000Y495000D02*
D03*
X318000D02*
D03*
Y449000D02*
D03*
X296000D02*
D03*
D14*
X512000Y607000D02*
D03*
Y603000D02*
D03*
Y599000D02*
D03*
Y591000D02*
D03*
Y595000D02*
D03*
Y579000D02*
D03*
Y575000D02*
D03*
Y583000D02*
D03*
Y587000D02*
D03*
Y555000D02*
D03*
Y551000D02*
D03*
Y543000D02*
D03*
Y547000D02*
D03*
Y563000D02*
D03*
Y559000D02*
D03*
Y567000D02*
D03*
Y571000D02*
D03*
Y523000D02*
D03*
Y531000D02*
D03*
Y527000D02*
D03*
Y535000D02*
D03*
Y539000D02*
D03*
X616000Y591000D02*
D03*
Y595000D02*
D03*
Y603000D02*
D03*
Y599000D02*
D03*
Y607000D02*
D03*
Y559000D02*
D03*
Y563000D02*
D03*
Y571000D02*
D03*
Y567000D02*
D03*
Y583000D02*
D03*
Y587000D02*
D03*
Y579000D02*
D03*
Y575000D02*
D03*
Y543000D02*
D03*
Y547000D02*
D03*
Y555000D02*
D03*
Y551000D02*
D03*
Y535000D02*
D03*
Y539000D02*
D03*
Y531000D02*
D03*
Y527000D02*
D03*
Y523000D02*
D03*
D15*
X590000Y513000D02*
D03*
X594000D02*
D03*
X602000D02*
D03*
X598000D02*
D03*
X606000D02*
D03*
X558000D02*
D03*
X562000D02*
D03*
X570000D02*
D03*
X566000D02*
D03*
X582000D02*
D03*
X586000D02*
D03*
X578000D02*
D03*
X574000D02*
D03*
X542000D02*
D03*
X546000D02*
D03*
X554000D02*
D03*
X550000D02*
D03*
X534000D02*
D03*
X538000D02*
D03*
X530000D02*
D03*
X526000D02*
D03*
X522000D02*
D03*
X538000Y617000D02*
D03*
X534000D02*
D03*
X526000D02*
D03*
X530000D02*
D03*
X522000D02*
D03*
X570000D02*
D03*
X566000D02*
D03*
X558000D02*
D03*
X562000D02*
D03*
X546000D02*
D03*
X542000D02*
D03*
X550000D02*
D03*
X554000D02*
D03*
X586000D02*
D03*
X582000D02*
D03*
X574000D02*
D03*
X578000D02*
D03*
X594000D02*
D03*
X590000D02*
D03*
X598000D02*
D03*
X602000D02*
D03*
X606000D02*
D03*
D16*
X544950Y545950D02*
D03*
X583050Y584050D02*
D03*
D17*
Y545950D02*
D03*
X544950Y584050D02*
D03*
D18*
X406667Y608254D02*
D03*
X420129D02*
D03*
X320667Y579254D02*
D03*
X334129D02*
D03*
X400667Y508254D02*
D03*
X414129D02*
D03*
X324667Y603254D02*
D03*
X338129D02*
D03*
D19*
X692064Y378523D02*
D03*
Y371055D02*
D03*
X705064Y378222D02*
D03*
Y370754D02*
D03*
X718064Y378222D02*
D03*
Y370754D02*
D03*
X731064Y378222D02*
D03*
Y370754D02*
D03*
X581936Y648246D02*
D03*
Y640778D02*
D03*
D20*
X530000Y643000D02*
D03*
X514000D02*
D03*
X499000Y652000D02*
D03*
Y637000D02*
D03*
Y622000D02*
D03*
X702000Y727000D02*
D03*
X715000D02*
D03*
X728000D02*
D03*
X689000Y705000D02*
D03*
Y692000D02*
D03*
X717000Y661000D02*
D03*
X730000D02*
D03*
X311000Y598000D02*
D03*
X386000Y496000D02*
D03*
X311000Y580000D02*
D03*
X397000Y598000D02*
D03*
X265000Y374000D02*
D03*
X278000D02*
D03*
X641000Y439000D02*
D03*
X461000Y673000D02*
D03*
X559000Y643000D02*
D03*
D21*
X709000Y415140D02*
D03*
Y433110D02*
D03*
X695000Y415140D02*
D03*
Y433110D02*
D03*
X584760Y439090D02*
D03*
Y457060D02*
D03*
X612760Y438840D02*
D03*
Y456810D02*
D03*
X491490Y690360D02*
D03*
Y672390D02*
D03*
X519430Y690360D02*
D03*
Y672390D02*
D03*
X337760Y656110D02*
D03*
Y674080D02*
D03*
X425200Y557340D02*
D03*
Y575310D02*
D03*
X337760Y620550D02*
D03*
Y638520D02*
D03*
X425200Y523050D02*
D03*
Y541020D02*
D03*
X424120Y655800D02*
D03*
Y673770D02*
D03*
Y621510D02*
D03*
Y639480D02*
D03*
X656000Y537860D02*
D03*
Y519890D02*
D03*
X598730Y456810D02*
D03*
Y438840D02*
D03*
X626730Y456560D02*
D03*
Y438590D02*
D03*
X477520Y672640D02*
D03*
Y690610D02*
D03*
X505460Y672640D02*
D03*
Y690610D02*
D03*
X561340Y690360D02*
D03*
Y672390D02*
D03*
X533400Y690360D02*
D03*
Y672390D02*
D03*
X547370Y672640D02*
D03*
Y690610D02*
D03*
X319980Y620550D02*
D03*
Y638520D02*
D03*
X274260Y654840D02*
D03*
Y672810D02*
D03*
X406150Y523050D02*
D03*
Y541020D02*
D03*
X360620Y556740D02*
D03*
Y574710D02*
D03*
X332000Y563860D02*
D03*
Y545890D02*
D03*
X406340Y621510D02*
D03*
Y639480D02*
D03*
X361000Y656140D02*
D03*
Y674110D02*
D03*
X683000Y652140D02*
D03*
Y670110D02*
D03*
X668000Y652140D02*
D03*
Y670110D02*
D03*
X653000Y652140D02*
D03*
Y670110D02*
D03*
X613000Y652030D02*
D03*
Y670000D02*
D03*
X598000Y652030D02*
D03*
Y670000D02*
D03*
X638000Y652140D02*
D03*
Y670110D02*
D03*
X697000Y669860D02*
D03*
Y651890D02*
D03*
X425000Y474860D02*
D03*
Y456890D02*
D03*
X410000Y474860D02*
D03*
Y456890D02*
D03*
X395000Y474860D02*
D03*
Y456890D02*
D03*
X571000Y456860D02*
D03*
Y438890D02*
D03*
X557000Y456860D02*
D03*
Y438890D02*
D03*
X443000Y611140D02*
D03*
Y629110D02*
D03*
X457000Y611140D02*
D03*
Y629110D02*
D03*
X471000Y611140D02*
D03*
Y629110D02*
D03*
X485000Y611140D02*
D03*
Y629110D02*
D03*
X357000Y484110D02*
D03*
Y466140D02*
D03*
X343000Y465890D02*
D03*
Y483860D02*
D03*
X271000Y484860D02*
D03*
Y466890D02*
D03*
X256000Y467140D02*
D03*
Y485110D02*
D03*
X289000Y407860D02*
D03*
Y389890D02*
D03*
D22*
X700178Y507902D02*
D03*
Y527206D02*
D03*
X677572D02*
D03*
Y507902D02*
D03*
D23*
X293010Y664970D02*
D03*
Y674470D02*
D03*
Y655470D02*
D03*
X319010Y674470D02*
D03*
Y655470D02*
D03*
X379180Y566200D02*
D03*
Y575700D02*
D03*
Y556700D02*
D03*
X405180Y575700D02*
D03*
Y556700D02*
D03*
X287800Y554480D02*
D03*
Y563980D02*
D03*
Y544980D02*
D03*
X313800Y563980D02*
D03*
Y544980D02*
D03*
X379370Y664660D02*
D03*
Y674160D02*
D03*
Y655160D02*
D03*
X405370Y674160D02*
D03*
Y655160D02*
D03*
D24*
X734900Y599500D02*
D03*
Y590000D02*
D03*
Y580500D02*
D03*
X761100Y590000D02*
D03*
Y580500D02*
D03*
Y599500D02*
D03*
D25*
X210500Y399900D02*
D03*
X220000D02*
D03*
X229500D02*
D03*
X220000Y426100D02*
D03*
X229500D02*
D03*
X210500D02*
D03*
D26*
X275730Y629410D02*
D03*
X300730D02*
D03*
X361900Y530640D02*
D03*
X386900D02*
D03*
X362090Y630370D02*
D03*
X387090D02*
D03*
D27*
X275246Y563064D02*
D03*
X267778D02*
D03*
X275246Y550064D02*
D03*
X267778D02*
D03*
X304532Y398000D02*
D03*
X312000D02*
D03*
X304532Y411000D02*
D03*
X312000D02*
D03*
X304532Y385000D02*
D03*
X312000D02*
D03*
X304532Y424000D02*
D03*
X312000D02*
D03*
X303754Y510936D02*
D03*
X311222D02*
D03*
X320754Y435936D02*
D03*
X328222D02*
D03*
D28*
X179420Y425330D02*
D03*
Y465330D02*
D03*
Y457830D02*
D03*
Y445330D02*
D03*
Y420330D02*
D03*
Y407830D02*
D03*
Y400330D02*
D03*
Y402830D02*
D03*
Y415330D02*
D03*
Y410330D02*
D03*
Y440330D02*
D03*
Y450330D02*
D03*
Y455330D02*
D03*
Y462830D02*
D03*
Y435330D02*
D03*
Y430330D02*
D03*
D29*
X126334Y486460D02*
D03*
X168134D02*
D03*
X168706Y379200D02*
D03*
X126334D02*
D03*
D30*
X229500Y591000D02*
D03*
X208500D02*
D03*
X227500Y468000D02*
D03*
X206500D02*
D03*
D31*
X725000Y707000D02*
D03*
X730000D02*
D03*
X720000D02*
D03*
X730000Y679000D02*
D03*
X720000D02*
D03*
X725000D02*
D03*
D32*
X711000Y693000D02*
D03*
Y698000D02*
D03*
Y688000D02*
D03*
Y703000D02*
D03*
Y683000D02*
D03*
X739000Y703000D02*
D03*
Y683000D02*
D03*
Y698000D02*
D03*
Y688000D02*
D03*
Y693000D02*
D03*
D33*
X550000Y726000D02*
D03*
X596000D02*
D03*
D34*
X168088Y565422D02*
D03*
X130088D02*
D03*
X168312Y670578D02*
D03*
X130312D02*
D03*
D35*
X172000Y645500D02*
D03*
Y590500D02*
D03*
D36*
Y633200D02*
D03*
Y602800D02*
D03*
D37*
Y613000D02*
D03*
Y623000D02*
D03*
M02*
