G04 Layer_Color=128*
%FSLAX44Y44*%
%MOMM*%
G71*
G01*
G75*
%ADD11R,1.0000X1.0000*%
%ADD19O,0.3000X0.2000*%
%ADD20C,0.8000*%
%ADD21R,1.0000X1.0000*%
%ADD74O,0.8000X1.5000*%
%ADD75R,0.6000X2.0000*%
%ADD76O,0.6000X2.0000*%
%ADD77R,1.2000X0.4000*%
%ADD78R,0.7000X1.6000*%
%ADD79R,1.6000X2.1500*%
%ADD80R,1.4000X1.6000*%
%ADD81R,1.2000X1.4000*%
%ADD82R,2.0000X1.6000*%
%ADD83R,0.5000X1.3000*%
%ADD84O,1.3000X2.0000*%
D11*
X751860Y601000D02*
D03*
X733890D02*
D03*
X751860Y581000D02*
D03*
X733890D02*
D03*
X741860Y502000D02*
D03*
X723890D02*
D03*
D19*
X179936Y551222D02*
D03*
Y543754D02*
D03*
Y521222D02*
D03*
Y513754D02*
D03*
D20*
X556343Y658000D02*
D03*
X156000Y625000D02*
D03*
Y611000D02*
D03*
D21*
X534000Y503860D02*
D03*
Y485890D02*
D03*
X520000Y503860D02*
D03*
Y485890D02*
D03*
X502000Y503860D02*
D03*
Y485890D02*
D03*
X489000Y503860D02*
D03*
Y485890D02*
D03*
X475000Y503860D02*
D03*
Y485890D02*
D03*
D74*
X673000Y565000D02*
D03*
X695000D02*
D03*
X684000D02*
D03*
X706000D02*
D03*
D75*
X617950Y459000D02*
D03*
D76*
X630650D02*
D03*
X643350D02*
D03*
X656050D02*
D03*
X617950Y405000D02*
D03*
X630650D02*
D03*
X643350D02*
D03*
X656050D02*
D03*
D77*
X723028Y531650D02*
D03*
Y544350D02*
D03*
Y518950D02*
D03*
Y557050D02*
D03*
X782972Y518950D02*
D03*
Y557050D02*
D03*
Y531650D02*
D03*
Y544350D02*
D03*
D78*
X590000Y631000D02*
D03*
X601000D02*
D03*
X667000D02*
D03*
X656000D02*
D03*
X678000D02*
D03*
X645000D02*
D03*
X634000D02*
D03*
X623000D02*
D03*
X612000D02*
D03*
D79*
X736000Y735000D02*
D03*
X578500D02*
D03*
D80*
X724500Y640000D02*
D03*
D81*
X578000D02*
D03*
D82*
X284000Y343000D02*
D03*
X190000D02*
D03*
D83*
X262000Y316200D02*
D03*
X252000D02*
D03*
X242000D02*
D03*
X232000D02*
D03*
X222000D02*
D03*
X212000D02*
D03*
D84*
X257000Y339000D02*
D03*
X217000D02*
D03*
X237000D02*
D03*
M02*
